<svg width="373" height="423" viewBox="0 0 373 423" fill="none" xmlns="http://www.w3.org/2000/svg">
<g filter="url(#filter0_d_117_2178)">
<rect x="35" y="29" width="303" height="353" rx="30" fill="white"/>
</g>
<path d="M70.78 278.666H74.5V290.706H76.78V278.666H80.48V276.806H70.78V278.666ZM82.0291 285.146C82.0291 288.546 84.3291 290.886 87.1891 290.886C89.0291 290.886 90.3491 290.006 91.0491 289.066V290.706H93.3491V279.686H91.0491V281.286C90.3691 280.386 89.0891 279.506 87.2291 279.506C84.3291 279.506 82.0291 281.746 82.0291 285.146ZM91.0491 285.186C91.0491 287.566 89.4291 288.906 87.7091 288.906C86.0091 288.906 84.3691 287.526 84.3691 285.146C84.3691 282.766 86.0091 281.486 87.7091 281.486C89.4291 281.486 91.0491 282.826 91.0491 285.186ZM96.3438 290.706H98.6238V285.966L102.704 290.706H105.784L100.704 285.206L105.784 279.686H102.624L98.6238 284.506V275.906H96.3438V290.706ZM112.058 281.426C113.758 281.426 115.098 282.506 115.138 284.206H109.038C109.278 282.466 110.518 281.426 112.058 281.426ZM117.218 287.426H114.758C114.338 288.286 113.558 288.966 112.158 288.966C110.478 288.966 109.178 287.866 109.018 286.046H117.438C117.498 285.666 117.518 285.306 117.518 284.926C117.518 281.686 115.298 279.506 112.158 279.506C108.898 279.506 106.658 281.726 106.658 285.186C106.658 288.646 108.998 290.886 112.158 290.886C114.858 290.886 116.598 289.346 117.218 287.426ZM129.297 288.086L126.197 279.686H123.657L127.997 290.526L125.757 295.886H128.117L134.877 279.686H132.517L129.297 288.086ZM147.098 285.186C147.098 281.726 144.618 279.506 141.478 279.506C138.338 279.506 135.858 281.726 135.858 285.186C135.858 288.646 138.238 290.886 141.378 290.886C144.538 290.886 147.098 288.646 147.098 285.186ZM138.178 285.186C138.178 282.686 139.718 281.486 141.438 281.486C143.138 281.486 144.758 282.686 144.758 285.186C144.758 287.686 143.078 288.906 141.378 288.906C139.658 288.906 138.178 287.686 138.178 285.186ZM159.332 279.686H157.052V285.826C157.052 287.846 155.952 288.886 154.272 288.886C152.612 288.886 151.512 287.846 151.512 285.826V279.686H149.252V286.166C149.252 289.246 151.212 290.866 153.792 290.866C155.092 290.866 156.332 290.326 157.052 289.386V290.706H159.332V279.686ZM164.62 284.906C164.62 282.566 165.66 281.866 167.34 281.866H167.92V279.506C166.36 279.506 165.26 280.186 164.62 281.286V279.686H162.34V290.706H164.62V284.906ZM174.451 285.186C174.451 288.646 176.691 290.886 179.851 290.886C182.551 290.886 184.311 289.386 184.931 287.226H182.471C182.051 288.366 181.211 288.966 179.851 288.966C178.011 288.966 176.791 287.606 176.791 285.186C176.791 282.786 178.011 281.426 179.851 281.426C181.211 281.426 182.091 282.106 182.471 283.166H184.931C184.311 280.846 182.551 279.506 179.851 279.506C176.691 279.506 174.451 281.746 174.451 285.186ZM191.843 281.426C193.543 281.426 194.883 282.506 194.923 284.206H188.823C189.063 282.466 190.303 281.426 191.843 281.426ZM197.003 287.426H194.543C194.123 288.286 193.343 288.966 191.943 288.966C190.263 288.966 188.963 287.866 188.803 286.046H197.223C197.283 285.666 197.303 285.306 197.303 284.926C197.303 281.686 195.083 279.506 191.943 279.506C188.683 279.506 186.443 281.726 186.443 285.186C186.443 288.646 188.783 290.886 191.943 290.886C194.643 290.886 196.383 289.346 197.003 287.426ZM201.827 284.906C201.827 282.566 202.867 281.866 204.547 281.866H205.127V279.506C203.567 279.506 202.467 280.186 201.827 281.286V279.686H199.547V290.706H201.827V284.906ZM207.583 287.646C207.583 289.886 208.803 290.706 210.763 290.706H212.563V288.806H211.163C210.203 288.806 209.883 288.466 209.883 287.646V281.546H212.563V279.686H209.883V276.946H207.583V279.686H206.283V281.546H207.583V287.646ZM214.664 290.706H216.944V279.686H214.664V290.706ZM215.824 278.226C216.624 278.226 217.264 277.586 217.264 276.766C217.264 275.946 216.624 275.306 215.824 275.306C215.004 275.306 214.364 275.946 214.364 276.766C214.364 277.586 215.004 278.226 215.824 278.226ZM220.218 290.706H222.518V281.546H224.558V279.686H222.518V278.906C222.518 277.646 222.998 277.166 224.398 277.166V275.266C221.518 275.266 220.218 276.366 220.218 278.906V279.686H218.918V281.546H220.218V290.706ZM226.578 290.706H228.858V279.686H226.578V290.706ZM227.738 278.226C228.538 278.226 229.178 277.586 229.178 276.766C229.178 275.946 228.538 275.306 227.738 275.306C226.918 275.306 226.278 275.946 226.278 276.766C226.278 277.586 226.918 278.226 227.738 278.226ZM231.092 285.186C231.092 288.646 233.332 290.886 236.492 290.886C239.192 290.886 240.952 289.386 241.572 287.226H239.112C238.692 288.366 237.852 288.966 236.492 288.966C234.652 288.966 233.432 287.606 233.432 285.186C233.432 282.786 234.652 281.426 236.492 281.426C237.852 281.426 238.732 282.106 239.112 283.166H241.572C240.952 280.846 239.192 279.506 236.492 279.506C233.332 279.506 231.092 281.746 231.092 285.186ZM243.084 285.146C243.084 288.546 245.384 290.886 248.244 290.886C250.084 290.886 251.404 290.006 252.104 289.066V290.706H254.404V279.686H252.104V281.286C251.424 280.386 250.144 279.506 248.284 279.506C245.384 279.506 243.084 281.746 243.084 285.146ZM252.104 285.186C252.104 287.566 250.484 288.906 248.764 288.906C247.064 288.906 245.424 287.526 245.424 285.146C245.424 282.766 247.064 281.486 248.764 281.486C250.484 281.486 252.104 282.826 252.104 285.186ZM257.758 287.646C257.758 289.886 258.978 290.706 260.938 290.706H262.738V288.806H261.338C260.378 288.806 260.058 288.466 260.058 287.646V281.546H262.738V279.686H260.058V276.946H257.758V279.686H256.458V281.546H257.758V287.646ZM264.84 290.706H267.12V279.686H264.84V290.706ZM266 278.226C266.8 278.226 267.44 277.586 267.44 276.766C267.44 275.946 266.8 275.306 266 275.306C265.18 275.306 264.54 275.946 264.54 276.766C264.54 277.586 265.18 278.226 266 278.226ZM280.613 285.186C280.613 281.726 278.133 279.506 274.993 279.506C271.853 279.506 269.373 281.726 269.373 285.186C269.373 288.646 271.753 290.886 274.893 290.886C278.053 290.886 280.613 288.646 280.613 285.186ZM271.693 285.186C271.693 282.686 273.233 281.486 274.953 281.486C276.653 281.486 278.273 282.686 278.273 285.186C278.273 287.686 276.593 288.906 274.893 288.906C273.173 288.906 271.693 287.686 271.693 285.186ZM290.687 290.706H292.947V284.206C292.947 281.126 291.007 279.506 288.427 279.506C287.107 279.506 285.887 280.046 285.147 280.946V279.686H282.867V290.706H285.147V284.546C285.147 282.526 286.247 281.486 287.927 281.486C289.587 281.486 290.687 282.526 290.687 284.546V290.706ZM70.74 315.146C70.74 318.546 73.04 320.886 75.9 320.886C77.74 320.886 79.06 320.006 79.76 319.066V320.706H82.06V309.686H79.76V311.286C79.08 310.386 77.8 309.506 75.94 309.506C73.04 309.506 70.74 311.746 70.74 315.146ZM79.76 315.186C79.76 317.566 78.14 318.906 76.42 318.906C74.72 318.906 73.08 317.526 73.08 315.146C73.08 312.766 74.72 311.486 76.42 311.486C78.14 311.486 79.76 312.826 79.76 315.186ZM93.2747 317.626C93.1547 313.646 86.9347 314.886 86.9347 312.666C86.9347 311.926 87.5747 311.426 88.7947 311.426C90.0347 311.426 90.7747 312.086 90.8547 313.046H93.1347C93.0147 310.846 91.3747 309.506 88.8747 309.506C86.2747 309.506 84.6347 310.926 84.6347 312.686C84.6347 316.726 91.0347 315.486 91.0347 317.646C91.0347 318.406 90.3347 318.966 89.0147 318.966C87.7547 318.966 86.8947 318.226 86.8147 317.326H84.4547C84.5547 319.326 86.4147 320.886 89.0547 320.886C91.6547 320.886 93.2747 319.486 93.2747 317.626ZM103.958 317.626C103.838 313.646 97.6183 314.886 97.6183 312.666C97.6183 311.926 98.2583 311.426 99.4783 311.426C100.718 311.426 101.458 312.086 101.538 313.046H103.818C103.698 310.846 102.058 309.506 99.5583 309.506C96.9583 309.506 95.3183 310.926 95.3183 312.686C95.3183 316.726 101.718 315.486 101.718 317.646C101.718 318.406 101.018 318.966 99.6983 318.966C98.4383 318.966 97.5783 318.226 97.4983 317.326H95.1383C95.2383 319.326 97.0983 320.886 99.7383 320.886C102.338 320.886 103.958 319.486 103.958 317.626ZM111.062 311.426C112.762 311.426 114.102 312.506 114.142 314.206H108.042C108.282 312.466 109.522 311.426 111.062 311.426ZM116.222 317.426H113.762C113.342 318.286 112.562 318.966 111.162 318.966C109.482 318.966 108.182 317.866 108.022 316.046H116.442C116.502 315.666 116.522 315.306 116.522 314.926C116.522 311.686 114.302 309.506 111.162 309.506C107.902 309.506 105.662 311.726 105.662 315.186C105.662 318.646 108.002 320.886 111.162 320.886C113.862 320.886 115.602 319.346 116.222 317.426ZM126.986 317.626C126.866 313.646 120.646 314.886 120.646 312.666C120.646 311.926 121.286 311.426 122.506 311.426C123.746 311.426 124.486 312.086 124.566 313.046H126.846C126.726 310.846 125.086 309.506 122.586 309.506C119.986 309.506 118.346 310.926 118.346 312.686C118.346 316.726 124.746 315.486 124.746 317.646C124.746 318.406 124.046 318.966 122.726 318.966C121.466 318.966 120.606 318.226 120.526 317.326H118.166C118.266 319.326 120.126 320.886 122.766 320.886C125.366 320.886 126.986 319.486 126.986 317.626ZM137.669 317.626C137.549 313.646 131.329 314.886 131.329 312.666C131.329 311.926 131.969 311.426 133.189 311.426C134.429 311.426 135.169 312.086 135.249 313.046H137.529C137.409 310.846 135.769 309.506 133.269 309.506C130.669 309.506 129.029 310.926 129.029 312.686C129.029 316.726 135.429 315.486 135.429 317.646C135.429 318.406 134.729 318.966 133.409 318.966C132.149 318.966 131.289 318.226 131.209 317.326H128.849C128.949 319.326 130.809 320.886 133.449 320.886C136.049 320.886 137.669 319.486 137.669 317.626ZM155.753 320.706H158.013V314.206C158.013 311.126 156.053 309.506 153.473 309.506C151.873 309.506 150.313 310.346 149.633 311.686C148.873 310.246 147.413 309.506 145.673 309.506C144.353 309.506 143.153 310.046 142.413 310.946V309.686H140.133V320.706H142.413V314.546C142.413 312.526 143.513 311.486 145.193 311.486C146.853 311.486 147.953 312.526 147.953 314.546V320.706H150.213V314.546C150.213 312.526 151.313 311.486 152.993 311.486C154.653 311.486 155.753 312.526 155.753 314.546V320.706ZM165.554 311.426C167.254 311.426 168.594 312.506 168.634 314.206H162.534C162.774 312.466 164.014 311.426 165.554 311.426ZM170.714 317.426H168.254C167.834 318.286 167.054 318.966 165.654 318.966C163.974 318.966 162.674 317.866 162.514 316.046H170.934C170.994 315.666 171.014 315.306 171.014 314.926C171.014 311.686 168.794 309.506 165.654 309.506C162.394 309.506 160.154 311.726 160.154 315.186C160.154 318.646 162.494 320.886 165.654 320.886C168.354 320.886 170.094 319.346 170.714 317.426ZM181.078 320.706H183.338V314.206C183.338 311.126 181.398 309.506 178.818 309.506C177.498 309.506 176.278 310.046 175.538 310.946V309.686H173.258V320.706H175.538V314.546C175.538 312.526 176.638 311.486 178.318 311.486C179.978 311.486 181.078 312.526 181.078 314.546V320.706ZM186.606 317.646C186.606 319.886 187.826 320.706 189.786 320.706H191.586V318.806H190.186C189.226 318.806 188.906 318.466 188.906 317.646V311.546H191.586V309.686H188.906V306.946H186.606V309.686H185.306V311.546H186.606V317.646Z" fill="black"/>
<path d="M80.3015 262.58C80.3015 257.936 73.5335 259.952 73.5335 256.712C73.5335 255.362 74.5955 254.66 75.9455 254.696C77.4755 254.714 78.2675 255.668 78.3755 256.514H80.1755C79.9775 254.606 78.4115 253.292 76.0175 253.292C73.5335 253.292 71.8595 254.696 71.8595 256.766C71.8595 261.428 78.6455 259.268 78.6455 262.652C78.6455 263.84 77.7095 264.74 76.1255 264.74C74.3795 264.74 73.6415 263.696 73.5335 262.652H71.7875C71.8235 264.722 73.6055 266.126 76.1255 266.126C78.8435 266.126 80.3015 264.362 80.3015 262.58ZM83.0719 263.3C83.0719 265.28 84.0619 266 85.8079 266H87.2839V264.614H86.0779C85.0699 264.614 84.7099 264.272 84.7099 263.3V257.486H87.2839V256.136H84.7099V253.652H83.0719V256.136H81.7939V257.486H83.0719V263.3ZM93.4626 257.36C95.1546 257.36 96.5946 258.422 96.5766 260.348H90.3486C90.5286 258.422 91.8606 257.36 93.4626 257.36ZM98.0706 262.958H96.3066C95.9466 264.02 95.0106 264.776 93.5346 264.776C91.8606 264.776 90.4566 263.678 90.3306 261.68H98.2146C98.2506 261.338 98.2686 261.05 98.2686 260.69C98.2686 257.99 96.3966 255.974 93.5346 255.974C90.6546 255.974 88.6566 257.936 88.6566 261.05C88.6566 264.182 90.7266 266.162 93.5346 266.162C95.9826 266.162 97.5666 264.758 98.0706 262.958ZM102.069 257.954V256.136H100.431V270.68H102.069V264.182C102.681 265.19 103.959 266.162 105.759 266.162C108.405 266.162 110.439 264.092 110.439 261.032C110.439 257.954 108.405 255.974 105.759 255.974C103.959 255.974 102.663 256.91 102.069 257.954ZM108.765 261.032C108.765 263.354 107.235 264.722 105.417 264.722C103.635 264.722 102.069 263.372 102.069 261.05C102.069 258.764 103.635 257.396 105.417 257.396C107.235 257.396 108.765 258.71 108.765 261.032ZM117.754 263.3C117.754 265.28 118.744 266 120.49 266H121.966V264.614H120.76C119.752 264.614 119.392 264.272 119.392 263.3V257.486H121.966V256.136H119.392V253.652H117.754V256.136H116.476V257.486H117.754V263.3ZM123.95 266H125.588V260.546C125.588 258.422 126.74 257.378 128.414 257.378C130.07 257.378 131.168 258.404 131.168 260.42V266H132.788V260.186C132.788 257.36 131.042 255.956 128.846 255.956C127.46 255.956 126.236 256.514 125.588 257.558V252.68H123.95V266ZM137.102 260.636C137.102 258.35 138.29 257.648 139.856 257.648H140.288V255.956C138.722 255.956 137.66 256.64 137.102 257.738V256.136H135.464V266H137.102V260.636ZM146.373 257.36C148.065 257.36 149.505 258.422 149.487 260.348H143.259C143.439 258.422 144.771 257.36 146.373 257.36ZM150.981 262.958H149.217C148.857 264.02 147.921 264.776 146.445 264.776C144.771 264.776 143.367 263.678 143.241 261.68H151.125C151.161 261.338 151.179 261.05 151.179 260.69C151.179 257.99 149.307 255.974 146.445 255.974C143.565 255.974 141.567 257.936 141.567 261.05C141.567 264.182 143.637 266.162 146.445 266.162C148.893 266.162 150.477 264.758 150.981 262.958ZM157.535 257.36C159.227 257.36 160.667 258.422 160.649 260.348H154.421C154.601 258.422 155.933 257.36 157.535 257.36ZM162.143 262.958H160.379C160.019 264.02 159.083 264.776 157.607 264.776C155.933 264.776 154.529 263.678 154.403 261.68H162.287C162.323 261.338 162.341 261.05 162.341 260.69C162.341 257.99 160.469 255.974 157.607 255.974C154.727 255.974 152.729 257.936 152.729 261.05C152.729 264.182 154.799 266.162 157.607 266.162C160.055 266.162 161.639 264.758 162.143 262.958ZM166.105 264.992C166.105 264.362 165.619 263.876 165.025 263.876C164.395 263.876 163.909 264.362 163.909 264.992C163.909 265.622 164.395 266.108 165.025 266.108C165.619 266.108 166.105 265.622 166.105 264.992ZM166.105 257.288C166.105 256.658 165.619 256.172 165.025 256.172C164.395 256.172 163.909 256.658 163.909 257.288C163.909 257.918 164.395 258.404 165.025 258.404C165.619 258.404 166.105 257.918 166.105 257.288Z" fill="#828282"/>
<circle opacity="0.1" cx="186.5" cy="140.5" r="82.5" fill="#098ECE"/>
<g clip-path="url(#clip0_117_2178)">
<path d="M119.068 135.694C121.071 145.902 133.187 158.453 136.866 156.722C139.889 155.299 128.639 140.093 119.068 135.694Z" fill="#5B2448"/>
<path d="M144.546 136.921C143.249 144.911 139.293 149.853 135.364 152.964C135.32 153 135.274 153.036 135.23 153.07H135.229C132.099 155.492 128.445 157.146 124.561 157.901C124.557 157.903 124.553 157.903 124.548 157.904C124.482 157.915 124.418 157.927 124.358 157.938C124.261 157.954 124.172 157.969 124.089 157.983C123.646 158.053 123.397 158.074 123.397 158.074L123.227 157.194L119.068 135.694C120.317 135.517 121.568 135.382 122.802 135.298C122.802 135.298 126.644 125.614 125.615 115.173C124.586 104.731 122.59 97.9657 119.557 92.2343C116.636 86.7161 117.93 86.3871 120.26 89.0424C122.586 91.6933 123.668 92.8836 123.668 92.8836C123.668 92.8836 121.853 89.1885 120.963 87.2571C120.073 85.3257 120.182 84.0879 122.099 85.9051C124.016 87.7223 123.884 87.7986 124.695 88.7183C121.72 83.9031 122.54 83.1005 124.209 84.769C126.156 86.7166 127.021 87.9068 128.103 89.2053C127.022 86.933 126.048 84.1196 128.373 86.6117C131.17 89.6083 148.076 115.175 144.546 136.921Z" fill="#F4ADA2"/>
<path d="M127.021 92.6593C126.982 92.6593 126.944 92.6484 126.911 92.6278C126.878 92.6071 126.851 92.5776 126.834 92.5425C126.811 92.4963 124.559 87.9055 122.876 86.3273C122.836 86.2895 122.812 86.2374 122.811 86.1822C122.809 86.1271 122.829 86.0735 122.867 86.0333C122.904 85.993 122.957 85.9694 123.012 85.9676C123.067 85.9659 123.12 85.9861 123.161 86.0238C124.899 87.6542 127.114 92.1685 127.208 92.36C127.223 92.3917 127.23 92.4268 127.229 92.462C127.227 92.4972 127.216 92.5314 127.197 92.5614C127.179 92.5913 127.153 92.616 127.122 92.6331C127.091 92.6502 127.056 92.6592 127.021 92.6593H127.021Z" fill="#9B3C82"/>
<path d="M129.618 91.5768C129.58 91.5769 129.544 91.5668 129.511 91.5477C129.479 91.5286 129.453 91.5012 129.435 91.4684C129.422 91.4447 128.125 89.0731 126.742 87.05C126.726 87.0275 126.714 87.002 126.708 86.975C126.702 86.948 126.701 86.92 126.706 86.8928C126.711 86.8655 126.721 86.8395 126.736 86.8162C126.751 86.793 126.771 86.7729 126.793 86.7573C126.816 86.7417 126.842 86.7308 126.869 86.7252C126.896 86.7196 126.924 86.7195 126.951 86.7249C126.979 86.7303 127.004 86.741 127.027 86.7565C127.05 86.772 127.07 86.7919 127.085 86.815C128.481 88.856 129.788 91.2455 129.801 91.2692C129.818 91.3009 129.827 91.3365 129.826 91.3726C129.825 91.4086 129.815 91.4439 129.797 91.4749C129.778 91.506 129.752 91.5317 129.721 91.5495C129.69 91.5674 129.654 91.5768 129.618 91.5768H129.618Z" fill="#9B3C82"/>
<path d="M129.401 101.531C129.364 101.531 129.327 101.521 129.295 101.502C129.263 101.483 129.237 101.456 129.219 101.424C127.928 99.2298 126.359 97.2124 124.55 95.4219C123.228 94.1274 122.93 94.2394 122.9 94.2571C122.882 94.2675 122.731 94.3819 122.866 95.25C122.962 95.8693 123.167 96.6726 123.384 97.5232C123.581 98.292 123.784 99.087 123.926 99.8231C123.931 99.85 123.931 99.8775 123.926 99.9043C123.92 99.9311 123.91 99.9565 123.894 99.9791C123.879 100.002 123.859 100.021 123.837 100.036C123.814 100.051 123.788 100.062 123.762 100.067C123.735 100.072 123.707 100.072 123.68 100.066C123.654 100.061 123.628 100.05 123.606 100.035C123.583 100.02 123.564 100 123.548 99.9773C123.533 99.9545 123.523 99.929 123.518 99.9022C123.378 99.1781 123.176 98.3892 122.981 97.6261C122.427 95.4575 122.141 94.2149 122.692 93.8966C123.087 93.6693 123.729 94.0363 124.841 95.1248C126.679 96.9438 128.273 98.9936 129.584 101.223C129.601 101.255 129.61 101.29 129.609 101.326C129.609 101.362 129.599 101.398 129.581 101.429C129.562 101.46 129.536 101.486 129.505 101.504C129.473 101.522 129.438 101.531 129.402 101.531L129.401 101.531Z" fill="#9B3C82"/>
<path d="M125.723 135.723C125.7 135.723 125.676 135.719 125.654 135.711C124.578 135.378 123.452 135.23 122.326 135.273C122.299 135.274 122.272 135.27 122.246 135.26C122.22 135.251 122.197 135.237 122.177 135.218C122.156 135.2 122.14 135.177 122.129 135.153C122.117 135.128 122.11 135.101 122.109 135.074C122.108 135.046 122.112 135.019 122.122 134.994C122.131 134.968 122.145 134.944 122.164 134.924C122.182 134.904 122.205 134.888 122.229 134.876C122.254 134.865 122.281 134.858 122.308 134.857C123.487 134.808 124.666 134.964 125.792 135.318C125.838 135.334 125.877 135.366 125.902 135.409C125.927 135.451 125.936 135.501 125.928 135.549C125.92 135.598 125.894 135.642 125.857 135.673C125.819 135.705 125.772 135.722 125.723 135.722V135.723Z" fill="#9B3C82"/>
<path d="M135.364 152.964C135.32 153 135.274 153.036 135.23 153.07H135.229C132.099 155.492 128.445 157.146 124.561 157.901C124.557 157.903 124.553 157.903 124.548 157.904C124.482 157.916 124.418 157.927 124.358 157.938C124.261 157.954 124.172 157.969 124.089 157.983L123.227 157.194L119.068 135.694C121.899 143.205 130.245 150.918 135.364 152.964Z" fill="#9B3C82"/>
<path d="M84.0736 146.335C82.7755 148.932 77.9075 154.45 77.9075 154.45L85.9271 193.24L115.013 181.392C115.013 181.392 111.227 160.185 98.4616 145.902L84.0736 146.335Z" fill="#F94F46"/>
<path d="M88.401 181.284C79.2056 179.444 56.3796 186.802 57.6777 193.077C59.1079 199.991 88.401 181.284 88.401 181.284Z" fill="#5B2448"/>
<path d="M128.428 181.825C128.428 181.825 127.995 183.015 117.87 187.317C107.746 191.619 96.8389 204.222 82.5311 205.681C71.0196 206.855 64.8143 199.732 62.9633 192.494C62.5255 190.804 62.3264 189.062 62.3717 187.317C67.2257 183.468 71.4999 181.378 75.1088 180.342C80.0818 178.912 83.7902 179.481 86.009 180.199C87.5776 180.704 88.4006 181.284 88.4006 181.284L87.9678 183.123C91.0207 181.572 94.3223 180.195 97.6229 178.999C100.924 177.802 104.223 176.787 107.27 175.957C109.279 175.117 110.686 174.359 112.633 172.844C114.58 171.33 117.609 167.651 116.96 171.113C116.78 172.113 116.419 173.071 115.896 173.942C118.671 173.414 120.633 173.189 121.287 173.278C123.667 173.602 123.667 175.334 123.667 175.334C125.398 176.091 125.29 177.714 125.29 177.714C125.701 177.935 126.059 178.244 126.34 178.617C126.62 178.991 126.815 179.421 126.913 179.878C127.995 180.202 128.428 181.825 128.428 181.825Z" fill="#F4ADA2"/>
<path d="M106.25 176.19C106.2 176.19 106.151 176.172 106.113 176.139C106.075 176.105 106.051 176.059 106.044 176.009C106.037 175.959 106.049 175.909 106.077 175.867C106.105 175.825 106.147 175.794 106.196 175.781C109.879 174.776 113.035 174.107 116.376 173.398C116.403 173.392 116.431 173.391 116.458 173.395C116.486 173.4 116.512 173.41 116.535 173.425C116.559 173.44 116.579 173.459 116.595 173.482C116.61 173.504 116.621 173.53 116.627 173.557C116.633 173.584 116.633 173.612 116.628 173.639C116.623 173.667 116.612 173.692 116.597 173.716C116.582 173.739 116.562 173.758 116.539 173.774C116.516 173.789 116.49 173.8 116.463 173.805C113.127 174.513 109.976 175.181 106.305 176.182C106.287 176.187 106.269 176.19 106.25 176.19Z" fill="#9B3C82"/>
<path d="M119.71 175.949C119.664 175.949 119.62 175.934 119.583 175.906C119.547 175.878 119.521 175.839 119.509 175.795C119.497 175.751 119.5 175.705 119.517 175.662C119.534 175.62 119.565 175.584 119.604 175.561C121.5 174.445 123.306 174.704 124.074 175.033C124.124 175.056 124.163 175.097 124.183 175.148C124.203 175.198 124.202 175.255 124.181 175.305C124.159 175.356 124.119 175.395 124.068 175.416C124.018 175.437 123.961 175.436 123.91 175.416C123.214 175.117 121.568 174.887 119.815 175.92C119.783 175.939 119.747 175.949 119.71 175.949Z" fill="#9B3C82"/>
<path d="M121.234 178.516C121.189 178.516 121.145 178.502 121.109 178.475C121.073 178.448 121.047 178.411 121.034 178.368C121.021 178.325 121.023 178.279 121.038 178.237C121.053 178.195 121.082 178.159 121.119 178.134C122.764 177.056 124.669 176.957 125.699 177.415C125.724 177.426 125.747 177.442 125.766 177.461C125.784 177.481 125.799 177.505 125.809 177.53C125.819 177.556 125.823 177.583 125.823 177.61C125.822 177.637 125.816 177.664 125.805 177.689C125.794 177.714 125.778 177.737 125.758 177.756C125.738 177.774 125.715 177.789 125.689 177.799C125.664 177.809 125.637 177.814 125.609 177.813C125.582 177.812 125.555 177.806 125.53 177.795C124.625 177.392 122.851 177.497 121.347 178.482C121.314 178.504 121.274 178.516 121.234 178.516Z" fill="#9B3C82"/>
<path d="M123.019 180.734C122.973 180.734 122.929 180.719 122.893 180.692C122.856 180.664 122.83 180.626 122.818 180.582C122.806 180.538 122.809 180.491 122.826 180.449C122.843 180.407 122.873 180.371 122.912 180.348C124.21 179.573 125.759 179.239 127.055 179.455C127.11 179.465 127.158 179.495 127.191 179.54C127.223 179.585 127.235 179.64 127.226 179.695C127.217 179.749 127.187 179.798 127.142 179.83C127.097 179.862 127.041 179.875 126.987 179.866C125.785 179.666 124.342 179.979 123.125 180.705C123.093 180.724 123.056 180.734 123.019 180.734Z" fill="#9B3C82"/>
<path d="M76.393 190.472C76.3505 190.472 76.3089 190.459 76.274 190.435C76.2391 190.411 76.2124 190.376 76.1977 190.336C76.1829 190.296 76.1808 190.253 76.1916 190.212C76.2023 190.17 76.2255 190.134 76.2579 190.106C79.1577 187.635 84.0263 184.591 89.2813 181.963C89.3306 181.939 89.3877 181.935 89.4401 181.952C89.4924 181.97 89.5357 182.007 89.5603 182.056C89.585 182.106 89.5891 182.163 89.5716 182.215C89.5542 182.268 89.5167 182.311 89.4673 182.335C84.2406 184.949 79.4033 187.972 76.5276 190.423C76.4901 190.455 76.4424 190.472 76.393 190.472Z" fill="#9B3C82"/>
<path d="M99.3798 116.578C98.7815 116.407 98.1512 116.38 97.5405 116.5C96.9299 116.62 96.3564 116.883 95.8671 117.268C93.9331 113.602 88.9078 115.254 88.7622 118.345C84.6841 116.292 81.0591 121.108 83.1346 124.094C83.8966 125.19 85.2558 127.525 85.0974 129.656C86.9873 130.12 91.0381 133.771 91.0381 133.771C91.0381 133.771 97.2354 124.819 100.041 123.363C103.543 121.545 101.964 117.379 99.3798 116.578Z" fill="#5B2448"/>
<path d="M94.3752 119.724C94.3641 119.724 94.3531 119.723 94.3421 119.722C94.3082 119.717 94.2755 119.706 94.2458 119.689C94.2161 119.672 94.1901 119.65 94.1692 119.623C94.1483 119.596 94.1329 119.565 94.1239 119.532C94.115 119.499 94.1126 119.464 94.117 119.43C94.4126 117.108 96.6247 116.188 96.7187 116.15C96.7826 116.124 96.8542 116.125 96.9177 116.152C96.9812 116.179 97.0314 116.23 97.0572 116.294C97.0831 116.358 97.0825 116.429 97.0556 116.493C97.0287 116.556 96.9777 116.607 96.9138 116.632C96.8857 116.644 94.8889 117.485 94.6329 119.496C94.625 119.559 94.5945 119.617 94.547 119.659C94.4996 119.701 94.4385 119.724 94.3752 119.724Z" fill="#9B3C82"/>
<path d="M105.283 134.573C105.596 135.626 105.263 136.862 104.271 137.733C101.69 140 97.6506 139.922 97.6506 139.922C97.6506 139.922 97.6619 142.184 98.4617 145.902C98.7862 153.909 86.7782 149.473 84.0737 146.335C84.0737 146.335 86.5618 141.466 87.5021 136.997C85.3759 137.158 81.7157 135.672 81.6283 132.762C81.5786 131.103 82.9992 129.437 84.7582 129.563C86.4661 129.686 87.2812 130.518 88.8785 131.654C90.361 132.708 90.5558 131.898 91.0238 130.143C91.4109 128.746 92.0566 127.433 92.9273 126.273C94.4264 124.349 97.7728 123.602 100.041 123.363C100.397 125.048 100.865 126.708 101.44 128.332C102.439 131.186 104.552 132.115 105.283 134.573Z" fill="#F4ADA2"/>
<path d="M92.9511 127.884L92.9199 127.711C92.9117 127.657 92.9055 127.604 92.9022 127.551C92.8946 127.447 92.8943 127.342 92.9013 127.237C92.9152 127.028 92.954 126.821 93.0169 126.621C93.1476 126.2 93.3761 125.815 93.6838 125.499C93.8443 125.331 94.0271 125.186 94.2271 125.067C94.4296 124.948 94.6492 124.86 94.8782 124.807C95.1025 124.754 95.3341 124.74 95.5631 124.765C95.7879 124.786 96.0056 124.855 96.2019 124.967C96.2737 125.008 96.3346 125.066 96.3798 125.135C96.4249 125.205 96.4531 125.284 96.4618 125.366C96.4705 125.448 96.4597 125.532 96.4301 125.609C96.4005 125.686 96.353 125.756 96.2915 125.811L96.2187 125.876C96.0749 126.005 95.9484 126.092 95.8377 126.186C95.7249 126.272 95.6297 126.358 95.539 126.433C95.361 126.587 95.2056 126.717 95.0341 126.87C94.8636 127.02 94.6894 127.199 94.4946 127.4L94.1899 127.721C94.1379 127.777 94.0813 127.835 94.0241 127.893C93.8979 128.032 93.7367 128.136 93.557 128.192C93.4634 128.222 93.364 128.229 93.2672 128.212C93.2028 128.198 93.1426 128.169 93.0919 128.127C93.0413 128.085 93.0018 128.031 92.9768 127.97C92.9654 127.942 92.9568 127.914 92.9511 127.884Z" fill="#5B2448"/>
<path d="M94.1211 129.161C94.5834 128.957 95.7039 128.494 96.6686 127.718C96.7008 127.692 96.7378 127.672 96.7775 127.661C96.8172 127.649 96.8587 127.646 96.8998 127.65C96.9409 127.655 96.9806 127.668 97.0167 127.688C97.0529 127.708 97.0846 127.735 97.1102 127.767C97.3887 128.119 97.738 128.766 97.0126 129.21C96.1214 129.756 94.5044 129.779 94.0804 129.43C94.0597 129.412 94.0439 129.389 94.0344 129.364C94.025 129.338 94.0221 129.311 94.0262 129.284C94.0303 129.257 94.0411 129.232 94.0577 129.21C94.0743 129.188 94.0962 129.171 94.1211 129.161Z" fill="#5B2448"/>
<path d="M100.525 126.806C100.048 126.972 99.6778 127.012 98.7583 127.091C98.7172 127.094 98.6771 127.105 98.6402 127.124C98.6034 127.143 98.5706 127.168 98.5437 127.2C98.5168 127.231 98.4963 127.267 98.4834 127.306C98.4705 127.346 98.4654 127.387 98.4685 127.428C98.5034 127.875 98.8103 128.269 99.5259 128.198C100.323 128.119 100.689 127.441 100.738 126.976C100.741 126.949 100.737 126.922 100.727 126.897C100.716 126.872 100.7 126.85 100.678 126.833C100.657 126.816 100.632 126.805 100.605 126.8C100.578 126.795 100.551 126.798 100.525 126.806Z" fill="#5B2448"/>
<path d="M86.9281 137.583C86.6394 137.589 86.3514 137.553 86.0732 137.475C86.0408 137.465 86.0107 137.448 85.9847 137.426C85.9587 137.404 85.9373 137.377 85.9217 137.346C85.9062 137.316 85.8968 137.283 85.894 137.249C85.8913 137.215 85.8953 137.18 85.9058 137.148C85.9163 137.115 85.9331 137.085 85.9552 137.059C85.9773 137.033 86.0043 137.012 86.0347 136.996C86.0651 136.981 86.0983 136.971 86.1323 136.969C86.1663 136.966 86.2006 136.97 86.2331 136.98C86.2515 136.986 87.3839 137.326 88.8429 136.562C88.904 136.53 88.9753 136.524 89.0411 136.545C89.1069 136.565 89.1619 136.611 89.1938 136.672C89.2258 136.733 89.2322 136.805 89.2116 136.87C89.191 136.936 89.1452 136.991 89.0841 137.023C88.4215 137.382 87.6815 137.574 86.9281 137.583Z" fill="#9B3C82"/>
<path d="M101.954 124.604L101.877 124.464C101.852 124.422 101.826 124.381 101.798 124.342C101.744 124.265 101.684 124.191 101.619 124.122C101.49 123.983 101.345 123.861 101.187 123.757C100.854 123.537 100.475 123.398 100.079 123.353C99.8701 123.327 99.659 123.329 99.4513 123.361C99.2413 123.393 99.0374 123.457 98.8467 123.551C98.6595 123.642 98.4894 123.764 98.3434 123.913C98.1981 124.056 98.0849 124.229 98.0114 124.419C97.9848 124.489 97.9752 124.564 97.9832 124.639C97.9913 124.713 98.0169 124.785 98.0578 124.847C98.0987 124.91 98.1539 124.962 98.2188 124.999C98.2837 125.037 98.3565 125.058 98.4312 125.062L98.5193 125.066C98.6934 125.073 98.8321 125.062 98.963 125.064C99.0913 125.06 99.2073 125.066 99.3133 125.067C99.526 125.073 99.7093 125.075 99.9164 125.084C100.122 125.091 100.346 125.117 100.597 125.146L100.994 125.196C101.063 125.206 101.135 125.214 101.208 125.222C101.376 125.248 101.548 125.228 101.706 125.165C101.789 125.132 101.862 125.08 101.92 125.013C101.958 124.966 101.983 124.912 101.994 124.853C102.006 124.795 102.003 124.734 101.985 124.677C101.977 124.652 101.967 124.627 101.954 124.604Z" fill="#5B2448"/>
<path d="M97.6507 139.922C97.6507 139.922 94.9957 139.688 93.4224 138.636C92.9762 139.046 93.6125 142.544 97.8973 142.89C101.186 143.156 97.6507 139.922 97.6507 139.922Z" fill="#5B2448"/>
<path opacity="0.52" d="M93.8861 135.119C95.0441 135.119 95.9828 134.18 95.9828 133.022C95.9828 131.863 95.0441 130.925 93.8861 130.925C92.7281 130.925 91.7894 131.863 91.7894 133.022C91.7894 134.18 92.7281 135.119 93.8861 135.119Z" fill="#E57281"/>
<path d="M100.909 132.928C100.817 133.105 100.687 133.26 100.529 133.382C100.376 133.501 100.205 133.596 100.022 133.662C99.6539 133.8 99.2535 133.829 98.8689 133.746C98.677 133.7 98.4927 133.626 98.3215 133.528C98.1514 133.428 97.9978 133.302 97.866 133.155C97.597 132.865 97.4443 132.486 97.437 132.09C97.4373 132.035 97.4568 131.982 97.4921 131.94C97.5275 131.898 97.5765 131.87 97.6305 131.861C97.6845 131.851 97.7401 131.861 97.7876 131.889C97.8351 131.916 97.8714 131.96 97.8902 132.011L97.8954 132.026C97.987 132.279 98.1414 132.505 98.344 132.683C98.4428 132.769 98.552 132.843 98.6691 132.902C98.7846 132.963 98.9076 133.009 99.0348 133.038C99.295 133.093 99.5641 133.088 99.8222 133.025C100.085 132.968 100.328 132.845 100.528 132.666L100.54 132.654C100.58 132.616 100.632 132.594 100.686 132.591C100.741 132.588 100.795 132.604 100.839 132.637C100.883 132.669 100.914 132.716 100.927 132.77C100.94 132.823 100.934 132.879 100.909 132.928L100.909 132.928Z" fill="#9B3C82"/>
<path d="M87.9188 134.329C87.8725 134.329 87.8271 134.317 87.7872 134.293C87.7473 134.27 87.7143 134.236 87.6918 134.196C86.2909 131.69 84.1012 132.292 84.0089 132.32C83.9427 132.339 83.8714 132.332 83.8108 132.299C83.7502 132.266 83.7051 132.21 83.6856 132.144C83.666 132.078 83.6736 132.007 83.7066 131.946C83.7395 131.885 83.7952 131.84 83.8614 131.821C83.888 131.813 86.537 131.064 88.1455 133.941C88.1676 133.981 88.179 134.026 88.1786 134.071C88.1781 134.116 88.1658 134.161 88.1429 134.2C88.12 134.239 88.0873 134.271 88.0479 134.294C88.0086 134.317 87.9641 134.328 87.9188 134.328V134.329Z" fill="#9B3C82"/>
<path d="M99.8567 130.673C99.8161 130.673 99.7763 130.661 99.7423 130.639C99.7084 130.616 99.6817 130.584 99.6657 130.547C99.6496 130.51 99.6449 130.468 99.6521 130.428C99.6593 130.388 99.678 130.351 99.7061 130.322C100.032 129.978 100.182 129.727 100.164 129.554C100.144 129.361 99.9045 129.183 99.5132 128.913C98.4042 128.149 98.4771 127.408 98.4809 127.377C98.4879 127.323 98.5157 127.274 98.5584 127.24C98.6011 127.206 98.6553 127.191 98.7093 127.197C98.7633 127.203 98.813 127.229 98.8475 127.271C98.8821 127.313 98.8989 127.367 98.8943 127.421C98.8934 127.44 98.8766 127.969 99.7492 128.57C100.171 128.862 100.536 129.113 100.577 129.51C100.61 129.821 100.434 130.16 100.008 130.608C99.9881 130.629 99.9647 130.645 99.9388 130.656C99.9129 130.667 99.885 130.673 99.8567 130.673Z" fill="#5B2448"/>
<path d="M98.4615 145.902C99.3263 141.289 111.876 136.38 119.068 135.694C120.314 142.764 131.457 157.804 136.866 156.722C136.866 156.722 124.858 163.214 109.388 163.755L98.4615 145.902Z" fill="#F94F46"/>
<path d="M88.401 181.284C77.9075 181.716 66.6567 186.91 62.9634 192.493C62.5256 190.804 62.3265 189.061 62.3718 187.317C67.2258 183.467 71.5 181.378 75.1089 180.341C79.3031 179.932 83.4475 179.747 86.0092 180.198C87.2012 180.408 88.0493 180.757 88.401 181.284Z" fill="#9B3C82"/>
<path d="M82.7756 148.391C78.4321 146.126 68.8202 152.935 62.113 170.572C55.676 187.498 57.6776 193.078 57.6776 193.078C57.6776 193.078 57.3531 189.615 65.0339 185.829C71.9422 182.423 82.9915 180.419 88.4009 181.284C88.401 181.284 92.945 153.693 82.7756 148.391Z" fill="#F94F46"/>
<path d="M88.9279 181.379L88.4145 181.297C88.4256 181.227 89.5224 174.264 89.3504 166.741C89.2496 162.334 88.7399 158.602 87.8354 155.648C86.7171 151.996 84.9925 149.541 82.7091 148.351C81.7971 147.875 80.8522 147.88 79.339 148.368L79.1794 147.873C80.8201 147.344 81.9124 147.349 82.9493 147.89C85.3616 149.147 87.1727 151.707 88.3332 155.498C89.2516 158.499 89.7682 162.279 89.8701 166.736C90.0427 174.305 88.9391 181.309 88.9279 181.379Z" fill="#FCB6B1"/>
<path d="M109.955 164.814C104.625 152.979 98.0533 146.115 97.9872 146.047L98.2859 145.757C98.3523 145.826 104.972 152.738 110.334 164.644L109.955 164.814Z" fill="#FCB6B1"/>
<path d="M95.0414 158.827C94.866 158.826 94.6914 158.805 94.5208 158.764C92.4299 158.286 89.5249 155.162 85.649 150.801C85.6308 150.781 85.6169 150.757 85.6079 150.731C85.599 150.705 85.5952 150.678 85.5968 150.651C85.5984 150.623 85.6054 150.597 85.6173 150.572C85.6292 150.547 85.6458 150.525 85.6662 150.507C85.6867 150.489 85.7104 150.475 85.7362 150.466C85.7621 150.457 85.7894 150.454 85.8166 150.455C85.8439 150.457 85.8706 150.464 85.8952 150.476C85.9197 150.488 85.9417 150.504 85.9599 150.525C89.1707 154.137 92.4908 157.873 94.6134 158.359C95.1427 158.479 95.5376 158.392 95.8206 158.092C96.4076 157.468 96.5336 155.93 96.1845 153.647C96.0057 152.514 95.7601 151.393 95.449 150.289C95.4354 150.243 95.4382 150.193 95.4568 150.149C95.4755 150.105 95.5089 150.068 95.5514 150.046C95.5939 150.023 95.6428 150.016 95.6898 150.026C95.7369 150.036 95.7792 150.061 95.8096 150.098C95.826 150.119 97.4745 152.13 99.1421 153.647C100.583 154.957 102.276 155.672 102.841 155.209C103.144 154.961 103.579 153.937 101.096 149.796C101.067 149.749 101.059 149.692 101.072 149.639C101.085 149.585 101.12 149.539 101.167 149.511C101.214 149.482 101.271 149.474 101.324 149.487C101.378 149.501 101.424 149.535 101.452 149.582C103.401 152.831 103.957 154.832 103.105 155.531C102.248 156.234 100.279 155.243 98.8622 153.954C97.8851 153.044 96.9589 152.081 96.088 151.068C96.5463 152.911 97.3861 157.033 96.1234 158.376C95.9853 158.524 95.8174 158.641 95.6309 158.718C95.4443 158.796 95.2434 158.833 95.0414 158.827Z" fill="#FCB6B1"/>
<path d="M98.5156 164.558C98.463 164.558 98.4125 164.538 98.374 164.503C98.3356 164.467 98.3121 164.418 98.3084 164.365C98.3046 164.313 98.3208 164.261 98.3537 164.22C98.3866 164.179 98.4338 164.152 98.4857 164.145C98.9309 164.08 100.138 163.764 100.375 163.091C100.891 161.63 98.4903 156.638 96.5617 152.627C96.1699 151.812 95.7997 151.043 95.4606 150.318C95.4372 150.268 95.4345 150.211 95.4533 150.159C95.472 150.107 95.5106 150.065 95.5606 150.041C95.6106 150.018 95.6678 150.015 95.7197 150.034C95.7716 150.053 95.8139 150.091 95.8373 150.141C96.1756 150.864 96.5451 151.633 96.9365 152.446C99.0007 156.739 101.34 161.605 100.767 163.229C100.398 164.276 98.6209 164.545 98.5455 164.556C98.5356 164.557 98.5256 164.558 98.5156 164.558Z" fill="#FCB6B1"/>
<path d="M98.9587 161.644C99.1573 161.644 99.3184 161.482 99.3184 161.284C99.3184 161.085 99.1573 160.924 98.9587 160.924C98.76 160.924 98.599 161.085 98.599 161.284C98.599 161.482 98.76 161.644 98.9587 161.644Z" fill="#FCB6B1"/>
<path d="M97.903 158.034C98.1017 158.034 98.2627 157.873 98.2627 157.674C98.2627 157.476 98.1017 157.315 97.903 157.315C97.7044 157.315 97.5433 157.476 97.5433 157.674C97.5433 157.873 97.7044 158.034 97.903 158.034Z" fill="#FCB6B1"/>
<path d="M134.039 100.303C134.007 100.303 133.975 100.296 133.947 100.282C133.918 100.268 133.893 100.247 133.874 100.222C132.665 98.641 130.122 97.1253 127.605 97.287C127.55 97.2905 127.496 97.272 127.455 97.2356C127.413 97.1992 127.388 97.1478 127.384 97.0927C127.381 97.0377 127.399 96.9835 127.436 96.942C127.472 96.9006 127.524 96.8754 127.579 96.8718C129.93 96.722 132.717 98.0238 134.204 99.9691C134.228 99.9999 134.242 100.037 134.246 100.075C134.25 100.114 134.243 100.153 134.225 100.188C134.208 100.222 134.182 100.252 134.149 100.272C134.116 100.293 134.078 100.303 134.039 100.303Z" fill="#9B3C82"/>
</g>
<g clip-path="url(#clip1_117_2178)">
<path d="M162.543 168.035L180.414 125.995L199.246 126.114L181.254 168.154L162.543 168.035Z" fill="#66B0F0"/>
<path d="M181.073 169.113C180.924 169.113 180.777 169.076 180.646 169.005C180.515 168.934 180.404 168.832 180.322 168.707C180.24 168.583 180.19 168.44 180.177 168.292C180.165 168.144 180.189 167.994 180.248 167.858L198.057 126.713H181.068L163.19 168.448C163.143 168.556 163.076 168.655 162.991 168.737C162.907 168.82 162.807 168.885 162.697 168.928C162.588 168.972 162.47 168.994 162.352 168.993C162.234 168.991 162.117 168.967 162.009 168.92C161.9 168.874 161.802 168.807 161.719 168.722C161.637 168.638 161.572 168.538 161.528 168.429C161.484 168.319 161.462 168.202 161.463 168.084C161.465 167.966 161.489 167.85 161.536 167.741L179.647 125.462C179.716 125.3 179.832 125.162 179.979 125.065C180.126 124.968 180.298 124.917 180.475 124.917H199.426C199.575 124.917 199.722 124.954 199.853 125.024C199.984 125.095 200.096 125.197 200.178 125.322C200.259 125.446 200.309 125.589 200.322 125.737C200.335 125.886 200.311 126.035 200.251 126.171L181.9 168.571C181.83 168.732 181.715 168.869 181.568 168.965C181.421 169.062 181.249 169.113 181.073 169.113Z" fill="#FAA200"/>
<path d="M181.056 166.5C181.454 166.5 181.835 166.658 182.117 166.939C182.398 167.22 182.556 167.6 182.556 167.997C182.556 168.394 182.398 168.775 182.117 169.056C181.835 169.337 181.454 169.495 181.056 169.495L130.457 169.51C130.06 169.51 129.678 169.352 129.397 169.071C129.116 168.79 128.958 168.409 128.958 168.012C128.958 167.615 129.116 167.234 129.397 166.954C129.678 166.673 130.06 166.515 130.457 166.515L181.056 166.5H181.056ZM181.056 165.901H181.056L130.457 165.916C129.943 165.916 129.447 166.104 129.062 166.445C128.678 166.786 128.432 167.255 128.371 167.765C128.311 168.275 128.44 168.789 128.733 169.21C129.027 169.632 129.466 169.931 129.965 170.05C130.127 170.089 130.292 170.108 130.457 170.108L181.057 170.093C181.614 170.093 182.147 169.873 182.541 169.48C182.935 169.086 183.156 168.553 183.156 167.997C183.156 167.441 182.935 166.908 182.541 166.515C182.147 166.122 181.614 165.901 181.057 165.901H181.056Z" fill="white"/>
<path d="M130.106 169.468C129.749 169.383 129.435 169.169 129.225 168.868C129.015 168.567 128.923 168.2 128.967 167.836C129.01 167.471 129.186 167.136 129.461 166.892C129.735 166.649 130.09 166.515 130.457 166.515L181.056 166.5C181.253 166.5 181.448 166.539 181.63 166.614C181.812 166.689 181.977 166.799 182.117 166.938C182.256 167.077 182.366 167.242 182.442 167.424C182.517 167.606 182.556 167.8 182.556 167.997C182.556 168.194 182.517 168.388 182.442 168.57C182.367 168.752 182.256 168.917 182.117 169.056C181.978 169.195 181.813 169.305 181.631 169.38C181.449 169.456 181.254 169.494 181.057 169.494L130.457 169.509C130.339 169.509 130.221 169.496 130.106 169.468Z" fill="#5B2448"/>
<path d="M179.195 168.583C179.493 168.583 179.734 168.341 179.734 168.044C179.734 167.746 179.493 167.505 179.195 167.505C178.897 167.505 178.655 167.746 178.655 168.044C178.655 168.341 178.897 168.583 179.195 168.583Z" fill="#FFCF2D"/>
<path d="M176.678 168.473H176.675L172.98 168.449C172.853 168.449 172.731 168.397 172.642 168.307C172.552 168.216 172.502 168.094 172.503 167.967C172.504 167.84 172.555 167.719 172.646 167.629C172.737 167.54 172.859 167.49 172.986 167.491L176.681 167.515C176.808 167.516 176.93 167.566 177.02 167.657C177.109 167.747 177.16 167.869 177.159 167.996C177.159 168.123 177.108 168.245 177.018 168.334C176.927 168.424 176.805 168.474 176.678 168.473Z" fill="#FFCF2D"/>
</g>
<g clip-path="url(#clip2_117_2178)">
<path d="M136.433 184.805V179.255C136.433 177.962 137.476 176.908 138.756 176.908H181.711C182.991 176.908 184.033 177.962 184.033 179.255V184.762C184.033 186.055 182.991 187.108 181.711 187.108H138.714C137.451 187.108 136.433 186.081 136.433 184.805Z" fill="#3FB1B5"/>
<path d="M177.548 187.108V176.908H176.277V187.108H177.548Z" fill="#5B2448"/>
<path d="M146.572 187.108V176.908H144.029V187.108H146.572Z" fill="#5B2448"/>
</g>
<g clip-path="url(#clip3_117_2178)">
<path d="M145.358 194.355V188.503C145.358 187.575 146.102 186.825 147.023 186.825L175.569 186.825C176.489 186.825 177.233 187.575 177.233 188.503V194.348C177.233 195.275 176.489 196.025 175.569 196.025L147.03 196.025C146.102 196.033 145.358 195.283 145.358 194.355Z" fill="#FAA200"/>
<path d="M169.671 196.033L169.671 186.825H168.521L168.521 196.033H169.671Z" fill="#F94F46"/>
<path d="M173.176 196.033L173.176 186.825H172.026L172.026 196.033H173.176Z" fill="#F94F46"/>
<path d="M149.791 196.033L149.791 186.825H147.49L147.49 196.033H149.791Z" fill="#F94F46"/>
</g>
<g clip-path="url(#clip4_117_2178)">
<path d="M114.179 107.797C114.102 107.805 114.025 107.788 113.958 107.749C113.892 107.71 113.839 107.651 113.808 107.58C113.73 107.402 105.954 89.6505 99.4257 79.3179C99.3749 79.2361 99.3587 79.1377 99.3804 79.044C99.4022 78.9503 99.4601 78.869 99.5418 78.8177C99.6234 78.7664 99.722 78.7494 99.8161 78.7703C99.9102 78.7912 99.9922 78.8483 100.044 78.9292C106.602 89.3091 114.4 107.11 114.478 107.289C114.501 107.342 114.512 107.399 114.508 107.456C114.505 107.514 114.488 107.569 114.458 107.619C114.429 107.669 114.389 107.711 114.34 107.741C114.292 107.772 114.236 107.792 114.179 107.797Z" fill="#90C6F5"/>
<path d="M115.972 98.4381C115.893 98.4459 115.813 98.4278 115.746 98.3867C115.678 98.3455 115.626 98.2836 115.596 98.2101C115.56 98.1198 111.951 89.0988 108.904 83.4646C108.861 83.38 108.853 83.2821 108.882 83.1917C108.911 83.1014 108.973 83.0257 109.057 82.9807C109.141 82.9356 109.239 82.9248 109.33 82.9506C109.421 82.9763 109.499 83.0365 109.547 83.1184C112.614 88.7906 116.239 97.8493 116.275 97.9405C116.296 97.9929 116.304 98.0495 116.3 98.1058C116.295 98.162 116.277 98.2164 116.248 98.2647C116.218 98.3129 116.178 98.3537 116.13 98.3838C116.082 98.4139 116.028 98.4325 115.972 98.4381L115.972 98.4381Z" fill="#90C6F5"/>
</g>
<g clip-path="url(#clip5_117_2178)">
<path d="M156.54 112.943C156.54 112.943 165.237 113.598 172.439 113.598C179.057 113.598 188.011 112.943 188.011 112.943C190.274 112.943 192.108 111.111 192.108 108.851V96.5764C192.108 94.3167 190.274 92.4848 188.011 92.4848C188.011 92.4848 178.186 92.1917 173.257 92.1917C168.546 92.1917 156.54 92.4848 156.54 92.4848C154.276 92.4848 152.442 94.3167 152.442 96.5764V108.851C152.442 111.111 154.276 112.943 156.54 112.943Z" fill="#3FB1B5"/>
<path d="M162.411 111.553C162.411 111.553 161.973 125.774 169.567 132.975C169.747 133.103 169.789 133.353 169.66 133.533C169.563 133.669 169.39 133.73 169.228 133.686C161.754 130.258 157.177 116.887 156.167 111.225L162.411 111.553Z" fill="#3FB1B5"/>
</g>
<g clip-path="url(#clip6_117_2178)">
<path d="M180.917 171.269V175.432C180.917 176.402 180.141 177.192 179.188 177.192L147.228 177.192C146.276 177.192 145.5 176.402 145.5 175.432V171.302C145.5 170.332 146.276 169.542 147.228 169.542L179.22 169.542C180.16 169.542 180.917 170.312 180.917 171.269Z" fill="#F94F46"/>
<path d="M150.325 169.542V177.192H151.271V169.542H150.325Z" fill="#FFCF2D"/>
<path d="M173.373 169.542V177.192H175.265V169.542H173.373Z" fill="#FFCF2D"/>
</g>
<g clip-path="url(#clip7_117_2178)">
<path d="M163.324 107.704L163.323 107.703C163.22 107.688 163.122 107.652 163.033 107.598C162.944 107.543 162.867 107.472 162.805 107.388C162.744 107.304 162.699 107.208 162.675 107.106C162.65 107.005 162.645 106.899 162.661 106.795C163.026 104.425 163.072 102.016 162.798 99.6344C162.773 99.4244 162.833 99.2132 162.963 99.0471C163.093 98.881 163.284 98.7738 163.492 98.7488C163.701 98.7239 163.91 98.7834 164.075 98.9142C164.24 99.045 164.346 99.2365 164.37 99.4464C164.661 101.97 164.613 104.523 164.226 107.035C164.194 107.244 164.081 107.432 163.912 107.557C163.743 107.682 163.532 107.735 163.324 107.704Z" fill="#5B2448"/>
<path d="M163.465 100.329C163.294 100.303 163.135 100.221 163.014 100.095C162.894 99.9694 162.818 99.8072 162.798 99.6335C162.778 99.4597 162.815 99.2841 162.904 99.1336C162.993 98.9831 163.128 98.8662 163.29 98.8008C164.801 98.1884 165.877 98.0242 167.556 98.1496C167.765 98.1653 167.959 98.2641 168.096 98.4242C168.233 98.5844 168.301 98.7927 168.285 99.0035C168.269 99.2143 168.17 99.4102 168.011 99.5483C167.852 99.6863 167.645 99.7551 167.435 99.7395C165.996 99.6319 165.165 99.7581 163.878 100.28C163.747 100.333 163.605 100.35 163.465 100.329Z" fill="#5B2448"/>
<path d="M163.632 104.196C163.471 104.172 163.321 104.098 163.203 103.984C163.085 103.871 163.005 103.724 162.974 103.562C162.943 103.401 162.961 103.234 163.028 103.084C163.095 102.934 163.205 102.808 163.346 102.724C163.797 102.456 164.3 102.287 164.82 102.23C165.341 102.173 165.868 102.228 166.365 102.392C166.464 102.425 166.555 102.477 166.633 102.546C166.711 102.614 166.776 102.698 166.822 102.791C166.868 102.885 166.896 102.987 166.903 103.091C166.91 103.196 166.897 103.301 166.864 103.4C166.83 103.499 166.778 103.591 166.71 103.67C166.642 103.749 166.559 103.814 166.466 103.861C166.372 103.908 166.271 103.935 166.167 103.943C166.064 103.95 165.96 103.937 165.861 103.904C165.58 103.813 165.283 103.783 164.989 103.815C164.696 103.848 164.412 103.942 164.156 104.092C163.999 104.187 163.813 104.224 163.632 104.196Z" fill="#5B2448"/>
<path d="M163.3 107.7C163.116 107.672 162.949 107.581 162.826 107.441C162.703 107.301 162.633 107.122 162.628 106.936C162.622 106.749 162.682 106.567 162.797 106.42C162.912 106.273 163.074 106.171 163.256 106.132C164.691 105.835 166.166 105.792 167.615 106.005L167.621 106.006C167.828 106.037 168.014 106.15 168.138 106.319C168.263 106.489 168.315 106.701 168.284 106.91C168.254 107.118 168.142 107.306 167.974 107.433C167.806 107.559 167.595 107.613 167.388 107.583C166.123 107.397 164.835 107.433 163.582 107.691C163.489 107.711 163.393 107.714 163.3 107.7Z" fill="#5B2448"/>
<path d="M169.501 103.616C169.317 103.588 169.148 103.496 169.025 103.355C168.902 103.214 168.833 103.034 168.829 102.847C168.825 102.659 168.887 102.476 169.004 102.329C169.121 102.183 169.285 102.083 169.468 102.046C170.706 101.801 171.979 101.806 173.214 102.06C173.316 102.081 173.413 102.123 173.499 102.181C173.584 102.24 173.658 102.315 173.715 102.403C173.772 102.49 173.811 102.588 173.831 102.691C173.85 102.794 173.849 102.899 173.828 103.002C173.807 103.104 173.766 103.202 173.707 103.288C173.648 103.375 173.574 103.449 173.487 103.507C173.4 103.564 173.302 103.604 173.2 103.624C173.098 103.644 172.993 103.643 172.891 103.622C171.863 103.41 170.803 103.406 169.773 103.61C169.683 103.628 169.591 103.63 169.501 103.616Z" fill="#5B2448"/>
<path d="M169.426 105.687C169.226 105.657 169.045 105.55 168.921 105.39C168.797 105.23 168.739 105.027 168.758 104.825C168.777 104.622 168.873 104.434 169.025 104.3C169.177 104.166 169.374 104.095 169.576 104.102L172.723 104.216C172.827 104.219 172.929 104.244 173.024 104.287C173.118 104.331 173.203 104.393 173.274 104.469C173.344 104.546 173.399 104.636 173.435 104.734C173.472 104.832 173.488 104.936 173.484 105.041C173.48 105.145 173.456 105.248 173.412 105.344C173.369 105.439 173.307 105.524 173.231 105.596C173.155 105.667 173.066 105.723 172.968 105.759C172.871 105.796 172.767 105.813 172.663 105.809L169.516 105.696C169.486 105.694 169.456 105.692 169.426 105.687Z" fill="#5B2448"/>
<path d="M175.654 107.413C175.648 107.412 175.643 107.411 175.637 107.41C175.535 107.392 175.437 107.354 175.349 107.299C175.261 107.243 175.185 107.17 175.125 107.085C175.066 106.999 175.023 106.903 175 106.801C174.978 106.698 174.975 106.593 174.993 106.49C175.206 105.253 175.225 103.991 175.047 102.749C175.033 102.646 175.038 102.54 175.064 102.439C175.09 102.337 175.135 102.242 175.197 102.158C175.26 102.074 175.338 102.003 175.427 101.949C175.517 101.896 175.616 101.86 175.719 101.845C175.926 101.815 176.138 101.869 176.306 101.995C176.389 102.058 176.459 102.136 176.512 102.226C176.565 102.316 176.6 102.416 176.615 102.519C176.816 103.927 176.795 105.357 176.553 106.759C176.517 106.965 176.403 107.148 176.235 107.27C176.067 107.392 175.858 107.444 175.654 107.413Z" fill="#5B2448"/>
<path d="M178.968 107.32C178.766 107.289 178.584 107.181 178.46 107.018C178.335 106.855 178.279 106.65 178.301 106.446C178.432 105.261 178.503 104.217 178.045 103.439C177.973 103.293 177.858 103.172 177.716 103.092C177.584 103.041 177.368 103.103 177.213 103.237C177.02 103.405 176.868 103.681 176.762 104.058C176.733 104.158 176.685 104.252 176.62 104.335C176.556 104.417 176.476 104.485 176.385 104.536C176.294 104.587 176.194 104.62 176.091 104.632C175.988 104.644 175.883 104.636 175.783 104.607C175.683 104.579 175.59 104.531 175.508 104.466C175.427 104.401 175.359 104.32 175.308 104.229C175.258 104.138 175.226 104.037 175.214 103.933C175.202 103.829 175.211 103.724 175.239 103.623C175.433 102.941 175.749 102.405 176.181 102.031C176.785 101.506 177.614 101.341 178.294 101.607C178.738 101.781 179.113 102.124 179.408 102.624C180.172 103.923 180 105.481 179.875 106.618C179.863 106.722 179.832 106.823 179.781 106.915C179.731 107.007 179.664 107.088 179.583 107.153C179.501 107.219 179.408 107.268 179.308 107.297C179.208 107.326 179.104 107.336 179.001 107.324C178.99 107.323 178.979 107.322 178.968 107.32Z" fill="#5B2448"/>
</g>
<g clip-path="url(#clip8_117_2178)">
<path d="M178.852 108.706C179.056 108.349 178.888 107.865 178.477 107.625C178.065 107.386 177.566 107.481 177.362 107.838C177.158 108.195 177.326 108.678 177.737 108.918C178.149 109.158 178.648 109.063 178.852 108.706Z" fill="#5B2448"/>
<path d="M177.731 106.326C177.567 106.326 177.408 106.277 177.272 106.185C177.136 106.093 177.03 105.963 176.968 105.81C176.528 104.729 176.601 103.817 177.184 103.1C177.648 102.53 178.353 102.193 179.036 101.868C180.321 101.255 181.109 100.816 181.109 99.5705C181.109 99.2998 180.98 98.8632 180.69 98.4979C180.496 98.2546 180.171 97.9644 179.717 97.9644C178.809 97.9644 178.174 98.546 178.174 99.3787C178.174 99.5994 178.087 99.8111 177.933 99.9672C177.778 100.123 177.568 100.211 177.35 100.211C177.131 100.211 176.921 100.123 176.767 99.9672C176.612 99.8111 176.525 99.5994 176.525 99.3787C176.525 98.5123 176.859 97.7219 177.464 97.153C178.049 96.603 178.85 96.3 179.717 96.3C180.582 96.3 181.384 96.711 181.977 97.4572C182.466 98.0739 182.758 98.8639 182.758 99.5705C182.758 100.618 182.395 101.494 181.678 102.175C181.097 102.726 180.376 103.07 179.74 103.373C179.199 103.631 178.687 103.875 178.459 104.156C178.376 104.257 178.204 104.468 178.493 105.177C178.545 105.304 178.564 105.441 178.551 105.577C178.537 105.713 178.491 105.843 178.415 105.957C178.34 106.07 178.238 106.163 178.119 106.228C178 106.292 177.866 106.326 177.731 106.326L177.731 106.326Z" fill="#5B2448"/>
</g>
<defs>
<filter id="filter0_d_117_2178" x="0" y="0" width="373" height="423" filterUnits="userSpaceOnUse" color-interpolation-filters="sRGB">
<feFlood flood-opacity="0" result="BackgroundImageFix"/>
<feColorMatrix in="SourceAlpha" type="matrix" values="0 0 0 0 0 0 0 0 0 0 0 0 0 0 0 0 0 0 127 0" result="hardAlpha"/>
<feOffset dy="6"/>
<feGaussianBlur stdDeviation="17.5"/>
<feComposite in2="hardAlpha" operator="out"/>
<feColorMatrix type="matrix" values="0 0 0 0 0 0 0 0 0 0.09283 0 0 0 0 0.1375 0 0 0 0.05 0"/>
<feBlend mode="normal" in2="BackgroundImageFix" result="effect1_dropShadow_117_2178"/>
<feBlend mode="normal" in="SourceGraphic" in2="effect1_dropShadow_117_2178" result="shape"/>
</filter>
<clipPath id="clip0_117_2178">
<rect width="87.6917" height="121.833" fill="white" transform="translate(57.3833 83.9751)"/>
</clipPath>
<clipPath id="clip1_117_2178">
<rect width="71.9668" height="45.1915" fill="white" transform="translate(128.358 124.917)"/>
</clipPath>
<clipPath id="clip2_117_2178">
<rect width="10.2" height="47.6001" fill="white" transform="translate(184.033 176.908) rotate(90)"/>
</clipPath>
<clipPath id="clip3_117_2178">
<rect width="9.20824" height="31.875" fill="white" transform="translate(177.233 186.825) rotate(90)"/>
</clipPath>
<clipPath id="clip4_117_2178">
<rect width="15.3" height="35.2751" fill="white" transform="matrix(0.995149 -0.0983757 0.0983746 0.995149 98.8479 73.8655)"/>
</clipPath>
<clipPath id="clip5_117_2178">
<rect width="39.6666" height="41.5084" fill="white" transform="matrix(-1 0 0 1 192.108 92.1917)"/>
</clipPath>
<clipPath id="clip6_117_2178">
<rect width="7.64999" height="35.4167" fill="white" transform="translate(145.5 177.192) rotate(-90)"/>
</clipPath>
<clipPath id="clip7_117_2178">
<rect width="11.7584" height="14.45" fill="white" transform="translate(163.772 93.0134) rotate(8.61681)"/>
</clipPath>
<clipPath id="clip8_117_2178">
<rect width="6.23339" height="12.75" fill="white" transform="translate(176.525 96.3)"/>
</clipPath>
</defs>
</svg>
