<svg width="373" height="423" viewBox="0 0 373 423" fill="none" xmlns="http://www.w3.org/2000/svg">
<g filter="url(#filter0_d_117_2178)">
<rect x="35" y="29" width="303" height="353" rx="30" fill="white"/>
</g>
<path d="M80.88 290.706H83.28L78.3 276.786H75.66L70.68 290.706H73.06L74.06 287.866H79.88L80.88 290.706ZM79.24 286.006H74.7L76.98 279.546L79.24 286.006ZM87.7253 281.306V279.686H85.4453V295.946H87.7253V289.106C88.4453 289.966 89.7453 290.886 91.5653 290.886C94.4653 290.886 96.7453 288.546 96.7453 285.146C96.7453 281.746 94.4653 279.506 91.5653 279.506C89.7653 279.506 88.4253 280.386 87.7253 281.306ZM94.4253 285.146C94.4253 287.526 92.7853 288.906 91.0653 288.906C89.3653 288.906 87.7253 287.566 87.7253 285.186C87.7253 282.826 89.3653 281.486 91.0653 281.486C92.7853 281.486 94.4253 282.766 94.4253 285.146ZM101.28 281.306V279.686H99V295.946H101.28V289.106C102 289.966 103.3 290.886 105.12 290.886C108.02 290.886 110.3 288.546 110.3 285.146C110.3 281.746 108.02 279.506 105.12 279.506C103.32 279.506 101.98 280.386 101.28 281.306ZM107.98 285.146C107.98 287.526 106.34 288.906 104.62 288.906C102.92 288.906 101.28 287.566 101.28 285.186C101.28 282.826 102.92 281.486 104.62 281.486C106.34 281.486 107.98 282.766 107.98 285.146ZM112.555 290.706H114.835V275.906H112.555V290.706ZM122.168 288.086L119.068 279.686H116.528L120.868 290.526L118.628 295.886H120.988L127.748 279.686H125.388L122.168 288.086ZM134.944 290.706H137.244V281.546H139.284V279.686H137.244V278.906C137.244 277.646 137.724 277.166 139.124 277.166V275.266C136.244 275.266 134.944 276.366 134.944 278.906V279.686H133.644V281.546H134.944V290.706ZM151.805 285.186C151.805 281.726 149.325 279.506 146.185 279.506C143.045 279.506 140.565 281.726 140.565 285.186C140.565 288.646 142.945 290.886 146.085 290.886C149.245 290.886 151.805 288.646 151.805 285.186ZM142.885 285.186C142.885 282.686 144.425 281.486 146.145 281.486C147.845 281.486 149.465 282.686 149.465 285.186C149.465 287.686 147.785 288.906 146.085 288.906C144.365 288.906 142.885 287.686 142.885 285.186ZM156.339 284.906C156.339 282.566 157.379 281.866 159.059 281.866H159.639V279.506C158.079 279.506 156.979 280.186 156.339 281.286V279.686H154.059V290.706H156.339V284.906ZM166.17 285.186C166.17 288.646 168.41 290.886 171.57 290.886C174.27 290.886 176.03 289.386 176.65 287.226H174.19C173.77 288.366 172.93 288.966 171.57 288.966C169.73 288.966 168.51 287.606 168.51 285.186C168.51 282.786 169.73 281.426 171.57 281.426C172.93 281.426 173.81 282.106 174.19 283.166H176.65C176.03 280.846 174.27 279.506 171.57 279.506C168.41 279.506 166.17 281.746 166.17 285.186ZM183.562 281.426C185.262 281.426 186.602 282.506 186.642 284.206H180.542C180.782 282.466 182.022 281.426 183.562 281.426ZM188.722 287.426H186.262C185.842 288.286 185.062 288.966 183.662 288.966C181.982 288.966 180.682 287.866 180.522 286.046H188.942C189.002 285.666 189.022 285.306 189.022 284.926C189.022 281.686 186.802 279.506 183.662 279.506C180.402 279.506 178.162 281.726 178.162 285.186C178.162 288.646 180.502 290.886 183.662 290.886C186.362 290.886 188.102 289.346 188.722 287.426ZM193.546 284.906C193.546 282.566 194.586 281.866 196.266 281.866H196.846V279.506C195.286 279.506 194.186 280.186 193.546 281.286V279.686H191.266V290.706H193.546V284.906ZM199.301 287.646C199.301 289.886 200.521 290.706 202.481 290.706H204.281V288.806H202.881C201.921 288.806 201.601 288.466 201.601 287.646V281.546H204.281V279.686H201.601V276.946H199.301V279.686H198.001V281.546H199.301V287.646ZM206.383 290.706H208.663V279.686H206.383V290.706ZM207.543 278.226C208.343 278.226 208.983 277.586 208.983 276.766C208.983 275.946 208.343 275.306 207.543 275.306C206.723 275.306 206.083 275.946 206.083 276.766C206.083 277.586 206.723 278.226 207.543 278.226ZM211.936 290.706H214.236V281.546H216.276V279.686H214.236V278.906C214.236 277.646 214.716 277.166 216.116 277.166V275.266C213.236 275.266 211.936 276.366 211.936 278.906V279.686H210.636V281.546H211.936V290.706ZM218.297 290.706H220.577V279.686H218.297V290.706ZM219.457 278.226C220.257 278.226 220.897 277.586 220.897 276.766C220.897 275.946 220.257 275.306 219.457 275.306C218.637 275.306 217.997 275.946 217.997 276.766C217.997 277.586 218.637 278.226 219.457 278.226ZM222.81 285.186C222.81 288.646 225.05 290.886 228.21 290.886C230.91 290.886 232.67 289.386 233.29 287.226H230.83C230.41 288.366 229.57 288.966 228.21 288.966C226.37 288.966 225.15 287.606 225.15 285.186C225.15 282.786 226.37 281.426 228.21 281.426C229.57 281.426 230.45 282.106 230.83 283.166H233.29C232.67 280.846 230.91 279.506 228.21 279.506C225.05 279.506 222.81 281.746 222.81 285.186ZM234.803 285.146C234.803 288.546 237.103 290.886 239.963 290.886C241.803 290.886 243.123 290.006 243.823 289.066V290.706H246.123V279.686H243.823V281.286C243.143 280.386 241.863 279.506 240.003 279.506C237.103 279.506 234.803 281.746 234.803 285.146ZM243.823 285.186C243.823 287.566 242.203 288.906 240.483 288.906C238.783 288.906 237.143 287.526 237.143 285.146C237.143 282.766 238.783 281.486 240.483 281.486C242.203 281.486 243.823 282.826 243.823 285.186ZM249.477 287.646C249.477 289.886 250.697 290.706 252.657 290.706H254.457V288.806H253.057C252.097 288.806 251.777 288.466 251.777 287.646V281.546H254.457V279.686H251.777V276.946H249.477V279.686H248.177V281.546H249.477V287.646ZM256.559 290.706H258.839V279.686H256.559V290.706ZM257.719 278.226C258.519 278.226 259.159 277.586 259.159 276.766C259.159 275.946 258.519 275.306 257.719 275.306C256.899 275.306 256.259 275.946 256.259 276.766C256.259 277.586 256.899 278.226 257.719 278.226ZM272.332 285.186C272.332 281.726 269.852 279.506 266.712 279.506C263.572 279.506 261.092 281.726 261.092 285.186C261.092 288.646 263.472 290.886 266.612 290.886C269.772 290.886 272.332 288.646 272.332 285.186ZM263.412 285.186C263.412 282.686 264.952 281.486 266.672 281.486C268.372 281.486 269.992 282.686 269.992 285.186C269.992 287.686 268.312 288.906 266.612 288.906C264.892 288.906 263.412 287.686 263.412 285.186ZM282.406 290.706H284.666V284.206C284.666 281.126 282.726 279.506 280.146 279.506C278.826 279.506 277.606 280.046 276.866 280.946V279.686H274.586V290.706H276.866V284.546C276.866 282.526 277.966 281.486 279.646 281.486C281.306 281.486 282.406 282.526 282.406 284.546V290.706ZM70.74 315.146C70.74 318.546 73.04 320.886 75.9 320.886C77.74 320.886 79.06 320.006 79.76 319.066V320.706H82.06V309.686H79.76V311.286C79.08 310.386 77.8 309.506 75.94 309.506C73.04 309.506 70.74 311.746 70.74 315.146ZM79.76 315.186C79.76 317.566 78.14 318.906 76.42 318.906C74.72 318.906 73.08 317.526 73.08 315.146C73.08 312.766 74.72 311.486 76.42 311.486C78.14 311.486 79.76 312.826 79.76 315.186ZM92.8747 320.706H95.1347V314.206C95.1347 311.126 93.1947 309.506 90.6147 309.506C89.2947 309.506 88.0747 310.046 87.3347 310.946V309.686H85.0547V320.706H87.3347V314.546C87.3347 312.526 88.4347 311.486 90.1147 311.486C91.7747 311.486 92.8747 312.526 92.8747 314.546V320.706ZM97.283 315.146C97.283 318.546 99.583 320.886 102.483 320.886C104.283 320.886 105.603 320.046 106.303 319.046V320.706H108.603V305.906H106.303V311.226C105.463 310.186 103.943 309.506 102.503 309.506C99.583 309.506 97.283 311.746 97.283 315.146ZM106.303 315.186C106.303 317.566 104.683 318.906 102.963 318.906C101.263 318.906 99.623 317.526 99.623 315.146C99.623 312.766 101.263 311.486 102.963 311.486C104.683 311.486 106.303 312.826 106.303 315.186ZM117.153 317.646C117.153 319.886 118.373 320.706 120.333 320.706H122.133V318.806H120.733C119.773 318.806 119.453 318.466 119.453 317.646V311.546H122.133V309.686H119.453V306.946H117.153V309.686H115.853V311.546H117.153V317.646ZM123.474 315.146C123.474 318.546 125.774 320.886 128.634 320.886C130.474 320.886 131.794 320.006 132.494 319.066V320.706H134.794V309.686H132.494V311.286C131.814 310.386 130.534 309.506 128.674 309.506C125.774 309.506 123.474 311.746 123.474 315.146ZM132.494 315.186C132.494 317.566 130.874 318.906 129.154 318.906C127.454 318.906 125.814 317.526 125.814 315.146C125.814 312.766 127.454 311.486 129.154 311.486C130.874 311.486 132.494 312.826 132.494 315.186ZM137.789 320.706H140.069V315.966L144.149 320.706H147.229L142.149 315.206L147.229 309.686H144.069L140.069 314.506V305.906H137.789V320.706ZM153.503 311.426C155.203 311.426 156.543 312.506 156.583 314.206H150.483C150.723 312.466 151.963 311.426 153.503 311.426ZM158.663 317.426H156.203C155.783 318.286 155.003 318.966 153.603 318.966C151.923 318.966 150.623 317.866 150.463 316.046H158.883C158.943 315.666 158.963 315.306 158.963 314.926C158.963 311.686 156.743 309.506 153.603 309.506C150.343 309.506 148.103 311.726 148.103 315.186C148.103 318.646 150.443 320.886 153.603 320.886C156.303 320.886 158.043 319.346 158.663 317.426ZM165.642 315.146C165.642 318.546 167.942 320.886 170.802 320.886C172.642 320.886 173.962 320.006 174.662 319.066V320.706H176.962V309.686H174.662V311.286C173.982 310.386 172.702 309.506 170.842 309.506C167.942 309.506 165.642 311.746 165.642 315.146ZM174.662 315.186C174.662 317.566 173.042 318.906 171.322 318.906C169.622 318.906 167.982 317.526 167.982 315.146C167.982 312.766 169.622 311.486 171.322 311.486C173.042 311.486 174.662 312.826 174.662 315.186ZM188.177 317.626C188.057 313.646 181.837 314.886 181.837 312.666C181.837 311.926 182.477 311.426 183.697 311.426C184.937 311.426 185.677 312.086 185.757 313.046H188.037C187.917 310.846 186.277 309.506 183.777 309.506C181.177 309.506 179.537 310.926 179.537 312.686C179.537 316.726 185.937 315.486 185.937 317.646C185.937 318.406 185.237 318.966 183.917 318.966C182.657 318.966 181.797 318.226 181.717 317.326H179.357C179.457 319.326 181.317 320.886 183.957 320.886C186.557 320.886 188.177 319.486 188.177 317.626ZM198.861 317.626C198.741 313.646 192.521 314.886 192.521 312.666C192.521 311.926 193.161 311.426 194.381 311.426C195.621 311.426 196.361 312.086 196.441 313.046H198.721C198.601 310.846 196.961 309.506 194.461 309.506C191.861 309.506 190.221 310.926 190.221 312.686C190.221 316.726 196.621 315.486 196.621 317.646C196.621 318.406 195.921 318.966 194.601 318.966C193.341 318.966 192.481 318.226 192.401 317.326H190.041C190.141 319.326 192.001 320.886 194.641 320.886C197.241 320.886 198.861 319.486 198.861 317.626ZM205.964 311.426C207.664 311.426 209.004 312.506 209.044 314.206H202.944C203.184 312.466 204.424 311.426 205.964 311.426ZM211.124 317.426H208.664C208.244 318.286 207.464 318.966 206.064 318.966C204.384 318.966 203.084 317.866 202.924 316.046H211.344C211.404 315.666 211.424 315.306 211.424 314.926C211.424 311.686 209.204 309.506 206.064 309.506C202.804 309.506 200.564 311.726 200.564 315.186C200.564 318.646 202.904 320.886 206.064 320.886C208.764 320.886 210.504 319.346 211.124 317.426ZM221.888 317.626C221.768 313.646 215.548 314.886 215.548 312.666C215.548 311.926 216.188 311.426 217.408 311.426C218.648 311.426 219.388 312.086 219.468 313.046H221.748C221.628 310.846 219.988 309.506 217.488 309.506C214.888 309.506 213.248 310.926 213.248 312.686C213.248 316.726 219.648 315.486 219.648 317.646C219.648 318.406 218.948 318.966 217.628 318.966C216.368 318.966 215.508 318.226 215.428 317.326H213.068C213.168 319.326 215.028 320.886 217.668 320.886C220.268 320.886 221.888 319.486 221.888 317.626ZM232.572 317.626C232.452 313.646 226.232 314.886 226.232 312.666C226.232 311.926 226.872 311.426 228.092 311.426C229.332 311.426 230.072 312.086 230.152 313.046H232.432C232.312 310.846 230.672 309.506 228.172 309.506C225.572 309.506 223.932 310.926 223.932 312.686C223.932 316.726 230.332 315.486 230.332 317.646C230.332 318.406 229.632 318.966 228.312 318.966C227.052 318.966 226.192 318.226 226.112 317.326H223.752C223.852 319.326 225.712 320.886 228.352 320.886C230.952 320.886 232.572 319.486 232.572 317.626ZM250.655 320.706H252.915V314.206C252.915 311.126 250.955 309.506 248.375 309.506C246.775 309.506 245.215 310.346 244.535 311.686C243.775 310.246 242.315 309.506 240.575 309.506C239.255 309.506 238.055 310.046 237.315 310.946V309.686H235.035V320.706H237.315V314.546C237.315 312.526 238.415 311.486 240.095 311.486C241.755 311.486 242.855 312.526 242.855 314.546V320.706H245.115V314.546C245.115 312.526 246.215 311.486 247.895 311.486C249.555 311.486 250.655 312.526 250.655 314.546V320.706ZM260.456 311.426C262.156 311.426 263.496 312.506 263.536 314.206H257.436C257.676 312.466 258.916 311.426 260.456 311.426ZM265.616 317.426H263.156C262.736 318.286 261.956 318.966 260.556 318.966C258.876 318.966 257.576 317.866 257.416 316.046H265.836C265.896 315.666 265.916 315.306 265.916 314.926C265.916 311.686 263.696 309.506 260.556 309.506C257.296 309.506 255.056 311.726 255.056 315.186C255.056 318.646 257.396 320.886 260.556 320.886C263.256 320.886 264.996 319.346 265.616 317.426ZM275.98 320.706H278.24V314.206C278.24 311.126 276.3 309.506 273.72 309.506C272.4 309.506 271.18 310.046 270.44 310.946V309.686H268.16V320.706H270.44V314.546C270.44 312.526 271.54 311.486 273.22 311.486C274.88 311.486 275.98 312.526 275.98 314.546V320.706ZM281.508 317.646C281.508 319.886 282.728 320.706 284.688 320.706H286.488V318.806H285.088C284.128 318.806 283.808 318.466 283.808 317.646V311.546H286.488V309.686H283.808V306.946H281.508V309.686H280.208V311.546H281.508V317.646Z" fill="black"/>
<path d="M80.3015 262.58C80.3015 257.936 73.5335 259.952 73.5335 256.712C73.5335 255.362 74.5955 254.66 75.9455 254.696C77.4755 254.714 78.2675 255.668 78.3755 256.514H80.1755C79.9775 254.606 78.4115 253.292 76.0175 253.292C73.5335 253.292 71.8595 254.696 71.8595 256.766C71.8595 261.428 78.6455 259.268 78.6455 262.652C78.6455 263.84 77.7095 264.74 76.1255 264.74C74.3795 264.74 73.6415 263.696 73.5335 262.652H71.7875C71.8235 264.722 73.6055 266.126 76.1255 266.126C78.8435 266.126 80.3015 264.362 80.3015 262.58ZM83.0719 263.3C83.0719 265.28 84.0619 266 85.8079 266H87.2839V264.614H86.0779C85.0699 264.614 84.7099 264.272 84.7099 263.3V257.486H87.2839V256.136H84.7099V253.652H83.0719V256.136H81.7939V257.486H83.0719V263.3ZM93.4626 257.36C95.1546 257.36 96.5946 258.422 96.5766 260.348H90.3486C90.5286 258.422 91.8606 257.36 93.4626 257.36ZM98.0706 262.958H96.3066C95.9466 264.02 95.0106 264.776 93.5346 264.776C91.8606 264.776 90.4566 263.678 90.3306 261.68H98.2146C98.2506 261.338 98.2686 261.05 98.2686 260.69C98.2686 257.99 96.3966 255.974 93.5346 255.974C90.6546 255.974 88.6566 257.936 88.6566 261.05C88.6566 264.182 90.7266 266.162 93.5346 266.162C95.9826 266.162 97.5666 264.758 98.0706 262.958ZM102.069 257.954V256.136H100.431V270.68H102.069V264.182C102.681 265.19 103.959 266.162 105.759 266.162C108.405 266.162 110.439 264.092 110.439 261.032C110.439 257.954 108.405 255.974 105.759 255.974C103.959 255.974 102.663 256.91 102.069 257.954ZM108.765 261.032C108.765 263.354 107.235 264.722 105.417 264.722C103.635 264.722 102.069 263.372 102.069 261.05C102.069 258.764 103.635 257.396 105.417 257.396C107.235 257.396 108.765 258.71 108.765 261.032ZM117.754 263.3C117.754 265.28 118.744 266 120.49 266H121.966V264.614H120.76C119.752 264.614 119.392 264.272 119.392 263.3V257.486H121.966V256.136H119.392V253.652H117.754V256.136H116.476V257.486H117.754V263.3ZM123.95 266H125.588V260.546C125.588 258.422 126.74 257.378 128.414 257.378C130.07 257.378 131.168 258.404 131.168 260.42V266H132.788V260.186C132.788 257.36 131.042 255.956 128.846 255.956C127.46 255.956 126.236 256.514 125.588 257.558V252.68H123.95V266ZM137.102 260.636C137.102 258.35 138.29 257.648 139.856 257.648H140.288V255.956C138.722 255.956 137.66 256.64 137.102 257.738V256.136H135.464V266H137.102V260.636ZM146.373 257.36C148.065 257.36 149.505 258.422 149.487 260.348H143.259C143.439 258.422 144.771 257.36 146.373 257.36ZM150.981 262.958H149.217C148.857 264.02 147.921 264.776 146.445 264.776C144.771 264.776 143.367 263.678 143.241 261.68H151.125C151.161 261.338 151.179 261.05 151.179 260.69C151.179 257.99 149.307 255.974 146.445 255.974C143.565 255.974 141.567 257.936 141.567 261.05C141.567 264.182 143.637 266.162 146.445 266.162C148.893 266.162 150.477 264.758 150.981 262.958ZM157.535 257.36C159.227 257.36 160.667 258.422 160.649 260.348H154.421C154.601 258.422 155.933 257.36 157.535 257.36ZM162.143 262.958H160.379C160.019 264.02 159.083 264.776 157.607 264.776C155.933 264.776 154.529 263.678 154.403 261.68H162.287C162.323 261.338 162.341 261.05 162.341 260.69C162.341 257.99 160.469 255.974 157.607 255.974C154.727 255.974 152.729 257.936 152.729 261.05C152.729 264.182 154.799 266.162 157.607 266.162C160.055 266.162 161.639 264.758 162.143 262.958ZM166.105 264.992C166.105 264.362 165.619 263.876 165.025 263.876C164.395 263.876 163.909 264.362 163.909 264.992C163.909 265.622 164.395 266.108 165.025 266.108C165.619 266.108 166.105 265.622 166.105 264.992ZM166.105 257.288C166.105 256.658 165.619 256.172 165.025 256.172C164.395 256.172 163.909 256.658 163.909 257.288C163.909 257.918 164.395 258.404 165.025 258.404C165.619 258.404 166.105 257.918 166.105 257.288Z" fill="#828282"/>
<circle opacity="0.1" cx="186.5" cy="140.5" r="82.5" fill="#098ECE"/>
<g clip-path="url(#clip0_117_2178)">
<path d="M119.068 135.694C121.071 145.902 133.187 158.453 136.866 156.722C139.889 155.299 128.639 140.093 119.068 135.694Z" fill="#5B2448"/>
<path d="M144.546 136.921C143.249 144.911 139.293 149.853 135.364 152.964C135.32 153 135.274 153.036 135.23 153.07H135.229C132.099 155.492 128.445 157.146 124.561 157.901C124.557 157.903 124.553 157.903 124.548 157.904C124.482 157.915 124.418 157.927 124.358 157.938C124.261 157.954 124.172 157.969 124.089 157.983C123.646 158.053 123.397 158.074 123.397 158.074L123.227 157.194L119.068 135.694C120.317 135.517 121.568 135.382 122.802 135.298C122.802 135.298 126.644 125.614 125.615 115.173C124.586 104.731 122.59 97.9657 119.557 92.2343C116.636 86.7161 117.93 86.3871 120.26 89.0424C122.586 91.6933 123.668 92.8836 123.668 92.8836C123.668 92.8836 121.853 89.1885 120.963 87.2571C120.073 85.3257 120.182 84.0879 122.099 85.9051C124.016 87.7223 123.884 87.7986 124.695 88.7183C121.72 83.9031 122.54 83.1005 124.209 84.769C126.156 86.7166 127.021 87.9068 128.103 89.2053C127.022 86.933 126.048 84.1196 128.373 86.6117C131.17 89.6083 148.076 115.175 144.546 136.921Z" fill="#F4ADA2"/>
<path d="M127.021 92.6593C126.982 92.6593 126.944 92.6484 126.911 92.6278C126.878 92.6071 126.851 92.5776 126.834 92.5425C126.811 92.4963 124.559 87.9055 122.876 86.3273C122.836 86.2895 122.812 86.2374 122.811 86.1822C122.809 86.1271 122.829 86.0735 122.867 86.0333C122.904 85.993 122.957 85.9694 123.012 85.9676C123.067 85.9659 123.12 85.9861 123.161 86.0238C124.899 87.6542 127.114 92.1685 127.208 92.36C127.223 92.3917 127.23 92.4268 127.229 92.462C127.227 92.4972 127.216 92.5314 127.197 92.5614C127.179 92.5913 127.153 92.616 127.122 92.6331C127.091 92.6502 127.056 92.6592 127.021 92.6593H127.021Z" fill="#9B3C82"/>
<path d="M129.618 91.5768C129.58 91.5769 129.544 91.5668 129.511 91.5477C129.479 91.5286 129.453 91.5012 129.435 91.4684C129.422 91.4447 128.125 89.0731 126.742 87.05C126.726 87.0275 126.714 87.002 126.708 86.975C126.702 86.948 126.701 86.92 126.706 86.8928C126.711 86.8655 126.721 86.8395 126.736 86.8162C126.751 86.793 126.771 86.7729 126.793 86.7573C126.816 86.7417 126.842 86.7308 126.869 86.7252C126.896 86.7196 126.924 86.7195 126.951 86.7249C126.979 86.7303 127.004 86.741 127.027 86.7565C127.05 86.772 127.07 86.7919 127.085 86.815C128.481 88.856 129.788 91.2455 129.801 91.2692C129.818 91.3009 129.827 91.3365 129.826 91.3726C129.825 91.4086 129.815 91.4439 129.797 91.4749C129.778 91.506 129.752 91.5317 129.721 91.5495C129.69 91.5674 129.654 91.5768 129.618 91.5768H129.618Z" fill="#9B3C82"/>
<path d="M129.401 101.531C129.364 101.531 129.327 101.521 129.295 101.502C129.263 101.483 129.237 101.456 129.219 101.424C127.928 99.2298 126.359 97.2124 124.55 95.4219C123.228 94.1274 122.93 94.2394 122.9 94.2571C122.882 94.2675 122.731 94.3819 122.866 95.25C122.962 95.8693 123.167 96.6726 123.384 97.5232C123.581 98.292 123.784 99.087 123.926 99.8231C123.931 99.85 123.931 99.8775 123.926 99.9043C123.92 99.9311 123.91 99.9565 123.894 99.9791C123.879 100.002 123.859 100.021 123.837 100.036C123.814 100.051 123.788 100.062 123.762 100.067C123.735 100.072 123.707 100.072 123.68 100.066C123.654 100.061 123.628 100.05 123.606 100.035C123.583 100.02 123.564 100 123.548 99.9773C123.533 99.9545 123.523 99.929 123.518 99.9022C123.378 99.1781 123.176 98.3892 122.981 97.6261C122.427 95.4575 122.141 94.2149 122.692 93.8966C123.087 93.6693 123.729 94.0363 124.841 95.1248C126.679 96.9438 128.273 98.9936 129.584 101.223C129.601 101.255 129.61 101.29 129.609 101.326C129.609 101.362 129.599 101.398 129.581 101.429C129.562 101.46 129.536 101.486 129.505 101.504C129.473 101.522 129.438 101.531 129.402 101.531L129.401 101.531Z" fill="#9B3C82"/>
<path d="M125.723 135.723C125.7 135.723 125.676 135.719 125.654 135.711C124.578 135.378 123.452 135.23 122.326 135.273C122.299 135.274 122.272 135.27 122.246 135.26C122.22 135.251 122.197 135.237 122.177 135.218C122.156 135.2 122.14 135.177 122.129 135.153C122.117 135.128 122.11 135.101 122.109 135.074C122.108 135.046 122.112 135.019 122.122 134.994C122.131 134.968 122.145 134.944 122.164 134.924C122.182 134.904 122.205 134.888 122.229 134.876C122.254 134.865 122.281 134.858 122.308 134.857C123.487 134.808 124.666 134.964 125.792 135.318C125.838 135.334 125.877 135.366 125.902 135.409C125.927 135.451 125.936 135.501 125.928 135.549C125.92 135.598 125.894 135.642 125.857 135.673C125.819 135.705 125.772 135.722 125.723 135.722V135.723Z" fill="#9B3C82"/>
<path d="M135.364 152.964C135.32 153 135.274 153.036 135.23 153.07H135.229C132.099 155.492 128.445 157.146 124.561 157.901C124.557 157.903 124.553 157.903 124.548 157.904C124.482 157.916 124.418 157.927 124.358 157.938C124.261 157.954 124.172 157.969 124.089 157.983L123.227 157.194L119.068 135.694C121.899 143.205 130.245 150.918 135.364 152.964Z" fill="#9B3C82"/>
<path d="M84.0736 146.335C82.7755 148.932 77.9075 154.45 77.9075 154.45L85.9271 193.24L115.013 181.392C115.013 181.392 111.227 160.185 98.4616 145.902L84.0736 146.335Z" fill="#F94F46"/>
<path d="M88.401 181.284C79.2056 179.444 56.3796 186.802 57.6777 193.077C59.1079 199.991 88.401 181.284 88.401 181.284Z" fill="#5B2448"/>
<path d="M128.428 181.825C128.428 181.825 127.995 183.015 117.87 187.317C107.746 191.619 96.8389 204.222 82.5311 205.681C71.0196 206.855 64.8143 199.732 62.9633 192.494C62.5255 190.804 62.3264 189.062 62.3717 187.317C67.2257 183.468 71.4999 181.378 75.1088 180.342C80.0818 178.912 83.7902 179.481 86.009 180.199C87.5776 180.704 88.4006 181.284 88.4006 181.284L87.9678 183.123C91.0207 181.572 94.3223 180.195 97.6229 178.999C100.924 177.802 104.223 176.787 107.27 175.957C109.279 175.117 110.686 174.359 112.633 172.844C114.58 171.33 117.609 167.651 116.96 171.113C116.78 172.113 116.419 173.071 115.896 173.942C118.671 173.414 120.633 173.189 121.287 173.278C123.667 173.602 123.667 175.334 123.667 175.334C125.398 176.091 125.29 177.714 125.29 177.714C125.701 177.935 126.059 178.244 126.34 178.617C126.62 178.991 126.815 179.421 126.913 179.878C127.995 180.202 128.428 181.825 128.428 181.825Z" fill="#F4ADA2"/>
<path d="M106.25 176.19C106.2 176.19 106.151 176.172 106.113 176.139C106.075 176.105 106.051 176.059 106.044 176.009C106.037 175.959 106.049 175.909 106.077 175.867C106.105 175.825 106.147 175.794 106.196 175.781C109.879 174.776 113.035 174.107 116.376 173.398C116.403 173.392 116.431 173.391 116.458 173.395C116.486 173.4 116.512 173.41 116.535 173.425C116.559 173.44 116.579 173.459 116.595 173.482C116.61 173.504 116.621 173.53 116.627 173.557C116.633 173.584 116.633 173.612 116.628 173.639C116.623 173.667 116.612 173.692 116.597 173.716C116.582 173.739 116.562 173.758 116.539 173.774C116.516 173.789 116.49 173.8 116.463 173.805C113.127 174.513 109.976 175.181 106.305 176.182C106.287 176.187 106.269 176.19 106.25 176.19Z" fill="#9B3C82"/>
<path d="M119.71 175.949C119.664 175.949 119.62 175.934 119.583 175.906C119.547 175.878 119.521 175.839 119.509 175.795C119.497 175.751 119.5 175.705 119.517 175.662C119.534 175.62 119.565 175.584 119.604 175.561C121.5 174.445 123.306 174.704 124.074 175.033C124.124 175.056 124.163 175.097 124.183 175.148C124.203 175.198 124.202 175.255 124.181 175.305C124.159 175.356 124.119 175.395 124.068 175.416C124.018 175.437 123.961 175.436 123.91 175.416C123.214 175.117 121.568 174.887 119.815 175.92C119.783 175.939 119.747 175.949 119.71 175.949Z" fill="#9B3C82"/>
<path d="M121.234 178.516C121.189 178.516 121.145 178.502 121.109 178.475C121.073 178.448 121.047 178.411 121.034 178.368C121.021 178.325 121.023 178.279 121.038 178.237C121.053 178.195 121.082 178.159 121.119 178.134C122.764 177.056 124.669 176.957 125.699 177.415C125.724 177.426 125.747 177.442 125.766 177.461C125.784 177.481 125.799 177.505 125.809 177.53C125.819 177.556 125.823 177.583 125.823 177.61C125.822 177.637 125.816 177.664 125.805 177.689C125.794 177.714 125.778 177.737 125.758 177.756C125.738 177.774 125.715 177.789 125.689 177.799C125.664 177.809 125.637 177.814 125.609 177.813C125.582 177.812 125.555 177.806 125.53 177.795C124.625 177.392 122.851 177.497 121.347 178.482C121.314 178.504 121.274 178.516 121.234 178.516Z" fill="#9B3C82"/>
<path d="M123.019 180.734C122.973 180.734 122.929 180.719 122.893 180.692C122.856 180.664 122.83 180.626 122.818 180.582C122.806 180.538 122.809 180.491 122.826 180.449C122.843 180.407 122.873 180.371 122.912 180.348C124.21 179.573 125.759 179.239 127.055 179.455C127.11 179.465 127.158 179.495 127.191 179.54C127.223 179.585 127.235 179.64 127.226 179.695C127.217 179.749 127.187 179.798 127.142 179.83C127.097 179.862 127.041 179.875 126.987 179.866C125.785 179.666 124.342 179.979 123.125 180.705C123.093 180.724 123.056 180.734 123.019 180.734Z" fill="#9B3C82"/>
<path d="M76.393 190.472C76.3505 190.472 76.3089 190.459 76.274 190.435C76.2391 190.411 76.2124 190.376 76.1977 190.336C76.1829 190.296 76.1808 190.253 76.1916 190.212C76.2023 190.17 76.2255 190.134 76.2579 190.106C79.1577 187.635 84.0263 184.591 89.2813 181.963C89.3306 181.939 89.3877 181.935 89.4401 181.952C89.4924 181.97 89.5357 182.007 89.5603 182.056C89.585 182.106 89.5891 182.163 89.5716 182.215C89.5542 182.268 89.5167 182.311 89.4673 182.335C84.2406 184.949 79.4033 187.972 76.5276 190.423C76.4901 190.455 76.4424 190.472 76.393 190.472Z" fill="#9B3C82"/>
<path d="M99.3798 116.578C98.7815 116.407 98.1512 116.38 97.5405 116.5C96.9299 116.62 96.3564 116.883 95.8671 117.268C93.9331 113.602 88.9078 115.254 88.7622 118.345C84.6841 116.292 81.0591 121.108 83.1346 124.094C83.8966 125.19 85.2558 127.525 85.0974 129.656C86.9873 130.12 91.0381 133.771 91.0381 133.771C91.0381 133.771 97.2354 124.819 100.041 123.363C103.543 121.545 101.964 117.379 99.3798 116.578Z" fill="#5B2448"/>
<path d="M94.3752 119.724C94.3641 119.724 94.3531 119.723 94.3421 119.722C94.3082 119.717 94.2755 119.706 94.2458 119.689C94.2161 119.672 94.1901 119.65 94.1692 119.623C94.1483 119.596 94.1329 119.565 94.1239 119.532C94.115 119.499 94.1126 119.464 94.117 119.43C94.4126 117.108 96.6247 116.188 96.7187 116.15C96.7826 116.124 96.8542 116.125 96.9177 116.152C96.9812 116.179 97.0314 116.23 97.0572 116.294C97.0831 116.358 97.0825 116.429 97.0556 116.493C97.0287 116.556 96.9777 116.607 96.9138 116.632C96.8857 116.644 94.8889 117.485 94.6329 119.496C94.625 119.559 94.5945 119.617 94.547 119.659C94.4996 119.701 94.4385 119.724 94.3752 119.724Z" fill="#9B3C82"/>
<path d="M105.283 134.573C105.596 135.626 105.263 136.862 104.271 137.733C101.69 140 97.6506 139.922 97.6506 139.922C97.6506 139.922 97.6619 142.184 98.4617 145.902C98.7862 153.909 86.7782 149.473 84.0737 146.335C84.0737 146.335 86.5618 141.466 87.5021 136.997C85.3759 137.158 81.7157 135.672 81.6283 132.762C81.5786 131.103 82.9992 129.437 84.7582 129.563C86.4661 129.686 87.2812 130.518 88.8785 131.654C90.361 132.708 90.5558 131.898 91.0238 130.143C91.4109 128.746 92.0566 127.433 92.9273 126.273C94.4264 124.349 97.7728 123.602 100.041 123.363C100.397 125.048 100.865 126.708 101.44 128.332C102.439 131.186 104.552 132.115 105.283 134.573Z" fill="#F4ADA2"/>
<path d="M92.9511 127.884L92.9199 127.711C92.9117 127.657 92.9055 127.604 92.9022 127.551C92.8946 127.447 92.8943 127.342 92.9013 127.237C92.9152 127.028 92.954 126.821 93.0169 126.621C93.1476 126.2 93.3761 125.815 93.6838 125.499C93.8443 125.331 94.0271 125.186 94.2271 125.067C94.4296 124.948 94.6492 124.86 94.8782 124.807C95.1025 124.754 95.3341 124.74 95.5631 124.765C95.7879 124.786 96.0056 124.855 96.2019 124.967C96.2737 125.008 96.3346 125.066 96.3798 125.135C96.4249 125.205 96.4531 125.284 96.4618 125.366C96.4705 125.448 96.4597 125.532 96.4301 125.609C96.4005 125.686 96.353 125.756 96.2915 125.811L96.2187 125.876C96.0749 126.005 95.9484 126.092 95.8377 126.186C95.7249 126.272 95.6297 126.358 95.539 126.433C95.361 126.587 95.2056 126.717 95.0341 126.87C94.8636 127.02 94.6894 127.199 94.4946 127.4L94.1899 127.721C94.1379 127.777 94.0813 127.835 94.0241 127.893C93.8979 128.032 93.7367 128.136 93.557 128.192C93.4634 128.222 93.364 128.229 93.2672 128.212C93.2028 128.198 93.1426 128.169 93.0919 128.127C93.0413 128.085 93.0018 128.031 92.9768 127.97C92.9654 127.942 92.9568 127.914 92.9511 127.884Z" fill="#5B2448"/>
<path d="M94.1211 129.161C94.5834 128.957 95.7039 128.494 96.6686 127.718C96.7008 127.692 96.7378 127.672 96.7775 127.661C96.8172 127.649 96.8587 127.646 96.8998 127.65C96.9409 127.655 96.9806 127.668 97.0167 127.688C97.0529 127.708 97.0846 127.735 97.1102 127.767C97.3887 128.119 97.738 128.766 97.0126 129.21C96.1214 129.756 94.5044 129.779 94.0804 129.43C94.0597 129.412 94.0439 129.389 94.0344 129.364C94.025 129.338 94.0221 129.311 94.0262 129.284C94.0303 129.257 94.0411 129.232 94.0577 129.21C94.0743 129.188 94.0962 129.171 94.1211 129.161Z" fill="#5B2448"/>
<path d="M100.525 126.806C100.048 126.972 99.6778 127.012 98.7583 127.091C98.7172 127.094 98.6771 127.105 98.6402 127.124C98.6034 127.143 98.5706 127.168 98.5437 127.2C98.5168 127.231 98.4963 127.267 98.4834 127.306C98.4705 127.346 98.4654 127.387 98.4685 127.428C98.5034 127.875 98.8103 128.269 99.5259 128.198C100.323 128.119 100.689 127.441 100.738 126.976C100.741 126.949 100.737 126.922 100.727 126.897C100.716 126.872 100.7 126.85 100.678 126.833C100.657 126.816 100.632 126.805 100.605 126.8C100.578 126.795 100.551 126.798 100.525 126.806Z" fill="#5B2448"/>
<path d="M86.9281 137.583C86.6394 137.589 86.3514 137.553 86.0732 137.475C86.0408 137.465 86.0107 137.448 85.9847 137.426C85.9587 137.404 85.9373 137.377 85.9217 137.346C85.9062 137.316 85.8968 137.283 85.894 137.249C85.8913 137.215 85.8953 137.18 85.9058 137.148C85.9163 137.115 85.9331 137.085 85.9552 137.059C85.9773 137.033 86.0043 137.012 86.0347 136.996C86.0651 136.981 86.0983 136.971 86.1323 136.969C86.1663 136.966 86.2006 136.97 86.2331 136.98C86.2515 136.986 87.3839 137.326 88.8429 136.562C88.904 136.53 88.9753 136.524 89.0411 136.545C89.1069 136.565 89.1619 136.611 89.1938 136.672C89.2258 136.733 89.2322 136.805 89.2116 136.87C89.191 136.936 89.1452 136.991 89.0841 137.023C88.4215 137.382 87.6815 137.574 86.9281 137.583Z" fill="#9B3C82"/>
<path d="M101.954 124.604L101.877 124.464C101.852 124.422 101.826 124.381 101.798 124.342C101.744 124.265 101.684 124.191 101.619 124.122C101.49 123.983 101.345 123.861 101.187 123.757C100.854 123.537 100.475 123.398 100.079 123.353C99.8701 123.327 99.659 123.329 99.4513 123.361C99.2413 123.393 99.0374 123.457 98.8467 123.551C98.6595 123.642 98.4894 123.764 98.3434 123.913C98.1981 124.056 98.0849 124.229 98.0114 124.419C97.9848 124.489 97.9752 124.564 97.9832 124.639C97.9913 124.713 98.0169 124.785 98.0578 124.847C98.0987 124.91 98.1539 124.962 98.2188 124.999C98.2837 125.037 98.3565 125.058 98.4312 125.062L98.5193 125.066C98.6934 125.073 98.8321 125.062 98.963 125.064C99.0913 125.06 99.2073 125.066 99.3133 125.067C99.526 125.073 99.7093 125.075 99.9164 125.084C100.122 125.091 100.346 125.117 100.597 125.146L100.994 125.196C101.063 125.206 101.135 125.214 101.208 125.222C101.376 125.248 101.548 125.228 101.706 125.165C101.789 125.132 101.862 125.08 101.92 125.013C101.958 124.966 101.983 124.912 101.994 124.853C102.006 124.795 102.003 124.734 101.985 124.677C101.977 124.652 101.967 124.627 101.954 124.604Z" fill="#5B2448"/>
<path d="M97.6507 139.922C97.6507 139.922 94.9957 139.688 93.4224 138.636C92.9762 139.046 93.6125 142.544 97.8973 142.89C101.186 143.156 97.6507 139.922 97.6507 139.922Z" fill="#5B2448"/>
<path opacity="0.52" d="M93.8861 135.119C95.0441 135.119 95.9828 134.18 95.9828 133.022C95.9828 131.863 95.0441 130.925 93.8861 130.925C92.7281 130.925 91.7894 131.863 91.7894 133.022C91.7894 134.18 92.7281 135.119 93.8861 135.119Z" fill="#E57281"/>
<path d="M100.909 132.928C100.817 133.105 100.687 133.26 100.529 133.382C100.376 133.501 100.205 133.596 100.022 133.662C99.6539 133.8 99.2535 133.829 98.8689 133.746C98.677 133.7 98.4927 133.626 98.3215 133.528C98.1514 133.428 97.9978 133.302 97.866 133.155C97.597 132.865 97.4443 132.486 97.437 132.09C97.4373 132.035 97.4568 131.982 97.4921 131.94C97.5275 131.898 97.5765 131.87 97.6305 131.861C97.6845 131.851 97.7401 131.861 97.7876 131.889C97.8351 131.916 97.8714 131.96 97.8902 132.011L97.8954 132.026C97.987 132.279 98.1414 132.505 98.344 132.683C98.4428 132.769 98.552 132.843 98.6691 132.902C98.7846 132.963 98.9076 133.009 99.0348 133.038C99.295 133.093 99.5641 133.088 99.8222 133.025C100.085 132.968 100.328 132.845 100.528 132.666L100.54 132.654C100.58 132.616 100.632 132.594 100.686 132.591C100.741 132.588 100.795 132.604 100.839 132.637C100.883 132.669 100.914 132.716 100.927 132.77C100.94 132.823 100.934 132.879 100.909 132.928L100.909 132.928Z" fill="#9B3C82"/>
<path d="M87.9188 134.329C87.8725 134.329 87.8271 134.317 87.7872 134.293C87.7473 134.27 87.7143 134.236 87.6918 134.196C86.2909 131.69 84.1012 132.292 84.0089 132.32C83.9427 132.339 83.8714 132.332 83.8108 132.299C83.7502 132.266 83.7051 132.21 83.6856 132.144C83.666 132.078 83.6736 132.007 83.7066 131.946C83.7395 131.885 83.7952 131.84 83.8614 131.821C83.888 131.813 86.537 131.064 88.1455 133.941C88.1676 133.981 88.179 134.026 88.1786 134.071C88.1781 134.116 88.1658 134.161 88.1429 134.2C88.12 134.239 88.0873 134.271 88.0479 134.294C88.0086 134.317 87.9641 134.328 87.9188 134.328V134.329Z" fill="#9B3C82"/>
<path d="M99.8567 130.673C99.8161 130.673 99.7763 130.661 99.7423 130.639C99.7084 130.616 99.6817 130.584 99.6657 130.547C99.6496 130.51 99.6449 130.468 99.6521 130.428C99.6593 130.388 99.678 130.351 99.7061 130.322C100.032 129.978 100.182 129.727 100.164 129.554C100.144 129.361 99.9045 129.183 99.5132 128.913C98.4042 128.149 98.4771 127.408 98.4809 127.377C98.4879 127.323 98.5157 127.274 98.5584 127.24C98.6011 127.206 98.6553 127.191 98.7093 127.197C98.7633 127.203 98.813 127.229 98.8475 127.271C98.8821 127.313 98.8989 127.367 98.8943 127.421C98.8934 127.44 98.8766 127.969 99.7492 128.57C100.171 128.862 100.536 129.113 100.577 129.51C100.61 129.821 100.434 130.16 100.008 130.608C99.9881 130.629 99.9647 130.645 99.9388 130.656C99.9129 130.667 99.885 130.673 99.8567 130.673Z" fill="#5B2448"/>
<path d="M98.4615 145.902C99.3263 141.289 111.876 136.38 119.068 135.694C120.314 142.764 131.457 157.804 136.866 156.722C136.866 156.722 124.858 163.214 109.388 163.755L98.4615 145.902Z" fill="#F94F46"/>
<path d="M88.401 181.284C77.9075 181.716 66.6567 186.91 62.9634 192.493C62.5256 190.804 62.3265 189.061 62.3718 187.317C67.2258 183.467 71.5 181.378 75.1089 180.341C79.3031 179.932 83.4475 179.747 86.0092 180.198C87.2012 180.408 88.0493 180.757 88.401 181.284Z" fill="#9B3C82"/>
<path d="M82.7756 148.391C78.4321 146.126 68.8202 152.935 62.113 170.572C55.676 187.498 57.6776 193.078 57.6776 193.078C57.6776 193.078 57.3531 189.615 65.0339 185.829C71.9422 182.423 82.9915 180.419 88.4009 181.284C88.401 181.284 92.945 153.693 82.7756 148.391Z" fill="#F94F46"/>
<path d="M88.9279 181.379L88.4145 181.297C88.4256 181.227 89.5224 174.264 89.3504 166.741C89.2496 162.334 88.7399 158.602 87.8354 155.648C86.7171 151.996 84.9925 149.541 82.7091 148.351C81.7971 147.875 80.8522 147.88 79.339 148.368L79.1794 147.873C80.8201 147.344 81.9124 147.349 82.9493 147.89C85.3616 149.147 87.1727 151.707 88.3332 155.498C89.2516 158.499 89.7682 162.279 89.8701 166.736C90.0427 174.305 88.9391 181.309 88.9279 181.379Z" fill="#FCB6B1"/>
<path d="M109.955 164.814C104.625 152.979 98.0533 146.115 97.9872 146.047L98.2859 145.757C98.3523 145.826 104.972 152.738 110.334 164.644L109.955 164.814Z" fill="#FCB6B1"/>
<path d="M95.0414 158.827C94.866 158.826 94.6914 158.805 94.5208 158.764C92.4299 158.286 89.5249 155.162 85.649 150.801C85.6308 150.781 85.6169 150.757 85.6079 150.731C85.599 150.705 85.5952 150.678 85.5968 150.651C85.5984 150.623 85.6054 150.597 85.6173 150.572C85.6292 150.547 85.6458 150.525 85.6662 150.507C85.6867 150.489 85.7104 150.475 85.7362 150.466C85.7621 150.457 85.7894 150.454 85.8166 150.455C85.8439 150.457 85.8706 150.464 85.8952 150.476C85.9197 150.488 85.9417 150.504 85.9599 150.525C89.1707 154.137 92.4908 157.873 94.6134 158.359C95.1427 158.479 95.5376 158.392 95.8206 158.092C96.4076 157.468 96.5336 155.93 96.1845 153.647C96.0057 152.514 95.7601 151.393 95.449 150.289C95.4354 150.243 95.4382 150.193 95.4568 150.149C95.4755 150.105 95.5089 150.068 95.5514 150.046C95.5939 150.023 95.6428 150.016 95.6898 150.026C95.7369 150.036 95.7792 150.061 95.8096 150.098C95.826 150.119 97.4745 152.13 99.1421 153.647C100.583 154.957 102.276 155.672 102.841 155.209C103.144 154.961 103.579 153.937 101.096 149.796C101.067 149.749 101.059 149.692 101.072 149.639C101.085 149.585 101.12 149.539 101.167 149.511C101.214 149.482 101.271 149.474 101.324 149.487C101.378 149.501 101.424 149.535 101.452 149.582C103.401 152.831 103.957 154.832 103.105 155.531C102.248 156.234 100.279 155.243 98.8622 153.954C97.8851 153.044 96.9589 152.081 96.088 151.068C96.5463 152.911 97.3861 157.033 96.1234 158.376C95.9853 158.524 95.8174 158.641 95.6309 158.718C95.4443 158.796 95.2434 158.833 95.0414 158.827Z" fill="#FCB6B1"/>
<path d="M98.5156 164.558C98.463 164.558 98.4125 164.538 98.374 164.503C98.3356 164.467 98.3121 164.418 98.3084 164.365C98.3046 164.313 98.3208 164.261 98.3537 164.22C98.3866 164.179 98.4338 164.152 98.4857 164.145C98.9309 164.08 100.138 163.764 100.375 163.091C100.891 161.63 98.4903 156.638 96.5617 152.627C96.1699 151.812 95.7997 151.043 95.4606 150.318C95.4372 150.268 95.4345 150.211 95.4533 150.159C95.472 150.107 95.5106 150.065 95.5606 150.041C95.6106 150.018 95.6678 150.015 95.7197 150.034C95.7716 150.053 95.8139 150.091 95.8373 150.141C96.1756 150.864 96.5451 151.633 96.9365 152.446C99.0007 156.739 101.34 161.605 100.767 163.229C100.398 164.276 98.6209 164.545 98.5455 164.556C98.5356 164.557 98.5256 164.558 98.5156 164.558Z" fill="#FCB6B1"/>
<path d="M98.9587 161.644C99.1573 161.644 99.3184 161.482 99.3184 161.284C99.3184 161.085 99.1573 160.924 98.9587 160.924C98.76 160.924 98.599 161.085 98.599 161.284C98.599 161.482 98.76 161.644 98.9587 161.644Z" fill="#FCB6B1"/>
<path d="M97.903 158.034C98.1017 158.034 98.2627 157.873 98.2627 157.674C98.2627 157.476 98.1017 157.315 97.903 157.315C97.7044 157.315 97.5433 157.476 97.5433 157.674C97.5433 157.873 97.7044 158.034 97.903 158.034Z" fill="#FCB6B1"/>
<path d="M134.039 100.303C134.007 100.303 133.975 100.296 133.947 100.282C133.918 100.268 133.893 100.247 133.874 100.222C132.665 98.641 130.122 97.1253 127.605 97.287C127.55 97.2905 127.496 97.272 127.455 97.2356C127.413 97.1992 127.388 97.1478 127.384 97.0927C127.381 97.0377 127.399 96.9835 127.436 96.942C127.472 96.9006 127.524 96.8754 127.579 96.8718C129.93 96.722 132.717 98.0238 134.204 99.9691C134.228 99.9999 134.242 100.037 134.246 100.075C134.25 100.114 134.243 100.153 134.225 100.188C134.208 100.222 134.182 100.252 134.149 100.272C134.116 100.293 134.078 100.303 134.039 100.303Z" fill="#9B3C82"/>
</g>
<g clip-path="url(#clip1_117_2178)">
<path d="M162.543 168.035L180.414 125.995L199.246 126.114L181.254 168.154L162.543 168.035Z" fill="#66B0F0"/>
<path d="M181.073 169.113C180.924 169.113 180.777 169.076 180.646 169.005C180.515 168.934 180.404 168.832 180.322 168.707C180.24 168.583 180.19 168.44 180.177 168.292C180.165 168.144 180.189 167.994 180.248 167.858L198.057 126.713H181.068L163.19 168.448C163.143 168.556 163.076 168.655 162.991 168.737C162.907 168.82 162.807 168.885 162.697 168.928C162.588 168.972 162.47 168.994 162.352 168.993C162.234 168.991 162.117 168.967 162.009 168.92C161.9 168.874 161.802 168.807 161.719 168.722C161.637 168.638 161.572 168.538 161.528 168.429C161.484 168.319 161.462 168.202 161.463 168.084C161.465 167.966 161.489 167.85 161.536 167.741L179.647 125.462C179.716 125.3 179.832 125.162 179.979 125.065C180.126 124.968 180.298 124.917 180.475 124.917H199.426C199.575 124.917 199.722 124.954 199.853 125.024C199.984 125.095 200.096 125.197 200.178 125.322C200.259 125.446 200.309 125.589 200.322 125.737C200.335 125.886 200.311 126.035 200.251 126.171L181.9 168.571C181.83 168.732 181.715 168.869 181.568 168.965C181.421 169.062 181.249 169.113 181.073 169.113Z" fill="#FAA200"/>
<path d="M181.056 166.5C181.454 166.5 181.835 166.658 182.117 166.939C182.398 167.22 182.556 167.6 182.556 167.997C182.556 168.394 182.398 168.775 182.117 169.056C181.835 169.337 181.454 169.495 181.056 169.495L130.457 169.51C130.06 169.51 129.678 169.352 129.397 169.071C129.116 168.79 128.958 168.409 128.958 168.012C128.958 167.615 129.116 167.234 129.397 166.954C129.678 166.673 130.06 166.515 130.457 166.515L181.056 166.5H181.056ZM181.056 165.901H181.056L130.457 165.916C129.943 165.916 129.447 166.104 129.062 166.445C128.678 166.786 128.432 167.255 128.371 167.765C128.311 168.275 128.44 168.789 128.733 169.21C129.027 169.632 129.466 169.931 129.965 170.05C130.127 170.089 130.292 170.108 130.457 170.108L181.057 170.093C181.614 170.093 182.147 169.873 182.541 169.48C182.935 169.086 183.156 168.553 183.156 167.997C183.156 167.441 182.935 166.908 182.541 166.515C182.147 166.122 181.614 165.901 181.057 165.901H181.056Z" fill="white"/>
<path d="M130.106 169.468C129.749 169.383 129.435 169.169 129.225 168.868C129.015 168.567 128.923 168.2 128.967 167.836C129.01 167.471 129.186 167.136 129.461 166.892C129.735 166.649 130.09 166.515 130.457 166.515L181.056 166.5C181.253 166.5 181.448 166.539 181.63 166.614C181.812 166.689 181.977 166.799 182.117 166.938C182.256 167.077 182.366 167.242 182.442 167.424C182.517 167.606 182.556 167.8 182.556 167.997C182.556 168.194 182.517 168.388 182.442 168.57C182.367 168.752 182.256 168.917 182.117 169.056C181.978 169.195 181.813 169.305 181.631 169.38C181.449 169.456 181.254 169.494 181.057 169.494L130.457 169.509C130.339 169.509 130.221 169.496 130.106 169.468Z" fill="#5B2448"/>
<path d="M179.195 168.583C179.493 168.583 179.734 168.341 179.734 168.044C179.734 167.746 179.493 167.505 179.195 167.505C178.897 167.505 178.655 167.746 178.655 168.044C178.655 168.341 178.897 168.583 179.195 168.583Z" fill="#FFCF2D"/>
<path d="M176.678 168.473H176.675L172.98 168.449C172.853 168.449 172.731 168.397 172.642 168.307C172.552 168.216 172.502 168.094 172.503 167.967C172.504 167.84 172.555 167.719 172.646 167.629C172.737 167.54 172.859 167.49 172.986 167.491L176.681 167.515C176.808 167.516 176.93 167.566 177.02 167.657C177.109 167.747 177.16 167.869 177.159 167.996C177.159 168.123 177.108 168.245 177.018 168.334C176.927 168.424 176.805 168.474 176.678 168.473Z" fill="#FFCF2D"/>
</g>
<g clip-path="url(#clip2_117_2178)">
<path d="M136.433 184.805V179.255C136.433 177.962 137.476 176.908 138.756 176.908H181.711C182.991 176.908 184.033 177.962 184.033 179.255V184.762C184.033 186.055 182.991 187.108 181.711 187.108H138.714C137.451 187.108 136.433 186.081 136.433 184.805Z" fill="#3FB1B5"/>
<path d="M177.548 187.108V176.908H176.277V187.108H177.548Z" fill="#5B2448"/>
<path d="M146.572 187.108V176.908H144.029V187.108H146.572Z" fill="#5B2448"/>
</g>
<g clip-path="url(#clip3_117_2178)">
<path d="M145.358 194.355V188.503C145.358 187.575 146.102 186.825 147.023 186.825L175.569 186.825C176.489 186.825 177.233 187.575 177.233 188.503V194.348C177.233 195.275 176.489 196.025 175.569 196.025L147.03 196.025C146.102 196.033 145.358 195.283 145.358 194.355Z" fill="#FAA200"/>
<path d="M169.671 196.033L169.671 186.825H168.521L168.521 196.033H169.671Z" fill="#F94F46"/>
<path d="M173.176 196.033L173.176 186.825H172.026L172.026 196.033H173.176Z" fill="#F94F46"/>
<path d="M149.791 196.033L149.791 186.825H147.49L147.49 196.033H149.791Z" fill="#F94F46"/>
</g>
<g clip-path="url(#clip4_117_2178)">
<path d="M114.179 107.797C114.102 107.805 114.025 107.788 113.958 107.749C113.892 107.71 113.839 107.651 113.808 107.58C113.73 107.402 105.954 89.6505 99.4257 79.3179C99.3749 79.2361 99.3587 79.1377 99.3804 79.044C99.4022 78.9503 99.4601 78.869 99.5418 78.8177C99.6234 78.7664 99.722 78.7494 99.8161 78.7703C99.9102 78.7912 99.9922 78.8483 100.044 78.9292C106.602 89.3091 114.4 107.11 114.478 107.289C114.501 107.342 114.512 107.399 114.508 107.456C114.505 107.514 114.488 107.569 114.458 107.619C114.429 107.669 114.389 107.711 114.34 107.741C114.292 107.772 114.236 107.792 114.179 107.797Z" fill="#90C6F5"/>
<path d="M115.972 98.4381C115.893 98.4459 115.813 98.4278 115.746 98.3867C115.678 98.3455 115.626 98.2836 115.596 98.2101C115.56 98.1198 111.951 89.0988 108.904 83.4646C108.861 83.38 108.853 83.2821 108.882 83.1917C108.911 83.1014 108.973 83.0257 109.057 82.9807C109.141 82.9356 109.239 82.9248 109.33 82.9506C109.421 82.9763 109.499 83.0365 109.547 83.1184C112.614 88.7906 116.239 97.8493 116.275 97.9405C116.296 97.9929 116.304 98.0495 116.3 98.1058C116.295 98.162 116.277 98.2164 116.248 98.2647C116.218 98.3129 116.178 98.3537 116.13 98.3838C116.082 98.4139 116.028 98.4325 115.972 98.4381L115.972 98.4381Z" fill="#90C6F5"/>
</g>
<g clip-path="url(#clip5_117_2178)">
<path d="M156.54 112.943C156.54 112.943 165.237 113.598 172.439 113.598C179.057 113.598 188.011 112.943 188.011 112.943C190.274 112.943 192.108 111.111 192.108 108.851V96.5764C192.108 94.3167 190.274 92.4848 188.011 92.4848C188.011 92.4848 178.186 92.1917 173.257 92.1917C168.546 92.1917 156.54 92.4848 156.54 92.4848C154.276 92.4848 152.442 94.3167 152.442 96.5764V108.851C152.442 111.111 154.276 112.943 156.54 112.943Z" fill="#3FB1B5"/>
<path d="M162.411 111.553C162.411 111.553 161.973 125.774 169.567 132.975C169.747 133.103 169.789 133.353 169.66 133.533C169.563 133.669 169.39 133.73 169.228 133.686C161.754 130.258 157.177 116.887 156.167 111.225L162.411 111.553Z" fill="#3FB1B5"/>
</g>
<g clip-path="url(#clip6_117_2178)">
<path d="M180.917 171.269V175.432C180.917 176.402 180.141 177.192 179.188 177.192L147.228 177.192C146.276 177.192 145.5 176.402 145.5 175.432V171.302C145.5 170.332 146.276 169.542 147.228 169.542L179.22 169.542C180.16 169.542 180.917 170.312 180.917 171.269Z" fill="#F94F46"/>
<path d="M150.325 169.542V177.192H151.271V169.542H150.325Z" fill="#FFCF2D"/>
<path d="M173.373 169.542V177.192H175.265V169.542H173.373Z" fill="#FFCF2D"/>
</g>
<g clip-path="url(#clip7_117_2178)">
<path d="M163.324 107.704L163.323 107.703C163.22 107.688 163.122 107.652 163.033 107.598C162.944 107.543 162.867 107.472 162.805 107.388C162.744 107.304 162.699 107.208 162.675 107.106C162.65 107.005 162.645 106.899 162.661 106.795C163.026 104.425 163.072 102.016 162.798 99.6344C162.773 99.4244 162.833 99.2132 162.963 99.0471C163.093 98.881 163.284 98.7738 163.492 98.7488C163.701 98.7239 163.91 98.7834 164.075 98.9142C164.24 99.045 164.346 99.2365 164.37 99.4464C164.661 101.97 164.613 104.523 164.226 107.035C164.194 107.244 164.081 107.432 163.912 107.557C163.743 107.682 163.532 107.735 163.324 107.704Z" fill="#5B2448"/>
<path d="M163.465 100.329C163.294 100.303 163.135 100.221 163.014 100.095C162.894 99.9694 162.818 99.8072 162.798 99.6335C162.778 99.4597 162.815 99.2841 162.904 99.1336C162.993 98.9831 163.128 98.8662 163.29 98.8008C164.801 98.1884 165.877 98.0242 167.556 98.1496C167.765 98.1653 167.959 98.2641 168.096 98.4242C168.233 98.5844 168.301 98.7927 168.285 99.0035C168.269 99.2143 168.17 99.4102 168.011 99.5483C167.852 99.6863 167.645 99.7551 167.435 99.7395C165.996 99.6319 165.165 99.7581 163.878 100.28C163.747 100.333 163.605 100.35 163.465 100.329Z" fill="#5B2448"/>
<path d="M163.632 104.196C163.471 104.172 163.321 104.098 163.203 103.984C163.085 103.871 163.005 103.724 162.974 103.562C162.943 103.401 162.961 103.234 163.028 103.084C163.095 102.934 163.205 102.808 163.346 102.724C163.797 102.456 164.3 102.287 164.82 102.23C165.341 102.173 165.868 102.228 166.365 102.392C166.464 102.425 166.555 102.477 166.633 102.546C166.711 102.614 166.776 102.698 166.822 102.791C166.868 102.885 166.896 102.987 166.903 103.091C166.91 103.196 166.897 103.301 166.864 103.4C166.83 103.499 166.778 103.591 166.71 103.67C166.642 103.749 166.559 103.814 166.466 103.861C166.372 103.908 166.271 103.935 166.167 103.943C166.064 103.95 165.96 103.937 165.861 103.904C165.58 103.813 165.283 103.783 164.989 103.815C164.696 103.848 164.412 103.942 164.156 104.092C163.999 104.187 163.813 104.224 163.632 104.196Z" fill="#5B2448"/>
<path d="M163.3 107.7C163.116 107.672 162.949 107.581 162.826 107.441C162.703 107.301 162.633 107.122 162.628 106.936C162.622 106.749 162.682 106.567 162.797 106.42C162.912 106.273 163.074 106.171 163.256 106.132C164.691 105.835 166.166 105.792 167.615 106.005L167.621 106.006C167.828 106.037 168.014 106.15 168.138 106.319C168.263 106.489 168.315 106.701 168.284 106.91C168.254 107.118 168.142 107.306 167.974 107.433C167.806 107.559 167.595 107.613 167.388 107.583C166.123 107.397 164.835 107.433 163.582 107.691C163.489 107.711 163.393 107.714 163.3 107.7Z" fill="#5B2448"/>
<path d="M169.501 103.616C169.317 103.588 169.148 103.496 169.025 103.355C168.902 103.214 168.833 103.034 168.829 102.847C168.825 102.659 168.887 102.476 169.004 102.329C169.121 102.183 169.285 102.083 169.468 102.046C170.706 101.801 171.979 101.806 173.214 102.06C173.316 102.081 173.413 102.123 173.499 102.181C173.584 102.24 173.658 102.315 173.715 102.403C173.772 102.49 173.811 102.588 173.831 102.691C173.85 102.794 173.849 102.899 173.828 103.002C173.807 103.104 173.766 103.202 173.707 103.288C173.648 103.375 173.574 103.449 173.487 103.507C173.4 103.564 173.302 103.604 173.2 103.624C173.098 103.644 172.993 103.643 172.891 103.622C171.863 103.41 170.803 103.406 169.773 103.61C169.683 103.628 169.591 103.63 169.501 103.616Z" fill="#5B2448"/>
<path d="M169.426 105.687C169.226 105.657 169.045 105.55 168.921 105.39C168.797 105.23 168.739 105.027 168.758 104.825C168.777 104.622 168.873 104.434 169.025 104.3C169.177 104.166 169.374 104.095 169.576 104.102L172.723 104.216C172.827 104.219 172.929 104.244 173.024 104.287C173.118 104.331 173.203 104.393 173.274 104.469C173.344 104.546 173.399 104.636 173.435 104.734C173.472 104.832 173.488 104.936 173.484 105.041C173.48 105.145 173.456 105.248 173.412 105.344C173.369 105.439 173.307 105.524 173.231 105.596C173.155 105.667 173.066 105.723 172.968 105.759C172.871 105.796 172.767 105.813 172.663 105.809L169.516 105.696C169.486 105.694 169.456 105.692 169.426 105.687Z" fill="#5B2448"/>
<path d="M175.654 107.413C175.648 107.412 175.643 107.411 175.637 107.41C175.535 107.392 175.437 107.354 175.349 107.299C175.261 107.243 175.185 107.17 175.125 107.085C175.066 106.999 175.023 106.903 175 106.801C174.978 106.698 174.975 106.593 174.993 106.49C175.206 105.253 175.225 103.991 175.047 102.749C175.033 102.646 175.038 102.54 175.064 102.439C175.09 102.337 175.135 102.242 175.197 102.158C175.26 102.074 175.338 102.003 175.427 101.949C175.517 101.896 175.616 101.86 175.719 101.845C175.926 101.815 176.138 101.869 176.306 101.995C176.389 102.058 176.459 102.136 176.512 102.226C176.565 102.316 176.6 102.416 176.615 102.519C176.816 103.927 176.795 105.357 176.553 106.759C176.517 106.965 176.403 107.148 176.235 107.27C176.067 107.392 175.858 107.444 175.654 107.413Z" fill="#5B2448"/>
<path d="M178.968 107.32C178.766 107.289 178.584 107.181 178.46 107.018C178.335 106.855 178.279 106.65 178.301 106.446C178.432 105.261 178.503 104.217 178.045 103.439C177.973 103.293 177.858 103.172 177.716 103.092C177.584 103.041 177.368 103.103 177.213 103.237C177.02 103.405 176.868 103.681 176.762 104.058C176.733 104.158 176.685 104.252 176.62 104.335C176.556 104.417 176.476 104.485 176.385 104.536C176.294 104.587 176.194 104.62 176.091 104.632C175.988 104.644 175.883 104.636 175.783 104.607C175.683 104.579 175.59 104.531 175.508 104.466C175.427 104.401 175.359 104.32 175.308 104.229C175.258 104.138 175.226 104.037 175.214 103.933C175.202 103.829 175.211 103.724 175.239 103.623C175.433 102.941 175.749 102.405 176.181 102.031C176.785 101.506 177.614 101.341 178.294 101.607C178.738 101.781 179.113 102.124 179.408 102.624C180.172 103.923 180 105.481 179.875 106.618C179.863 106.722 179.832 106.823 179.781 106.915C179.731 107.007 179.664 107.088 179.583 107.153C179.501 107.219 179.408 107.268 179.308 107.297C179.208 107.326 179.104 107.336 179.001 107.324C178.99 107.323 178.979 107.322 178.968 107.32Z" fill="#5B2448"/>
</g>
<g clip-path="url(#clip8_117_2178)">
<path d="M178.852 108.706C179.056 108.349 178.888 107.865 178.477 107.625C178.065 107.386 177.566 107.481 177.362 107.838C177.158 108.195 177.326 108.678 177.737 108.918C178.149 109.158 178.648 109.063 178.852 108.706Z" fill="#5B2448"/>
<path d="M177.731 106.326C177.567 106.326 177.408 106.277 177.272 106.185C177.136 106.093 177.03 105.963 176.968 105.81C176.528 104.729 176.601 103.817 177.184 103.1C177.648 102.53 178.353 102.193 179.036 101.868C180.321 101.255 181.109 100.816 181.109 99.5705C181.109 99.2998 180.98 98.8632 180.69 98.4979C180.496 98.2546 180.171 97.9644 179.717 97.9644C178.809 97.9644 178.174 98.546 178.174 99.3787C178.174 99.5994 178.087 99.8111 177.933 99.9672C177.778 100.123 177.568 100.211 177.35 100.211C177.131 100.211 176.921 100.123 176.767 99.9672C176.612 99.8111 176.525 99.5994 176.525 99.3787C176.525 98.5123 176.859 97.7219 177.464 97.153C178.049 96.603 178.85 96.3 179.717 96.3C180.582 96.3 181.384 96.711 181.977 97.4572C182.466 98.0739 182.758 98.8639 182.758 99.5705C182.758 100.618 182.395 101.494 181.678 102.175C181.097 102.726 180.376 103.07 179.74 103.373C179.199 103.631 178.687 103.875 178.459 104.156C178.376 104.257 178.204 104.468 178.493 105.177C178.545 105.304 178.564 105.441 178.551 105.577C178.537 105.713 178.491 105.843 178.415 105.957C178.34 106.07 178.238 106.163 178.119 106.228C178 106.292 177.866 106.326 177.731 106.326L177.731 106.326Z" fill="#5B2448"/>
</g>
<defs>
<filter id="filter0_d_117_2178" x="0" y="0" width="373" height="423" filterUnits="userSpaceOnUse" color-interpolation-filters="sRGB">
<feFlood flood-opacity="0" result="BackgroundImageFix"/>
<feColorMatrix in="SourceAlpha" type="matrix" values="0 0 0 0 0 0 0 0 0 0 0 0 0 0 0 0 0 0 127 0" result="hardAlpha"/>
<feOffset dy="6"/>
<feGaussianBlur stdDeviation="17.5"/>
<feComposite in2="hardAlpha" operator="out"/>
<feColorMatrix type="matrix" values="0 0 0 0 0 0 0 0 0 0.09283 0 0 0 0 0.1375 0 0 0 0.05 0"/>
<feBlend mode="normal" in2="BackgroundImageFix" result="effect1_dropShadow_117_2178"/>
<feBlend mode="normal" in="SourceGraphic" in2="effect1_dropShadow_117_2178" result="shape"/>
</filter>
<clipPath id="clip0_117_2178">
<rect width="87.6917" height="121.833" fill="white" transform="translate(57.3833 83.9751)"/>
</clipPath>
<clipPath id="clip1_117_2178">
<rect width="71.9668" height="45.1915" fill="white" transform="translate(128.358 124.917)"/>
</clipPath>
<clipPath id="clip2_117_2178">
<rect width="10.2" height="47.6001" fill="white" transform="translate(184.033 176.908) rotate(90)"/>
</clipPath>
<clipPath id="clip3_117_2178">
<rect width="9.20824" height="31.875" fill="white" transform="translate(177.233 186.825) rotate(90)"/>
</clipPath>
<clipPath id="clip4_117_2178">
<rect width="15.3" height="35.2751" fill="white" transform="matrix(0.995149 -0.0983757 0.0983746 0.995149 98.8479 73.8655)"/>
</clipPath>
<clipPath id="clip5_117_2178">
<rect width="39.6666" height="41.5084" fill="white" transform="matrix(-1 0 0 1 192.108 92.1917)"/>
</clipPath>
<clipPath id="clip6_117_2178">
<rect width="7.64999" height="35.4167" fill="white" transform="translate(145.5 177.192) rotate(-90)"/>
</clipPath>
<clipPath id="clip7_117_2178">
<rect width="11.7584" height="14.45" fill="white" transform="translate(163.772 93.0134) rotate(8.61681)"/>
</clipPath>
<clipPath id="clip8_117_2178">
<rect width="6.23339" height="12.75" fill="white" transform="translate(176.525 96.3)"/>
</clipPath>
</defs>
</svg>
