<svg width="16" height="16" viewBox="0 0 16 16" fill="none" xmlns="http://www.w3.org/2000/svg">
<path d="M7.99998 1.33331C4.32598 1.33331 1.33331 4.32598 1.33331 7.99998C1.33331 11.674 4.32598 14.6666 7.99998 14.6666C11.674 14.6666 14.6666 11.674 14.6666 7.99998C14.6666 4.32598 11.674 1.33331 7.99998 1.33331ZM7.99998 2.66665C10.9534 2.66665 13.3333 5.04656 13.3333 7.99998C13.3333 10.9534 10.9534 13.3333 7.99998 13.3333C5.04656 13.3333 2.66665 10.9534 2.66665 7.99998C2.66665 5.04656 5.04656 2.66665 7.99998 2.66665ZM7.33331 3.99998V8.27602L10.1953 11.138L11.138 10.1953L8.66665 7.72394V3.99998H7.33331Z" fill="white"/>
</svg>
