<svg width="373" height="423" viewBox="0 0 373 423" fill="none" xmlns="http://www.w3.org/2000/svg">
<g filter="url(#filter0_d_117_1758)">
<rect x="35" y="29" width="303" height="353" rx="30" fill="white"/>
</g>
<path d="M70.74 283.726C70.74 287.906 73.92 290.826 77.84 290.826C80.74 290.826 83.24 289.386 84.3 286.666H81.56C80.82 288.146 79.5 288.846 77.84 288.846C75.08 288.846 73.08 286.866 73.08 283.726C73.08 280.586 75.08 278.626 77.84 278.626C79.5 278.626 80.82 279.326 81.56 280.806H84.3C83.24 278.086 80.74 276.626 77.84 276.626C73.92 276.626 70.74 279.566 70.74 283.726ZM97.4688 285.186C97.4688 281.726 94.9888 279.506 91.8488 279.506C88.7088 279.506 86.2288 281.726 86.2288 285.186C86.2288 288.646 88.6088 290.886 91.7488 290.886C94.9088 290.886 97.4688 288.646 97.4688 285.186ZM88.5488 285.186C88.5488 282.686 90.0888 281.486 91.8088 281.486C93.5088 281.486 95.1288 282.686 95.1288 285.186C95.1288 287.686 93.4488 288.906 91.7488 288.906C90.0288 288.906 88.5488 287.686 88.5488 285.186ZM115.343 290.706H117.603V284.206C117.603 281.126 115.643 279.506 113.063 279.506C111.463 279.506 109.903 280.346 109.223 281.686C108.463 280.246 107.003 279.506 105.263 279.506C103.943 279.506 102.743 280.046 102.003 280.946V279.686H99.7227V290.706H102.003V284.546C102.003 282.526 103.103 281.486 104.783 281.486C106.443 281.486 107.543 282.526 107.543 284.546V290.706H109.803V284.546C109.803 282.526 110.903 281.486 112.583 281.486C114.243 281.486 115.343 282.526 115.343 284.546V290.706ZM122.784 281.306V279.686H120.504V295.946H122.784V289.106C123.504 289.966 124.804 290.886 126.624 290.886C129.524 290.886 131.804 288.546 131.804 285.146C131.804 281.746 129.524 279.506 126.624 279.506C124.824 279.506 123.484 280.386 122.784 281.306ZM129.484 285.146C129.484 287.526 127.844 288.906 126.124 288.906C124.424 288.906 122.784 287.566 122.784 285.186C122.784 282.826 124.424 281.486 126.124 281.486C127.844 281.486 129.484 282.766 129.484 285.146ZM134.059 290.706H136.339V275.906H134.059V290.706ZM143.972 281.426C145.672 281.426 147.012 282.506 147.052 284.206H140.952C141.192 282.466 142.432 281.426 143.972 281.426ZM149.132 287.426H146.672C146.252 288.286 145.472 288.966 144.072 288.966C142.392 288.966 141.092 287.866 140.932 286.046H149.352C149.412 285.666 149.432 285.306 149.432 284.926C149.432 281.686 147.212 279.506 144.072 279.506C140.812 279.506 138.572 281.726 138.572 285.186C138.572 288.646 140.912 290.886 144.072 290.886C146.772 290.886 148.512 289.346 149.132 287.426ZM152.036 287.646C152.036 289.886 153.256 290.706 155.216 290.706H157.016V288.806H155.616C154.656 288.806 154.336 288.466 154.336 287.646V281.546H157.016V279.686H154.336V276.946H152.036V279.686H150.736V281.546H152.036V287.646ZM163.757 281.426C165.457 281.426 166.797 282.506 166.837 284.206H160.737C160.977 282.466 162.217 281.426 163.757 281.426ZM168.917 287.426H166.457C166.037 288.286 165.257 288.966 163.857 288.966C162.177 288.966 160.877 287.866 160.717 286.046H169.137C169.197 285.666 169.217 285.306 169.217 284.926C169.217 281.686 166.997 279.506 163.857 279.506C160.597 279.506 158.357 281.726 158.357 285.186C158.357 288.646 160.697 290.886 163.857 290.886C166.557 290.886 168.297 289.346 168.917 287.426ZM180.996 288.086L177.896 279.686H175.356L179.696 290.526L177.456 295.886H179.816L186.576 279.686H184.216L180.996 288.086ZM198.797 285.186C198.797 281.726 196.317 279.506 193.177 279.506C190.037 279.506 187.557 281.726 187.557 285.186C187.557 288.646 189.937 290.886 193.077 290.886C196.237 290.886 198.797 288.646 198.797 285.186ZM189.877 285.186C189.877 282.686 191.417 281.486 193.137 281.486C194.837 281.486 196.457 282.686 196.457 285.186C196.457 287.686 194.777 288.906 193.077 288.906C191.357 288.906 189.877 287.686 189.877 285.186ZM211.031 279.686H208.751V285.826C208.751 287.846 207.651 288.886 205.971 288.886C204.311 288.886 203.211 287.846 203.211 285.826V279.686H200.951V286.166C200.951 289.246 202.911 290.866 205.491 290.866C206.791 290.866 208.031 290.326 208.751 289.386V290.706H211.031V279.686ZM216.319 284.906C216.319 282.566 217.359 281.866 219.039 281.866H219.619V279.506C218.059 279.506 216.959 280.186 216.319 281.286V279.686H214.039V290.706H216.319V284.906ZM73.78 314.906C73.78 312.566 74.82 311.866 76.5 311.866H77.08V309.506C75.52 309.506 74.42 310.186 73.78 311.286V309.686H71.5V320.706H73.78V314.906ZM83.8158 311.426C85.5158 311.426 86.8558 312.506 86.8958 314.206H80.7958C81.0358 312.466 82.2758 311.426 83.8158 311.426ZM88.9758 317.426H86.5158C86.0958 318.286 85.3158 318.966 83.9158 318.966C82.2358 318.966 80.9358 317.866 80.7758 316.046H89.1958C89.2558 315.666 89.2758 315.306 89.2758 314.926C89.2758 311.686 87.0558 309.506 83.9158 309.506C80.6558 309.506 78.4158 311.726 78.4158 315.186C78.4158 318.646 80.7558 320.886 83.9158 320.886C86.6158 320.886 88.3558 319.346 88.9758 317.426ZM90.7595 315.146C90.7595 318.546 93.0595 320.886 95.9595 320.886C97.7595 320.886 99.0795 319.986 99.7795 319.046V320.886C99.7795 323.086 98.4595 324.166 96.6995 324.166C95.1195 324.166 93.8995 323.386 93.5595 322.246H91.2995C91.5795 324.686 93.7595 326.146 96.6995 326.146C100.14 326.146 102.08 323.886 102.08 320.886V309.686H99.7795V311.286C99.0995 310.346 97.7595 309.506 95.9595 309.506C93.0595 309.506 90.7595 311.746 90.7595 315.146ZM99.7795 315.186C99.7795 317.566 98.1595 318.906 96.4395 318.906C94.7395 318.906 93.0995 317.526 93.0995 315.146C93.0995 312.766 94.7395 311.486 96.4395 311.486C98.1595 311.486 99.7795 312.826 99.7795 315.186ZM105.074 320.706H107.354V309.686H105.074V320.706ZM106.234 308.226C107.034 308.226 107.674 307.586 107.674 306.766C107.674 305.946 107.034 305.306 106.234 305.306C105.414 305.306 104.774 305.946 104.774 306.766C104.774 307.586 105.414 308.226 106.234 308.226ZM118.568 317.626C118.448 313.646 112.228 314.886 112.228 312.666C112.228 311.926 112.868 311.426 114.088 311.426C115.328 311.426 116.068 312.086 116.148 313.046H118.428C118.308 310.846 116.668 309.506 114.168 309.506C111.568 309.506 109.928 310.926 109.928 312.686C109.928 316.726 116.328 315.486 116.328 317.646C116.328 318.406 115.628 318.966 114.308 318.966C113.048 318.966 112.188 318.226 112.108 317.326H109.748C109.848 319.326 111.708 320.886 114.348 320.886C116.948 320.886 118.568 319.486 118.568 317.626ZM121.391 317.646C121.391 319.886 122.611 320.706 124.571 320.706H126.371V318.806H124.971C124.011 318.806 123.691 318.466 123.691 317.646V311.546H126.371V309.686H123.691V306.946H121.391V309.686H120.091V311.546H121.391V317.646ZM130.753 314.906C130.753 312.566 131.793 311.866 133.473 311.866H134.053V309.506C132.493 309.506 131.393 310.186 130.753 311.286V309.686H128.473V320.706H130.753V314.906ZM135.388 315.146C135.388 318.546 137.688 320.886 140.548 320.886C142.388 320.886 143.708 320.006 144.408 319.066V320.706H146.708V309.686H144.408V311.286C143.728 310.386 142.448 309.506 140.588 309.506C137.688 309.506 135.388 311.746 135.388 315.146ZM144.408 315.186C144.408 317.566 142.788 318.906 141.068 318.906C139.368 318.906 137.728 317.526 137.728 315.146C137.728 312.766 139.368 311.486 141.068 311.486C142.788 311.486 144.408 312.826 144.408 315.186ZM150.063 317.646C150.063 319.886 151.283 320.706 153.243 320.706H155.043V318.806H153.643C152.683 318.806 152.363 318.466 152.363 317.646V311.546H155.043V309.686H152.363V306.946H150.063V309.686H148.763V311.546H150.063V317.646ZM157.145 320.706H159.425V309.686H157.145V320.706ZM158.305 308.226C159.105 308.226 159.745 307.586 159.745 306.766C159.745 305.946 159.105 305.306 158.305 305.306C157.485 305.306 156.845 305.946 156.845 306.766C156.845 307.586 157.485 308.226 158.305 308.226ZM172.918 315.186C172.918 311.726 170.438 309.506 167.298 309.506C164.158 309.506 161.678 311.726 161.678 315.186C161.678 318.646 164.058 320.886 167.198 320.886C170.358 320.886 172.918 318.646 172.918 315.186ZM163.998 315.186C163.998 312.686 165.538 311.486 167.258 311.486C168.958 311.486 170.578 312.686 170.578 315.186C170.578 317.686 168.898 318.906 167.198 318.906C165.478 318.906 163.998 317.686 163.998 315.186ZM182.992 320.706H185.252V314.206C185.252 311.126 183.312 309.506 180.732 309.506C179.412 309.506 178.192 310.046 177.452 310.946V309.686H175.172V320.706H177.452V314.546C177.452 312.526 178.552 311.486 180.232 311.486C181.892 311.486 182.992 312.526 182.992 314.546V320.706Z" fill="black"/>
<path d="M80.3015 262.58C80.3015 257.936 73.5335 259.952 73.5335 256.712C73.5335 255.362 74.5955 254.66 75.9455 254.696C77.4755 254.714 78.2675 255.668 78.3755 256.514H80.1755C79.9775 254.606 78.4115 253.292 76.0175 253.292C73.5335 253.292 71.8595 254.696 71.8595 256.766C71.8595 261.428 78.6455 259.268 78.6455 262.652C78.6455 263.84 77.7095 264.74 76.1255 264.74C74.3795 264.74 73.6415 263.696 73.5335 262.652H71.7875C71.8235 264.722 73.6055 266.126 76.1255 266.126C78.8435 266.126 80.3015 264.362 80.3015 262.58ZM83.0719 263.3C83.0719 265.28 84.0619 266 85.8079 266H87.2839V264.614H86.0779C85.0699 264.614 84.7099 264.272 84.7099 263.3V257.486H87.2839V256.136H84.7099V253.652H83.0719V256.136H81.7939V257.486H83.0719V263.3ZM93.4626 257.36C95.1546 257.36 96.5946 258.422 96.5766 260.348H90.3486C90.5286 258.422 91.8606 257.36 93.4626 257.36ZM98.0706 262.958H96.3066C95.9466 264.02 95.0106 264.776 93.5346 264.776C91.8606 264.776 90.4566 263.678 90.3306 261.68H98.2146C98.2506 261.338 98.2686 261.05 98.2686 260.69C98.2686 257.99 96.3966 255.974 93.5346 255.974C90.6546 255.974 88.6566 257.936 88.6566 261.05C88.6566 264.182 90.7266 266.162 93.5346 266.162C95.9826 266.162 97.5666 264.758 98.0706 262.958ZM102.069 257.954V256.136H100.431V270.68H102.069V264.182C102.681 265.19 103.959 266.162 105.759 266.162C108.405 266.162 110.439 264.092 110.439 261.032C110.439 257.954 108.405 255.974 105.759 255.974C103.959 255.974 102.663 256.91 102.069 257.954ZM108.765 261.032C108.765 263.354 107.235 264.722 105.417 264.722C103.635 264.722 102.069 263.372 102.069 261.05C102.069 258.764 103.635 257.396 105.417 257.396C107.235 257.396 108.765 258.71 108.765 261.032ZM117.754 263.3C117.754 265.28 118.744 266 120.49 266H121.966V264.614H120.76C119.752 264.614 119.392 264.272 119.392 263.3V257.486H121.966V256.136H119.392V253.652H117.754V256.136H116.476V257.486H117.754V263.3ZM125.876 266H127.568L129.944 258.17L132.32 266H134.012L137.09 256.136H135.47L133.238 264.434L130.844 256.136H129.17L126.722 264.416L124.454 256.136H122.78L125.876 266ZM148.076 261.05C148.076 257.936 145.898 255.974 143.09 255.974C140.3 255.974 138.104 257.936 138.104 261.05C138.104 264.182 140.228 266.162 143.018 266.162C145.826 266.162 148.076 264.182 148.076 261.05ZM139.778 261.05C139.778 258.566 141.344 257.396 143.072 257.396C144.764 257.396 146.402 258.566 146.402 261.05C146.402 263.552 144.728 264.722 143.018 264.722C141.308 264.722 139.778 263.552 139.778 261.05ZM151.832 264.992C151.832 264.362 151.346 263.876 150.752 263.876C150.122 263.876 149.636 264.362 149.636 264.992C149.636 265.622 150.122 266.108 150.752 266.108C151.346 266.108 151.832 265.622 151.832 264.992ZM151.832 257.288C151.832 256.658 151.346 256.172 150.752 256.172C150.122 256.172 149.636 256.658 149.636 257.288C149.636 257.918 150.122 258.404 150.752 258.404C151.346 258.404 151.832 257.918 151.832 257.288Z" fill="#828282"/>
<circle opacity="0.1" cx="186.5" cy="140.5" r="82.5" fill="#098ECE"/>
<path d="M94.687 185.482C93.0814 185.482 91.7799 185.139 91.7799 184.717C91.7799 184.294 93.0814 183.952 94.687 183.952C96.2925 183.952 97.594 184.294 97.594 184.717C97.594 185.139 96.2925 185.482 94.687 185.482Z" fill="#5B2448"/>
<path d="M85.0931 122.892C85.1358 122.167 85.1832 121.443 85.2402 120.72C85.2972 119.997 85.3615 119.275 85.4302 118.554C85.4989 117.832 85.5722 117.112 85.654 116.392C85.7346 115.673 85.8198 114.954 85.9096 114.237C85.9253 114.113 85.9887 114 86.0862 113.922C86.1837 113.844 86.3078 113.807 86.432 113.819C86.5563 113.831 86.671 113.891 86.7518 113.986C86.8326 114.081 86.8731 114.204 86.8648 114.329C86.817 115.048 86.7675 115.766 86.7239 116.485C86.6802 117.203 86.6383 117.922 86.6008 118.639C86.5632 119.357 86.5315 120.076 86.5053 120.793C86.479 121.511 86.4543 122.229 86.4387 122.946C86.3768 125.815 86.4153 128.682 86.6117 131.529C86.8116 134.376 87.171 137.206 87.7915 139.965C88.0967 141.341 88.4789 142.698 88.9363 144.031C89.3888 145.353 89.9366 146.64 90.5756 147.883C91.2088 149.114 91.954 150.284 92.8018 151.378C93.2247 151.919 93.676 152.438 94.1537 152.931C94.6293 153.424 95.1322 153.89 95.66 154.327C95.9231 154.546 96.1935 154.756 96.469 154.958C96.7439 155.162 97.0252 155.356 97.3129 155.542C97.5989 155.73 97.8918 155.907 98.1886 156.078L98.4112 156.204L98.6304 156.324C98.7784 156.4 98.9264 156.478 99.0779 156.549C100.286 157.127 101.598 157.528 102.948 157.792C103.622 157.927 104.308 158.028 104.998 158.099C105.689 158.172 106.384 158.217 107.084 158.236C107.783 158.256 108.484 158.253 109.186 158.227C109.538 158.214 109.889 158.197 110.24 158.174C110.592 158.15 110.943 158.121 111.294 158.089C112.702 157.956 114.103 157.75 115.489 157.47C116.881 157.192 118.256 156.838 119.61 156.41L119.612 156.409C119.729 156.372 119.855 156.381 119.966 156.434C120.076 156.488 120.162 156.581 120.206 156.695C120.25 156.81 120.248 156.937 120.202 157.05C120.155 157.164 120.067 157.255 119.955 157.305C118.634 157.896 117.271 158.388 115.877 158.776L119.768 184.563C119.786 184.687 119.756 184.813 119.683 184.915C119.61 185.017 119.5 185.086 119.376 185.107C119.253 185.129 119.126 185.102 119.022 185.031C118.919 184.96 118.847 184.852 118.823 184.729L113.715 159.312C112.978 159.469 112.237 159.603 111.49 159.713C110.759 159.82 110.025 159.902 109.286 159.962C108.548 160.017 107.807 160.051 107.063 160.055C106.319 160.056 105.573 160.033 104.827 159.973C104.081 159.913 103.334 159.82 102.591 159.688C102.22 159.619 101.849 159.543 101.48 159.455C101.111 159.366 100.744 159.267 100.379 159.156C99.6434 158.932 98.9256 158.654 98.2307 158.326C98.0722 158.252 97.916 158.172 97.76 158.092L92.5693 184.635C92.5452 184.758 92.4738 184.866 92.3706 184.937C92.2674 185.009 92.1404 185.037 92.0169 185.015C91.8933 184.994 91.783 184.925 91.7095 184.824C91.636 184.722 91.6052 184.596 91.6236 184.472L95.7407 156.856C95.5932 156.754 95.4472 156.649 95.3027 156.542C94.9975 156.316 94.698 156.083 94.4069 155.84C93.8234 155.355 93.2679 154.838 92.7428 154.291C92.2202 153.744 91.7268 153.17 91.2649 152.571C90.3488 151.378 89.5479 150.1 88.8729 148.756C88.2033 147.424 87.6338 146.045 87.1693 144.629C86.708 143.224 86.328 141.794 86.0311 140.346C85.4352 137.459 85.1257 134.537 84.9971 131.621C84.8666 128.704 84.924 125.791 85.0931 122.892Z" fill="#21A0AA"/>
<path d="M133.631 110.621C134.475 110.621 135.399 110.248 136.073 109.311L135.282 108.744C134.586 109.712 133.612 109.774 132.991 109.533C132.439 109.32 131.888 108.764 131.997 107.846C132.073 107.199 132.418 106.748 132.942 106.607C133.475 106.464 134.038 106.684 134.411 107.181L135.19 106.598C134.582 105.788 133.6 105.423 132.689 105.668C131.774 105.914 131.153 106.685 131.029 107.731C130.886 108.942 131.517 110.005 132.638 110.439C132.955 110.56 133.292 110.622 133.631 110.621Z" fill="#21A0AA"/>
<path d="M136.578 110.94C136.608 110.94 136.636 110.931 136.66 110.914C136.684 110.897 136.701 110.873 136.711 110.845C136.72 110.817 136.72 110.787 136.711 110.759C136.702 110.732 136.685 110.707 136.661 110.69C135.238 109.636 134.338 107.953 133.743 105.231C133.735 105.196 133.713 105.164 133.682 105.145C133.651 105.125 133.614 105.118 133.578 105.126C133.542 105.134 133.511 105.156 133.491 105.186C133.471 105.217 133.464 105.255 133.472 105.291C134.082 108.083 135.015 109.816 136.496 110.913C136.52 110.93 136.549 110.94 136.578 110.94Z" fill="#6CE0DC"/>
<path d="M133.961 105.148C133.901 105.163 133.849 105.201 133.816 105.253C133.783 105.305 133.771 105.368 133.782 105.429C134.848 110.625 137.803 112.132 140.885 111.258C143.944 110.391 145.759 107.484 143.916 102.637C143.893 102.581 143.851 102.535 143.796 102.508C143.741 102.482 143.679 102.476 143.62 102.493L133.961 105.148Z" fill="#21A0AA"/>
<path d="M143.471 107.653C143.503 107.653 143.534 107.642 143.558 107.622C143.583 107.603 143.6 107.575 143.607 107.544C143.869 106.375 143.773 104.916 143.338 103.435C143.333 103.417 143.324 103.401 143.313 103.387C143.301 103.373 143.287 103.361 143.271 103.352C143.255 103.343 143.238 103.338 143.219 103.336C143.201 103.334 143.183 103.336 143.165 103.341C143.148 103.346 143.131 103.354 143.117 103.366C143.103 103.377 143.091 103.391 143.082 103.407C143.074 103.423 143.068 103.441 143.066 103.459C143.064 103.477 143.066 103.496 143.071 103.513C143.493 104.949 143.587 106.36 143.336 107.484C143.331 107.504 143.331 107.525 143.336 107.545C143.341 107.566 143.35 107.585 143.363 107.601C143.376 107.617 143.392 107.63 143.411 107.639C143.43 107.648 143.451 107.653 143.471 107.653H143.471Z" fill="#6CE0DC"/>
<path d="M142.764 109.239C142.786 109.239 142.807 109.234 142.826 109.225C142.845 109.215 142.862 109.201 142.875 109.184C143.05 108.952 143.198 108.701 143.316 108.435C143.324 108.418 143.328 108.4 143.329 108.382C143.33 108.363 143.327 108.345 143.32 108.327C143.314 108.31 143.304 108.294 143.291 108.281C143.279 108.267 143.264 108.257 143.247 108.249C143.23 108.242 143.212 108.237 143.193 108.237C143.175 108.237 143.156 108.24 143.139 108.247C143.122 108.254 143.106 108.264 143.093 108.277C143.08 108.29 143.069 108.305 143.062 108.322C142.953 108.568 142.816 108.801 142.653 109.016C142.638 109.037 142.628 109.061 142.626 109.087C142.623 109.113 142.628 109.139 142.64 109.162C142.651 109.185 142.669 109.204 142.691 109.218C142.713 109.232 142.738 109.239 142.764 109.239V109.239Z" fill="#6CE0DC"/>
<path d="M138.308 101.974C138.336 101.974 138.363 101.965 138.386 101.949C138.409 101.934 138.427 101.911 138.437 101.885C138.447 101.859 138.449 101.83 138.443 101.803C138.437 101.776 138.422 101.751 138.401 101.732C138.397 101.728 137.885 101.246 137.862 100.373C137.847 99.769 138.179 99.2618 138.53 98.7248C138.956 98.0751 139.395 97.4032 139.198 96.5316C139.013 95.7144 138.445 95.3049 137.896 94.9088C137.359 94.5221 136.853 94.1568 136.715 93.4263C136.708 93.3904 136.687 93.3588 136.657 93.3383C136.626 93.3178 136.589 93.3101 136.553 93.3168C136.517 93.3236 136.485 93.3442 136.464 93.3743C136.444 93.4044 136.435 93.4414 136.442 93.4774C136.6 94.3168 137.176 94.7322 137.733 95.1338C138.264 95.5165 138.765 95.878 138.927 96.5927C139.098 97.3498 138.709 97.9438 138.297 98.5732C137.938 99.122 137.566 99.6897 137.584 100.381C137.61 101.376 138.189 101.915 138.214 101.938C138.24 101.961 138.273 101.974 138.308 101.974Z" fill="#90C6F5"/>
<path d="M135.897 99.7626C135.901 99.7626 135.906 99.7624 135.911 99.7619C135.947 99.7582 135.981 99.7401 136.004 99.7116C136.028 99.683 136.039 99.6465 136.035 99.6099C135.977 99.0417 136.171 98.6049 136.359 98.1825C136.573 97.6999 136.795 97.2009 136.625 96.5413C136.444 95.8411 135.921 95.4948 135.415 95.16C135.039 94.9109 134.683 94.6757 134.457 94.3033C134.154 93.8037 134.136 93.2116 134.136 93.2057C134.135 93.1694 134.12 93.135 134.094 93.1096C134.068 93.0843 134.034 93.0701 133.997 93.0701H133.994C133.957 93.0709 133.922 93.0863 133.897 93.1129C133.871 93.1394 133.857 93.175 133.858 93.2117C133.859 93.2388 133.876 93.8823 134.219 94.447C134.477 94.8725 134.876 95.1361 135.261 95.3912C135.745 95.7111 136.201 96.0133 136.355 96.6104C136.501 97.1766 136.318 97.5906 136.105 98.0699C135.902 98.5254 135.693 98.9964 135.758 99.6377C135.762 99.6719 135.778 99.7036 135.803 99.7267C135.829 99.7498 135.862 99.7626 135.897 99.7626Z" fill="#90C6F5"/>
<path d="M131.421 138.589H146L145.461 139.779H131.421C131.263 139.779 131.112 139.716 131 139.605C130.889 139.493 130.826 139.342 130.826 139.184C130.826 139.026 130.889 138.875 131 138.763C131.112 138.651 131.263 138.589 131.421 138.589Z" fill="#9B3C82"/>
<path d="M145.893 138.055L146.14 138.168L145.269 140.072L145.022 139.959L145.893 138.055Z" fill="white"/>
<path d="M145.403 139.779H163.41L170.678 123.658C170.716 123.574 170.733 123.481 170.726 123.388C170.719 123.296 170.689 123.207 170.638 123.129C170.588 123.051 170.519 122.987 170.437 122.942C170.356 122.898 170.264 122.875 170.172 122.875H153.792C153.564 122.875 153.34 122.941 153.148 123.065C152.956 123.189 152.804 123.366 152.71 123.574L145.403 139.779Z" fill="#FAA200"/>
<path d="M144.419 139.375C144.317 139.375 144.234 139.292 144.234 139.19C144.234 139.087 144.317 139.004 144.419 139.004C144.521 139.004 144.604 139.087 144.604 139.19C144.604 139.292 144.521 139.375 144.419 139.375Z" fill="#FFCF2D"/>
<path d="M143.555 139.393C143.613 139.393 143.668 139.37 143.709 139.329C143.75 139.288 143.773 139.233 143.773 139.175C143.773 139.118 143.75 139.062 143.709 139.021C143.669 138.981 143.613 138.958 143.556 138.957L142.287 138.953H142.286C142.229 138.953 142.173 138.976 142.132 139.016C142.092 139.057 142.068 139.112 142.068 139.17C142.068 139.228 142.091 139.283 142.132 139.324C142.173 139.365 142.228 139.388 142.286 139.388L143.554 139.393H143.555Z" fill="#FFCF2D"/>
<path d="M158.891 132.934C159.147 132.934 159.394 132.843 159.589 132.679C159.784 132.514 159.915 132.285 159.959 132.034C159.978 131.918 159.975 131.8 159.949 131.685C159.923 131.571 159.875 131.463 159.807 131.367C159.739 131.271 159.653 131.19 159.554 131.127C159.454 131.065 159.344 131.022 159.228 131.003C159.132 130.986 159.033 130.989 158.938 131.01C158.843 131.032 158.753 131.072 158.674 131.129C158.594 131.185 158.526 131.256 158.475 131.339C158.423 131.421 158.388 131.513 158.371 131.609C158.357 131.69 158.36 131.772 158.378 131.852C158.396 131.931 158.429 132.006 158.477 132.073C158.524 132.139 158.584 132.196 158.653 132.239C158.722 132.283 158.798 132.312 158.879 132.326C158.953 132.338 159.029 132.335 159.102 132.316C159.175 132.296 159.243 132.261 159.301 132.214C159.328 132.191 159.346 132.157 159.35 132.122C159.353 132.086 159.342 132.05 159.319 132.022C159.296 131.994 159.263 131.977 159.227 131.973C159.191 131.97 159.155 131.981 159.128 132.004C159.1 132.027 159.067 132.044 159.032 132.053C158.997 132.062 158.96 132.064 158.925 132.058C158.833 132.042 158.752 131.991 158.699 131.916C158.645 131.84 158.624 131.747 158.639 131.656C158.65 131.595 158.672 131.537 158.705 131.484C158.738 131.432 158.781 131.387 158.831 131.351C158.881 131.315 158.938 131.29 158.999 131.276C159.059 131.263 159.121 131.261 159.182 131.271C159.263 131.285 159.34 131.315 159.409 131.358C159.478 131.401 159.538 131.458 159.585 131.525C159.632 131.591 159.666 131.667 159.684 131.746C159.702 131.826 159.704 131.908 159.69 131.989C159.654 132.2 159.535 132.389 159.359 132.513C159.184 132.638 158.966 132.687 158.754 132.652C158.48 132.604 158.236 132.451 158.076 132.224C157.915 131.997 157.851 131.716 157.897 131.443C158.022 130.711 158.624 130.289 159.361 130.414C159.808 130.49 160.172 130.719 160.389 131.059C160.615 131.412 160.668 131.867 160.539 132.339C160.535 132.356 160.533 132.374 160.536 132.392C160.538 132.41 160.544 132.427 160.553 132.442C160.561 132.458 160.573 132.472 160.587 132.482C160.601 132.493 160.618 132.501 160.635 132.506C160.652 132.511 160.67 132.512 160.688 132.51C160.706 132.508 160.723 132.502 160.738 132.493C160.754 132.484 160.767 132.472 160.778 132.458C160.789 132.444 160.797 132.428 160.802 132.411C160.951 131.864 160.886 131.332 160.619 130.913C160.36 130.507 159.93 130.235 159.407 130.146C158.526 129.995 157.779 130.522 157.629 131.397C157.571 131.742 157.651 132.096 157.854 132.381C158.056 132.667 158.363 132.86 158.708 132.92C158.769 132.93 158.83 132.935 158.891 132.934Z" fill="white"/>
<path d="M119.468 141.081C112.067 144.998 103.33 160.047 107.102 161.767C112.035 164.016 119.468 141.081 119.468 141.081Z" fill="#5B2448"/>
<path d="M106.481 158.384C107.386 158.431 108.293 158.425 109.197 158.367C109.344 158.358 109.493 158.349 109.643 158.338C109.646 158.338 109.649 158.338 109.652 158.338C113.146 158.091 117.218 157.361 119.914 156.534C118.243 161.168 114.741 175.859 114.025 180.685C113.309 185.51 118.274 184.698 118.274 184.698C120.496 182.396 122.569 179.954 124.481 177.388C127.702 173.035 130.59 168.236 132.725 163.668C132.726 163.669 142.576 170.939 144.057 180.685C144.789 185.507 148.306 184.698 148.306 184.698L153.271 177.771C149.261 156.798 138.614 149.298 134.651 146.24C129.953 142.353 123.813 141.081 119.993 140.746C111.972 146.288 106.768 155.078 106.481 158.384Z" fill="#F4ADA2"/>
<path d="M106.481 158.384C107.386 158.431 108.293 158.425 109.197 158.367C110.348 154.266 116.603 143.756 119.993 140.746C111.972 146.288 106.768 155.078 106.481 158.384Z" fill="#9B3C82"/>
<path d="M147.788 184.936C148.592 183.599 150.407 179.869 153.271 177.77C158.523 177.627 162.629 181.306 163.25 184.936H147.788Z" fill="#66B0F0"/>
<path d="M149.459 185.36C149.483 185.36 149.506 185.353 149.526 185.342C149.547 185.33 149.564 185.314 149.576 185.293C149.627 185.209 149.683 185.115 149.745 185.011C150.639 183.508 152.734 179.989 155.62 177.856C155.649 177.835 155.668 177.803 155.673 177.767C155.678 177.732 155.669 177.695 155.648 177.666C155.626 177.638 155.594 177.618 155.559 177.613C155.523 177.607 155.487 177.616 155.458 177.637C152.528 179.802 150.413 183.355 149.51 184.872C149.449 184.975 149.393 185.069 149.342 185.153C149.33 185.173 149.323 185.197 149.323 185.221C149.323 185.245 149.329 185.269 149.341 185.29C149.352 185.311 149.37 185.329 149.391 185.341C149.411 185.353 149.435 185.36 149.459 185.36Z" fill="#B0DCF7"/>
<path d="M163.05 185.236C163.122 185.236 163.192 185.207 163.243 185.156C163.294 185.105 163.323 185.035 163.323 184.963C163.323 184.891 163.294 184.821 163.243 184.77C163.192 184.719 163.123 184.69 163.051 184.69L143.293 184.664H143.292C143.22 184.664 143.151 184.692 143.1 184.743C143.048 184.795 143.02 184.864 143.02 184.936C143.02 185.009 143.048 185.078 143.099 185.129C143.15 185.18 143.22 185.209 143.292 185.209L163.05 185.236H163.05Z" fill="#5B2448"/>
<path d="M118.043 184.936C118.847 183.599 121.33 179.873 124.194 177.774C128.301 177.627 132.884 181.306 133.505 184.936H118.043Z" fill="#66B0F0"/>
<path d="M120.335 185.073C120.358 185.073 120.381 185.067 120.402 185.055C120.422 185.044 120.439 185.027 120.452 185.007C120.742 184.523 123.382 180.217 126.566 177.884C126.595 177.862 126.614 177.83 126.619 177.794C126.624 177.759 126.615 177.723 126.594 177.694C126.573 177.665 126.541 177.645 126.506 177.64C126.47 177.634 126.434 177.643 126.405 177.663C123.178 180.028 120.511 184.378 120.218 184.866C120.206 184.887 120.199 184.911 120.198 184.935C120.198 184.959 120.204 184.983 120.216 185.004C120.228 185.025 120.245 185.042 120.266 185.054C120.287 185.067 120.311 185.073 120.335 185.073V185.073Z" fill="#B0DCF7"/>
<path d="M113.547 185.209H133.266C133.338 185.209 133.408 185.181 133.459 185.13C133.51 185.078 133.539 185.009 133.539 184.937C133.539 184.864 133.51 184.795 133.459 184.744C133.408 184.692 133.338 184.664 133.266 184.664H113.547C113.475 184.664 113.406 184.692 113.355 184.744C113.304 184.795 113.275 184.864 113.275 184.937C113.275 185.009 113.304 185.078 113.355 185.13C113.406 185.181 113.475 185.209 113.547 185.209Z" fill="#5B2448"/>
<path d="M132.717 164.124C132.743 164.124 132.769 164.117 132.791 164.102C132.813 164.088 132.831 164.068 132.842 164.044C134.707 159.872 135.793 156.436 136.159 153.54C136.636 149.774 135.845 146.986 133.808 145.253C133.794 145.241 133.779 145.232 133.762 145.226C133.744 145.221 133.726 145.219 133.709 145.22C133.691 145.222 133.673 145.226 133.657 145.235C133.641 145.243 133.627 145.254 133.615 145.268C133.604 145.281 133.595 145.297 133.59 145.314C133.584 145.331 133.582 145.35 133.583 145.367C133.585 145.385 133.59 145.403 133.598 145.419C133.606 145.435 133.618 145.449 133.631 145.46C135.594 147.13 136.353 149.837 135.889 153.506C135.525 156.375 134.447 159.786 132.593 163.932C132.583 163.953 132.579 163.976 132.581 163.998C132.583 164.021 132.59 164.043 132.603 164.062C132.615 164.081 132.632 164.097 132.652 164.108C132.672 164.119 132.694 164.124 132.717 164.124Z" fill="#9B3C82"/>
<path d="M119.668 156.916C119.696 156.916 119.723 156.907 119.746 156.891C119.769 156.875 119.786 156.853 119.796 156.826C120.549 154.782 121.581 152.549 121.591 152.526C121.599 152.51 121.604 152.492 121.605 152.474C121.606 152.456 121.604 152.437 121.598 152.42C121.592 152.403 121.582 152.387 121.57 152.374C121.558 152.36 121.543 152.35 121.526 152.342C121.51 152.334 121.492 152.33 121.474 152.329C121.456 152.329 121.438 152.332 121.421 152.338C121.404 152.345 121.388 152.355 121.375 152.367C121.362 152.38 121.351 152.395 121.344 152.411C121.334 152.434 120.297 154.677 119.54 156.732C119.533 156.753 119.53 156.775 119.533 156.797C119.536 156.819 119.544 156.839 119.556 156.857C119.569 156.875 119.586 156.89 119.605 156.9C119.625 156.91 119.646 156.916 119.668 156.916Z" fill="#9B3C82"/>
<path d="M89.7216 145.808C91.9666 151.639 97.2663 157.61 107.102 161.767C104.046 158.996 111.303 147.005 119.993 140.747C108.677 138.645 93.3971 141.983 89.7216 145.808Z" fill="#F94F46"/>
<path d="M99.9437 155.592C99.6823 155.592 99.4705 155.38 99.4705 155.118C99.4705 154.857 99.6823 154.645 99.9437 154.645C100.205 154.645 100.417 154.857 100.417 155.118C100.417 155.38 100.205 155.592 99.9437 155.592Z" fill="#FFCF2D"/>
<path d="M108.183 150.494C107.921 150.494 107.71 150.282 107.71 150.021C107.71 149.759 107.921 149.547 108.183 149.547C108.444 149.547 108.656 149.759 108.656 150.021C108.656 150.282 108.444 150.494 108.183 150.494Z" fill="#FFCF2D"/>
<path d="M113.312 143.17C113.051 143.17 112.839 142.958 112.839 142.697C112.839 142.436 113.051 142.224 113.312 142.224C113.573 142.224 113.785 142.436 113.785 142.697C113.785 142.958 113.573 143.17 113.312 143.17Z" fill="#FFCF2D"/>
<path d="M102.058 144.973C101.796 144.973 101.585 144.761 101.585 144.499C101.585 144.238 101.796 144.026 102.058 144.026C102.319 144.026 102.531 144.238 102.531 144.499C102.531 144.761 102.319 144.973 102.058 144.973Z" fill="#FFCF2D"/>
<path d="M93.6889 148.187C93.4276 148.187 93.2158 147.975 93.2158 147.713C93.2158 147.452 93.4276 147.24 93.6889 147.24C93.9502 147.24 94.162 147.452 94.162 147.713C94.162 147.975 93.9502 148.187 93.6889 148.187Z" fill="#FFCF2D"/>
<path d="M89.7216 145.807C89.7218 145.808 89.7222 145.809 89.7226 145.81C89.7999 145.774 89.8773 145.738 89.9546 145.701C89.9873 145.686 90.0205 145.671 90.0528 145.656C90.1291 145.621 90.2052 145.586 90.281 145.552C90.4228 145.487 90.5643 145.424 90.7055 145.361C90.76 145.337 90.8145 145.314 90.8687 145.29C90.9404 145.259 91.012 145.228 91.0836 145.197C91.1748 145.158 91.266 145.119 91.3572 145.081C91.4117 145.058 91.4656 145.035 91.5195 145.013C91.5735 144.99 91.6274 144.968 91.6814 144.946C91.7893 144.902 91.8972 144.858 92.0051 144.815C92.076 144.787 92.1464 144.758 92.2166 144.731C92.3083 144.694 92.3994 144.659 92.4907 144.624C92.5713 144.593 92.6516 144.562 92.7318 144.532C92.9347 144.455 93.1368 144.38 93.3381 144.307C93.4188 144.277 93.4995 144.249 93.5802 144.22C93.7755 144.15 93.9703 144.083 94.1646 144.018C94.2171 143.999 94.2696 143.982 94.3222 143.964C94.7175 143.832 95.1104 143.707 95.501 143.589C95.6051 143.557 95.7088 143.526 95.8123 143.495C95.8978 143.47 95.9832 143.445 96.0686 143.42C96.1001 143.411 96.1322 143.402 96.1637 143.393C96.2529 143.367 96.3427 143.342 96.432 143.317C96.5346 143.288 96.6373 143.26 96.7399 143.232C96.8388 143.205 96.9376 143.179 97.0359 143.152C97.1415 143.124 97.247 143.097 97.3522 143.07C97.454 143.043 97.5556 143.018 97.6569 142.992C97.7361 142.972 97.8152 142.953 97.8941 142.934C97.9404 142.922 97.9869 142.911 98.0326 142.9C98.109 142.881 98.1853 142.863 98.2613 142.845C98.426 142.806 98.59 142.768 98.7531 142.731C98.7808 142.725 98.809 142.719 98.8371 142.712C98.8896 142.7 98.9426 142.688 98.9952 142.677C99.0502 142.665 99.1046 142.653 99.1589 142.641C99.3074 142.609 99.4554 142.577 99.6029 142.547C99.6519 142.536 99.7017 142.526 99.7509 142.516C107.29 140.968 113.434 141.426 116.603 139.504C116.636 139.484 116.668 139.464 116.701 139.443C120.113 137.323 122.262 133.307 122.718 128.384C122.855 126.854 122.838 125.313 122.667 123.787C122.663 123.746 122.658 123.704 122.653 123.663C122.653 123.661 122.653 123.659 122.652 123.656C122.643 123.574 122.633 123.492 122.624 123.411C122.614 123.327 122.604 123.245 122.594 123.162C122.574 123.005 122.554 122.851 122.533 122.697C122.529 122.674 122.527 122.65 122.523 122.626C122.514 122.561 122.505 122.497 122.495 122.433C122.484 122.353 122.472 122.274 122.46 122.196C122.447 122.118 122.436 122.039 122.423 121.962C122.413 121.894 122.402 121.827 122.391 121.76C122.387 121.739 122.384 121.718 122.38 121.697C122.371 121.642 122.362 121.588 122.353 121.533C122.349 121.51 122.345 121.488 122.341 121.465C122.33 121.402 122.319 121.34 122.307 121.278C122.298 121.223 122.288 121.168 122.277 121.114C122.269 121.07 122.261 121.027 122.253 120.984C122.244 120.932 122.234 120.881 122.223 120.829C122.21 120.759 122.195 120.689 122.182 120.619C122.167 120.548 122.152 120.476 122.138 120.405C122.123 120.335 122.108 120.265 122.093 120.195C122.078 120.125 122.062 120.055 122.047 119.986C122.032 119.918 122.016 119.849 122 119.781C121.972 119.655 121.942 119.53 121.911 119.407C121.906 119.385 121.901 119.363 121.895 119.341C121.881 119.288 121.868 119.235 121.855 119.182C121.838 119.117 121.821 119.052 121.804 118.988C121.788 118.924 121.771 118.86 121.753 118.796C121.736 118.73 121.718 118.664 121.699 118.598C121.665 118.476 121.631 118.356 121.596 118.238C121.578 118.177 121.559 118.117 121.542 118.057C121.524 117.997 121.505 117.938 121.487 117.879C121.469 117.82 121.45 117.761 121.431 117.703C121.413 117.646 121.394 117.587 121.376 117.53C121.357 117.474 121.338 117.416 121.319 117.36C121.281 117.247 121.243 117.136 121.204 117.027C121.185 116.973 121.166 116.92 121.146 116.867C121.125 116.808 121.104 116.75 121.082 116.692C121.045 116.59 121.006 116.489 120.967 116.391C120.947 116.339 120.927 116.288 120.907 116.238C120.888 116.187 120.867 116.137 120.846 116.087C120.826 116.038 120.806 115.988 120.785 115.939C120.765 115.891 120.745 115.844 120.725 115.796C120.705 115.748 120.684 115.699 120.662 115.651C120.642 115.603 120.621 115.556 120.6 115.51C120.58 115.463 120.559 115.417 120.538 115.371C120.517 115.325 120.496 115.28 120.475 115.235C120.454 115.191 120.433 115.146 120.412 115.102C120.391 115.058 120.37 115.013 120.348 114.97C120.306 114.883 120.264 114.798 120.221 114.714C120.179 114.63 120.137 114.548 120.094 114.467C120.072 114.426 120.051 114.386 120.03 114.346C119.923 114.148 119.816 113.959 119.709 113.778C119.687 113.742 119.666 113.706 119.644 113.671C119.543 113.503 119.441 113.343 119.341 113.19C119.319 113.158 119.298 113.126 119.277 113.094C119.255 113.063 119.234 113.032 119.213 113.001C119.059 112.776 118.907 112.568 118.758 112.378C118.739 112.353 118.72 112.329 118.701 112.305C118.62 112.203 118.54 112.106 118.462 112.013C118.442 111.99 118.422 111.967 118.403 111.945C118.345 111.877 118.288 111.812 118.23 111.75C118.212 111.729 118.193 111.709 118.174 111.688C118.1 111.607 118.027 111.531 117.955 111.459L117.902 111.406C117.868 111.371 117.833 111.337 117.799 111.304C117.765 111.272 117.732 111.239 117.699 111.209C117.647 111.16 117.595 111.114 117.546 111.071C117.52 111.047 117.494 111.024 117.468 111.002C117.467 111.001 117.465 110.999 117.463 110.997C117.435 110.973 117.407 110.95 117.38 110.927C117.364 110.914 117.348 110.901 117.333 110.888C117.306 110.866 117.28 110.845 117.255 110.825C117.133 110.727 117.025 110.649 116.937 110.588C116.92 110.577 116.905 110.567 116.89 110.557C116.88 110.55 116.869 110.543 116.859 110.536C116.835 110.52 116.812 110.506 116.791 110.493C116.701 110.436 116.651 110.41 116.651 110.41C116.651 110.41 116.646 110.389 116.635 110.349C116.634 110.343 116.632 110.338 116.63 110.333C116.627 110.321 116.623 110.307 116.619 110.291C116.616 110.282 116.613 110.272 116.61 110.262C116.609 110.256 116.607 110.251 116.606 110.246C116.603 110.235 116.599 110.222 116.595 110.209C116.553 110.066 116.484 109.857 116.387 109.611C116.377 109.583 116.366 109.556 116.355 109.528C116.343 109.501 116.332 109.472 116.319 109.443C116.294 109.38 116.265 109.315 116.235 109.249C116.224 109.225 116.212 109.199 116.2 109.174C116.155 109.077 116.106 108.977 116.052 108.875C116.022 108.818 115.99 108.76 115.957 108.702V108.701C115.921 108.637 115.883 108.573 115.844 108.51C115.824 108.478 115.804 108.446 115.783 108.414C115.765 108.387 115.747 108.358 115.728 108.331C115.724 108.325 115.721 108.32 115.717 108.314C115.696 108.284 115.676 108.255 115.655 108.226C115.599 108.145 115.539 108.067 115.477 107.99C115.477 107.99 110.635 104.845 108.773 104.63C105.813 106.111 95.0227 108.548 90.2959 123.309C86.1904 136.13 89.6526 145.621 89.7216 145.807Z" fill="#66B0F0"/>
<path d="M113.691 139.552C113.805 139.595 113.918 139.637 114.031 139.678C126.871 144.29 132.157 133.04 133.536 123.935C133.537 123.925 133.539 123.915 133.54 123.905C133.54 123.905 133.541 123.904 133.541 123.903C133.552 123.828 133.563 123.754 133.573 123.679C133.576 123.662 133.578 123.644 133.581 123.627C133.898 121.409 134.03 120.347 134.364 118.628C134.926 115.735 135.767 114.557 136.465 112.321C136.942 110.793 136.878 108.871 135.844 108.595C135.78 107.725 134.794 107.258 134.269 107.305C134.153 106.864 133.717 106.546 133.222 106.541H133.218C133.212 106.541 133.205 106.541 133.199 106.541C133.196 106.541 133.193 106.541 133.191 106.541C132.931 106.534 132.679 106.621 132.478 106.785C132.236 106.966 132.039 107.202 131.905 107.473C131.808 107.659 131.576 108.115 131.353 108.633C130.925 107.35 130.639 106.825 130.067 105.92C129.463 104.963 128.65 103.912 128.683 106.159C128.73 109.408 128.205 111.27 127.346 113.707C126.536 116.003 125.637 117.643 124.449 120.056C124.438 120.077 124.429 120.098 124.418 120.119C122.901 123.199 121.223 126.415 120.423 128.469C120.212 129.013 119.868 129.704 119.446 130.476C117.451 134.122 113.691 139.552 113.691 139.552Z" fill="#F4ADA2"/>
<path d="M131.715 113.772C131.749 113.772 131.782 113.759 131.808 113.735C131.833 113.711 131.848 113.679 131.851 113.644C132.033 110.903 131.842 109.852 131.601 108.521L131.562 108.309C131.556 108.273 131.536 108.241 131.506 108.221C131.476 108.2 131.439 108.192 131.404 108.198C131.368 108.205 131.337 108.225 131.316 108.255C131.295 108.285 131.287 108.321 131.294 108.357L131.332 108.57C131.58 109.934 131.759 110.919 131.578 113.627C131.577 113.644 131.58 113.662 131.585 113.679C131.591 113.696 131.6 113.712 131.612 113.725C131.624 113.739 131.638 113.75 131.654 113.758C131.67 113.766 131.688 113.771 131.705 113.772C131.708 113.772 131.712 113.772 131.715 113.772Z" fill="#9B3C82"/>
<path d="M134.462 112.84C134.886 112.84 135.51 112.249 135.86 111.877C136.304 111.407 136.869 110.681 137.003 110.183C137.007 110.166 137.008 110.148 137.006 110.13C137.004 110.112 136.998 110.095 136.989 110.08C136.98 110.064 136.968 110.05 136.954 110.04C136.94 110.029 136.923 110.021 136.906 110.016C136.889 110.011 136.871 110.01 136.853 110.013C136.835 110.015 136.818 110.021 136.803 110.03C136.787 110.039 136.774 110.05 136.763 110.065C136.752 110.079 136.744 110.095 136.739 110.112C136.643 110.471 136.2 111.119 135.662 111.69C135.069 112.318 134.595 112.605 134.433 112.564C134.353 112.543 134.32 112.33 134.425 111.9C134.716 110.716 135.288 109.619 136.092 108.702C136.179 108.602 136.223 108.552 136.184 108.468L136.148 108.388L136.059 108.387C136.033 108.387 136.008 108.395 135.986 108.409C135.964 108.423 135.946 108.443 135.935 108.467C135.924 108.48 135.905 108.502 135.886 108.524C135.053 109.473 134.461 110.609 134.16 111.836C134.017 112.423 134.086 112.757 134.365 112.828C134.397 112.836 134.43 112.84 134.462 112.84Z" fill="#9B3C82"/>
<path d="M133.325 112.36C133.982 112.36 134.978 110.371 134.989 110.35C134.996 110.334 135.001 110.316 135.002 110.299C135.003 110.281 135 110.263 134.994 110.246C134.988 110.229 134.979 110.213 134.967 110.2C134.955 110.187 134.941 110.176 134.925 110.168C134.909 110.16 134.891 110.156 134.873 110.155C134.855 110.154 134.837 110.156 134.821 110.162C134.804 110.168 134.788 110.177 134.775 110.189C134.761 110.201 134.751 110.216 134.743 110.232C134.524 110.678 134.266 111.103 133.97 111.502C133.587 112.008 133.375 112.105 133.316 112.086C133.305 112.082 133.047 111.977 133.376 110.221C133.417 110.002 133.503 109.68 133.573 109.42C133.607 109.293 133.639 109.172 133.661 109.081C133.67 109.046 133.664 109.009 133.645 108.978C133.626 108.947 133.596 108.925 133.561 108.917C133.526 108.908 133.489 108.914 133.458 108.932C133.427 108.951 133.405 108.981 133.396 109.017C133.375 109.104 133.343 109.224 133.309 109.35C133.235 109.627 133.151 109.942 133.108 110.17C132.774 111.953 132.998 112.269 133.231 112.346C133.261 112.355 133.293 112.36 133.325 112.36Z" fill="#9B3C82"/>
<path d="M132.192 111.785C132.854 111.785 133.445 109.834 133.612 109.229C133.622 109.194 133.617 109.157 133.6 109.125C133.582 109.094 133.552 109.07 133.517 109.061C133.482 109.051 133.445 109.056 133.414 109.074C133.382 109.091 133.359 109.121 133.35 109.156C132.897 110.793 132.388 111.529 132.186 111.512C132.11 111.505 131.963 111.308 131.898 110.613C131.895 110.586 131.893 110.559 131.891 110.531C131.888 110.495 131.871 110.462 131.844 110.438C131.817 110.415 131.781 110.403 131.745 110.406C131.709 110.408 131.675 110.425 131.652 110.453C131.628 110.48 131.616 110.516 131.619 110.552C131.621 110.581 131.624 110.609 131.626 110.638C131.696 111.383 131.872 111.758 132.162 111.784C132.172 111.784 132.182 111.785 132.192 111.785Z" fill="#9B3C82"/>
<path d="M131.909 107.105C131.548 107.792 129.478 111.935 131.985 110.238C133.716 109.066 134.684 107.894 134.429 106.927C134.191 106.023 132.698 105.602 131.909 107.105Z" fill="#F4ADA2"/>
<path d="M131.029 110.928C131.265 110.928 131.587 110.786 132.013 110.498C134.148 109.053 134.694 107.732 134.512 107.04C134.385 106.557 133.941 106.192 133.408 106.131C132.75 106.057 132.126 106.452 131.739 107.189C131.437 107.767 131.167 108.36 130.928 108.967C130.535 109.997 130.474 110.587 130.739 110.824C130.819 110.894 130.923 110.931 131.029 110.928ZM133.256 106.396C133.296 106.396 133.337 106.398 133.377 106.402C133.799 106.45 134.149 106.734 134.248 107.109C134.335 107.44 134.186 107.921 133.839 108.429C133.421 109.041 132.737 109.679 131.859 110.272C131.158 110.747 130.963 110.659 130.921 110.621C130.698 110.421 130.993 109.195 131.98 107.316C132.397 106.522 132.948 106.396 133.256 106.396V106.396Z" fill="#9B3C82"/>
<path d="M114.031 139.678C126.871 144.289 132.157 133.04 133.536 123.935C133.536 123.925 133.537 123.915 133.54 123.905C133.54 123.905 133.541 123.904 133.541 123.903C133.552 123.828 133.563 123.754 133.573 123.679C130.951 123.469 125.918 121.485 124.418 120.119C122.901 123.199 121.223 126.415 120.423 128.469C120.212 129.013 119.868 129.704 119.446 130.476C117.961 133.312 115.394 137.492 114.031 139.678Z" fill="#66B0F0"/>
<path d="M123.801 91.8444C123.488 91.6297 123.128 91.4924 122.751 91.444C122.374 91.3955 121.991 91.4372 121.633 91.5657C121.22 89.068 117.991 89.0553 117.31 90.8189C115.343 88.8416 112.314 90.9331 112.941 93.0639C113.171 93.8462 113.478 95.2565 112.975 96.4608C113.98 97.0944 115.653 100.198 115.653 100.198C115.653 100.198 120.015 95.6298 121.943 95.7206C124.974 95.8634 125.143 92.8073 123.801 91.8444Z" fill="#5B2448"/>
<path d="M120.394 92.5274C120.415 92.5274 120.437 92.5222 120.456 92.5122C120.476 92.5023 120.492 92.4878 120.505 92.4701C121.378 91.2413 122.593 91.4465 122.645 91.4559C122.681 91.4625 122.717 91.4547 122.747 91.4342C122.777 91.4138 122.797 91.3823 122.804 91.3467C122.811 91.3111 122.803 91.2744 122.782 91.2446C122.762 91.2147 122.73 91.1943 122.695 91.1876C122.637 91.1767 121.26 90.937 120.283 92.3117C120.268 92.3321 120.26 92.3561 120.258 92.3811C120.256 92.4061 120.261 92.431 120.273 92.4533C120.284 92.4755 120.301 92.4942 120.323 92.5072C120.344 92.5203 120.369 92.5272 120.394 92.5272L120.394 92.5274Z" fill="#9B3C82"/>
<path d="M123.799 103.252C123.777 103.923 123.346 104.575 122.603 104.889C120.67 105.704 118.345 104.879 118.345 104.879C118.345 104.879 116.205 106.497 114.502 110.984C114.502 110.984 112.354 108.213 108.773 104.63C108.773 104.63 110.914 103.404 112.483 101.116C111.22 100.799 109.934 99.3396 110.445 97.6367C110.736 96.6654 111.871 96.11 112.875 96.3871C113.906 96.6714 114.501 97.6114 115.208 98.5775C116.007 99.6697 116.374 98.8751 116.855 97.8757C117.164 97.2339 117.52 96.5076 118.068 96.1427C119.308 95.3174 121.943 95.7205 121.943 95.7205C121.943 95.7205 121.917 96.0668 121.915 96.505C121.912 97.0842 121.951 97.8235 122.148 98.1339C122.494 98.6785 122.901 98.6327 122.88 98.9641C122.862 99.2482 122.51 99.5589 122.312 99.689C122.237 101.633 123.849 101.687 123.799 103.252Z" fill="#F4ADA2"/>
<path d="M113.474 101.527C113.734 101.529 113.993 101.496 114.244 101.427C114.261 101.422 114.277 101.414 114.292 101.402C114.306 101.391 114.317 101.378 114.326 101.362C114.335 101.346 114.341 101.329 114.343 101.311C114.345 101.293 114.343 101.275 114.338 101.258C114.333 101.24 114.325 101.224 114.314 101.21C114.302 101.196 114.289 101.184 114.273 101.176C114.257 101.167 114.24 101.161 114.222 101.16C114.204 101.158 114.186 101.159 114.168 101.164C113.289 101.417 112.224 101.049 112.213 101.045C112.179 101.033 112.142 101.035 112.109 101.051C112.077 101.066 112.051 101.094 112.039 101.128C112.027 101.162 112.029 101.2 112.045 101.233C112.061 101.265 112.088 101.29 112.123 101.302C112.559 101.446 113.014 101.522 113.474 101.527Z" fill="#9B3C82"/>
<path d="M118.345 104.88C118.345 104.88 116.794 104.343 116.078 103.101C115.74 103.253 115.403 105.123 117.038 106.145C118.747 107.212 118.345 104.88 118.345 104.88Z" fill="#5B2448"/>
<path d="M118.719 97.0643C118.742 97.0579 118.764 97.0487 118.786 97.037C118.808 97.0261 118.831 97.0146 118.853 97.0029C118.897 96.9799 118.94 96.9572 118.982 96.9343L119.22 96.8054C119.371 96.7251 119.507 96.6543 119.636 96.5993C119.766 96.5437 119.883 96.498 120.017 96.4437C120.084 96.4184 120.157 96.3874 120.239 96.3599C120.322 96.3278 120.412 96.3025 120.52 96.2571L120.571 96.2353C120.609 96.2194 120.644 96.1961 120.673 96.1668C120.702 96.1375 120.725 96.1029 120.74 96.0647C120.756 96.0266 120.764 95.9858 120.763 95.9446C120.763 95.9034 120.755 95.8627 120.739 95.8247C120.725 95.7923 120.706 95.7624 120.683 95.7361C120.59 95.6347 120.478 95.554 120.352 95.4991C120.225 95.4412 120.088 95.4052 119.949 95.3928C119.807 95.3798 119.663 95.3885 119.524 95.4187C119.385 95.4487 119.252 95.4974 119.127 95.5635C118.889 95.6867 118.683 95.8643 118.526 96.0819C118.451 96.185 118.389 96.2968 118.34 96.4147C118.316 96.4737 118.295 96.5342 118.279 96.596C118.271 96.627 118.264 96.6588 118.258 96.6915L118.243 96.7973C118.237 96.8347 118.24 96.873 118.252 96.9091C118.263 96.9452 118.283 96.9782 118.309 97.0058C118.335 97.0333 118.366 97.0546 118.402 97.0681C118.437 97.0815 118.475 97.0868 118.513 97.0835L118.719 97.0643Z" fill="#5B2448"/>
<path d="M119.453 97.8896C119.75 97.8058 120.466 97.6214 121.116 97.2343C121.138 97.2213 121.162 97.2128 121.187 97.2092C121.212 97.2056 121.237 97.207 121.261 97.2133C121.286 97.2196 121.309 97.2307 121.329 97.2459C121.349 97.2612 121.366 97.2802 121.379 97.302C121.517 97.5383 121.673 97.9592 121.197 98.1661C120.611 98.4203 119.632 98.2961 119.405 98.0489C119.394 98.0364 119.386 98.0213 119.383 98.0051C119.379 97.9888 119.38 97.972 119.385 97.956C119.39 97.9401 119.398 97.9257 119.41 97.9141C119.422 97.9024 119.437 97.894 119.453 97.8896Z" fill="#5B2448"/>
<path opacity="0.52" d="M117.84 101.83C117.133 101.83 116.559 101.257 116.559 100.549C116.559 99.8418 117.133 99.2683 117.84 99.2683C118.547 99.2683 119.12 99.8418 119.12 100.549C119.12 101.257 118.547 101.83 117.84 101.83Z" fill="#E57281"/>
<path d="M121.494 101.224C121.336 101.284 121.165 101.3 120.999 101.271C120.833 101.246 120.674 101.184 120.536 101.089C120.469 101.04 120.409 100.983 120.357 100.919C120.193 100.724 120.112 100.472 120.133 100.218L120.134 100.213C120.136 100.183 120.128 100.154 120.111 100.131C120.094 100.107 120.069 100.09 120.04 100.083C120.012 100.077 119.982 100.08 119.956 100.094C119.93 100.107 119.909 100.129 119.898 100.156C119.815 100.377 119.814 100.621 119.896 100.842C119.935 100.953 119.991 101.057 120.061 101.151C120.167 101.292 120.304 101.407 120.46 101.488C120.617 101.57 120.79 101.614 120.966 101.619C121.081 101.626 121.198 101.614 121.31 101.585C121.425 101.556 121.532 101.502 121.625 101.428C121.647 101.409 121.662 101.383 121.667 101.354C121.672 101.325 121.666 101.296 121.651 101.271C121.636 101.246 121.613 101.227 121.585 101.218C121.557 101.209 121.527 101.21 121.5 101.221L121.494 101.224Z" fill="#9B3C82"/>
<path d="M113.837 99.7451C113.845 99.7451 113.854 99.7443 113.862 99.7427C113.898 99.7359 113.929 99.7153 113.949 99.6854C113.97 99.6554 113.977 99.6187 113.971 99.5831C113.597 97.6222 111.936 97.5458 111.919 97.5452C111.901 97.5446 111.884 97.5476 111.867 97.5539C111.85 97.5602 111.835 97.5698 111.822 97.582C111.808 97.5943 111.798 97.609 111.791 97.6253C111.783 97.6416 111.779 97.6592 111.778 97.6772C111.778 97.6951 111.781 97.7129 111.787 97.7297C111.793 97.7465 111.803 97.7619 111.815 97.7749C111.827 97.788 111.842 97.7986 111.858 97.806C111.875 97.8134 111.892 97.8175 111.91 97.8181C111.972 97.8204 113.371 97.8948 113.703 99.6343C113.709 99.6655 113.725 99.6936 113.75 99.7138C113.774 99.734 113.805 99.7451 113.837 99.7451Z" fill="#9B3C82"/>
<path d="M97.0754 141.845C103.04 143.881 109.926 142.303 115.606 140.296C115.981 140.164 116.351 140.029 116.714 139.894C117.209 139.71 117.693 139.525 118.165 139.338C118.177 139.333 118.19 139.328 118.203 139.323C118.51 139.203 118.811 139.083 119.106 138.963C119.957 138.619 120.76 138.282 121.506 137.968C121.935 137.787 122.354 137.621 122.761 137.47C128.177 135.451 131.695 135.963 135.558 137.784C136.814 138.376 137.009 137.815 136.179 136.925C135.51 136.208 133.744 134.966 133.744 134.966C135.042 135.523 136.288 136.195 137.468 136.972C139.082 138.036 138.519 136.018 137.135 135.062C137.169 135.082 137.728 135.409 138.375 135.826C140.125 136.951 139.282 135.205 138.805 134.775C140.583 135.961 139.473 132.147 133.476 130.03C133.624 129.906 134.602 129.084 135.033 128.325C136.036 126.558 133.219 128.469 129.867 128.918L129.87 128.919C128.064 128.545 125.998 128.39 123.862 128.377C123.829 128.377 123.795 128.377 123.762 128.377C122.391 128.371 120.993 128.425 119.617 128.516C119.527 128.522 119.436 128.528 119.346 128.535C118.914 128.565 118.484 128.599 118.058 128.637L118.01 128.641C118.006 128.641 118.002 128.642 117.997 128.642C114.274 128.981 110.573 129.529 106.911 130.284C111.829 121.207 111.793 111.105 107.389 108.977C104.619 107.64 98.8899 109.121 93.8289 119.01C88.768 128.899 88.8155 139.027 97.0754 141.845Z" fill="#F4ADA2"/>
<path d="M139.449 135.604C139.472 135.604 139.495 135.598 139.515 135.587C139.535 135.576 139.552 135.56 139.565 135.54C139.577 135.521 139.584 135.498 139.585 135.475C139.587 135.452 139.582 135.429 139.572 135.408C138.88 133.975 136.366 132.29 135.007 131.804C134.973 131.792 134.935 131.794 134.903 131.809C134.87 131.825 134.845 131.852 134.833 131.886C134.821 131.921 134.822 131.958 134.838 131.991C134.853 132.023 134.881 132.049 134.915 132.061C136.248 132.537 138.687 134.202 139.326 135.527C139.337 135.55 139.355 135.57 139.377 135.583C139.398 135.597 139.424 135.604 139.449 135.604Z" fill="#9B3C82"/>
<path d="M138.685 136.464C138.711 136.464 138.736 136.457 138.757 136.443C138.779 136.43 138.796 136.411 138.807 136.388C138.819 136.365 138.823 136.34 138.821 136.315C138.819 136.289 138.809 136.265 138.794 136.245C137.724 134.834 135.345 133.644 134.449 133.196C134.433 133.188 134.416 133.183 134.398 133.182C134.38 133.18 134.362 133.183 134.345 133.188C134.328 133.194 134.312 133.203 134.299 133.215C134.285 133.227 134.274 133.241 134.266 133.257C134.258 133.273 134.253 133.29 134.252 133.308C134.251 133.326 134.253 133.344 134.259 133.361C134.264 133.378 134.273 133.394 134.285 133.407C134.297 133.421 134.311 133.432 134.327 133.44C135.207 133.88 137.545 135.05 138.577 136.41C138.589 136.427 138.606 136.44 138.625 136.45C138.643 136.459 138.664 136.464 138.685 136.464Z" fill="#9B3C82"/>
<path d="M134.174 130.288C134.206 130.288 134.237 130.277 134.261 130.257C134.286 130.236 134.302 130.208 134.308 130.177C134.314 130.146 134.309 130.114 134.294 130.086C134.279 130.058 134.254 130.036 134.225 130.025C133.142 129.591 131.492 128.972 129.675 128.599C129.64 128.592 129.603 128.599 129.573 128.619C129.543 128.639 129.522 128.67 129.515 128.705C129.507 128.741 129.515 128.778 129.534 128.808C129.554 128.838 129.586 128.859 129.621 128.866C131.416 129.235 133.051 129.848 134.124 130.278C134.14 130.284 134.157 130.288 134.174 130.288Z" fill="#9B3C82"/>
<path d="M97.0756 141.845C103.474 144.028 110.933 142.055 116.825 139.852C116.412 136.16 116.937 131.861 118.002 128.642C114.277 128.98 110.574 129.529 106.911 130.284C111.829 121.207 111.793 111.105 107.388 108.977C104.619 107.64 98.8899 109.121 93.8289 119.01C88.768 128.899 88.8157 139.027 97.0756 141.845Z" fill="#66B0F0"/>
<path d="M112.47 114.301C113.342 114.301 114.013 112.503 114.627 110.66L114.656 110.573C114.661 110.556 114.664 110.538 114.663 110.52C114.661 110.502 114.657 110.485 114.649 110.468C114.641 110.452 114.63 110.438 114.616 110.426C114.602 110.414 114.587 110.405 114.57 110.4C114.553 110.394 114.535 110.392 114.517 110.393C114.499 110.394 114.481 110.399 114.465 110.407C114.449 110.415 114.435 110.426 114.423 110.44C114.411 110.454 114.402 110.47 114.397 110.487L114.368 110.574C113.966 111.782 113.218 114.029 112.47 114.029H112.467C112.193 114.026 111.762 113.692 111.266 112.113C109.703 107.137 108.068 104.604 108.051 104.579C108.032 104.549 108.001 104.528 107.965 104.52C107.93 104.513 107.893 104.52 107.863 104.54C107.833 104.56 107.811 104.591 107.804 104.626C107.797 104.661 107.803 104.698 107.823 104.728C107.839 104.753 109.456 107.259 111.006 112.195C111.45 113.608 111.927 114.297 112.465 114.301H112.47Z" fill="#B0DCF7"/>
<path d="M120.303 128.868C120.331 128.868 120.358 128.86 120.38 128.844C120.403 128.829 120.42 128.807 120.43 128.781C120.936 127.484 122.038 125.003 122.901 123.114C122.915 123.082 122.916 123.045 122.903 123.011C122.89 122.978 122.865 122.951 122.833 122.936C122.8 122.921 122.763 122.919 122.729 122.932C122.696 122.944 122.668 122.969 122.653 123.001C121.788 124.893 120.684 127.379 120.176 128.682C120.168 128.703 120.165 128.725 120.168 128.747C120.171 128.769 120.178 128.79 120.191 128.809C120.203 128.827 120.22 128.842 120.24 128.852C120.259 128.863 120.281 128.868 120.304 128.868H120.303Z" fill="#B0DCF7"/>
<path d="M133.147 127.387C133.182 127.387 133.216 127.373 133.241 127.349C133.267 127.324 133.282 127.291 133.283 127.255C133.284 127.22 133.271 127.186 133.248 127.159C133.224 127.133 133.191 127.117 133.156 127.115C131.93 127.033 129.781 126.495 127.547 125.711C125.237 124.901 123.456 124.046 122.783 123.424C122.77 123.412 122.754 123.402 122.738 123.396C122.721 123.389 122.703 123.386 122.685 123.387C122.667 123.388 122.649 123.392 122.633 123.399C122.616 123.407 122.601 123.418 122.589 123.431C122.577 123.444 122.568 123.46 122.561 123.477C122.555 123.494 122.552 123.512 122.553 123.53C122.554 123.548 122.558 123.565 122.566 123.582C122.574 123.598 122.585 123.613 122.598 123.625C124.139 125.047 130.552 127.214 133.138 127.387C133.141 127.387 133.144 127.387 133.147 127.387Z" fill="#B0DCF7"/>
<path d="M112.234 141.671C112.254 141.671 112.274 141.667 112.292 141.658C112.311 141.65 112.327 141.637 112.34 141.622C112.352 141.606 112.362 141.588 112.367 141.568C112.372 141.549 112.372 141.529 112.368 141.509C111.854 138.842 112.065 132.484 113.411 129.165C113.418 129.148 113.421 129.131 113.421 129.113C113.421 129.095 113.417 129.077 113.411 129.061C113.404 129.044 113.393 129.029 113.381 129.017C113.368 129.004 113.353 128.994 113.336 128.987C113.32 128.981 113.302 128.977 113.284 128.977C113.266 128.977 113.248 128.981 113.232 128.988C113.215 128.995 113.2 129.005 113.188 129.018C113.175 129.031 113.165 129.046 113.159 129.062C111.795 132.425 111.58 138.862 112.101 141.561C112.107 141.592 112.123 141.62 112.148 141.64C112.172 141.66 112.203 141.671 112.234 141.671Z" fill="#B0DCF7"/>
<path d="M99.7785 142.8C99.8126 142.8 99.8455 142.787 99.8706 142.764C99.8957 142.741 99.9113 142.709 99.9142 142.675C99.9171 142.641 99.9072 142.607 99.8864 142.58C99.8656 142.553 99.8354 142.535 99.8017 142.529C98.9169 142.375 98.044 142.159 97.1893 141.882C94.3983 140.972 92.4333 139.174 91.3488 136.539C90.4435 134.341 90.1992 131.566 90.6415 128.515C91.0773 125.508 92.1802 122.218 93.8307 119C96.132 114.514 98.789 111.28 101.514 109.65C103.619 108.39 105.747 108.111 107.353 108.885C108.608 109.49 109.572 110.742 110.141 112.507C110.826 114.631 110.923 117.356 110.423 120.387C109.894 123.588 108.719 126.929 107.025 130.05C107.012 130.073 107.006 130.099 107.008 130.125C107.01 130.151 107.02 130.176 107.036 130.197C107.051 130.218 107.073 130.234 107.097 130.243C107.122 130.252 107.149 130.253 107.174 130.248C107.189 130.244 108.723 129.903 111.275 129.501C111.293 129.498 111.31 129.492 111.326 129.483C111.341 129.474 111.355 129.461 111.365 129.447C111.376 129.432 111.384 129.416 111.388 129.398C111.392 129.381 111.393 129.362 111.39 129.345C111.387 129.327 111.381 129.31 111.372 129.294C111.362 129.279 111.35 129.266 111.335 129.255C111.321 129.245 111.304 129.237 111.286 129.233C111.269 129.229 111.251 129.228 111.233 129.231C109.311 129.534 107.964 129.803 107.404 129.92C109.038 126.848 110.173 123.573 110.692 120.432C111.199 117.358 111.099 114.588 110.401 112.423C109.808 110.586 108.795 109.277 107.471 108.639C105.782 107.825 103.559 108.108 101.374 109.416C98.6054 111.072 95.9131 114.344 93.5883 118.875C91.9242 122.12 90.812 125.439 90.3718 128.476C89.9225 131.575 90.1733 134.4 91.0968 136.643C91.6367 137.955 92.4056 139.082 93.3822 139.994C94.4015 140.946 95.6541 141.668 97.105 142.142C97.9721 142.422 98.8577 142.641 99.7553 142.798C99.7629 142.799 99.7707 142.8 99.7785 142.8Z" fill="#B0DCF7"/>
<path d="M116.124 114.136C116.147 114.136 116.17 114.13 116.19 114.119C116.21 114.108 116.228 114.091 116.24 114.071C117.058 112.741 117.264 111.407 116.853 110.107C116.842 110.072 116.817 110.043 116.785 110.027C116.753 110.01 116.716 110.007 116.681 110.018C116.647 110.029 116.618 110.053 116.601 110.085C116.585 110.117 116.582 110.155 116.593 110.189C116.979 111.41 116.783 112.668 116.008 113.928C115.995 113.949 115.988 113.973 115.987 113.997C115.987 114.021 115.993 114.045 116.005 114.066C116.016 114.088 116.034 114.105 116.055 114.118C116.075 114.13 116.099 114.136 116.124 114.136Z" fill="#B0DCF7"/>
<path d="M112.453 114.32C113.25 114.32 113.856 112.703 114.343 111.402C114.419 111.197 114.492 111.003 114.56 110.83C114.566 110.814 114.57 110.796 114.57 110.778C114.57 110.76 114.566 110.742 114.559 110.725C114.552 110.709 114.541 110.694 114.528 110.681C114.515 110.669 114.5 110.659 114.483 110.652C114.467 110.646 114.449 110.642 114.431 110.643C114.413 110.643 114.395 110.647 114.378 110.654C114.362 110.662 114.347 110.672 114.335 110.685C114.322 110.698 114.312 110.714 114.306 110.73C114.237 110.905 114.164 111.1 114.087 111.306C113.678 112.399 113.061 114.048 112.454 114.048H112.445C112.182 114.04 111.764 113.699 111.266 112.114C109.703 107.137 108.068 104.604 108.051 104.579C108.032 104.549 108.001 104.528 107.965 104.521C107.93 104.513 107.893 104.52 107.863 104.54C107.833 104.56 107.811 104.591 107.804 104.626C107.797 104.662 107.803 104.698 107.823 104.729C107.84 104.753 109.456 107.259 111.006 112.195C111.457 113.631 111.912 114.306 112.437 114.32C112.442 114.32 112.448 114.32 112.453 114.32Z" fill="#B0DCF7"/>
<path d="M102.663 131.718C102.684 131.718 102.704 131.713 102.723 131.704C102.74 131.696 104.425 130.873 107.175 130.248C107.192 130.244 107.209 130.237 107.224 130.227C107.239 130.216 107.252 130.203 107.261 130.188C107.271 130.173 107.278 130.156 107.281 130.138C107.284 130.12 107.283 130.102 107.279 130.084C107.275 130.067 107.268 130.05 107.257 130.035C107.247 130.02 107.234 130.008 107.218 129.998C107.203 129.989 107.186 129.983 107.168 129.98C107.15 129.977 107.132 129.978 107.114 129.982C104.33 130.615 102.619 131.451 102.602 131.459C102.575 131.473 102.553 131.495 102.539 131.523C102.526 131.551 102.523 131.582 102.53 131.612C102.537 131.642 102.554 131.669 102.578 131.688C102.602 131.707 102.632 131.718 102.663 131.718H102.663Z" fill="#B0DCF7"/>
<path d="M114.314 138.82C114.093 138.82 113.915 138.641 113.915 138.421C113.915 138.201 114.093 138.022 114.314 138.022C114.534 138.022 114.712 138.201 114.712 138.421C114.712 138.641 114.534 138.82 114.314 138.82Z" fill="#B0DCF7"/>
<path d="M131.983 125.615C131.762 125.615 131.584 125.437 131.584 125.216C131.584 124.996 131.762 124.817 131.983 124.817C132.203 124.817 132.381 124.996 132.381 125.216C132.381 125.437 132.203 125.615 131.983 125.615Z" fill="#B0DCF7"/>
<path d="M110.769 129.568C112.734 129.244 115.28 128.881 117.997 128.642C119.289 119.287 116.317 113.946 116.317 113.946C116.03 112.178 114.502 110.984 114.502 110.984C114.5 110.99 113.915 112.39 113.642 113.1C113.834 113.861 114.265 114.424 114.598 114.567C115.136 119.371 111.239 128.49 110.769 129.568Z" fill="#F94F46"/>
<path d="M114.433 114.823C116.534 114.79 116.843 113.645 116.856 113.596L116.591 113.529C116.581 113.57 116.305 114.52 114.429 114.55L114.433 114.823Z" fill="#66B0F0"/>
<path d="M119.107 138.963C119.957 138.619 120.76 138.282 121.506 137.968C121.935 137.787 122.354 137.621 122.761 137.47C122.548 135.716 122.543 133.678 122.747 131.693C122.77 131.466 122.796 131.239 122.825 131.013C122.903 130.406 123.001 129.807 123.118 129.228L122.132 129.027L119.618 128.517L119.36 128.465C119.356 128.488 119.351 128.511 119.347 128.536C119.307 128.731 119.27 128.929 119.235 129.127C119.229 129.158 119.224 129.187 119.218 129.218C119.129 129.73 119.053 130.251 118.991 130.776C118.965 130.983 118.942 131.191 118.922 131.399C118.66 134.024 118.723 136.713 119.107 138.963Z" fill="#5B2448"/>
<path d="M120.98 131.983C119.151 131.918 117.704 130.831 117.749 129.553C117.794 128.276 119.313 127.293 121.143 127.357C122.972 127.421 124.418 128.509 124.374 129.786C124.329 131.063 122.81 132.047 120.98 131.983Z" fill="#5B2448"/>
<path d="M121.153 132.258C123.08 132.258 124.656 131.18 124.705 129.797C124.729 129.097 124.367 128.429 123.684 127.915C123.016 127.413 122.116 127.117 121.152 127.084C120.188 127.05 119.27 127.281 118.568 127.736C117.851 128.2 117.442 128.841 117.418 129.541C117.368 130.967 118.961 132.184 120.97 132.255C121.032 132.257 121.092 132.258 121.153 132.258ZM120.966 127.353C121.025 127.353 121.083 127.354 121.142 127.356C122.052 127.388 122.896 127.664 123.52 128.134C124.129 128.592 124.453 129.179 124.432 129.788C124.387 131.063 122.838 132.046 120.98 131.982C119.121 131.917 117.646 130.826 117.69 129.551C117.712 128.942 118.076 128.379 118.716 127.965C119.329 127.568 120.122 127.353 120.966 127.353H120.966Z" fill="white"/>
<path d="M121.006 131.293C119.23 131.23 117.822 130.292 117.861 129.196C117.899 128.101 119.37 127.263 121.145 127.326C122.921 127.388 124.33 128.327 124.291 129.422C124.253 130.518 122.782 131.355 121.006 131.293Z" fill="white"/>
<path d="M121.075 130.454H121.075C121.093 130.454 121.111 130.451 121.127 130.444C121.144 130.437 121.159 130.427 121.172 130.414C121.184 130.401 121.194 130.386 121.201 130.37C121.208 130.353 121.211 130.335 121.211 130.318L121.209 129.085C121.208 129.067 121.205 129.049 121.198 129.032C121.191 129.016 121.18 129 121.167 128.988C121.155 128.975 121.139 128.965 121.122 128.958C121.105 128.951 121.087 128.948 121.069 128.949L119.148 128.993C119.112 128.993 119.077 129.008 119.052 129.034C119.027 129.06 119.013 129.095 119.013 129.131C119.014 129.167 119.028 129.202 119.054 129.227C119.08 129.252 119.115 129.266 119.151 129.266H119.154L120.936 129.225L120.939 130.318C120.939 130.354 120.953 130.389 120.979 130.414C121.004 130.44 121.039 130.454 121.075 130.454Z" fill="#5B2448"/>
<path d="M130.909 110.633C130.967 110.685 131.177 110.755 131.869 110.286C133.754 109.01 134.432 107.743 134.265 107.105C134.164 106.723 133.808 106.434 133.379 106.386C133.335 106.38 133.291 106.378 133.246 106.378C132.989 106.38 132.74 106.464 132.534 106.619C132.294 106.802 132.1 107.038 131.966 107.308C131.226 108.717 130.605 110.36 130.909 110.633Z" fill="#F4ADA2"/>
<path d="M126.219 141.112H170.622C170.717 141.113 170.811 141.095 170.899 141.06C170.987 141.025 171.067 140.974 171.134 140.908C171.201 140.843 171.255 140.765 171.291 140.679C171.328 140.593 171.346 140.501 171.346 140.408C171.346 140.315 171.328 140.223 171.291 140.137C171.255 140.052 171.201 139.974 171.134 139.908C171.067 139.843 170.987 139.791 170.899 139.756C170.811 139.721 170.717 139.704 170.622 139.704H126.219C126.124 139.704 126.03 139.721 125.943 139.756C125.855 139.791 125.775 139.843 125.708 139.908C125.64 139.974 125.587 140.052 125.55 140.137C125.514 140.223 125.495 140.315 125.495 140.408C125.495 140.501 125.514 140.593 125.55 140.679C125.587 140.765 125.64 140.843 125.708 140.908C125.775 140.974 125.855 141.025 125.943 141.06C126.03 141.095 126.124 141.113 126.219 141.112Z" fill="#21A0AA"/>
<path d="M142.582 130.796C142.609 130.774 142.627 130.743 142.632 130.709C142.636 130.674 142.627 130.639 142.606 130.611L140.046 127.182C140.024 127.154 139.993 127.135 139.958 127.13C139.923 127.125 139.888 127.134 139.859 127.155C139.831 127.176 139.813 127.207 139.808 127.242C139.803 127.277 139.812 127.313 139.833 127.341L142.393 130.77C142.414 130.799 142.446 130.817 142.481 130.823C142.516 130.828 142.551 130.819 142.579 130.798L142.582 130.796Z" fill="#FFCF2D"/>
<path d="M145.457 130.146C145.482 130.127 145.499 130.099 145.505 130.068L146.353 125.885C146.36 125.85 146.353 125.815 146.334 125.785C146.314 125.756 146.284 125.735 146.249 125.728C146.215 125.721 146.179 125.728 146.15 125.747C146.12 125.766 146.1 125.796 146.093 125.831L145.244 130.014C145.239 130.041 145.242 130.069 145.253 130.094C145.264 130.119 145.282 130.14 145.305 130.155C145.328 130.169 145.355 130.176 145.383 130.174C145.41 130.173 145.436 130.163 145.457 130.146Z" fill="#FFCF2D"/>
<path d="M132.965 109.343C132.704 109.581 132.43 109.805 132.143 110.012C132.272 110.09 132.408 110.156 132.548 110.21C132.859 110.329 133.19 110.39 133.523 110.389C134.276 110.387 134.997 110.088 135.53 109.556C135.673 109.415 135.804 109.262 135.921 109.098L135.144 108.54C135.088 108.619 135.026 108.695 134.961 108.767C134.325 109.471 133.522 109.53 132.965 109.343Z" fill="#21A0AA"/>
<path d="M131.165 108.916C131.391 108.345 131.647 107.786 131.934 107.242C132.068 106.971 132.263 106.735 132.503 106.551C132.709 106.396 132.959 106.312 133.216 106.31C133.261 106.31 133.305 106.312 133.349 106.318C133.607 106.345 133.847 106.465 134.025 106.655C134.079 106.714 134.126 106.78 134.163 106.851C134.208 106.898 134.25 106.948 134.289 107L135.055 106.425C134.726 105.979 134.256 105.656 133.722 105.51C133.353 105.411 132.965 105.411 132.597 105.51C131.699 105.752 131.09 106.512 130.968 107.542C130.908 108.01 130.976 108.485 131.165 108.916Z" fill="#21A0AA"/>
<path d="M136.417 110.704C136.446 110.704 136.474 110.695 136.497 110.678C136.521 110.661 136.538 110.637 136.547 110.61C136.556 110.583 136.556 110.553 136.548 110.526C136.539 110.498 136.522 110.474 136.499 110.457C135.101 109.419 134.218 107.761 133.633 105.079C133.625 105.044 133.604 105.013 133.573 104.994C133.543 104.974 133.506 104.968 133.471 104.976C133.435 104.983 133.405 105.005 133.385 105.035C133.365 105.065 133.359 105.102 133.366 105.138C133.966 107.889 134.882 109.597 136.336 110.677C136.36 110.694 136.388 110.704 136.417 110.704Z" fill="#6CE0DC"/>
<path d="M133.671 105.274C133.688 105.353 133.704 105.432 133.721 105.51C133.811 105.915 133.912 106.297 134.025 106.654C134.079 106.714 134.126 106.78 134.163 106.851C134.195 106.91 134.22 106.973 134.237 107.038C134.26 107.132 134.267 107.229 134.257 107.325C134.447 107.827 134.682 108.31 134.961 108.768C135.131 109.044 135.321 109.308 135.53 109.556C136.903 111.175 138.751 111.556 140.647 111.017C143.651 110.163 145.433 107.299 143.623 102.524C143.601 102.468 143.559 102.423 143.505 102.397C143.452 102.37 143.39 102.365 143.333 102.382L133.847 104.997C133.788 105.012 133.737 105.049 133.705 105.101C133.672 105.152 133.66 105.214 133.671 105.274Z" fill="#21A0AA"/>
<path d="M143.187 107.465C143.218 107.465 143.248 107.455 143.272 107.435C143.296 107.416 143.313 107.388 143.32 107.358C143.577 106.206 143.483 104.768 143.056 103.309C143.051 103.292 143.042 103.276 143.031 103.262C143.02 103.248 143.006 103.237 142.99 103.228C142.974 103.219 142.957 103.214 142.939 103.212C142.921 103.21 142.903 103.212 142.886 103.217C142.869 103.222 142.853 103.23 142.839 103.241C142.825 103.253 142.813 103.267 142.805 103.282C142.796 103.298 142.791 103.315 142.789 103.333C142.787 103.351 142.789 103.369 142.794 103.386C143.208 104.801 143.3 106.191 143.053 107.299C143.049 107.319 143.049 107.339 143.054 107.359C143.058 107.379 143.067 107.398 143.08 107.414C143.093 107.43 143.109 107.443 143.128 107.452C143.146 107.46 143.166 107.465 143.187 107.465H143.187Z" fill="#6CE0DC"/>
<path d="M142.492 109.028C142.513 109.028 142.534 109.023 142.553 109.014C142.572 109.004 142.588 108.991 142.601 108.974C142.773 108.745 142.918 108.497 143.034 108.235C143.042 108.219 143.046 108.201 143.047 108.183C143.048 108.165 143.045 108.147 143.038 108.13C143.032 108.113 143.022 108.097 143.01 108.084C142.997 108.07 142.982 108.06 142.966 108.052C142.949 108.045 142.931 108.041 142.913 108.041C142.895 108.04 142.877 108.043 142.86 108.05C142.843 108.057 142.828 108.067 142.815 108.079C142.802 108.092 142.792 108.107 142.784 108.124C142.677 108.367 142.543 108.596 142.383 108.808C142.368 108.829 142.359 108.853 142.356 108.878C142.354 108.903 142.359 108.929 142.37 108.952C142.381 108.975 142.399 108.994 142.42 109.007C142.442 109.021 142.467 109.028 142.492 109.028V109.028Z" fill="#6CE0DC"/>
<path d="M138.712 133.142C138.723 133.109 138.72 133.073 138.705 133.042C138.69 133.011 138.663 132.987 138.63 132.975L134.6 131.536C134.566 131.524 134.53 131.526 134.498 131.541C134.466 131.556 134.441 131.583 134.429 131.616C134.417 131.649 134.419 131.686 134.435 131.718C134.45 131.749 134.477 131.774 134.51 131.786L138.541 133.225C138.574 133.237 138.611 133.235 138.643 133.22C138.675 133.205 138.699 133.178 138.711 133.145L138.712 133.142Z" fill="#FFCF2D"/>
<path d="M140.747 131.009C140.757 130.98 140.756 130.947 140.744 130.918L139.135 126.964C139.122 126.932 139.096 126.906 139.063 126.892C139.031 126.879 138.994 126.878 138.962 126.891C138.929 126.905 138.903 126.93 138.889 126.962C138.876 126.995 138.875 127.031 138.888 127.064L140.497 131.018C140.507 131.043 140.525 131.064 140.548 131.079C140.571 131.094 140.598 131.102 140.625 131.101C140.653 131.1 140.679 131.091 140.701 131.074C140.722 131.058 140.739 131.035 140.747 131.009Z" fill="#FFCF2D"/>
<path d="M129.456 180.588C131.543 186.462 137.693 185.209 140.095 185.646C142.492 186.082 144.15 187.121 144.09 185.303C144.09 185.299 144.089 185.295 144.089 185.292C144.381 185.912 145.407 186.199 145.69 185.355C145.704 185.313 145.715 185.27 145.724 185.228C145.912 186.557 147.667 186.178 149.279 185.136C150.877 184.103 153.826 181.069 153.555 177.786C153.553 177.757 153.55 177.727 153.547 177.698C153.348 175.707 151.901 173.17 148.807 171.378C146.746 170.185 143.956 169.322 140.316 169.17C132.619 168.85 127.351 174.659 129.456 180.588Z" fill="#FFCF2D"/>
<path d="M144.315 185.906C144.35 185.906 144.384 185.892 144.409 185.868C144.435 185.843 144.449 185.81 144.45 185.774C144.483 184.661 143.999 183.735 143.05 183.098C141.205 181.858 138.124 181.956 136.728 182.572C136.695 182.587 136.67 182.614 136.657 182.647C136.644 182.68 136.645 182.718 136.659 182.75C136.674 182.783 136.701 182.809 136.734 182.822C136.768 182.835 136.805 182.834 136.838 182.82C138.145 182.242 141.156 182.151 142.899 183.322C143.779 183.914 144.21 184.736 144.179 185.767C144.179 185.784 144.182 185.802 144.188 185.819C144.195 185.835 144.204 185.85 144.216 185.863C144.228 185.876 144.243 185.887 144.259 185.894C144.276 185.901 144.293 185.905 144.311 185.906L144.315 185.906Z" fill="#9B3C82"/>
<path d="M145.603 185.816C145.607 185.816 145.61 185.816 145.613 185.815C145.631 185.814 145.648 185.81 145.664 185.802C145.68 185.794 145.694 185.783 145.706 185.769C145.717 185.756 145.726 185.74 145.732 185.723C145.738 185.707 145.74 185.689 145.739 185.671C145.637 184.22 146.582 183.086 148.547 182.3C148.563 182.294 148.578 182.284 148.591 182.272C148.604 182.259 148.614 182.244 148.621 182.228C148.628 182.212 148.631 182.194 148.632 182.176C148.632 182.159 148.629 182.141 148.622 182.125C148.615 182.108 148.606 182.093 148.593 182.08C148.581 182.068 148.566 182.057 148.55 182.05C148.533 182.043 148.516 182.04 148.498 182.04C148.48 182.039 148.462 182.043 148.446 182.049C146.36 182.883 145.358 184.108 145.468 185.69C145.471 185.724 145.486 185.756 145.511 185.779C145.536 185.803 145.569 185.816 145.603 185.816Z" fill="#9B3C82"/>
<path d="M143.448 183.633C143.467 183.633 143.486 183.629 143.504 183.622C143.521 183.614 143.537 183.602 143.549 183.588C144.426 182.606 145.173 181.515 145.771 180.342C147.182 177.602 147.583 175.512 146.817 174.89C146.727 174.818 146.623 174.766 146.511 174.738C146.399 174.709 146.283 174.705 146.169 174.726C145.563 174.809 144.807 175.403 144.062 176.374C144.032 175.744 143.912 175.122 143.706 174.526C143.375 173.599 142.845 172.925 142.174 172.575C140.397 171.648 138.32 173.185 136.708 174.628C136.144 175.125 135.527 175.558 134.868 175.92C134.261 176.256 133.629 176.545 132.978 176.784C132.961 176.79 132.945 176.8 132.932 176.812C132.919 176.824 132.908 176.838 132.9 176.855C132.893 176.871 132.888 176.888 132.888 176.906C132.887 176.924 132.89 176.942 132.896 176.959C132.902 176.976 132.912 176.991 132.924 177.004C132.936 177.017 132.951 177.028 132.967 177.035C132.983 177.043 133.001 177.047 133.019 177.047C133.037 177.048 133.055 177.045 133.071 177.038C133.736 176.794 134.381 176.5 135 176.156C135.677 175.785 136.31 175.34 136.889 174.829C139.186 172.773 140.778 172.151 142.049 172.815C143.495 173.569 143.824 175.736 143.796 176.776C143.795 176.805 143.804 176.834 143.82 176.858C143.837 176.882 143.861 176.899 143.889 176.908C143.916 176.918 143.946 176.918 143.974 176.909C144.001 176.899 144.025 176.882 144.042 176.858C144.808 175.771 145.617 175.074 146.206 174.993C146.283 174.979 146.362 174.981 146.438 174.999C146.514 175.017 146.585 175.052 146.647 175.099C146.805 175.228 147.045 175.6 146.871 176.643C146.715 177.581 146.252 178.818 145.531 180.218C144.943 181.37 144.209 182.442 143.347 183.408C143.33 183.427 143.319 183.451 143.315 183.477C143.311 183.503 143.314 183.529 143.325 183.553C143.336 183.577 143.353 183.597 143.375 183.611C143.397 183.626 143.422 183.633 143.448 183.633L143.448 183.633Z" fill="#9B3C82"/>
<path d="M143.201 183.549C143.707 184.001 144.025 184.627 144.09 185.303C144.09 185.299 144.089 185.295 144.089 185.292C144.38 185.912 145.407 186.199 145.69 185.355C145.704 185.313 145.715 185.271 145.724 185.228C145.852 184.149 145.349 182.989 144.575 182.254C144.517 182.198 144.456 182.145 144.395 182.095C144.075 182.541 143.731 182.969 143.362 183.375C143.308 183.435 143.254 183.493 143.201 183.549Z" fill="#5B2448"/>
<path d="M135.453 172.835C136.067 173.155 136.986 173.316 137.91 173.65C137.999 173.683 138.088 173.716 138.177 173.752C139.468 172.806 140.506 172.426 141.391 172.575C141.369 172.493 141.346 172.411 141.32 172.328C141.174 171.855 140.973 171.401 140.721 170.975C139.679 169.212 137.823 168.2 135.861 169.281C133.696 170.475 134.136 172.152 135.453 172.835Z" fill="#5B2448"/>
<path d="M144.587 179.58C144.438 179.679 144.264 179.734 144.086 179.741C143.909 179.753 143.732 179.723 143.568 179.655C143.488 179.619 143.413 179.574 143.345 179.519C143.276 179.465 143.214 179.402 143.161 179.332C143.053 179.19 142.985 179.021 142.964 178.843L142.963 178.838C142.96 178.809 142.946 178.782 142.925 178.762C142.903 178.742 142.875 178.731 142.846 178.73C142.817 178.729 142.788 178.739 142.766 178.758C142.743 178.776 142.728 178.802 142.723 178.831C142.687 179.073 142.739 179.32 142.87 179.527C142.934 179.631 143.014 179.725 143.106 179.805C143.244 179.925 143.407 180.013 143.584 180.061C143.761 180.11 143.946 180.118 144.126 180.085C144.245 180.067 144.361 180.031 144.469 179.977C144.58 179.923 144.678 179.846 144.756 179.751C144.774 179.728 144.784 179.7 144.782 179.671C144.781 179.642 144.769 179.614 144.749 179.593C144.729 179.572 144.703 179.558 144.674 179.555C144.645 179.552 144.615 179.56 144.592 179.577L144.587 179.58Z" fill="#9B3C82"/>
<path d="M147.172 174.924C146.922 175.334 146.559 175.592 146.271 175.452C145.984 175.312 145.967 174.869 146.13 174.418C146.275 174.019 146.63 173.696 147.031 173.891C147.431 174.086 147.416 174.524 147.172 174.924Z" fill="#5B2448"/>
<path d="M138.827 174.473C140.049 174.571 140.709 174.009 141.358 174.49C142.323 175.204 140.661 177.852 137.813 179.053C135.382 180.078 132.555 179.978 131.486 177.083C130.296 173.858 132.414 172.681 133.793 172.91C134.969 173.105 137.807 174.392 138.827 174.473Z" fill="#5B2448"/>
<path d="M152.554 175.064C152.554 175.064 154.346 176.485 157.24 174.767C157.851 174.405 158.383 174.56 157.823 175.411C156.831 176.919 154.802 177.771 153.07 177.794L152.554 175.064Z" fill="#FFCF2D"/>
<path d="M149.248 176.155C150.456 177.829 152.227 178.745 153.555 177.786C153.553 177.757 153.55 177.727 153.547 177.698C153.348 175.707 151.901 173.17 148.807 171.378C147.955 172.25 148.062 174.511 149.248 176.155Z" fill="#5B2448"/>
<path d="M142.683 176.243C142.643 176.277 142.612 176.314 142.577 176.346C142.541 176.376 142.51 176.409 142.474 176.434C142.408 176.487 142.337 176.532 142.261 176.568C142.187 176.603 142.11 176.631 142.03 176.651C142.01 176.657 141.989 176.664 141.97 176.673C141.949 176.68 141.928 176.689 141.908 176.7C141.886 176.71 141.865 176.722 141.844 176.735C141.82 176.747 141.799 176.763 141.78 176.782L141.719 176.855C141.707 176.868 141.699 176.884 141.694 176.9C141.688 176.917 141.686 176.935 141.688 176.952C141.689 176.97 141.694 176.987 141.702 177.002C141.71 177.018 141.721 177.031 141.735 177.043C141.738 177.045 141.741 177.048 141.744 177.05C141.775 177.072 141.808 177.091 141.842 177.105C141.873 177.119 141.906 177.129 141.94 177.135C141.972 177.141 142.005 177.144 142.039 177.145C142.072 177.144 142.105 177.141 142.137 177.137C142.269 177.111 142.394 177.06 142.506 176.985C142.618 176.913 142.714 176.818 142.787 176.707C142.823 176.653 142.853 176.596 142.877 176.537C142.899 176.479 142.916 176.419 142.928 176.357C142.934 176.329 142.931 176.3 142.92 176.274C142.909 176.247 142.889 176.225 142.865 176.21C142.84 176.196 142.811 176.189 142.783 176.191C142.754 176.194 142.727 176.205 142.705 176.224L142.683 176.243Z" fill="#5B2448"/>
<defs>
<filter id="filter0_d_117_1758" x="0" y="0" width="373" height="423" filterUnits="userSpaceOnUse" color-interpolation-filters="sRGB">
<feFlood flood-opacity="0" result="BackgroundImageFix"/>
<feColorMatrix in="SourceAlpha" type="matrix" values="0 0 0 0 0 0 0 0 0 0 0 0 0 0 0 0 0 0 127 0" result="hardAlpha"/>
<feOffset dy="6"/>
<feGaussianBlur stdDeviation="17.5"/>
<feComposite in2="hardAlpha" operator="out"/>
<feColorMatrix type="matrix" values="0 0 0 0 0 0 0 0 0 0.09283 0 0 0 0 0.1375 0 0 0 0.05 0"/>
<feBlend mode="normal" in2="BackgroundImageFix" result="effect1_dropShadow_117_1758"/>
<feBlend mode="normal" in="SourceGraphic" in2="effect1_dropShadow_117_1758" result="shape"/>
</filter>
</defs>
</svg>
