<svg width="214" height="99" viewBox="0 0 214 99" fill="none" xmlns="http://www.w3.org/2000/svg">
<circle cx="212" cy="2" r="2" transform="rotate(-90 212 2)" fill="#DFDFDF"/>
<circle cx="212" cy="21" r="2" transform="rotate(-90 212 21)" fill="#DFDFDF"/>
<circle cx="212" cy="40" r="2" transform="rotate(-90 212 40)" fill="#DFDFDF"/>
<circle cx="212" cy="59" r="2" transform="rotate(-90 212 59)" fill="#DFDFDF"/>
<circle cx="212" cy="78" r="2" transform="rotate(-90 212 78)" fill="#DFDFDF"/>
<circle cx="212" cy="97" r="2" transform="rotate(-90 212 97)" fill="#DFDFDF"/>
<circle cx="191" cy="2" r="2" transform="rotate(-90 191 2)" fill="#DFDFDF"/>
<circle cx="191" cy="21" r="2" transform="rotate(-90 191 21)" fill="#DFDFDF"/>
<circle cx="191" cy="40" r="2" transform="rotate(-90 191 40)" fill="#DFDFDF"/>
<circle cx="191" cy="59" r="2" transform="rotate(-90 191 59)" fill="#DFDFDF"/>
<circle cx="191" cy="78" r="2" transform="rotate(-90 191 78)" fill="#DFDFDF"/>
<circle cx="191" cy="97" r="2" transform="rotate(-90 191 97)" fill="#DFDFDF"/>
<circle cx="170" cy="2" r="2" transform="rotate(-90 170 2)" fill="#DFDFDF"/>
<circle cx="170" cy="21" r="2" transform="rotate(-90 170 21)" fill="#DFDFDF"/>
<circle cx="170" cy="40" r="2" transform="rotate(-90 170 40)" fill="#DFDFDF"/>
<circle cx="170" cy="59" r="2" transform="rotate(-90 170 59)" fill="#DFDFDF"/>
<circle cx="170" cy="78" r="2" transform="rotate(-90 170 78)" fill="#DFDFDF"/>
<circle cx="170" cy="97" r="2" transform="rotate(-90 170 97)" fill="#DFDFDF"/>
<circle cx="149" cy="2" r="2" transform="rotate(-90 149 2)" fill="#DFDFDF"/>
<circle cx="149" cy="21" r="2" transform="rotate(-90 149 21)" fill="#DFDFDF"/>
<circle cx="149" cy="40" r="2" transform="rotate(-90 149 40)" fill="#DFDFDF"/>
<circle cx="149" cy="59" r="2" transform="rotate(-90 149 59)" fill="#DFDFDF"/>
<circle cx="149" cy="78" r="2" transform="rotate(-90 149 78)" fill="#DFDFDF"/>
<circle cx="149" cy="97" r="2" transform="rotate(-90 149 97)" fill="#DFDFDF"/>
<circle cx="128" cy="2" r="2" transform="rotate(-90 128 2)" fill="#DFDFDF"/>
<circle cx="128" cy="21" r="2" transform="rotate(-90 128 21)" fill="#DFDFDF"/>
<circle cx="128" cy="40" r="2" transform="rotate(-90 128 40)" fill="#DFDFDF"/>
<circle cx="128" cy="59" r="2" transform="rotate(-90 128 59)" fill="#DFDFDF"/>
<circle cx="128" cy="78" r="2" transform="rotate(-90 128 78)" fill="#DFDFDF"/>
<circle cx="128" cy="97" r="2" transform="rotate(-90 128 97)" fill="#DFDFDF"/>
<circle cx="107" cy="2" r="2" transform="rotate(-90 107 2)" fill="#DFDFDF"/>
<circle cx="107" cy="21" r="2" transform="rotate(-90 107 21)" fill="#DFDFDF"/>
<circle cx="107" cy="40" r="2" transform="rotate(-90 107 40)" fill="#DFDFDF"/>
<circle cx="107" cy="59" r="2" transform="rotate(-90 107 59)" fill="#DFDFDF"/>
<circle cx="107" cy="78" r="2" transform="rotate(-90 107 78)" fill="#DFDFDF"/>
<circle cx="107" cy="97" r="2" transform="rotate(-90 107 97)" fill="#DFDFDF"/>
<circle cx="86" cy="2" r="2" transform="rotate(-90 86 2)" fill="#DFDFDF"/>
<circle cx="86" cy="21" r="2" transform="rotate(-90 86 21)" fill="#DFDFDF"/>
<circle cx="86" cy="40" r="2" transform="rotate(-90 86 40)" fill="#DFDFDF"/>
<circle cx="86" cy="59" r="2" transform="rotate(-90 86 59)" fill="#DFDFDF"/>
<circle cx="86" cy="78" r="2" transform="rotate(-90 86 78)" fill="#DFDFDF"/>
<circle cx="86" cy="97" r="2" transform="rotate(-90 86 97)" fill="#DFDFDF"/>
<circle cx="65" cy="2" r="2" transform="rotate(-90 65 2)" fill="#DFDFDF"/>
<circle cx="65" cy="21" r="2" transform="rotate(-90 65 21)" fill="#DFDFDF"/>
<circle cx="65" cy="40" r="2" transform="rotate(-90 65 40)" fill="#DFDFDF"/>
<circle cx="65" cy="59" r="2" transform="rotate(-90 65 59)" fill="#DFDFDF"/>
<circle cx="65" cy="78" r="2" transform="rotate(-90 65 78)" fill="#DFDFDF"/>
<circle cx="65" cy="97" r="2" transform="rotate(-90 65 97)" fill="#DFDFDF"/>
<circle cx="44" cy="2" r="2" transform="rotate(-90 44 2)" fill="#DFDFDF"/>
<circle cx="44" cy="21" r="2" transform="rotate(-90 44 21)" fill="#DFDFDF"/>
<circle cx="44" cy="40" r="2" transform="rotate(-90 44 40)" fill="#DFDFDF"/>
<circle cx="44" cy="59" r="2" transform="rotate(-90 44 59)" fill="#DFDFDF"/>
<circle cx="44" cy="78" r="2" transform="rotate(-90 44 78)" fill="#DFDFDF"/>
<circle cx="44" cy="97" r="2" transform="rotate(-90 44 97)" fill="#DFDFDF"/>
<circle cx="23" cy="2" r="2" transform="rotate(-90 23 2)" fill="#DFDFDF"/>
<circle cx="23" cy="21" r="2" transform="rotate(-90 23 21)" fill="#DFDFDF"/>
<circle cx="23" cy="40" r="2" transform="rotate(-90 23 40)" fill="#DFDFDF"/>
<circle cx="23" cy="59" r="2" transform="rotate(-90 23 59)" fill="#DFDFDF"/>
<circle cx="23" cy="78" r="2" transform="rotate(-90 23 78)" fill="#DFDFDF"/>
<circle cx="23" cy="97" r="2" transform="rotate(-90 23 97)" fill="#DFDFDF"/>
<circle cx="2" cy="2" r="2" transform="rotate(-90 2 2)" fill="#DFDFDF"/>
<circle cx="2" cy="21" r="2" transform="rotate(-90 2 21)" fill="#DFDFDF"/>
<circle cx="2" cy="40" r="2" transform="rotate(-90 2 40)" fill="#DFDFDF"/>
<circle cx="2" cy="59" r="2" transform="rotate(-90 2 59)" fill="#DFDFDF"/>
<circle cx="2" cy="78" r="2" transform="rotate(-90 2 78)" fill="#DFDFDF"/>
<circle cx="2" cy="97" r="2" transform="rotate(-90 2 97)" fill="#DFDFDF"/>
</svg>
