<svg width="99" height="214" viewBox="0 0 99 214" fill="none" xmlns="http://www.w3.org/2000/svg">
<circle cx="97" cy="212" r="2" fill="#DFDFDF"/>
<circle cx="78" cy="212" r="2" fill="#DFDFDF"/>
<circle cx="59" cy="212" r="2" fill="#DFDFDF"/>
<circle cx="40" cy="212" r="2" fill="#DFDFDF"/>
<circle cx="21" cy="212" r="2" fill="#DFDFDF"/>
<circle cx="2" cy="212" r="2" fill="#DFDFDF"/>
<circle cx="97" cy="191" r="2" fill="#DFDFDF"/>
<circle cx="78" cy="191" r="2" fill="#DFDFDF"/>
<circle cx="59" cy="191" r="2" fill="#DFDFDF"/>
<circle cx="40" cy="191" r="2" fill="#DFDFDF"/>
<circle cx="21" cy="191" r="2" fill="#DFDFDF"/>
<circle cx="2" cy="191" r="2" fill="#DFDFDF"/>
<circle cx="97" cy="170" r="2" fill="#DFDFDF"/>
<circle cx="78" cy="170" r="2" fill="#DFDFDF"/>
<circle cx="59" cy="170" r="2" fill="#DFDFDF"/>
<circle cx="40" cy="170" r="2" fill="#DFDFDF"/>
<circle cx="21" cy="170" r="2" fill="#DFDFDF"/>
<circle cx="2" cy="170" r="2" fill="#DFDFDF"/>
<circle cx="97" cy="149" r="2" fill="#DFDFDF"/>
<circle cx="78" cy="149" r="2" fill="#DFDFDF"/>
<circle cx="59" cy="149" r="2" fill="#DFDFDF"/>
<circle cx="40" cy="149" r="2" fill="#DFDFDF"/>
<circle cx="21" cy="149" r="2" fill="#DFDFDF"/>
<circle cx="2" cy="149" r="2" fill="#DFDFDF"/>
<circle cx="97" cy="128" r="2" fill="#DFDFDF"/>
<circle cx="78" cy="128" r="2" fill="#DFDFDF"/>
<circle cx="59" cy="128" r="2" fill="#DFDFDF"/>
<circle cx="40" cy="128" r="2" fill="#DFDFDF"/>
<circle cx="21" cy="128" r="2" fill="#DFDFDF"/>
<circle cx="2" cy="128" r="2" fill="#DFDFDF"/>
<circle cx="97" cy="107" r="2" fill="#DFDFDF"/>
<circle cx="78" cy="107" r="2" fill="#DFDFDF"/>
<circle cx="59" cy="107" r="2" fill="#DFDFDF"/>
<circle cx="40" cy="107" r="2" fill="#DFDFDF"/>
<circle cx="21" cy="107" r="2" fill="#DFDFDF"/>
<circle cx="2" cy="107" r="2" fill="#DFDFDF"/>
<circle cx="97" cy="86" r="2" fill="#DFDFDF"/>
<circle cx="78" cy="86" r="2" fill="#DFDFDF"/>
<circle cx="59" cy="86" r="2" fill="#DFDFDF"/>
<circle cx="40" cy="86" r="2" fill="#DFDFDF"/>
<circle cx="21" cy="86" r="2" fill="#DFDFDF"/>
<circle cx="2" cy="86" r="2" fill="#DFDFDF"/>
<circle cx="97" cy="65" r="2" fill="#DFDFDF"/>
<circle cx="78" cy="65" r="2" fill="#DFDFDF"/>
<circle cx="59" cy="65" r="2" fill="#DFDFDF"/>
<circle cx="40" cy="65" r="2" fill="#DFDFDF"/>
<circle cx="21" cy="65" r="2" fill="#DFDFDF"/>
<circle cx="2" cy="65" r="2" fill="#DFDFDF"/>
<circle cx="97" cy="44" r="2" fill="#DFDFDF"/>
<circle cx="78" cy="44" r="2" fill="#DFDFDF"/>
<circle cx="59" cy="44" r="2" fill="#DFDFDF"/>
<circle cx="40" cy="44" r="2" fill="#DFDFDF"/>
<circle cx="21" cy="44" r="2" fill="#DFDFDF"/>
<circle cx="2" cy="44" r="2" fill="#DFDFDF"/>
<circle cx="97" cy="23" r="2" fill="#DFDFDF"/>
<circle cx="78" cy="23" r="2" fill="#DFDFDF"/>
<circle cx="59" cy="23" r="2" fill="#DFDFDF"/>
<circle cx="40" cy="23" r="2" fill="#DFDFDF"/>
<circle cx="21" cy="23" r="2" fill="#DFDFDF"/>
<circle cx="2" cy="23" r="2" fill="#DFDFDF"/>
<circle cx="97" cy="2" r="2" fill="#DFDFDF"/>
<circle cx="78" cy="2" r="2" fill="#DFDFDF"/>
<circle cx="59" cy="2" r="2" fill="#DFDFDF"/>
<circle cx="40" cy="2" r="2" fill="#DFDFDF"/>
<circle cx="21" cy="2" r="2" fill="#DFDFDF"/>
<circle cx="2" cy="2" r="2" fill="#DFDFDF"/>
</svg>
