<svg width="187" height="69" viewBox="0 0 187 69" fill="none" xmlns="http://www.w3.org/2000/svg">
<rect x="0.344238" y="0.874023" width="186.003" height="67.3631" rx="11" fill="white"/>
<path d="M72.4723 47.4419H74.6323L70.1503 34.9139H67.7743L63.2923 47.4419H65.4343L66.3343 44.8859H71.5723L72.4723 47.4419ZM70.9963 43.2119H66.9103L68.9623 37.3979L70.9963 43.2119ZM77.9131 38.9819V37.5239H75.8611V52.1579H77.9131V46.0019C78.5611 46.7759 79.7311 47.6039 81.3691 47.6039C83.9791 47.6039 86.0311 45.4979 86.0311 42.4379C86.0311 39.3779 83.9791 37.3619 81.3691 37.3619C79.7491 37.3619 78.5431 38.1539 77.9131 38.9819ZM83.9431 42.4379C83.9431 44.5799 82.4671 45.8219 80.9191 45.8219C79.3891 45.8219 77.9131 44.6159 77.9131 42.4739C77.9131 40.3499 79.3891 39.1439 80.9191 39.1439C82.4671 39.1439 83.9431 40.2959 83.9431 42.4379ZM89.3923 38.9819V37.5239H87.3403V52.1579H89.3923V46.0019C90.0403 46.7759 91.2103 47.6039 92.8483 47.6039C95.4583 47.6039 97.5103 45.4979 97.5103 42.4379C97.5103 39.3779 95.4583 37.3619 92.8483 37.3619C91.2283 37.3619 90.0223 38.1539 89.3923 38.9819ZM95.4223 42.4379C95.4223 44.5799 93.9463 45.8219 92.3983 45.8219C90.8683 45.8219 89.3923 44.6159 89.3923 42.4739C89.3923 40.3499 90.8683 39.1439 92.3983 39.1439C93.9463 39.1439 95.4223 40.2959 95.4223 42.4379ZM98.8195 47.4419H100.872V34.1219H98.8195V47.4419ZM107.022 39.0899C108.552 39.0899 109.758 40.0619 109.794 41.5919H104.304C104.52 40.0259 105.636 39.0899 107.022 39.0899ZM111.666 44.4899H109.452C109.074 45.2639 108.372 45.8759 107.112 45.8759C105.6 45.8759 104.43 44.8859 104.286 43.2479H111.864C111.918 42.9059 111.936 42.5819 111.936 42.2399C111.936 39.3239 109.938 37.3619 107.112 37.3619C104.178 37.3619 102.162 39.3599 102.162 42.4739C102.162 45.5879 104.268 47.6039 107.112 47.6039C109.542 47.6039 111.108 46.2179 111.666 44.4899ZM125.633 43.8959C125.633 39.3239 119.009 41.0879 119.009 38.2619C119.009 37.0559 119.927 36.4799 121.115 36.5159C122.411 36.5519 123.149 37.3259 123.221 38.1719H125.489C125.309 36.0299 123.617 34.7699 121.223 34.7699C118.667 34.7699 116.921 36.1379 116.921 38.3339C116.921 42.9419 123.563 40.9799 123.563 44.0039C123.563 45.0659 122.753 45.8399 121.313 45.8399C119.891 45.8399 119.171 45.0119 119.081 43.9859H116.885C116.885 46.1999 118.811 47.5679 121.313 47.5679C124.103 47.5679 125.633 45.7679 125.633 43.8959ZM127.658 44.6879C127.658 46.7039 128.756 47.4419 130.52 47.4419H132.14V45.7319H130.88C130.016 45.7319 129.728 45.4259 129.728 44.6879V39.1979H132.14V37.5239H129.728V35.0579H127.658V37.5239H126.488V39.1979H127.658V44.6879ZM142.761 42.4739C142.761 39.3599 140.529 37.3619 137.703 37.3619C134.877 37.3619 132.645 39.3599 132.645 42.4739C132.645 45.5879 134.787 47.6039 137.613 47.6039C140.457 47.6039 142.761 45.5879 142.761 42.4739ZM134.733 42.4739C134.733 40.2239 136.119 39.1439 137.667 39.1439C139.197 39.1439 140.655 40.2239 140.655 42.4739C140.655 44.7239 139.143 45.8219 137.613 45.8219C136.065 45.8219 134.733 44.7239 134.733 42.4739ZM146.122 42.2219C146.122 40.1159 147.058 39.4859 148.57 39.4859H149.092V37.3619C147.688 37.3619 146.698 37.9739 146.122 38.9639V37.5239H144.07V47.4419H146.122V42.2219ZM154.434 39.0899C155.964 39.0899 157.17 40.0619 157.206 41.5919H151.716C151.932 40.0259 153.048 39.0899 154.434 39.0899ZM159.078 44.4899H156.864C156.486 45.2639 155.784 45.8759 154.524 45.8759C153.012 45.8759 151.842 44.8859 151.698 43.2479H159.276C159.33 42.9059 159.348 42.5819 159.348 42.2399C159.348 39.3239 157.35 37.3619 154.524 37.3619C151.59 37.3619 149.574 39.3599 149.574 42.4739C149.574 45.5879 151.68 47.6039 154.524 47.6039C156.954 47.6039 158.52 46.2179 159.078 44.4899Z" fill="#010103"/>
<path d="M67.6312 18.904H65.4612V25.874H67.6312C69.9212 25.874 71.3312 24.564 71.3312 22.404C71.3312 20.244 69.9212 18.904 67.6312 18.904ZM66.3712 25.124V19.644H67.6312C69.4512 19.644 70.4012 20.704 70.4012 22.404C70.4012 24.104 69.4512 25.124 67.6312 25.124H66.3712ZM77.3315 23.124C77.3315 21.394 76.1215 20.304 74.5615 20.304C73.0115 20.304 71.7915 21.394 71.7915 23.124C71.7915 24.864 72.9715 25.964 74.5215 25.964C76.0815 25.964 77.3315 24.864 77.3315 23.124ZM72.7215 23.124C72.7215 21.744 73.5915 21.094 74.5515 21.094C75.4915 21.094 76.4015 21.744 76.4015 23.124C76.4015 24.514 75.4715 25.164 74.5215 25.164C73.5715 25.164 72.7215 24.514 72.7215 23.124ZM79.198 25.874H80.138L81.458 21.524L82.778 25.874H83.718L85.428 20.394H84.528L83.288 25.004L81.958 20.394H81.028L79.668 24.994L78.408 20.394H77.478L79.198 25.874ZM89.9411 25.874H90.8411V22.644C90.8411 21.074 89.8711 20.294 88.6011 20.294C87.8611 20.294 87.2011 20.604 86.8411 21.174V20.394H85.9311V25.874H86.8411V22.844C86.8411 21.664 87.4811 21.084 88.4111 21.084C89.3311 21.084 89.9411 21.654 89.9411 22.774V25.874ZM91.9276 25.874H92.8376V18.474H91.9276V25.874ZM99.1885 23.124C99.1885 21.394 97.9785 20.304 96.4185 20.304C94.8685 20.304 93.6485 21.394 93.6485 23.124C93.6485 24.864 94.8285 25.964 96.3785 25.964C97.9385 25.964 99.1885 24.864 99.1885 23.124ZM94.5785 23.124C94.5785 21.744 95.4485 21.094 96.4085 21.094C97.3485 21.094 98.2585 21.744 98.2585 23.124C98.2585 24.514 97.3285 25.164 96.3785 25.164C95.4285 25.164 94.5785 24.514 94.5785 23.124ZM99.645 23.114C99.645 24.814 100.775 25.964 102.235 25.964C103.245 25.964 103.955 25.444 104.285 24.854V25.874H105.205V20.394H104.285V21.394C103.965 20.824 103.265 20.304 102.245 20.304C100.775 20.304 99.645 21.404 99.645 23.114ZM104.285 23.124C104.285 24.414 103.425 25.164 102.425 25.164C101.425 25.164 100.575 24.404 100.575 23.114C100.575 21.824 101.425 21.094 102.425 21.094C103.425 21.094 104.285 21.854 104.285 23.124ZM106.003 23.114C106.003 24.814 107.133 25.964 108.603 25.964C109.603 25.964 110.313 25.454 110.643 24.844V25.874H111.563V18.474H110.643V21.374C110.263 20.744 109.473 20.304 108.613 20.304C107.133 20.304 106.003 21.404 106.003 23.114ZM110.643 23.124C110.643 24.414 109.783 25.164 108.783 25.164C107.783 25.164 106.933 24.404 106.933 23.114C106.933 21.824 107.783 21.094 108.783 21.094C109.783 21.094 110.643 21.854 110.643 23.124ZM120.167 23.124C120.167 21.394 118.957 20.304 117.397 20.304C115.847 20.304 114.627 21.394 114.627 23.124C114.627 24.864 115.807 25.964 117.357 25.964C118.917 25.964 120.167 24.864 120.167 23.124ZM115.557 23.124C115.557 21.744 116.427 21.094 117.387 21.094C118.327 21.094 119.237 21.744 119.237 23.124C119.237 24.514 118.307 25.164 117.357 25.164C116.407 25.164 115.557 24.514 115.557 23.124ZM124.973 25.874H125.873V22.644C125.873 21.074 124.903 20.294 123.633 20.294C122.893 20.294 122.233 20.604 121.873 21.174V20.394H120.963V25.874H121.873V22.844C121.873 21.664 122.513 21.084 123.443 21.084C124.363 21.084 124.973 21.654 124.973 22.774V25.874ZM129.426 24.374C129.426 25.474 129.976 25.874 130.946 25.874H131.766V25.104H131.096C130.536 25.104 130.336 24.914 130.336 24.374V21.144H131.766V20.394H130.336V19.014H129.426V20.394H128.716V21.144H129.426V24.374ZM132.468 25.874H133.378V22.844C133.378 21.664 134.018 21.084 134.948 21.084C135.868 21.084 136.478 21.654 136.478 22.774V25.874H137.378V22.644C137.378 21.074 136.408 20.294 135.188 20.294C134.418 20.294 133.738 20.604 133.378 21.184V18.474H132.468V25.874ZM140.795 21.074C141.735 21.074 142.535 21.664 142.525 22.734H139.065C139.165 21.664 139.905 21.074 140.795 21.074ZM143.355 24.184H142.375C142.175 24.774 141.655 25.194 140.835 25.194C139.905 25.194 139.125 24.584 139.055 23.474H143.435C143.455 23.284 143.465 23.124 143.465 22.924C143.465 21.424 142.425 20.304 140.835 20.304C139.235 20.304 138.125 21.394 138.125 23.124C138.125 24.864 139.275 25.964 140.835 25.964C142.195 25.964 143.075 25.184 143.355 24.184Z" fill="#8E8F91"/>
<g clip-path="url(#clip0_209_5357)">
<path d="M46.5225 29.1299C46.3887 29.2139 43.2041 30.9812 43.2041 34.8999C43.3544 39.3692 47.2229 40.9364 47.2892 40.9364C47.2229 41.0204 46.705 43.0718 45.1715 45.2222C43.9547 47.075 42.6037 48.9424 40.5523 48.9424C38.601 48.9424 37.9006 47.708 35.6491 47.708C33.2312 47.708 32.5469 48.9424 30.6956 48.9424C28.6442 48.9424 27.1932 46.975 25.9096 45.1398C24.2423 42.7379 22.825 38.969 22.7747 35.3504C22.741 33.4328 23.1086 31.5478 24.0417 29.9469C25.359 27.7115 27.7106 26.1946 30.2788 26.1443C32.2462 26.078 33.9974 27.4953 35.1986 27.4953C36.3495 27.4953 38.501 26.1443 40.9349 26.1443C41.9858 26.1454 44.7878 26.4616 46.5225 29.1299ZM35.0322 25.7612C34.6818 24.01 35.6491 22.2588 36.5496 21.1416C37.7005 19.7911 39.5181 18.874 41.0853 18.874C41.1853 20.6252 40.5513 22.3428 39.418 23.5937C38.4009 24.9447 36.6497 25.9613 35.0322 25.7612Z" fill="black"/>
</g>
<defs>
<clipPath id="clip0_209_5357">
<rect width="33.1789" height="33.1789" fill="white" transform="translate(18.4418 18.874)"/>
</clipPath>
</defs>
</svg>
