<svg width="187" height="69" viewBox="0 0 187 69" fill="none" xmlns="http://www.w3.org/2000/svg">
<rect x="0.411865" y="0.874023" width="186.003" height="67.3631" rx="11" fill="white"/>
<path d="M69.8039 34.7699C66.2759 34.7699 63.4139 37.4159 63.4139 41.1599C63.4139 44.9219 66.2759 47.5499 69.8039 47.5499C73.1699 47.5499 75.6179 45.0839 75.9959 42.1859V40.5839H69.1019V42.2219H73.7999C73.4939 44.3279 72.0719 45.6959 69.8039 45.6959C67.3199 45.6959 65.5199 43.9139 65.5199 41.1599C65.5199 38.4059 67.3199 36.6419 69.8039 36.6419C71.2979 36.6419 72.4859 37.2719 73.1519 38.5319H75.6179C74.6639 36.0839 72.4139 34.7699 69.8039 34.7699ZM86.7498 42.4739C86.7498 39.3599 84.5178 37.3619 81.6918 37.3619C78.8658 37.3619 76.6338 39.3599 76.6338 42.4739C76.6338 45.5879 78.7758 47.6039 81.6018 47.6039C84.4458 47.6039 86.7498 45.5879 86.7498 42.4739ZM78.7218 42.4739C78.7218 40.2239 80.1078 39.1439 81.6558 39.1439C83.1858 39.1439 84.6438 40.2239 84.6438 42.4739C84.6438 44.7239 83.1318 45.8219 81.6018 45.8219C80.0538 45.8219 78.7218 44.7239 78.7218 42.4739ZM97.5083 42.4739C97.5083 39.3599 95.2763 37.3619 92.4503 37.3619C89.6243 37.3619 87.3923 39.3599 87.3923 42.4739C87.3923 45.5879 89.5343 47.6039 92.3603 47.6039C95.2043 47.6039 97.5083 45.5879 97.5083 42.4739ZM89.4803 42.4739C89.4803 40.2239 90.8663 39.1439 92.4143 39.1439C93.9443 39.1439 95.4023 40.2239 95.4023 42.4739C95.4023 44.7239 93.8903 45.8219 92.3603 45.8219C90.8123 45.8219 89.4803 44.7239 89.4803 42.4739ZM98.1328 42.4379C98.1328 45.4979 100.203 47.6039 102.813 47.6039C104.433 47.6039 105.621 46.7939 106.251 45.9479V47.6039C106.251 49.5839 105.063 50.5559 103.479 50.5559C102.057 50.5559 100.959 49.8539 100.653 48.8279H98.6188C98.8708 51.0239 100.833 52.3379 103.479 52.3379C106.575 52.3379 108.321 50.3039 108.321 47.6039V37.5239H106.251V38.9639C105.639 38.1179 104.433 37.3619 102.813 37.3619C100.203 37.3619 98.1328 39.3779 98.1328 42.4379ZM106.251 42.4739C106.251 44.6159 104.793 45.8219 103.245 45.8219C101.715 45.8219 100.239 44.5799 100.239 42.4379C100.239 40.2959 101.715 39.1439 103.245 39.1439C104.793 39.1439 106.251 40.3499 106.251 42.4739ZM110.296 47.4419H112.348V34.1219H110.296V47.4419ZM118.498 39.0899C120.028 39.0899 121.234 40.0619 121.27 41.5919H115.78C115.996 40.0259 117.112 39.0899 118.498 39.0899ZM123.142 44.4899H120.928C120.55 45.2639 119.848 45.8759 118.588 45.8759C117.076 45.8759 115.906 44.8859 115.762 43.2479H123.34C123.394 42.9059 123.412 42.5819 123.412 42.2399C123.412 39.3239 121.414 37.3619 118.588 37.3619C115.654 37.3619 113.638 39.3599 113.638 42.4739C113.638 45.5879 115.744 47.6039 118.588 47.6039C121.018 47.6039 122.584 46.2179 123.142 44.4899ZM130.719 40.6919V36.6059H132.987C134.589 36.6059 135.309 37.3619 135.309 38.6579C135.309 39.9179 134.589 40.6919 132.987 40.6919H130.719ZM137.415 38.6579C137.415 36.6239 135.957 34.9319 132.987 34.9319H128.667V47.4419H130.719V42.3659H132.987C136.245 42.3659 137.415 40.4399 137.415 38.6579ZM138.652 47.4419H140.704V34.1219H138.652V47.4419ZM141.994 42.4379C141.994 45.4979 144.064 47.6039 146.638 47.6039C148.294 47.6039 149.482 46.8119 150.112 45.9659V47.4419H152.182V37.5239H150.112V38.9639C149.5 38.1539 148.348 37.3619 146.674 37.3619C144.064 37.3619 141.994 39.3779 141.994 42.4379ZM150.112 42.4739C150.112 44.6159 148.654 45.8219 147.106 45.8219C145.576 45.8219 144.1 44.5799 144.1 42.4379C144.1 40.2959 145.576 39.1439 147.106 39.1439C148.654 39.1439 150.112 40.3499 150.112 42.4739ZM158.064 45.0839L155.274 37.5239H152.988L156.894 47.2799L154.878 52.1039H157.002L163.086 37.5239H160.962L158.064 45.0839Z" fill="#010103"/>
<path d="M68.6888 18.824C66.7288 18.824 65.1888 20.294 65.1888 22.384C65.1888 24.474 66.7288 25.934 68.6888 25.934C70.5788 25.934 71.9488 24.544 72.1088 22.814V22.114H68.3588V22.854H71.1388C70.9988 24.234 70.0588 25.114 68.6888 25.114C67.2188 25.114 66.1188 24.054 66.1188 22.384C66.1188 20.704 67.2188 19.644 68.6888 19.644C69.6688 19.644 70.4288 20.114 70.8088 20.924H71.8988C71.3788 19.584 70.1588 18.824 68.6888 18.824ZM75.242 21.074C76.182 21.074 76.982 21.664 76.972 22.734H73.512C73.612 21.664 74.352 21.074 75.242 21.074ZM77.802 24.184H76.822C76.622 24.774 76.102 25.194 75.282 25.194C74.352 25.194 73.572 24.584 73.502 23.474H77.882C77.902 23.284 77.912 23.124 77.912 22.924C77.912 21.424 76.872 20.304 75.282 20.304C73.682 20.304 72.572 21.394 72.572 23.124C72.572 24.864 73.722 25.964 75.282 25.964C76.642 25.964 77.522 25.184 77.802 24.184ZM78.9132 24.374C78.9132 25.474 79.4632 25.874 80.4332 25.874H81.2532V25.104H80.5832C80.0232 25.104 79.8232 24.914 79.8232 24.374V21.144H81.2532V20.394H79.8232V19.014H78.9132V20.394H78.2032V21.144H78.9132V24.374ZM84.2218 25.874H85.1318V20.394H84.2218V25.874ZM84.6918 19.504C85.0218 19.504 85.2918 19.234 85.2918 18.884C85.2918 18.534 85.0218 18.264 84.6918 18.264C84.3418 18.264 84.0718 18.534 84.0718 18.884C84.0718 19.234 84.3418 19.504 84.6918 19.504ZM86.4827 24.374C86.4827 25.474 87.0327 25.874 88.0027 25.874H88.8227V25.104H88.1527C87.5927 25.104 87.3927 24.914 87.3927 24.374V21.144H88.8227V20.394H87.3927V19.014H86.4827V20.394H85.7727V21.144H86.4827V24.374ZM91.9613 25.874H92.8713V21.144H94.0213V20.394H92.8713V20.004C92.8713 19.294 93.1413 18.994 93.9613 18.994V18.234C92.5613 18.234 91.9613 18.784 91.9613 20.004V20.394H91.2513V21.144H91.9613V25.874ZM95.5923 22.894C95.5923 21.624 96.2523 21.234 97.1223 21.234H97.3623V20.294C96.4923 20.294 95.9023 20.674 95.5923 21.284V20.394H94.6823V25.874H95.5923V22.894ZM103.213 23.124C103.213 21.394 102.003 20.304 100.443 20.304C98.8928 20.304 97.6728 21.394 97.6728 23.124C97.6728 24.864 98.8528 25.964 100.403 25.964C101.963 25.964 103.213 24.864 103.213 23.124ZM98.6028 23.124C98.6028 21.744 99.4728 21.094 100.433 21.094C101.373 21.094 102.283 21.744 102.283 23.124C102.283 24.514 101.353 25.164 100.403 25.164C99.4528 25.164 98.6028 24.514 98.6028 23.124ZM111.919 25.874H112.819V22.644C112.819 21.074 111.849 20.294 110.599 20.294C109.759 20.294 108.979 20.724 108.659 21.514C108.299 20.694 107.549 20.294 106.649 20.294C105.929 20.294 105.279 20.604 104.919 21.184V20.394H104.009V25.874H104.919V22.854C104.919 21.674 105.549 21.084 106.469 21.084C107.369 21.084 107.969 21.654 107.969 22.774V25.874H108.869V22.854C108.869 21.674 109.499 21.084 110.419 21.084C111.319 21.084 111.919 21.654 111.919 22.774V25.874Z" fill="#8E8F91"/>
<path d="M23.2972 20.7798C23.0132 20.8533 22.8125 21.0988 22.8125 21.5209C22.8125 22.7598 22.8125 34.4425 22.8125 34.4425C22.8125 34.4425 22.8125 47.0677 22.8125 47.6253C22.8125 47.9319 22.9479 48.1375 23.1562 48.2138L37.0307 34.4198L23.2972 20.7798Z" fill="#4DB6AC"/>
<path d="M40.8505 30.6225L35.1394 27.3253C35.1394 27.3253 24.6585 21.2732 24.0425 20.9178C23.7757 20.7638 23.5131 20.7232 23.2972 20.7796L37.0314 34.4196L40.8505 30.6225Z" fill="#DCE775"/>
<path d="M23.7867 48.1137C24.1524 47.902 34.2944 42.0466 40.8814 38.2433L37.0307 34.4194L23.1562 48.2134C23.3268 48.276 23.5454 48.2526 23.7867 48.1137Z" fill="#D32F2F"/>
<path d="M46.4611 33.8614C45.9138 33.5664 40.8923 30.6466 40.8923 30.6466L40.8504 30.6226L37.0306 34.4196L40.8813 38.2435C43.9283 36.4842 46.217 35.1635 46.4219 35.0446C47.0709 34.6706 47.0083 34.1563 46.4611 33.8614Z" fill="#FBC02D"/>
</svg>
