<svg width="61" height="61" viewBox="0 0 61 61" fill="none" xmlns="http://www.w3.org/2000/svg">
<path d="M22.8751 38.125C16.0888 38.125 2.54175 41.5308 2.54175 48.2917V53.375H43.2084V48.2917C43.2084 41.5308 29.6613 38.125 22.8751 38.125ZM7.62508 48.2917C8.18425 46.4617 16.038 43.2083 22.8751 43.2083C29.7376 43.2083 37.6167 46.4871 38.1251 48.2917H7.62508ZM12.0476 22.875H12.7084C12.7084 28.4921 17.258 33.0417 22.8751 33.0417C28.4922 33.0417 33.0417 28.4921 33.0417 22.875H33.7026C34.3888 22.875 34.948 22.3158 34.948 21.6296V21.5787C34.948 21.2484 34.8168 20.9317 34.5832 20.6981C34.3497 20.4645 34.0329 20.3333 33.7026 20.3333H33.0417C33.0417 16.5717 30.983 13.3438 27.9584 11.5646V13.9792C27.9584 14.6908 27.3992 15.25 26.6876 15.25C25.9759 15.25 25.4167 14.6908 25.4167 13.9792V10.5225C24.6034 10.3192 23.7647 10.1667 22.8751 10.1667C21.9855 10.1667 21.1467 10.3192 20.3334 10.5225V13.9792C20.3334 14.6908 19.7742 15.25 19.0626 15.25C18.3509 15.25 17.7917 14.6908 17.7917 13.9792V11.5646C14.7672 13.3438 12.7084 16.5717 12.7084 20.3333H12.0476C11.884 20.3333 11.7221 20.3655 11.571 20.4281C11.4199 20.4907 11.2826 20.5825 11.1669 20.6981C11.0513 20.8138 10.9596 20.951 10.897 21.1022C10.8344 21.2533 10.8022 21.4152 10.8022 21.5787V21.655C10.8022 22.3158 11.3613 22.875 12.0476 22.875ZM27.9584 22.875C27.9584 25.6708 25.6709 27.9583 22.8751 27.9583C20.0792 27.9583 17.7917 25.6708 17.7917 22.875H27.9584ZM55.8659 15.8346L58.2297 13.725L56.3234 10.4208L53.2988 11.4121C52.943 11.1325 52.5363 10.9037 52.1042 10.7258L51.4688 7.625H47.6563L47.0209 10.7258C46.5888 10.9037 46.1822 11.1325 45.8009 11.4121L42.8018 10.4208L40.8955 13.725L43.2593 15.8346C43.2084 16.2667 43.2084 16.7242 43.2593 17.1562L40.8955 19.3167L42.8018 22.6208L45.8518 21.655C46.1822 21.9092 46.5634 22.1125 46.9447 22.2904L47.6563 25.4167H51.4688L52.1551 22.3158C52.5618 22.1379 52.9176 21.9346 53.2734 21.6804L56.298 22.6462L58.2043 19.3421L55.8405 17.1817C55.9167 16.6988 55.8913 16.2667 55.8659 15.8346ZM49.5626 19.6979C48.72 19.6979 47.9119 19.3632 47.316 18.7674C46.7202 18.1716 46.3855 17.3634 46.3855 16.5208C46.3855 15.6782 46.7202 14.8701 47.316 14.2743C47.9119 13.6785 48.72 13.3438 49.5626 13.3438C50.4052 13.3438 51.2133 13.6785 51.8091 14.2743C52.4049 14.8701 52.7397 15.6782 52.7397 16.5208C52.7397 17.3634 52.4049 18.1716 51.8091 18.7674C51.2133 19.3632 50.4052 19.6979 49.5626 19.6979ZM49.3084 27.4246L47.148 28.1362C46.8938 27.9329 46.6142 27.7804 46.3092 27.6533L45.8518 25.4167H43.1322L42.6747 27.6279C42.3697 27.755 42.0647 27.9329 41.8105 28.1108L39.6755 27.3992L38.303 29.7629L39.9805 31.2625C39.9551 31.5929 39.9551 31.8979 39.9805 32.2029L38.303 33.7533L39.6755 36.1171L41.8613 35.4308C42.1155 35.6087 42.3697 35.7613 42.6493 35.8883L43.1067 38.125H45.8263L46.3092 35.9138C46.5888 35.7867 46.8684 35.6342 47.1226 35.4563L49.283 36.1425L50.6555 33.7788L48.978 32.2283C49.0034 31.8979 49.0034 31.5929 48.978 31.2879L50.6555 29.7883L49.3084 27.4246ZM44.4792 34.0329C43.2338 34.0329 42.2172 33.0163 42.2172 31.7708C42.2172 30.5254 43.2338 29.5087 44.4792 29.5087C45.7247 29.5087 46.7413 30.5254 46.7413 31.7708C46.7413 33.0163 45.7247 34.0329 44.4792 34.0329Z" fill="#098ECE"/>
</svg>
