<svg width="61" height="61" viewBox="0 0 61 61" fill="none" xmlns="http://www.w3.org/2000/svg">
<path d="M33.0416 7.625C27.4271 7.625 22.875 12.1771 22.875 17.7917C22.875 23.4062 27.4271 27.9583 33.0416 27.9583C38.6562 27.9583 43.2083 23.4062 43.2083 17.7917C43.2083 12.1771 38.6562 7.625 33.0416 7.625ZM10.9708 7.75407L9.36243 12.5793L16.9874 15.1209L18.5958 10.2957L10.9708 7.75407ZM55.1124 7.75407L47.4874 10.2957L49.0958 15.1209L56.7208 12.5793L55.1124 7.75407ZM33.0416 12.7083C35.8502 12.7083 38.125 14.9831 38.125 17.7917C38.125 20.6002 35.8502 22.875 33.0416 22.875C30.2331 22.875 27.9583 20.6002 27.9583 17.7917C27.9583 14.9831 30.2331 12.7083 33.0416 12.7083ZM16.9874 17.9207L9.36243 20.4624L10.9708 25.2876L18.5958 22.7459L16.9874 17.9207ZM49.0958 17.9207L47.4874 22.7459L55.1124 25.2876L56.7208 20.4624L49.0958 17.9207ZM15.25 27.9583C14.5103 27.9583 13.8113 28.0952 13.1352 28.2909L2.54163 30.773V49.076L12.7083 45.75L33.4388 53.0027C34.1123 53.2391 34.8124 53.3551 35.5088 53.3551C36.5306 53.3551 37.5474 53.1086 38.4675 52.6155L57.0931 42.6573L54.0997 36.2634L35.8911 45.4472L34.2827 44.9756L35.6031 41.7538C36.7596 39.174 35.5894 36.1435 32.9969 35.0125L18.0845 28.5193C17.2051 28.166 16.2539 27.9583 15.25 27.9583ZM15.25 33.0417C15.5397 33.0417 15.8386 33.0986 16.1385 33.2104L30.9616 39.6689L30.9269 39.7483L30.8921 39.8277L29.5766 43.0495L28.4299 45.8642L14.3862 40.9496L12.7629 40.3837L11.1297 40.9149L7.62496 42.0666V34.804L14.2919 33.2402L14.4259 33.2104L14.55 33.1757C14.855 33.0893 15.0898 33.0417 15.25 33.0417Z" fill="#098ECE"/>
</svg>
