<svg width="373" height="423" viewBox="0 0 373 423" fill="none" xmlns="http://www.w3.org/2000/svg">
<g filter="url(#filter0_d_117_1968)">
<rect x="35" y="29" width="303" height="353" rx="30" fill="white"/>
</g>
<path d="M77.84 276.626C73.92 276.626 70.74 279.566 70.74 283.726C70.74 287.906 73.92 290.826 77.84 290.826C81.58 290.826 84.3 288.086 84.72 284.866V283.086H77.06V284.906H82.28C81.94 287.246 80.36 288.766 77.84 288.766C75.08 288.766 73.08 286.786 73.08 283.726C73.08 280.666 75.08 278.706 77.84 278.706C79.5 278.706 80.82 279.406 81.56 280.806H84.3C83.24 278.086 80.74 276.626 77.84 276.626ZM91.6088 281.426C93.3088 281.426 94.6488 282.506 94.6888 284.206H88.5888C88.8288 282.466 90.0688 281.426 91.6088 281.426ZM96.7687 287.426H94.3088C93.8888 288.286 93.1088 288.966 91.7088 288.966C90.0288 288.966 88.7288 287.866 88.5688 286.046H96.9888C97.0488 285.666 97.0688 285.306 97.0688 284.926C97.0688 281.686 94.8488 279.506 91.7088 279.506C88.4488 279.506 86.2088 281.726 86.2088 285.186C86.2088 288.646 88.5488 290.886 91.7088 290.886C94.4088 290.886 96.1488 289.346 96.7687 287.426ZM99.6725 287.646C99.6725 289.886 100.893 290.706 102.853 290.706H104.653V288.806H103.253C102.293 288.806 101.973 288.466 101.973 287.646V281.546H104.653V279.686H101.973V276.946H99.6725V279.686H98.3725V281.546H99.6725V287.646ZM114.229 281.306V279.686H111.949V295.946H114.229V289.106C114.949 289.966 116.249 290.886 118.069 290.886C120.969 290.886 123.249 288.546 123.249 285.146C123.249 281.746 120.969 279.506 118.069 279.506C116.269 279.506 114.929 280.386 114.229 281.306ZM120.929 285.146C120.929 287.526 119.289 288.906 117.569 288.906C115.869 288.906 114.229 287.566 114.229 285.186C114.229 282.826 115.869 281.486 117.569 281.486C119.289 281.486 120.929 282.766 120.929 285.146ZM124.744 285.146C124.744 288.546 127.044 290.886 129.904 290.886C131.744 290.886 133.064 290.006 133.764 289.066V290.706H136.064V279.686H133.764V281.286C133.084 280.386 131.804 279.506 129.944 279.506C127.044 279.506 124.744 281.746 124.744 285.146ZM133.764 285.186C133.764 287.566 132.144 288.906 130.424 288.906C128.724 288.906 127.084 287.526 127.084 285.146C127.084 282.766 128.724 281.486 130.424 281.486C132.144 281.486 133.764 282.826 133.764 285.186ZM139.059 290.706H141.339V279.686H139.059V290.706ZM140.219 278.226C141.019 278.226 141.659 277.586 141.659 276.766C141.659 275.946 141.019 275.306 140.219 275.306C139.399 275.306 138.759 275.946 138.759 276.766C138.759 277.586 139.399 278.226 140.219 278.226ZM143.572 285.146C143.572 288.546 145.872 290.886 148.772 290.886C150.572 290.886 151.892 290.046 152.592 289.046V290.706H154.892V275.906H152.592V281.226C151.752 280.186 150.232 279.506 148.792 279.506C145.872 279.506 143.572 281.746 143.572 285.146ZM152.592 285.186C152.592 287.566 150.972 288.906 149.252 288.906C147.552 288.906 145.912 287.526 145.912 285.146C145.912 282.766 147.552 281.486 149.252 281.486C150.972 281.486 152.592 282.826 152.592 285.186ZM165.362 281.326V275.906H163.082V290.706H165.362V289.106C166.082 290.066 167.382 290.886 169.202 290.886C172.102 290.886 174.382 288.546 174.382 285.146C174.382 281.746 172.122 279.506 169.202 279.506C167.462 279.506 166.082 280.326 165.362 281.326ZM172.062 285.146C172.062 287.526 170.422 288.906 168.702 288.906C167.002 288.906 165.362 287.566 165.362 285.186C165.362 282.826 167.002 281.486 168.702 281.486C170.422 281.486 172.062 282.766 172.062 285.146ZM181.277 281.426C182.977 281.426 184.317 282.506 184.357 284.206H178.257C178.497 282.466 179.737 281.426 181.277 281.426ZM186.437 287.426H183.977C183.557 288.286 182.777 288.966 181.377 288.966C179.697 288.966 178.397 287.866 178.237 286.046H186.657C186.717 285.666 186.737 285.306 186.737 284.926C186.737 281.686 184.517 279.506 181.377 279.506C178.117 279.506 175.877 281.726 175.877 285.186C175.877 288.646 178.217 290.886 181.377 290.886C184.077 290.886 185.817 289.346 186.437 287.426ZM189.34 287.646C189.34 289.886 190.56 290.706 192.52 290.706H194.32V288.806H192.92C191.96 288.806 191.64 288.466 191.64 287.646V281.546H194.32V279.686H191.64V276.946H189.34V279.686H188.04V281.546H189.34V287.646ZM196.782 287.646C196.782 289.886 198.002 290.706 199.962 290.706H201.762V288.806H200.362C199.402 288.806 199.082 288.466 199.082 287.646V281.546H201.762V279.686H199.082V276.946H196.782V279.686H195.482V281.546H196.782V287.646ZM208.503 281.426C210.203 281.426 211.543 282.506 211.583 284.206H205.483C205.723 282.466 206.963 281.426 208.503 281.426ZM213.663 287.426H211.203C210.783 288.286 210.003 288.966 208.603 288.966C206.923 288.966 205.623 287.866 205.463 286.046H213.883C213.943 285.666 213.963 285.306 213.963 284.926C213.963 281.686 211.743 279.506 208.603 279.506C205.343 279.506 203.103 281.726 203.103 285.186C203.103 288.646 205.443 290.886 208.603 290.886C211.303 290.886 213.043 289.346 213.663 287.426ZM218.487 284.906C218.487 282.566 219.527 281.866 221.207 281.866H221.787V279.506C220.227 279.506 219.127 280.186 218.487 281.286V279.686H216.207V290.706H218.487V284.906ZM228.318 285.146C228.318 288.546 230.618 290.886 233.478 290.886C235.318 290.886 236.638 290.006 237.338 289.066V290.706H239.638V279.686H237.338V281.286C236.658 280.386 235.378 279.506 233.518 279.506C230.618 279.506 228.318 281.746 228.318 285.146ZM237.338 285.186C237.338 287.566 235.718 288.906 233.998 288.906C232.298 288.906 230.658 287.526 230.658 285.146C230.658 282.766 232.298 281.486 233.998 281.486C235.718 281.486 237.338 282.826 237.338 285.186ZM250.453 290.706H252.713V284.206C252.713 281.126 250.773 279.506 248.193 279.506C246.873 279.506 245.653 280.046 244.913 280.946V279.686H242.633V290.706H244.913V284.546C244.913 282.526 246.013 281.486 247.693 281.486C249.353 281.486 250.453 282.526 250.453 284.546V290.706ZM254.861 285.146C254.861 288.546 257.161 290.886 260.061 290.886C261.861 290.886 263.181 290.046 263.881 289.046V290.706H266.181V275.906H263.881V281.226C263.041 280.186 261.521 279.506 260.081 279.506C257.161 279.506 254.861 281.746 254.861 285.146ZM263.881 285.186C263.881 287.566 262.261 288.906 260.541 288.906C258.841 288.906 257.201 287.526 257.201 285.146C257.201 282.766 258.841 281.486 260.541 281.486C262.261 281.486 263.881 282.826 263.881 285.186ZM273.611 285.146C273.611 288.546 275.911 290.886 278.811 290.886C280.611 290.886 281.931 289.986 282.631 289.046V290.886C282.631 293.086 281.311 294.166 279.551 294.166C277.971 294.166 276.751 293.386 276.411 292.246H274.151C274.431 294.686 276.611 296.146 279.551 296.146C282.991 296.146 284.931 293.886 284.931 290.886V279.686H282.631V281.286C281.951 280.346 280.611 279.506 278.811 279.506C275.911 279.506 273.611 281.746 273.611 285.146ZM282.631 285.186C282.631 287.566 281.011 288.906 279.291 288.906C277.591 288.906 275.951 287.526 275.951 285.146C275.951 282.766 277.591 281.486 279.291 281.486C281.011 281.486 282.631 282.826 282.631 285.186ZM292.566 281.426C294.266 281.426 295.606 282.506 295.646 284.206H289.546C289.786 282.466 291.026 281.426 292.566 281.426ZM297.726 287.426H295.266C294.846 288.286 294.066 288.966 292.666 288.966C290.986 288.966 289.686 287.866 289.526 286.046H297.946C298.006 285.666 298.026 285.306 298.026 284.926C298.026 281.686 295.806 279.506 292.666 279.506C289.406 279.506 287.166 281.726 287.166 285.186C287.166 288.646 289.506 290.886 292.666 290.886C295.366 290.886 297.106 289.346 297.726 287.426ZM300.63 287.646C300.63 289.886 301.85 290.706 303.81 290.706H305.61V288.806H304.21C303.25 288.806 302.93 288.466 302.93 287.646V281.546H305.61V279.686H302.93V276.946H300.63V279.686H299.33V281.546H300.63V287.646ZM70.74 315.146C70.74 318.546 73.04 320.886 75.9 320.886C77.74 320.886 79.06 320.006 79.76 319.066V320.706H82.06V309.686H79.76V311.286C79.08 310.386 77.8 309.506 75.94 309.506C73.04 309.506 70.74 311.746 70.74 315.146ZM79.76 315.186C79.76 317.566 78.14 318.906 76.42 318.906C74.72 318.906 73.08 317.526 73.08 315.146C73.08 312.766 74.72 311.486 76.42 311.486C78.14 311.486 79.76 312.826 79.76 315.186ZM84.2947 315.186C84.2947 318.646 86.5347 320.886 89.6947 320.886C92.3947 320.886 94.1547 319.386 94.7747 317.226H92.3147C91.8947 318.366 91.0547 318.966 89.6947 318.966C87.8547 318.966 86.6347 317.606 86.6347 315.186C86.6347 312.786 87.8547 311.426 89.6947 311.426C91.0547 311.426 91.9347 312.106 92.3147 313.166H94.7747C94.1547 310.846 92.3947 309.506 89.6947 309.506C86.5347 309.506 84.2947 311.746 84.2947 315.186ZM96.2869 315.186C96.2869 318.646 98.5269 320.886 101.687 320.886C104.387 320.886 106.147 319.386 106.767 317.226H104.307C103.887 318.366 103.047 318.966 101.687 318.966C99.8469 318.966 98.6269 317.606 98.6269 315.186C98.6269 312.786 99.8469 311.426 101.687 311.426C103.047 311.426 103.927 312.106 104.307 313.166H106.767C106.147 310.846 104.387 309.506 101.687 309.506C98.5269 309.506 96.2869 311.746 96.2869 315.186ZM113.679 311.426C115.379 311.426 116.719 312.506 116.759 314.206H110.659C110.899 312.466 112.139 311.426 113.679 311.426ZM118.839 317.426H116.379C115.959 318.286 115.179 318.966 113.779 318.966C112.099 318.966 110.799 317.866 110.639 316.046H119.059C119.119 315.666 119.139 315.306 119.139 314.926C119.139 311.686 116.919 309.506 113.779 309.506C110.519 309.506 108.279 311.726 108.279 315.186C108.279 318.646 110.619 320.886 113.779 320.886C116.479 320.886 118.219 319.346 118.839 317.426ZM129.603 317.626C129.483 313.646 123.263 314.886 123.263 312.666C123.263 311.926 123.903 311.426 125.123 311.426C126.363 311.426 127.103 312.086 127.183 313.046H129.463C129.343 310.846 127.703 309.506 125.203 309.506C122.603 309.506 120.963 310.926 120.963 312.686C120.963 316.726 127.363 315.486 127.363 317.646C127.363 318.406 126.663 318.966 125.343 318.966C124.083 318.966 123.223 318.226 123.143 317.326H120.783C120.883 319.326 122.743 320.886 125.383 320.886C127.983 320.886 129.603 319.486 129.603 317.626ZM140.286 317.626C140.166 313.646 133.946 314.886 133.946 312.666C133.946 311.926 134.586 311.426 135.806 311.426C137.046 311.426 137.786 312.086 137.866 313.046H140.146C140.026 310.846 138.386 309.506 135.886 309.506C133.286 309.506 131.646 310.926 131.646 312.686C131.646 316.726 138.046 315.486 138.046 317.646C138.046 318.406 137.346 318.966 136.026 318.966C134.766 318.966 133.906 318.226 133.826 317.326H131.466C131.566 319.326 133.426 320.886 136.066 320.886C138.666 320.886 140.286 319.486 140.286 317.626ZM148.305 317.646C148.305 319.886 149.525 320.706 151.485 320.706H153.285V318.806H151.885C150.925 318.806 150.605 318.466 150.605 317.646V311.546H153.285V309.686H150.605V306.946H148.305V309.686H147.005V311.546H148.305V317.646ZM165.887 315.186C165.887 311.726 163.407 309.506 160.267 309.506C157.127 309.506 154.647 311.726 154.647 315.186C154.647 318.646 157.027 320.886 160.167 320.886C163.327 320.886 165.887 318.646 165.887 315.186ZM156.967 315.186C156.967 312.686 158.507 311.486 160.227 311.486C161.927 311.486 163.547 312.686 163.547 315.186C163.547 317.686 161.867 318.906 160.167 318.906C158.447 318.906 156.967 317.686 156.967 315.186ZM178.616 316.826C178.616 317.986 178.036 318.826 176.816 318.826C175.596 318.826 175.036 317.986 175.016 316.826H172.716C172.716 319.346 174.416 320.846 176.816 320.846C179.216 320.846 180.916 319.346 180.916 316.826V306.806H178.616V316.826ZM194.005 320.706H196.405L191.425 306.786H188.785L183.805 320.706H186.185L187.185 317.866H193.005L194.005 320.706ZM192.365 316.006H187.825L190.105 309.546L192.365 316.006ZM206.25 306.786H198.57V320.706H206.25V318.846H200.85V314.586H205.65V312.726H200.85V308.646H206.25V306.786ZM209.059 306.806V320.706H216.039V318.866H211.339V306.806H209.059ZM225.421 311.326V305.906H223.141V320.706H225.421V319.106C226.141 320.066 227.441 320.886 229.261 320.886C232.161 320.886 234.441 318.546 234.441 315.146C234.441 311.746 232.181 309.506 229.261 309.506C227.521 309.506 226.141 310.326 225.421 311.326ZM232.121 315.146C232.121 317.526 230.481 318.906 228.761 318.906C227.061 318.906 225.421 317.566 225.421 315.186C225.421 312.826 227.061 311.486 228.761 311.486C230.481 311.486 232.121 312.766 232.121 315.146ZM241.335 311.426C243.035 311.426 244.375 312.506 244.415 314.206H238.315C238.555 312.466 239.795 311.426 241.335 311.426ZM246.495 317.426H244.035C243.615 318.286 242.835 318.966 241.435 318.966C239.755 318.966 238.455 317.866 238.295 316.046H246.715C246.775 315.666 246.795 315.306 246.795 314.926C246.795 311.686 244.575 309.506 241.435 309.506C238.175 309.506 235.935 311.726 235.935 315.186C235.935 318.646 238.275 320.886 241.435 320.886C244.135 320.886 245.875 319.346 246.495 317.426ZM256.859 320.706H259.119V314.206C259.119 311.126 257.179 309.506 254.599 309.506C253.279 309.506 252.059 310.046 251.319 310.946V309.686H249.039V320.706H251.319V314.546C251.319 312.526 252.419 311.486 254.099 311.486C255.759 311.486 256.859 312.526 256.859 314.546V320.706ZM266.667 311.426C268.367 311.426 269.707 312.506 269.747 314.206H263.647C263.887 312.466 265.127 311.426 266.667 311.426ZM271.827 317.426H269.367C268.947 318.286 268.167 318.966 266.767 318.966C265.087 318.966 263.787 317.866 263.627 316.046H272.047C272.107 315.666 272.127 315.306 272.127 314.926C272.127 311.686 269.907 309.506 266.767 309.506C263.507 309.506 261.267 311.726 261.267 315.186C261.267 318.646 263.607 320.886 266.767 320.886C269.467 320.886 271.207 319.346 271.827 317.426ZM274.651 320.706H276.951V311.546H278.991V309.686H276.951V308.906C276.951 307.646 277.431 307.166 278.831 307.166V305.266C275.951 305.266 274.651 306.366 274.651 308.906V309.686H273.351V311.546H274.651V320.706ZM281.012 320.706H283.292V309.686H281.012V320.706ZM282.172 308.226C282.972 308.226 283.612 307.586 283.612 306.766C283.612 305.946 282.972 305.306 282.172 305.306C281.352 305.306 280.712 305.946 280.712 306.766C280.712 307.586 281.352 308.226 282.172 308.226ZM286.645 317.646C286.645 319.886 287.865 320.706 289.825 320.706H291.625V318.806H290.225C289.265 318.806 288.945 318.466 288.945 317.646V311.546H291.625V309.686H288.945V306.946H286.645V309.686H285.345V311.546H286.645V317.646ZM301.947 317.626C301.827 313.646 295.607 314.886 295.607 312.666C295.607 311.926 296.247 311.426 297.467 311.426C298.707 311.426 299.447 312.086 299.527 313.046H301.807C301.687 310.846 300.047 309.506 297.547 309.506C294.947 309.506 293.307 310.926 293.307 312.686C293.307 316.726 299.707 315.486 299.707 317.646C299.707 318.406 299.007 318.966 297.687 318.966C296.427 318.966 295.567 318.226 295.487 317.326H293.127C293.227 319.326 295.087 320.886 297.727 320.886C300.327 320.886 301.947 319.486 301.947 317.626Z" fill="black"/>
<path d="M80.3015 262.58C80.3015 257.936 73.5335 259.952 73.5335 256.712C73.5335 255.362 74.5955 254.66 75.9455 254.696C77.4755 254.714 78.2675 255.668 78.3755 256.514H80.1755C79.9775 254.606 78.4115 253.292 76.0175 253.292C73.5335 253.292 71.8595 254.696 71.8595 256.766C71.8595 261.428 78.6455 259.268 78.6455 262.652C78.6455 263.84 77.7095 264.74 76.1255 264.74C74.3795 264.74 73.6415 263.696 73.5335 262.652H71.7875C71.8235 264.722 73.6055 266.126 76.1255 266.126C78.8435 266.126 80.3015 264.362 80.3015 262.58ZM83.0719 263.3C83.0719 265.28 84.0619 266 85.8079 266H87.2839V264.614H86.0779C85.0699 264.614 84.7099 264.272 84.7099 263.3V257.486H87.2839V256.136H84.7099V253.652H83.0719V256.136H81.7939V257.486H83.0719V263.3ZM93.4626 257.36C95.1546 257.36 96.5946 258.422 96.5766 260.348H90.3486C90.5286 258.422 91.8606 257.36 93.4626 257.36ZM98.0706 262.958H96.3066C95.9466 264.02 95.0106 264.776 93.5346 264.776C91.8606 264.776 90.4566 263.678 90.3306 261.68H98.2146C98.2506 261.338 98.2686 261.05 98.2686 260.69C98.2686 257.99 96.3966 255.974 93.5346 255.974C90.6546 255.974 88.6566 257.936 88.6566 261.05C88.6566 264.182 90.7266 266.162 93.5346 266.162C95.9826 266.162 97.5666 264.758 98.0706 262.958ZM102.069 257.954V256.136H100.431V270.68H102.069V264.182C102.681 265.19 103.959 266.162 105.759 266.162C108.405 266.162 110.439 264.092 110.439 261.032C110.439 257.954 108.405 255.974 105.759 255.974C103.959 255.974 102.663 256.91 102.069 257.954ZM108.765 261.032C108.765 263.354 107.235 264.722 105.417 264.722C103.635 264.722 102.069 263.372 102.069 261.05C102.069 258.764 103.635 257.396 105.417 257.396C107.235 257.396 108.765 258.71 108.765 261.032ZM117.7 266H119.338V257.486H121.408V256.136H119.338V255.434C119.338 254.156 119.824 253.616 121.3 253.616V252.248C118.78 252.248 117.7 253.238 117.7 255.434V256.136H116.422V257.486H117.7V266ZM132.677 261.05C132.677 257.936 130.499 255.974 127.691 255.974C124.901 255.974 122.705 257.936 122.705 261.05C122.705 264.182 124.829 266.162 127.619 266.162C130.427 266.162 132.677 264.182 132.677 261.05ZM124.379 261.05C124.379 258.566 125.945 257.396 127.673 257.396C129.365 257.396 131.003 258.566 131.003 261.05C131.003 263.552 129.329 264.722 127.619 264.722C125.909 264.722 124.379 263.552 124.379 261.05ZM143.579 256.136H141.941V261.554C141.941 263.678 140.807 264.722 139.115 264.722C137.459 264.722 136.361 263.696 136.361 261.698V256.136H134.741V261.914C134.741 264.74 136.523 266.144 138.791 266.144C140.105 266.144 141.311 265.568 141.941 264.542V266H143.579V256.136ZM147.983 260.636C147.983 258.35 149.171 257.648 150.737 257.648H151.169V255.956C149.603 255.956 148.541 256.64 147.983 257.738V256.136H146.345V266H147.983V260.636ZM154.662 264.992C154.662 264.362 154.176 263.876 153.582 263.876C152.952 263.876 152.466 264.362 152.466 264.992C152.466 265.622 152.952 266.108 153.582 266.108C154.176 266.108 154.662 265.622 154.662 264.992ZM154.662 257.288C154.662 256.658 154.176 256.172 153.582 256.172C152.952 256.172 152.466 256.658 152.466 257.288C152.466 257.918 152.952 258.404 153.582 258.404C154.176 258.404 154.662 257.918 154.662 257.288Z" fill="#828282"/>
<circle opacity="0.1" cx="186.5" cy="140.5" r="82.5" fill="#098ECE"/>
<path d="M136.302 204.393C139.159 204.393 141.475 203.891 141.475 203.272C141.475 202.653 139.159 202.152 136.302 202.152C133.446 202.152 131.13 202.653 131.13 203.272C131.13 203.891 133.446 204.393 136.302 204.393Z" fill="#5B2448"/>
<path d="M124.882 201.117C127.883 201.117 130.316 200.59 130.316 199.94C130.316 199.289 127.883 198.762 124.882 198.762C121.881 198.762 119.448 199.289 119.448 199.94C119.448 200.59 121.881 201.117 124.882 201.117Z" fill="#5B2448"/>
<path d="M76.7629 200.653C79.0484 200.653 80.9012 200.252 80.9012 199.757C80.9012 199.262 79.0484 198.86 76.7629 198.86C74.4773 198.86 72.6245 199.262 72.6245 199.757C72.6245 200.252 74.4773 200.653 76.7629 200.653Z" fill="#5B2448"/>
<path d="M117.286 134.211H107.498V199.792H117.286V134.211Z" fill="#FFCF2D"/>
<path d="M117.286 199.929H107.498C107.462 199.929 107.427 199.914 107.401 199.889C107.376 199.863 107.361 199.828 107.361 199.792V134.211C107.361 134.174 107.376 134.14 107.401 134.114C107.427 134.088 107.462 134.074 107.498 134.074H117.286C117.322 134.074 117.357 134.088 117.383 134.114C117.408 134.14 117.423 134.174 117.423 134.211V199.792C117.423 199.828 117.408 199.863 117.383 199.889C117.357 199.914 117.322 199.929 117.286 199.929ZM107.635 199.655H117.15V134.347H107.635V199.655Z" fill="#FFCF2D"/>
<path d="M103.986 162.942H94.1401V199.85H103.986V162.942Z" fill="#66B0F0"/>
<path d="M103.986 199.986H94.1401C94.1038 199.986 94.0691 199.972 94.0434 199.946C94.0178 199.921 94.0034 199.886 94.0034 199.85V162.942C94.0034 162.906 94.0178 162.871 94.0434 162.845C94.0691 162.82 94.1038 162.805 94.1401 162.805H103.986C104.022 162.805 104.057 162.82 104.082 162.845C104.108 162.871 104.122 162.906 104.122 162.942V199.85C104.122 199.886 104.108 199.921 104.082 199.946C104.057 199.972 104.022 199.986 103.986 199.986ZM94.2768 199.713H103.849V163.079H94.2768V199.713Z" fill="#66B0F0"/>
<path d="M90.6854 188.967H80.8396V199.792H90.6854V188.967Z" fill="#F94F46"/>
<path d="M90.6853 199.929H80.8396C80.8033 199.929 80.7685 199.914 80.7429 199.889C80.7173 199.863 80.7029 199.828 80.7029 199.792V188.967C80.7029 188.931 80.7173 188.896 80.7429 188.871C80.7685 188.845 80.8033 188.831 80.8396 188.831H90.6853C90.7216 188.831 90.7564 188.845 90.782 188.871C90.8076 188.896 90.822 188.931 90.822 188.967V199.792C90.822 199.828 90.8076 199.863 90.782 199.889C90.7564 199.914 90.7216 199.929 90.6853 199.929ZM80.9762 199.655H90.5487V189.104H80.9762V199.655Z" fill="#F94F46"/>
<path d="M139.396 182.295C137.379 179.012 134.959 176.478 133.618 171.323C132.388 166.594 130.105 166.094 128.879 167.175C127.409 168.471 127.064 174.462 139.396 182.295Z" fill="#5B2448"/>
<path d="M139.915 182.065C139.753 182.138 139.579 182.214 139.396 182.294H139.395C138.142 182.84 136.403 183.529 134.648 184.189C132.878 184.855 131.093 185.493 129.772 185.924L127.656 182.086C127.656 182.086 127.34 178.836 127.842 177.923C128.786 177.359 129.65 176.82 130.427 176.317C130.619 176.193 130.806 176.072 130.988 175.952C131.103 175.877 131.216 175.802 131.327 175.728C132.664 174.84 133.683 174.105 134.337 173.618C134.896 173.201 135.189 172.964 135.189 172.964C135.189 172.964 139.011 178.692 139.915 182.065Z" fill="#F4ADA2"/>
<path d="M134.648 184.189C132.879 184.855 131.093 185.493 129.772 185.924L127.656 182.086L127.842 177.923C128.786 177.359 129.65 176.82 130.428 176.317L134.648 184.189Z" fill="#66B0F0"/>
<path d="M133.346 185.218C133.296 185.218 133.248 185.205 133.206 185.18C133.164 185.155 133.129 185.119 133.105 185.076L128.553 176.782C128.518 176.718 128.51 176.643 128.53 176.574C128.551 176.504 128.598 176.445 128.661 176.41C128.725 176.376 128.8 176.367 128.869 176.388C128.939 176.408 128.998 176.455 129.033 176.519L133.585 184.813C133.608 184.854 133.62 184.901 133.619 184.949C133.618 184.996 133.605 185.043 133.581 185.084C133.557 185.124 133.522 185.158 133.481 185.182C133.44 185.205 133.393 185.218 133.346 185.218H133.346Z" fill="white"/>
<path d="M139.396 182.295H139.395C134.727 179.529 131.327 175.728 131.327 175.728C132.665 174.84 133.683 174.106 134.337 173.618L139.396 182.295Z" fill="#9B3C82"/>
<path d="M152.766 186.961C149.423 187.076 146.01 186.862 140.145 182.353C137.149 180.049 134.325 179.646 133.921 181.777C133.28 185.167 139.915 189.38 152.766 186.961Z" fill="#5B2448"/>
<path d="M152.766 187.018C152.766 187.018 152.639 187.474 152.417 188.202C152.381 188.319 152.343 188.443 152.303 188.573C152.238 188.779 152.168 189.002 152.093 189.237C151.637 190.654 150.988 192.533 150.258 194.206C150.228 194.274 150.198 194.341 150.168 194.409L145.851 194.448L142.681 191.741C142.751 190.904 142.821 189.76 142.884 188.573C142.89 188.45 142.897 188.326 142.904 188.202C142.915 187.985 142.926 187.767 142.936 187.551C142.991 186.458 143.038 185.391 143.074 184.552L143.079 184.446C143.119 183.499 143.142 182.871 143.142 182.871L152.766 187.018Z" fill="#F4ADA2"/>
<path d="M152.766 187.018C150.461 187.536 144.525 187.652 142.936 187.551C142.991 186.458 143.038 185.391 143.074 184.552L143.078 184.446L152.766 187.018Z" fill="#9B3C82"/>
<path d="M152.093 189.237C151.637 190.654 150.988 192.533 150.258 194.206C150.228 194.274 150.198 194.341 150.168 194.409L145.851 194.448L142.681 191.741C142.751 190.904 142.821 189.76 142.884 188.573L152.093 189.237Z" fill="#66B0F0"/>
<path d="M153.285 191.208C153.278 191.208 153.272 191.208 153.265 191.207C153.174 191.201 144.144 190.54 142.151 190.459C142.115 190.458 142.08 190.449 142.048 190.434C142.015 190.419 141.986 190.398 141.961 190.371C141.937 190.345 141.918 190.314 141.906 190.28C141.893 190.246 141.888 190.211 141.889 190.175C141.891 190.139 141.899 190.104 141.914 190.071C141.929 190.038 141.951 190.009 141.977 189.985C142.004 189.96 142.034 189.941 142.068 189.929C142.102 189.917 142.138 189.911 142.174 189.913C144.175 189.994 153.214 190.655 153.305 190.662C153.375 190.667 153.441 190.699 153.489 190.752C153.536 190.805 153.561 190.874 153.559 190.944C153.556 191.015 153.526 191.082 153.475 191.131C153.424 191.18 153.356 191.208 153.285 191.208L153.285 191.208Z" fill="white"/>
<path d="M162.559 201.492C162.023 202.13 160.902 203.017 158.553 203.224C154.225 203.607 141.174 203.409 141.174 203.409C141.424 201.992 141.587 201.068 141.718 200.252C141.712 200.256 141.707 200.261 141.701 200.265C141.874 198.924 142.053 197.525 142.215 196.256C142.442 194.479 142.627 192.955 142.724 192.197C142.725 192.19 142.725 192.184 142.727 192.178C142.767 191.861 142.792 191.683 142.796 191.683C144.352 191.799 145.033 193.197 146.301 193.656C146.342 193.67 146.384 193.685 146.427 193.699C147.507 194.053 149.861 194.389 151.545 194.58C153.615 194.815 155.458 195.504 156.388 195.914C156.558 195.988 156.699 196.055 156.814 196.112C157.015 196.211 157.209 196.313 157.398 196.416C157.46 196.45 157.521 196.484 157.581 196.518C157.676 196.572 157.769 196.626 157.861 196.681C157.889 196.697 157.917 196.714 157.944 196.73C158.534 197.083 159.097 197.478 159.631 197.911C159.675 197.947 159.718 197.983 159.761 198.019C159.777 198.032 159.793 198.045 159.808 198.058C159.823 198.071 159.838 198.083 159.853 198.096C159.857 198.1 159.862 198.104 159.866 198.107C159.873 198.114 159.881 198.12 159.889 198.127C159.892 198.13 159.894 198.132 159.897 198.134C159.936 198.168 159.975 198.202 160.013 198.235C160.023 198.244 160.033 198.253 160.044 198.262C160.065 198.281 160.086 198.3 160.107 198.319C160.116 198.327 160.124 198.335 160.133 198.343C160.161 198.368 160.188 198.392 160.215 198.417C160.217 198.419 160.221 198.421 160.223 198.424L160.25 198.45C160.26 198.459 160.27 198.467 160.279 198.477C160.298 198.493 160.316 198.511 160.335 198.528C160.345 198.537 160.354 198.546 160.364 198.556C160.368 198.56 160.372 198.564 160.376 198.568C160.38 198.572 160.385 198.576 160.39 198.58C160.417 198.607 160.444 198.633 160.471 198.659C160.508 198.695 160.545 198.731 160.58 198.766C160.596 198.782 160.612 198.798 160.627 198.813C160.646 198.832 160.665 198.852 160.684 198.871C160.718 198.905 160.751 198.94 160.784 198.975C160.806 198.997 160.827 199.019 160.848 199.041C160.859 199.053 160.87 199.065 160.881 199.076C160.901 199.098 160.921 199.12 160.94 199.141C160.956 199.158 160.971 199.174 160.986 199.191C161.033 199.242 161.079 199.293 161.123 199.343C161.143 199.367 161.165 199.39 161.184 199.413C161.218 199.453 161.251 199.491 161.283 199.53L161.362 199.624L161.4 199.67C161.413 199.685 161.425 199.701 161.437 199.716C161.461 199.747 161.486 199.777 161.509 199.807C161.559 199.87 161.607 199.932 161.652 199.993C161.668 200.014 161.683 200.033 161.697 200.053C161.791 200.179 161.875 200.299 161.951 200.412C161.966 200.435 161.982 200.458 161.996 200.48C162.023 200.519 162.048 200.558 162.072 200.596C162.109 200.655 162.144 200.712 162.177 200.766C162.193 200.791 162.208 200.816 162.222 200.84C162.335 201.031 162.416 201.186 162.471 201.297C162.478 201.312 162.485 201.327 162.491 201.34C162.52 201.399 162.539 201.443 162.549 201.467V201.468C162.552 201.475 162.554 201.481 162.556 201.484C162.557 201.487 162.558 201.489 162.559 201.492Z" fill="white"/>
<path d="M162.085 200.617C158.356 203.274 153.971 201.879 151.81 200.983C149.946 200.209 149.33 201.208 147.81 200.726C146.54 200.324 146.142 199.417 144.525 199.229C143.554 199.116 142.301 199.736 141.718 200.251C141.712 200.256 141.707 200.261 141.701 200.265C141.874 198.924 142.053 197.525 142.215 196.256C142.442 194.479 142.628 192.955 142.724 192.197C142.725 192.19 142.725 192.184 142.727 192.178C142.767 191.861 142.792 191.683 142.796 191.683C144.352 191.799 145.033 193.197 146.301 193.655C146.342 193.67 146.384 193.685 146.427 193.699C147.507 194.053 149.861 194.389 151.545 194.58C153.615 194.815 155.458 195.504 156.388 195.914C156.558 195.988 156.699 196.055 156.814 196.112C157.015 196.211 157.209 196.313 157.397 196.416C157.46 196.45 157.521 196.484 157.581 196.518C157.676 196.572 157.769 196.626 157.861 196.681C157.889 196.697 157.917 196.714 157.944 196.73C158.534 197.083 159.097 197.478 159.63 197.911C159.675 197.947 159.718 197.983 159.761 198.019C159.777 198.032 159.792 198.045 159.807 198.058C159.822 198.071 159.838 198.083 159.853 198.096C159.857 198.1 159.862 198.104 159.866 198.107C159.873 198.114 159.881 198.12 159.889 198.127C159.892 198.13 159.894 198.132 159.897 198.134C159.907 198.143 159.917 198.151 159.927 198.16C159.956 198.185 159.984 198.21 160.013 198.235C160.023 198.244 160.033 198.253 160.044 198.262C160.064 198.281 160.086 198.3 160.107 198.319C160.116 198.327 160.124 198.335 160.133 198.343C160.161 198.368 160.188 198.392 160.215 198.417C160.217 198.419 160.221 198.421 160.223 198.424L160.25 198.449C160.26 198.459 160.269 198.467 160.279 198.477C160.298 198.493 160.316 198.511 160.335 198.528C160.344 198.537 160.354 198.546 160.363 198.556C160.367 198.56 160.372 198.564 160.376 198.568C160.38 198.572 160.385 198.576 160.39 198.58C160.417 198.607 160.444 198.633 160.471 198.659C160.508 198.695 160.544 198.731 160.58 198.766L160.601 198.787C160.61 198.796 160.618 198.804 160.627 198.813C160.646 198.832 160.665 198.852 160.684 198.871C160.707 198.894 160.73 198.917 160.751 198.94L160.784 198.974L160.8 198.99C160.816 199.008 160.832 199.024 160.848 199.041C160.859 199.053 160.87 199.065 160.881 199.076C160.901 199.097 160.921 199.119 160.94 199.141C160.956 199.157 160.971 199.173 160.986 199.19C161.033 199.241 161.079 199.293 161.122 199.343C161.143 199.366 161.165 199.39 161.184 199.413C161.218 199.452 161.251 199.491 161.283 199.529L161.362 199.623L161.4 199.67C161.412 199.685 161.424 199.7 161.437 199.716C161.461 199.747 161.486 199.777 161.509 199.807C161.559 199.87 161.607 199.931 161.652 199.993C161.668 200.013 161.683 200.033 161.697 200.053C161.79 200.179 161.875 200.298 161.951 200.412C161.966 200.435 161.982 200.457 161.996 200.48C162.023 200.519 162.047 200.558 162.072 200.596C162.076 200.603 162.08 200.61 162.085 200.617Z" fill="#5B2448"/>
<path d="M142.262 197.586C142.194 197.586 142.154 197.583 142.146 197.582C142.103 197.577 142.064 197.556 142.036 197.523C142.009 197.489 141.996 197.446 142 197.403C142.004 197.36 142.025 197.32 142.058 197.293C142.092 197.265 142.134 197.252 142.178 197.255C142.187 197.256 143.183 197.336 144.427 196.451C144.702 196.256 144.927 196.08 145.126 195.926C145.896 195.327 146.321 194.997 147.87 194.791C147.892 194.787 147.914 194.789 147.935 194.794C147.956 194.799 147.975 194.809 147.993 194.822C148.01 194.835 148.025 194.851 148.036 194.87C148.047 194.889 148.054 194.91 148.056 194.931C148.059 194.953 148.058 194.975 148.052 194.996C148.047 195.016 148.037 195.036 148.024 195.053C148.01 195.07 147.994 195.085 147.975 195.096C147.956 195.106 147.935 195.113 147.914 195.116C146.452 195.31 146.076 195.603 145.327 196.185C145.126 196.342 144.898 196.519 144.617 196.719C143.505 197.509 142.58 197.586 142.262 197.586Z" fill="white"/>
<path d="M157.103 202.296C156.855 202.296 156.604 202.287 156.35 202.269C154.915 202.168 153.37 201.778 151.758 201.109C150.733 200.684 150.068 200.778 149.426 200.869C148.934 200.939 148.426 201.011 147.801 200.829C147.212 200.657 146.838 200.38 146.476 200.112C146.025 199.778 145.599 199.463 144.764 199.335C143.334 199.117 141.847 200.207 141.832 200.218C141.818 200.228 141.801 200.236 141.784 200.24C141.767 200.245 141.748 200.246 141.731 200.243C141.713 200.241 141.696 200.234 141.68 200.225C141.665 200.216 141.652 200.204 141.641 200.19C141.63 200.175 141.622 200.159 141.618 200.141C141.614 200.124 141.613 200.106 141.615 200.088C141.618 200.07 141.624 200.053 141.633 200.038C141.642 200.022 141.655 200.009 141.669 199.998C141.733 199.95 143.263 198.828 144.805 199.065C145.707 199.203 146.181 199.554 146.638 199.893C146.997 200.158 147.335 200.408 147.877 200.566C148.446 200.732 148.903 200.667 149.387 200.599C150.035 200.507 150.769 200.403 151.862 200.857C153.447 201.514 154.964 201.898 156.37 201.996C158.51 202.147 160.407 201.645 162.005 200.506C162.02 200.496 162.037 200.489 162.055 200.486C162.072 200.482 162.091 200.482 162.108 200.486C162.126 200.489 162.143 200.496 162.158 200.506C162.172 200.516 162.185 200.529 162.195 200.544C162.205 200.559 162.212 200.576 162.216 200.593C162.219 200.611 162.219 200.629 162.216 200.647C162.212 200.664 162.205 200.681 162.195 200.696C162.185 200.711 162.172 200.724 162.157 200.734C160.698 201.772 159 202.296 157.103 202.296Z" fill="#5B2448"/>
<path d="M144.484 202.649C144.008 202.649 143.559 202.54 143.217 202.342C142.849 202.129 142.645 201.836 142.643 201.518C142.642 201.199 142.842 200.905 143.209 200.688C143.552 200.485 144.006 200.371 144.488 200.369H144.504C144.98 200.369 145.428 200.477 145.77 200.675C146.138 200.888 146.342 201.181 146.344 201.5C146.345 201.818 146.145 202.113 145.778 202.33C145.435 202.533 144.981 202.646 144.499 202.649H144.484ZM144.504 200.642H144.489C144.055 200.645 143.65 200.744 143.348 200.923C143.069 201.088 142.916 201.299 142.917 201.517C142.918 201.734 143.073 201.943 143.354 202.106C143.655 202.28 144.055 202.375 144.483 202.375H144.498C144.932 202.373 145.337 202.273 145.639 202.094C145.918 201.929 146.071 201.718 146.07 201.501C146.069 201.284 145.914 201.074 145.633 200.912C145.333 200.738 144.932 200.642 144.504 200.642Z" fill="#5B2448"/>
<path d="M148.398 203.596C144.564 203.596 141.238 203.547 141.172 203.546C141.152 203.546 141.133 203.541 141.115 203.533C141.097 203.524 141.081 203.512 141.068 203.497C141.056 203.481 141.047 203.464 141.042 203.444C141.037 203.425 141.036 203.405 141.039 203.386C141.3 201.907 141.454 201.031 141.582 200.23C141.822 198.735 141.959 197.559 142.326 194.415C142.403 193.763 142.489 193.025 142.588 192.181C142.589 192.175 142.589 192.167 142.591 192.158L142.631 191.812C142.636 191.776 142.655 191.744 142.683 191.722C142.711 191.699 142.747 191.689 142.783 191.694C142.819 191.698 142.851 191.716 142.874 191.744C142.896 191.772 142.907 191.808 142.903 191.843L142.862 192.193C142.862 192.196 142.861 192.199 142.861 192.202L142.86 192.209C142.761 193.057 142.674 193.795 142.598 194.447C142.23 197.595 142.093 198.772 141.852 200.273C141.728 201.047 141.581 201.889 141.336 203.275C142.847 203.296 154.528 203.443 158.541 203.088C160.703 202.897 161.828 202.115 162.399 201.467C162.391 201.448 162.38 201.425 162.367 201.398C162.362 201.386 162.355 201.372 162.348 201.358C162.278 201.215 162.196 201.065 162.104 200.909C162.09 200.886 162.076 200.862 162.06 200.837C162.027 200.783 161.993 200.727 161.956 200.669C161.932 200.632 161.908 200.594 161.883 200.556C161.867 200.533 161.853 200.512 161.838 200.49C161.757 200.369 161.673 200.25 161.587 200.135C161.572 200.114 161.558 200.095 161.543 200.076C161.494 200.01 161.448 199.95 161.402 199.892C161.367 199.847 161.331 199.802 161.294 199.757L161.255 199.71C161.237 199.688 161.219 199.666 161.2 199.644L161.178 199.617C161.146 199.579 161.114 199.541 161.08 199.503L161.063 199.483C161.049 199.467 161.035 199.451 161.02 199.434C160.976 199.384 160.931 199.333 160.885 199.283C160.87 199.266 160.856 199.251 160.842 199.236L160.838 199.232C160.82 199.211 160.8 199.19 160.781 199.17C160.77 199.158 160.758 199.146 160.746 199.133L160.684 199.068C160.652 199.034 160.619 199 160.586 198.966L160.563 198.943C160.553 198.932 160.542 198.922 160.531 198.911C160.514 198.893 160.5 198.879 160.485 198.865C160.448 198.828 160.412 198.792 160.375 198.757L160.371 198.753C160.338 198.721 160.304 198.688 160.27 198.656C160.241 198.628 160.214 198.602 160.186 198.576L160.156 198.549C160.119 198.514 160.081 198.48 160.042 198.445C160.032 198.436 160.025 198.429 160.017 198.423C159.985 198.393 159.954 198.366 159.922 198.338L159.913 198.33C159.878 198.299 159.843 198.269 159.808 198.238C159.807 198.238 159.802 198.234 159.802 198.233C159.773 198.208 159.746 198.186 159.72 198.163C159.703 198.149 159.689 198.137 159.675 198.126C159.631 198.089 159.588 198.053 159.545 198.018C159.016 197.589 158.458 197.198 157.874 196.848C157.85 196.833 157.829 196.821 157.807 196.808L157.792 196.799C157.704 196.747 157.61 196.692 157.514 196.638C157.454 196.604 157.393 196.57 157.331 196.536C157.128 196.425 156.938 196.326 156.753 196.235C156.621 196.169 156.48 196.103 156.334 196.04C155.488 195.673 154.005 195.178 151.741 194.901C151.705 194.896 151.672 194.878 151.65 194.849C151.627 194.82 151.617 194.784 151.622 194.748C151.626 194.712 151.644 194.679 151.673 194.657C151.702 194.635 151.738 194.625 151.774 194.629C154.071 194.91 155.581 195.415 156.443 195.789C156.593 195.855 156.739 195.922 156.874 195.99C157.063 196.083 157.255 196.183 157.463 196.296C157.526 196.331 157.588 196.365 157.648 196.4C157.747 196.456 157.842 196.511 157.931 196.564L157.945 196.572C157.969 196.586 157.993 196.6 158.017 196.614C158.611 196.971 159.179 197.368 159.717 197.805C159.761 197.841 159.805 197.878 159.849 197.915C159.865 197.927 159.882 197.941 159.898 197.955C159.923 197.977 159.951 198 159.978 198.024C159.98 198.026 159.982 198.027 159.983 198.028C160.022 198.061 160.058 198.092 160.093 198.124L160.103 198.132C160.136 198.161 160.167 198.189 160.199 198.218C160.207 198.224 160.216 198.233 160.226 198.243C160.264 198.276 160.304 198.313 160.344 198.349L160.373 198.376C160.402 198.403 160.43 198.43 160.458 198.457C160.492 198.489 160.527 198.522 160.562 198.556L160.566 198.56C160.604 198.597 160.641 198.633 160.677 198.669C160.692 198.684 160.709 198.701 160.725 198.717C160.735 198.727 160.747 198.739 160.759 198.752L160.781 198.773C160.816 198.809 160.85 198.845 160.883 198.88L160.947 198.947C160.96 198.96 160.97 198.971 160.98 198.982C161.001 199.003 161.021 199.025 161.04 199.047C161.057 199.065 161.073 199.082 161.088 199.099C161.134 199.149 161.181 199.201 161.225 199.252C161.24 199.268 161.255 199.286 161.27 199.303L161.287 199.323C161.322 199.363 161.355 199.402 161.388 199.441L161.41 199.467C161.429 199.49 161.449 199.514 161.468 199.537L161.506 199.583C161.544 199.629 161.581 199.677 161.617 199.722C161.664 199.782 161.712 199.843 161.762 199.91C161.777 199.93 161.793 199.952 161.808 199.973C161.895 200.09 161.982 200.213 162.064 200.335C162.08 200.358 162.096 200.382 162.111 200.406C162.137 200.443 162.162 200.483 162.187 200.522C162.225 200.581 162.261 200.639 162.294 200.694C162.309 200.719 162.325 200.745 162.339 200.769C162.435 200.931 162.52 201.088 162.593 201.236C162.601 201.251 162.608 201.267 162.614 201.28C162.644 201.342 162.664 201.388 162.675 201.414L162.676 201.416C162.677 201.42 162.679 201.424 162.68 201.427C162.681 201.429 162.682 201.431 162.682 201.433C162.698 201.455 162.704 201.483 162.701 201.51C162.697 201.537 162.684 201.561 162.663 201.579C161.602 202.846 159.848 203.247 158.565 203.36C156.438 203.548 152.172 203.596 148.398 203.596ZM162.678 201.423L162.68 201.428L162.678 201.423Z" fill="#5B2448"/>
<path d="M150.314 198.23C150.246 198.23 150.18 198.213 150.12 198.181C150.061 198.149 150.01 198.103 149.972 198.047C149.935 197.991 149.912 197.926 149.906 197.859C149.899 197.792 149.91 197.724 149.936 197.662C149.976 197.566 150.948 195.312 153.573 194.389C153.624 194.371 153.678 194.363 153.732 194.366C153.786 194.368 153.839 194.382 153.888 194.405C153.937 194.428 153.981 194.461 154.017 194.501C154.053 194.541 154.081 194.588 154.099 194.639C154.117 194.69 154.125 194.744 154.122 194.798C154.119 194.852 154.105 194.905 154.081 194.954C154.058 195.002 154.025 195.046 153.984 195.082C153.944 195.118 153.897 195.145 153.846 195.163C151.574 195.962 150.701 197.96 150.692 197.98C150.66 198.054 150.608 198.117 150.54 198.162C150.473 198.206 150.394 198.23 150.314 198.23Z" fill="#FFCF2D"/>
<path d="M152.261 198.855C152.193 198.855 152.126 198.838 152.066 198.806C152.006 198.773 151.955 198.726 151.918 198.669C151.881 198.612 151.858 198.547 151.853 198.479C151.847 198.411 151.858 198.343 151.886 198.281C151.928 198.184 152.958 195.9 155.658 195.11C155.71 195.094 155.764 195.088 155.818 195.093C155.873 195.099 155.925 195.114 155.973 195.14C156.021 195.166 156.063 195.201 156.097 195.243C156.132 195.285 156.157 195.334 156.173 195.386C156.188 195.438 156.193 195.493 156.186 195.547C156.18 195.601 156.164 195.653 156.137 195.701C156.111 195.748 156.075 195.79 156.032 195.824C155.99 195.857 155.941 195.882 155.888 195.897C153.567 196.576 152.646 198.591 152.637 198.611C152.605 198.684 152.552 198.746 152.485 198.789C152.419 198.832 152.341 198.855 152.261 198.855Z" fill="#FFCF2D"/>
<path d="M154.494 199.317C154.425 199.317 154.357 199.3 154.297 199.266C154.236 199.233 154.185 199.185 154.148 199.127C154.111 199.069 154.089 199.003 154.085 198.934C154.08 198.865 154.093 198.797 154.122 198.734C154.161 198.65 155.111 196.669 157.575 195.98C157.679 195.951 157.791 195.965 157.886 196.019C157.98 196.072 158.05 196.161 158.079 196.265C158.108 196.37 158.095 196.481 158.042 196.576C157.989 196.671 157.9 196.741 157.796 196.77C155.707 197.355 154.874 199.065 154.865 199.082C154.832 199.153 154.779 199.212 154.714 199.254C154.648 199.295 154.571 199.317 154.494 199.317Z" fill="#FFCF2D"/>
<path d="M130.221 199.894C129.395 199.781 128.047 199.303 126.622 197.426C123.995 193.966 117.218 182.817 117.218 182.817C118.552 182.274 119.421 181.921 120.182 181.597C120.176 181.595 120.169 181.593 120.162 181.591C121.39 181.023 122.67 180.43 123.832 179.892C125.458 179.138 126.848 178.484 127.542 178.163C127.547 178.16 127.553 178.157 127.559 178.155C127.848 178.021 128.012 177.947 128.015 177.951C128.745 179.329 127.923 180.649 128.209 181.966C128.218 182.009 128.228 182.052 128.239 182.096C128.513 183.199 129.482 185.369 130.216 186.896C131.118 188.773 131.515 190.699 131.662 191.705C131.69 191.887 131.708 192.042 131.721 192.169C131.744 192.393 131.761 192.611 131.774 192.825C131.778 192.896 131.782 192.966 131.785 193.035C131.79 193.144 131.794 193.251 131.796 193.358C131.797 193.391 131.798 193.423 131.799 193.455C131.813 194.142 131.779 194.829 131.696 195.51C131.689 195.567 131.681 195.623 131.674 195.679C131.671 195.699 131.669 195.718 131.665 195.738C131.662 195.758 131.66 195.778 131.658 195.797C131.656 195.802 131.656 195.808 131.655 195.813C131.653 195.823 131.652 195.834 131.65 195.844C131.65 195.847 131.649 195.85 131.649 195.854C131.641 195.905 131.633 195.956 131.625 196.006C131.623 196.019 131.621 196.033 131.618 196.047C131.614 196.074 131.609 196.102 131.604 196.131C131.602 196.142 131.6 196.153 131.598 196.165C131.591 196.202 131.585 196.237 131.579 196.273C131.578 196.277 131.578 196.28 131.577 196.284L131.57 196.321C131.567 196.334 131.565 196.347 131.562 196.36C131.558 196.384 131.553 196.41 131.548 196.434C131.546 196.447 131.543 196.46 131.54 196.473C131.539 196.479 131.538 196.485 131.537 196.49C131.535 196.496 131.535 196.502 131.533 196.509C131.525 196.546 131.518 196.583 131.51 196.619C131.499 196.67 131.488 196.719 131.477 196.769C131.473 196.791 131.468 196.812 131.462 196.833C131.457 196.86 131.45 196.886 131.444 196.912C131.433 196.959 131.421 197.006 131.409 197.052C131.402 197.082 131.395 197.112 131.387 197.142C131.382 197.157 131.379 197.173 131.375 197.188C131.367 197.217 131.36 197.245 131.352 197.273C131.346 197.295 131.34 197.316 131.334 197.338C131.316 197.405 131.296 197.471 131.277 197.535C131.268 197.565 131.26 197.595 131.25 197.624C131.235 197.674 131.22 197.722 131.205 197.77C131.192 197.809 131.179 197.848 131.167 197.886L131.148 197.943C131.142 197.962 131.135 197.98 131.128 197.999C131.115 198.036 131.103 198.073 131.09 198.109C131.063 198.185 131.036 198.257 131.009 198.328C130.999 198.353 130.991 198.376 130.981 198.399C130.925 198.544 130.868 198.679 130.812 198.804C130.801 198.83 130.79 198.855 130.779 198.879C130.76 198.922 130.74 198.964 130.721 199.004C130.691 199.067 130.662 199.127 130.633 199.184C130.62 199.211 130.607 199.236 130.594 199.262C130.493 199.458 130.404 199.61 130.339 199.715C130.33 199.729 130.322 199.743 130.314 199.755C130.279 199.811 130.252 199.85 130.237 199.872L130.236 199.872C130.232 199.879 130.228 199.883 130.226 199.887C130.224 199.889 130.222 199.891 130.221 199.894Z" fill="white"/>
<path d="M130.71 199.028C126.475 197.286 125.324 192.833 124.933 190.527C124.597 188.537 123.422 188.548 123.022 187.005C122.687 185.717 123.244 184.897 122.543 183.429C122.122 182.547 120.93 181.816 120.182 181.597C120.176 181.595 120.169 181.593 120.162 181.591C121.39 181.023 122.67 180.43 123.832 179.892C125.458 179.139 128.012 177.947 128.015 177.951C128.745 179.329 127.923 180.649 128.209 181.966C128.218 182.009 128.228 182.052 128.239 182.096C128.514 183.199 129.482 185.369 130.216 186.896C131.119 188.773 131.515 190.699 131.663 191.705C131.69 191.887 131.709 192.042 131.722 192.169C131.744 192.393 131.761 192.611 131.775 192.825C131.778 192.896 131.782 192.966 131.786 193.035C131.79 193.144 131.794 193.251 131.796 193.358C131.797 193.391 131.798 193.423 131.799 193.455C131.814 194.142 131.779 194.829 131.696 195.51C131.689 195.567 131.681 195.623 131.674 195.679C131.672 195.699 131.669 195.719 131.666 195.738C131.662 195.758 131.661 195.778 131.658 195.797C131.657 195.802 131.656 195.808 131.655 195.813C131.653 195.823 131.652 195.834 131.651 195.844C131.65 195.847 131.649 195.85 131.649 195.854C131.647 195.868 131.645 195.881 131.643 195.894C131.638 195.931 131.632 195.968 131.625 196.006C131.623 196.019 131.621 196.033 131.619 196.047C131.614 196.074 131.609 196.102 131.604 196.131C131.602 196.142 131.6 196.153 131.598 196.165C131.592 196.202 131.586 196.237 131.579 196.273C131.578 196.277 131.578 196.28 131.577 196.284L131.57 196.321C131.567 196.334 131.565 196.347 131.563 196.36C131.558 196.385 131.553 196.41 131.548 196.434C131.546 196.447 131.543 196.46 131.54 196.473C131.539 196.479 131.538 196.485 131.537 196.49C131.536 196.496 131.535 196.502 131.534 196.509C131.526 196.546 131.518 196.583 131.51 196.619C131.499 196.67 131.488 196.719 131.477 196.769L131.471 196.798C131.468 196.81 131.466 196.821 131.463 196.833C131.457 196.86 131.45 196.886 131.444 196.912C131.437 196.944 131.43 196.976 131.422 197.006L131.41 197.052C131.408 197.06 131.406 197.067 131.405 197.074C131.399 197.097 131.393 197.12 131.387 197.142C131.383 197.157 131.379 197.173 131.375 197.188C131.368 197.217 131.36 197.245 131.352 197.273C131.346 197.295 131.34 197.316 131.334 197.338C131.316 197.405 131.297 197.471 131.278 197.535C131.269 197.565 131.26 197.595 131.251 197.624C131.236 197.674 131.221 197.722 131.205 197.77C131.192 197.809 131.18 197.848 131.167 197.886L131.148 197.943C131.142 197.962 131.135 197.98 131.128 197.999C131.116 198.036 131.103 198.073 131.09 198.109C131.064 198.185 131.037 198.257 131.009 198.328C131 198.353 130.991 198.376 130.982 198.399C130.925 198.544 130.868 198.679 130.813 198.804C130.801 198.83 130.791 198.855 130.779 198.879C130.76 198.922 130.741 198.964 130.721 199.004C130.717 199.012 130.714 199.02 130.71 199.028Z" fill="#5B2448"/>
<path d="M127.957 184.167C127.933 184.167 127.909 184.162 127.887 184.152C127.865 184.141 127.846 184.127 127.83 184.108C126.888 182.975 126.44 182.812 125.549 182.488C125.309 182.401 125.037 182.302 124.719 182.171C123.186 181.538 122.693 180.58 122.672 180.539C122.653 180.5 122.65 180.455 122.663 180.414C122.677 180.373 122.707 180.338 122.746 180.319C122.785 180.299 122.83 180.296 122.871 180.31C122.912 180.324 122.946 180.353 122.966 180.392C122.973 180.406 123.437 181.287 124.844 181.868C125.156 181.996 125.424 182.094 125.661 182.18C126.578 182.513 127.083 182.697 128.083 183.898C128.103 183.922 128.115 183.951 128.119 183.982C128.123 184.013 128.119 184.044 128.105 184.072C128.092 184.101 128.071 184.125 128.045 184.141C128.019 184.158 127.988 184.167 127.957 184.167L127.957 184.167Z" fill="white"/>
<path d="M130.71 199.165C130.689 199.165 130.669 199.16 130.65 199.151C128.778 198.379 127.3 197 126.259 195.054C125.581 193.785 125.089 192.27 124.798 190.55C124.613 189.456 124.18 188.944 123.761 188.449C123.44 188.07 123.108 187.678 122.93 187.052C122.762 186.462 122.798 185.998 122.832 185.549C122.875 184.99 122.916 184.462 122.58 183.687C122.005 182.361 120.271 181.703 120.253 181.696C120.219 181.683 120.192 181.658 120.176 181.625C120.161 181.592 120.16 181.554 120.173 181.52C120.185 181.486 120.211 181.459 120.244 181.444C120.277 181.428 120.315 181.427 120.349 181.44C120.424 181.468 122.21 182.147 122.831 183.578C123.194 184.415 123.149 185.002 123.105 185.57C123.071 186.015 123.039 186.434 123.193 186.977C123.355 187.546 123.654 187.899 123.969 188.272C124.392 188.771 124.87 189.337 125.068 190.504C125.354 192.195 125.836 193.683 126.5 194.925C127.512 196.817 128.946 198.155 130.762 198.901C130.791 198.913 130.816 198.935 130.831 198.963C130.846 198.991 130.851 199.023 130.845 199.055C130.838 199.086 130.822 199.114 130.797 199.134C130.773 199.154 130.742 199.165 130.71 199.165H130.71Z" fill="#5B2448"/>
<path d="M121.158 186.296C120.658 186.296 120.057 185.895 119.632 185.227C119.374 184.82 119.224 184.377 119.209 183.978C119.194 183.553 119.333 183.225 119.602 183.054C119.871 182.883 120.228 182.896 120.606 183.091C120.961 183.273 121.299 183.598 121.557 184.004C121.815 184.41 121.965 184.853 121.98 185.252C121.995 185.677 121.856 186.005 121.587 186.176C121.458 186.256 121.31 186.298 121.158 186.296ZM120.03 183.209C119.931 183.207 119.833 183.233 119.749 183.285C119.565 183.402 119.471 183.645 119.483 183.969C119.495 184.32 119.63 184.714 119.863 185.08C120.321 185.801 121.044 186.198 121.44 185.946C121.624 185.829 121.718 185.586 121.707 185.262C121.694 184.911 121.559 184.517 121.326 184.151C121.093 183.785 120.793 183.495 120.481 183.334C120.343 183.258 120.188 183.215 120.03 183.209Z" fill="#5B2448"/>
<path d="M130.234 200.032C130.223 200.031 130.213 200.031 130.202 200.029C128.564 199.805 127.292 198.535 126.513 197.508C123.912 194.083 117.169 183 117.101 182.888C117.091 182.871 117.085 182.852 117.082 182.833C117.08 182.813 117.082 182.793 117.088 182.774C117.095 182.755 117.105 182.738 117.118 182.724C117.132 182.709 117.148 182.698 117.167 182.691C118.559 182.124 119.383 181.788 120.129 181.471C121.523 180.878 122.594 180.368 125.454 179.006C126.046 178.723 126.716 178.404 127.483 178.039C127.488 178.037 127.496 178.033 127.504 178.03L127.819 177.88C127.851 177.864 127.889 177.862 127.923 177.874C127.957 177.886 127.985 177.911 128.001 177.944C128.017 177.977 128.019 178.014 128.006 178.049C127.994 178.083 127.969 178.111 127.936 178.126L127.618 178.278C127.615 178.279 127.612 178.281 127.609 178.282L127.604 178.285C126.833 178.651 126.163 178.97 125.571 179.252C122.707 180.617 121.636 181.127 120.236 181.723C119.515 182.029 118.723 182.352 117.418 182.883C118.205 184.172 124.295 194.136 126.731 197.343C128.043 199.071 129.304 199.608 130.157 199.746C130.169 199.728 130.182 199.707 130.198 199.682C130.206 199.67 130.214 199.658 130.222 199.644C130.305 199.509 130.389 199.359 130.472 199.199C130.485 199.175 130.497 199.15 130.51 199.124C130.539 199.067 130.568 199.008 130.597 198.946C130.616 198.907 130.635 198.866 130.654 198.824C130.665 198.799 130.676 198.776 130.686 198.751C130.745 198.619 130.801 198.485 130.854 198.35C130.863 198.326 130.872 198.304 130.88 198.282C130.91 198.204 130.936 198.133 130.96 198.064C130.98 198.01 130.999 197.956 131.017 197.901L131.037 197.843C131.046 197.817 131.054 197.791 131.063 197.764L131.074 197.728C131.09 197.681 131.105 197.634 131.119 197.585L131.128 197.557C131.134 197.538 131.14 197.518 131.145 197.498C131.165 197.433 131.184 197.368 131.202 197.302C131.208 197.281 131.213 197.261 131.219 197.24C131.219 197.239 131.219 197.237 131.22 197.235C131.228 197.209 131.235 197.181 131.242 197.154C131.246 197.138 131.25 197.121 131.255 197.105L131.277 197.018C131.288 196.973 131.3 196.927 131.311 196.881L131.318 196.849C131.322 196.834 131.325 196.82 131.328 196.805C131.334 196.781 131.339 196.761 131.343 196.741C131.355 196.69 131.365 196.641 131.376 196.591C131.386 196.544 131.396 196.496 131.405 196.448C131.413 196.41 131.42 196.372 131.428 196.335L131.435 196.295C131.445 196.245 131.454 196.194 131.462 196.143C131.465 196.13 131.467 196.12 131.468 196.11C131.476 196.066 131.483 196.026 131.49 195.985L131.491 195.977C131.498 195.93 131.506 195.882 131.513 195.835C131.513 195.834 131.514 195.827 131.514 195.827C131.52 195.789 131.525 195.755 131.53 195.72C131.533 195.698 131.535 195.681 131.538 195.663C131.546 195.605 131.553 195.55 131.56 195.495C131.642 194.819 131.676 194.138 131.662 193.458C131.662 193.431 131.661 193.405 131.66 193.381L131.659 193.363C131.657 193.26 131.653 193.153 131.649 193.041C131.645 192.973 131.641 192.903 131.638 192.832C131.623 192.601 131.606 192.388 131.585 192.183C131.571 192.037 131.551 191.883 131.527 191.725C131.388 190.814 131.018 189.295 130.048 187.232C130.033 187.199 130.031 187.161 130.043 187.127C130.056 187.093 130.081 187.065 130.114 187.05C130.147 187.034 130.184 187.033 130.219 187.045C130.253 187.057 130.281 187.083 130.296 187.115C131.28 189.209 131.656 190.755 131.797 191.684C131.822 191.846 131.842 192.005 131.857 192.156C131.878 192.364 131.896 192.581 131.911 192.817C131.915 192.889 131.918 192.959 131.922 193.029C131.927 193.142 131.931 193.252 131.933 193.355L131.933 193.371C131.934 193.399 131.935 193.427 131.935 193.455C131.95 194.147 131.915 194.84 131.831 195.527C131.825 195.584 131.817 195.641 131.809 195.698C131.806 195.718 131.803 195.739 131.8 195.761C131.796 195.793 131.791 195.829 131.785 195.865L131.784 195.872C131.776 195.923 131.769 195.972 131.761 196.02L131.76 196.028C131.753 196.071 131.746 196.112 131.738 196.155C131.737 196.165 131.734 196.178 131.732 196.191C131.724 196.241 131.714 196.295 131.704 196.347L131.696 196.387C131.689 196.425 131.681 196.464 131.673 196.501C131.664 196.549 131.654 196.599 131.644 196.647C131.633 196.699 131.622 196.749 131.61 196.799C131.606 196.821 131.6 196.844 131.595 196.866C131.592 196.879 131.588 196.896 131.584 196.913L131.577 196.943C131.565 196.992 131.553 197.039 131.541 197.086L131.519 197.176C131.514 197.194 131.51 197.208 131.507 197.222C131.499 197.251 131.491 197.281 131.483 197.308C131.477 197.332 131.471 197.354 131.465 197.376C131.447 197.442 131.427 197.509 131.408 197.574C131.402 197.594 131.395 197.615 131.389 197.637L131.381 197.663C131.365 197.714 131.35 197.764 131.334 197.812L131.323 197.847C131.314 197.875 131.305 197.903 131.296 197.93L131.277 197.987C131.258 198.044 131.238 198.101 131.218 198.155C131.193 198.226 131.166 198.299 131.136 198.378C131.127 198.401 131.117 198.426 131.107 198.451C131.054 198.587 130.996 198.726 130.937 198.86C130.926 198.885 130.914 198.911 130.902 198.937C130.884 198.979 130.864 199.021 130.844 199.063C130.814 199.127 130.784 199.188 130.755 199.245C130.742 199.272 130.728 199.298 130.715 199.324C130.629 199.491 130.541 199.647 130.455 199.787C130.446 199.801 130.438 199.815 130.43 199.827C130.392 199.887 130.364 199.928 130.348 199.951L130.346 199.953C130.344 199.957 130.341 199.96 130.339 199.963L130.336 199.967C130.328 199.988 130.314 200.005 130.296 200.016C130.277 200.028 130.256 200.033 130.234 200.032ZM130.343 199.959C130.342 199.96 130.341 199.961 130.34 199.963C130.341 199.962 130.342 199.96 130.343 199.959Z" fill="#5B2448"/>
<path d="M131.473 189.605C131.373 189.605 131.277 189.569 131.202 189.502C129.396 187.91 127.225 188.123 127.203 188.125C127.095 188.137 126.987 188.106 126.901 188.038C126.816 187.97 126.762 187.871 126.75 187.763C126.738 187.655 126.769 187.546 126.837 187.462C126.905 187.377 127.004 187.322 127.112 187.31C127.215 187.298 129.658 187.047 131.745 188.887C131.808 188.942 131.852 189.015 131.872 189.096C131.892 189.177 131.887 189.262 131.857 189.34C131.828 189.418 131.775 189.485 131.707 189.532C131.638 189.58 131.557 189.605 131.473 189.605Z" fill="#FFCF2D"/>
<path d="M131.845 191.76C131.738 191.76 131.634 191.718 131.558 191.642C129.821 189.938 127.624 190.128 127.602 190.13C127.493 190.141 127.385 190.108 127.301 190.039C127.217 189.969 127.164 189.87 127.154 189.761C127.143 189.653 127.176 189.545 127.246 189.461C127.315 189.377 127.415 189.324 127.523 189.314C127.628 189.304 130.126 189.088 132.133 191.057C132.191 191.114 132.231 191.187 132.247 191.267C132.264 191.347 132.256 191.43 132.225 191.505C132.194 191.58 132.142 191.645 132.074 191.69C132.006 191.736 131.927 191.76 131.845 191.76H131.845Z" fill="#FFCF2D"/>
<path d="M132.017 193.854C131.962 193.854 131.909 193.843 131.859 193.823C131.809 193.802 131.764 193.771 131.726 193.733C130.196 192.195 128.296 192.303 128.277 192.304C128.169 192.311 128.062 192.275 127.981 192.204C127.9 192.132 127.85 192.032 127.842 191.924C127.834 191.816 127.869 191.71 127.94 191.628C128.01 191.546 128.11 191.495 128.218 191.486C128.31 191.479 130.504 191.341 132.308 193.155C132.365 193.212 132.404 193.285 132.419 193.365C132.435 193.444 132.427 193.527 132.395 193.601C132.364 193.676 132.312 193.74 132.244 193.785C132.177 193.83 132.098 193.854 132.017 193.854Z" fill="#FFCF2D"/>
<path d="M160.402 161.588C159.467 164.921 157.696 168.072 155.294 170.92C155.071 174.749 154.322 182.295 152.766 187.018C147.522 187.709 143.516 184.926 140.319 182.468C137.322 180.164 134.441 179.588 133.922 181.777C134.325 179.012 134.729 177.86 135.42 176.132C134.786 174.519 134.272 173.842 133.72 171.726C132.136 165.649 129.6 166.513 128.88 167.175C131.098 164.9 136.285 164.727 138.313 164.796C138.504 157.729 135.104 152.084 132.683 145.691C130.847 140.841 130.364 136.253 130.759 132.72C130.859 131.762 131.048 130.815 131.324 129.892C131.429 129.55 131.544 129.228 131.67 128.924C133.144 125.359 151.21 127.346 151.21 127.346C151.21 127.346 151.485 128.327 152.193 130.071C152.903 131.819 154.231 134.238 155.791 137.397C159.163 144.222 162.735 153.265 160.402 161.588Z" fill="#21A0AA"/>
<path d="M152.193 130.071C151.891 130.231 151.586 130.383 151.278 130.528C149.656 131.286 147.965 131.885 146.227 132.317C142.651 133.224 139.248 133.433 136.95 133.453C134.863 133.476 132.782 133.23 130.758 132.721C130.858 131.762 131.048 130.815 131.324 129.892C135.81 131.074 140.959 130.554 145.193 129.483C145.204 129.48 145.214 129.478 145.224 129.475C146.909 129.054 148.559 128.503 150.16 127.828C150.208 127.807 150.256 127.787 150.304 127.765C150.625 127.626 150.927 127.486 151.21 127.346C151.21 127.346 151.485 128.327 152.193 130.071Z" fill="#5B2448"/>
<path d="M155.388 172.093C155.385 172.093 155.382 172.093 155.379 172.092C155.343 172.09 155.309 172.073 155.285 172.046C155.261 172.019 155.249 171.983 155.252 171.947C155.419 169.373 155.35 166.031 155.063 162.78C154.688 158.522 153.977 154.549 152.951 150.97C151.371 145.458 150.686 141.735 150.39 139.583C150.068 137.242 150.12 136.222 150.122 136.18C150.125 136.144 150.141 136.11 150.168 136.086C150.195 136.062 150.231 136.05 150.267 136.052C150.303 136.054 150.337 136.07 150.361 136.097C150.385 136.124 150.397 136.159 150.396 136.195C150.393 136.236 150.205 140.396 153.214 150.895C154.245 154.49 154.959 158.481 155.336 162.756C155.624 166.021 155.692 169.377 155.524 171.965C155.522 171.999 155.507 172.032 155.481 172.056C155.456 172.079 155.423 172.093 155.388 172.093Z" fill="#6CE0DC"/>
<path d="M134.815 177.162C134.791 177.162 134.768 177.156 134.748 177.144C134.727 177.132 134.71 177.116 134.698 177.096C134.686 177.076 134.679 177.053 134.678 177.029C134.677 177.006 134.683 176.983 134.693 176.962C137.694 171.186 138.893 164.909 138.58 156.612C138.579 156.594 138.582 156.576 138.588 156.559C138.595 156.542 138.604 156.527 138.616 156.513C138.629 156.5 138.643 156.49 138.66 156.482C138.676 156.475 138.694 156.47 138.712 156.47C138.73 156.469 138.747 156.472 138.764 156.478C138.781 156.485 138.797 156.494 138.81 156.506C138.823 156.518 138.834 156.533 138.841 156.55C138.849 156.566 138.853 156.583 138.853 156.601C139.168 164.949 137.96 171.267 134.936 177.088C134.925 177.11 134.907 177.129 134.886 177.142C134.864 177.155 134.84 177.162 134.815 177.162Z" fill="#6CE0DC"/>
<path d="M126.862 127.951C130.234 128.21 138.244 130.629 142.739 133.624C147.234 136.619 148.329 139.269 148.79 140.479C149.251 141.688 148.732 142.091 147.695 140.997C146.406 139.637 145.735 138.924 145.735 138.924C145.735 138.924 146.888 141.17 146.773 143.762C146.657 146.354 145.735 145.835 145.562 144.799C145.562 144.799 145.217 146.93 144.007 144.165C144.007 144.165 144.41 146.239 142.451 144.05C138.699 139.859 135.65 138.175 125.306 137.824C114.765 137.466 112.945 135.122 112.945 135.122L126.862 127.951Z" fill="#F4ADA2"/>
<path d="M173.457 96.7038C171.77 101.37 170.283 108.619 167.636 114.47C167.095 115.686 166.469 116.863 165.765 117.993C164.644 119.769 163.343 121.27 161.807 122.324C159.657 115.021 157.134 108.041 157.055 107.824C157.055 107.822 157.054 107.821 157.054 107.819C157.053 107.816 157.052 107.814 157.052 107.814C157.183 107.628 163.01 99.447 164.516 96.2301C165.984 93.0916 165.462 91.6568 164.62 90.5526C163.779 89.4485 161.255 87.5563 162.833 87.5034C164.463 87.4498 166.36 88.9842 168.408 88.0293C170.803 86.9118 172.404 84.1413 173.795 82.79C175.125 81.4975 175.635 81.8966 175.004 83.3159C174.362 84.761 173.562 86.7153 173.562 86.7153C173.63 86.7543 173.688 86.8073 173.733 86.8707C173.779 86.934 173.81 87.0063 173.825 87.0828C173.825 87.0828 174.456 87.0828 174.772 88.0815C175.508 88.2403 176.163 89.216 173.457 96.7038Z" fill="#F4ADA2"/>
<path d="M169.306 91.2241C169.237 91.2248 169.169 91.2097 169.108 91.1798C168.768 91.0125 168.74 90.4436 169.033 89.6579C169.706 87.8504 170.563 86.731 171.58 86.3307C172.616 85.9228 173.531 86.3803 173.832 86.5306C173.849 86.5386 173.863 86.5497 173.875 86.5632C173.887 86.5768 173.896 86.5926 173.902 86.6097C173.907 86.6268 173.91 86.6448 173.909 86.6628C173.907 86.6808 173.903 86.6984 173.894 86.7146C173.886 86.7307 173.875 86.7451 173.862 86.7569C173.848 86.7687 173.832 86.7777 173.815 86.7833C173.798 86.7889 173.78 86.7911 173.762 86.7897C173.744 86.7884 173.726 86.7834 173.71 86.7752C173.436 86.6385 172.603 86.2219 171.68 86.5852C170.739 86.9558 169.935 88.0217 169.289 89.7534C169.039 90.4251 169.069 90.856 169.228 90.9347C169.478 91.0574 170.279 90.5511 171.465 88.6541C171.484 88.6234 171.515 88.6015 171.55 88.5933C171.586 88.5852 171.623 88.5914 171.654 88.6106C171.684 88.6298 171.706 88.6605 171.714 88.6958C171.722 88.7312 171.716 88.7683 171.697 88.799C170.728 90.3488 169.858 91.2241 169.306 91.2241Z" fill="#9B3C82"/>
<path d="M170.646 92.5163C170.584 92.5172 170.523 92.5022 170.468 92.4725C170.076 92.2559 170.216 91.3706 170.886 89.8412C171.709 87.9618 172.387 86.9762 173.813 86.8052C173.849 86.8008 173.885 86.811 173.913 86.8334C173.942 86.8557 173.961 86.8885 173.965 86.9245C173.969 86.9606 173.959 86.9968 173.937 87.0254C173.914 87.0539 173.881 87.0724 173.845 87.0767C172.686 87.2157 172.028 87.9141 171.137 89.9508C170.418 91.5933 170.472 92.162 170.601 92.2332C170.794 92.3404 171.558 91.797 172.581 90.2922C172.602 90.2622 172.633 90.2416 172.669 90.2348C172.705 90.228 172.742 90.2356 172.772 90.256C172.802 90.2764 172.822 90.3079 172.829 90.3435C172.836 90.3791 172.828 90.416 172.808 90.446C172.097 91.4896 171.197 92.5162 170.646 92.5163Z" fill="#9B3C82"/>
<path d="M172.531 93.0218C172.492 93.0221 172.453 93.0156 172.415 93.0026C172.057 92.8752 172.037 92.2428 172.352 91.0695C172.866 89.1538 173.478 87.8647 174.793 87.8023C174.829 87.801 174.864 87.814 174.891 87.8383C174.917 87.8627 174.933 87.8965 174.935 87.9325C174.937 87.9684 174.924 88.0036 174.9 88.0304C174.876 88.0571 174.842 88.0733 174.806 88.0755C173.809 88.1229 173.195 88.9823 172.616 91.1404C172.218 92.6233 172.495 92.7407 172.507 92.745C172.804 92.8507 173.846 91.7092 174.568 90.1027C174.583 90.0701 174.61 90.0447 174.644 90.032C174.678 90.0194 174.715 90.0206 174.748 90.0354C174.781 90.0501 174.807 90.0772 174.82 90.1108C174.833 90.1444 174.832 90.1817 174.817 90.2147C174.192 91.6073 173.141 93.0217 172.531 93.0218Z" fill="#9B3C82"/>
<path d="M169.276 94.3432C169.264 94.3432 169.253 94.3418 169.242 94.3391C169.225 94.3348 169.209 94.327 169.194 94.3164C169.18 94.3057 169.168 94.2922 169.158 94.2768C169.149 94.2614 169.143 94.2444 169.14 94.2266C169.138 94.2089 169.139 94.1907 169.143 94.1733C169.295 93.5652 169.83 90.4052 165.421 87.9121C165.405 87.9035 165.391 87.8917 165.38 87.8775C165.368 87.8634 165.36 87.8471 165.355 87.8297C165.35 87.8122 165.348 87.7939 165.351 87.7759C165.353 87.7579 165.358 87.7405 165.367 87.7247C165.376 87.7089 165.388 87.695 165.403 87.6839C165.417 87.6728 165.433 87.6646 165.451 87.6599C165.469 87.6552 165.487 87.6541 165.505 87.6565C165.523 87.659 165.54 87.665 165.556 87.6742C170.138 90.265 169.569 93.5978 169.408 94.2397C169.401 94.2692 169.384 94.2955 169.36 94.3142C169.336 94.333 169.306 94.3432 169.276 94.3432Z" fill="#9B3C82"/>
<path d="M166.827 117.416C163.88 113.041 159.566 109.03 156.857 107.705C156.342 107.453 155.838 107.514 155.532 107.82C153.515 103.673 146.081 95.2638 138.301 97.7405C138.301 97.7405 137.379 97.1645 136.515 97.107C135.404 97.033 127.871 98.0284 127.871 98.0284C127.122 99.0526 126.294 100.016 125.393 100.908C125.393 100.908 117.037 126.828 130.867 130.053C138.095 131.739 147.464 129.42 151.21 127.346C151.21 127.346 152.535 125.676 152.478 122.969C153.485 124.053 157.903 125.527 162.004 123.088C164.349 121.817 166.056 119.98 166.805 118.929C166.962 118.709 167.049 118.447 167.053 118.176C167.057 117.906 166.978 117.641 166.827 117.416Z" fill="#66B0F0"/>
<path d="M116.832 134.935C114.732 136.562 113.118 138.405 113.492 138.722C113.867 139.039 117.901 138.751 126.862 127.951C126.862 127.951 121.905 131.005 116.832 134.935Z" fill="#5B2448"/>
<path d="M147.695 140.997C146.406 139.637 145.735 138.923 145.735 138.923C145.735 138.923 146.888 141.17 146.773 143.762C146.657 146.354 145.735 145.835 145.562 144.798C145.562 144.798 145.217 146.93 144.007 144.165C144.007 144.165 144.41 146.238 142.451 144.05C138.7 139.859 135.65 138.175 125.306 137.824C121.958 137.71 119.49 137.396 117.681 137.02C117.653 137.015 117.626 137.009 117.598 137.003C116.811 136.842 116.034 136.632 115.273 136.374C115.036 136.292 114.821 136.21 114.627 136.13C113.304 135.584 112.945 135.122 112.945 135.122L121.728 130.596L123.105 129.887L126.854 127.955C126.859 127.952 126.862 127.951 126.862 127.951C130.234 128.21 138.244 130.629 142.739 133.624C147.234 136.619 148.329 139.269 148.79 140.479C149.251 141.688 148.732 142.091 147.695 140.997Z" fill="#F4ADA2"/>
<path d="M144.266 145.137C144.23 145.137 144.195 145.122 144.169 145.097C144.144 145.071 144.129 145.036 144.129 145C144.129 143.296 142.312 140.618 141.167 139.331C141.155 139.317 141.146 139.302 141.14 139.285C141.134 139.268 141.132 139.25 141.133 139.232C141.134 139.214 141.138 139.197 141.146 139.18C141.154 139.164 141.165 139.15 141.178 139.138C141.192 139.126 141.207 139.117 141.224 139.111C141.241 139.105 141.259 139.102 141.277 139.104C141.295 139.105 141.313 139.109 141.329 139.117C141.345 139.125 141.359 139.136 141.371 139.149C142.215 140.097 144.403 142.996 144.403 145C144.403 145.018 144.399 145.036 144.392 145.052C144.386 145.069 144.375 145.084 144.363 145.097C144.35 145.109 144.335 145.119 144.318 145.126C144.302 145.133 144.284 145.137 144.266 145.137Z" fill="#9B3C82"/>
<path d="M145.707 145.655H145.702C145.684 145.654 145.667 145.65 145.65 145.643C145.634 145.636 145.619 145.625 145.607 145.612C145.595 145.599 145.585 145.584 145.579 145.567C145.572 145.55 145.569 145.532 145.57 145.514C145.654 142.73 144.815 140.253 143.005 137.942C142.983 137.913 142.973 137.877 142.977 137.841C142.982 137.805 143 137.772 143.029 137.75C143.057 137.728 143.094 137.718 143.13 137.722C143.166 137.726 143.199 137.745 143.221 137.773C145.072 140.137 145.93 142.672 145.843 145.522C145.842 145.558 145.827 145.592 145.802 145.616C145.776 145.641 145.742 145.655 145.707 145.655Z" fill="#9B3C82"/>
<path d="M146.513 140.183C146.489 140.183 146.465 140.177 146.443 140.164C146.422 140.152 146.405 140.134 146.393 140.112C146.254 139.858 146.122 139.61 145.995 139.371C145.482 138.408 145.039 137.577 144.448 136.85C144.425 136.822 144.415 136.786 144.419 136.75C144.423 136.714 144.441 136.681 144.469 136.659C144.496 136.636 144.532 136.625 144.568 136.629C144.604 136.632 144.637 136.65 144.66 136.677C145.267 137.425 145.716 138.267 146.236 139.242C146.363 139.481 146.495 139.728 146.633 139.981C146.644 140.002 146.65 140.026 146.65 140.049C146.649 140.073 146.643 140.096 146.631 140.117C146.619 140.137 146.601 140.154 146.581 140.166C146.56 140.178 146.537 140.184 146.513 140.184L146.513 140.183Z" fill="#9B3C82"/>
<path d="M126.862 127.951C123.491 130.456 120.206 133.797 117.681 137.02C117.653 137.015 117.626 137.009 117.598 137.003C116.811 136.842 116.034 136.632 115.273 136.374C115.036 136.292 114.821 136.21 114.627 136.13C115.154 135.429 115.771 134.8 116.46 134.258C118.805 132.442 121.203 130.958 123.105 129.887C125.224 128.693 126.727 128.012 126.854 127.955C126.859 127.952 126.862 127.951 126.862 127.951Z" fill="#9B3C82"/>
<path d="M125.998 126.857C128.303 121.154 131.876 102.32 125.767 100.822C119.659 99.3245 107.384 113.551 110.265 132.386C110.265 132.386 109.487 133.048 110.035 134.402C110.61 135.825 112.311 137.829 113.492 138.722C112.772 137.829 121.762 130.629 126.862 127.951C126.862 127.951 127.121 127.289 125.998 126.857Z" fill="#66B0F0"/>
<path d="M132.647 138.492C133.233 136.006 134.536 133.019 136.118 130.624L135.298 130.083L132.992 128.561C132.856 128.768 132.721 128.978 132.589 129.191C130.869 131.958 129.517 135.226 128.915 138.025L132.647 138.492Z" fill="#5B2448"/>
<path d="M136.752 131.603C137.144 130.419 136.086 129.004 134.389 128.442C132.691 127.88 130.997 128.385 130.605 129.569C130.213 130.753 131.271 132.168 132.968 132.73C134.666 133.291 136.36 132.787 136.752 131.603Z" fill="#5B2448"/>
<path d="M134.392 133.237C133.879 133.234 133.37 133.149 132.884 132.986C131.988 132.69 131.225 132.166 130.736 131.512C130.236 130.843 130.079 130.116 130.294 129.466C130.733 128.143 132.607 127.569 134.474 128.187C136.34 128.805 137.501 130.383 137.063 131.706C136.848 132.356 136.288 132.846 135.487 133.084C135.131 133.188 134.763 133.239 134.392 133.237ZM132.963 128.209C131.802 128.209 130.835 128.704 130.554 129.552C130.368 130.115 130.51 130.753 130.955 131.348C131.411 131.958 132.127 132.448 132.97 132.727C133.812 133.006 134.679 133.039 135.409 132.822C136.122 132.61 136.617 132.183 136.803 131.62C137.194 130.44 136.111 129.016 134.388 128.446C133.928 128.292 133.447 128.212 132.963 128.209Z" fill="white"/>
<path d="M136.771 131.239C137.107 130.224 136.044 128.958 134.396 128.413C132.749 127.868 131.14 128.249 130.804 129.264C130.467 130.279 131.531 131.545 133.178 132.09C134.826 132.635 136.435 132.254 136.771 131.239Z" fill="white"/>
<path d="M133.446 131.312C133.424 131.312 133.402 131.307 133.382 131.296C133.363 131.286 133.346 131.271 133.334 131.253C133.321 131.235 133.313 131.214 133.31 131.192C133.307 131.17 133.31 131.148 133.318 131.127L133.738 130.001C133.745 129.984 133.754 129.968 133.767 129.955C133.779 129.942 133.794 129.931 133.811 129.924C133.828 129.916 133.846 129.912 133.864 129.912C133.882 129.912 133.9 129.915 133.917 129.921L135.662 130.613C135.695 130.627 135.722 130.653 135.737 130.686C135.751 130.72 135.752 130.757 135.738 130.791C135.725 130.825 135.699 130.852 135.666 130.866C135.632 130.88 135.595 130.881 135.561 130.868L133.946 130.227L133.574 131.223C133.564 131.249 133.547 131.272 133.524 131.288C133.501 131.303 133.474 131.312 133.446 131.312Z" fill="#5B2448"/>
<path d="M127.035 128.145C127.004 128.145 126.974 128.135 126.95 128.116C126.926 128.096 126.909 128.07 126.902 128.04C126.765 127.578 126.462 127.183 126.052 126.93C126.025 126.914 126.004 126.888 125.993 126.857C125.983 126.826 125.984 126.792 125.996 126.762C127.938 121.959 130.957 107.983 127.987 102.711C127.348 101.575 126.458 100.908 125.342 100.727C125.306 100.721 125.274 100.701 125.253 100.672C125.231 100.642 125.223 100.605 125.229 100.57C125.234 100.534 125.254 100.502 125.284 100.481C125.313 100.459 125.35 100.451 125.386 100.457C126.588 100.652 127.543 101.365 128.225 102.576C129.156 104.228 130.063 107.717 129.104 114.966C128.461 119.831 127.205 124.454 126.292 126.759C126.718 127.05 127.028 127.482 127.168 127.978C127.173 127.998 127.173 128.019 127.168 128.039C127.164 128.059 127.155 128.078 127.142 128.094C127.129 128.11 127.113 128.123 127.094 128.132C127.076 128.141 127.055 128.145 127.035 128.145H127.035Z" fill="#B0DCF7"/>
<path d="M137.423 103.801C136.671 103.801 135.534 103.153 134.502 102.566L134.43 102.525C133.02 101.722 129.437 99.8282 126.619 99.5759C126.583 99.5727 126.55 99.5552 126.527 99.5274C126.503 99.4996 126.492 99.4636 126.495 99.4275C126.499 99.3914 126.516 99.358 126.544 99.3348C126.572 99.3115 126.608 99.3003 126.644 99.3035C127.832 99.41 130.441 99.9391 134.566 102.287L134.638 102.328C135.77 102.974 137.321 103.857 137.793 103.409C138.113 103.106 138.124 102.012 136.364 98.5221C136.356 98.5061 136.351 98.4886 136.349 98.4706C136.348 98.4526 136.35 98.4345 136.356 98.4174C136.361 98.4002 136.37 98.3843 136.382 98.3706C136.394 98.357 136.408 98.3457 136.424 98.3376C136.44 98.3295 136.458 98.3247 136.476 98.3234C136.494 98.3221 136.512 98.3243 136.529 98.33C136.546 98.3357 136.562 98.3448 136.575 98.3566C136.589 98.3685 136.6 98.3829 136.608 98.3991C138.599 102.346 138.345 103.262 137.982 103.607C137.838 103.743 137.648 103.801 137.423 103.801Z" fill="#B0DCF7"/>
<path d="M141.27 101.477C141.244 101.477 141.22 101.47 141.198 101.457C141.177 101.444 141.16 101.426 141.148 101.404C138.921 97.1181 136.856 97.0985 136.835 97.0997C136.799 97.1006 136.764 97.087 136.737 97.062C136.711 97.0369 136.696 97.0025 136.695 96.9662C136.694 96.93 136.708 96.8949 136.733 96.8686C136.758 96.8424 136.792 96.8271 136.828 96.8262C136.92 96.8246 139.073 96.8175 141.391 101.277C141.402 101.298 141.407 101.321 141.406 101.345C141.405 101.368 141.399 101.391 141.386 101.411C141.374 101.431 141.357 101.448 141.337 101.46C141.316 101.471 141.293 101.477 141.27 101.477V101.477Z" fill="#B0DCF7"/>
<path d="M162.245 123.826C162.213 123.826 162.181 123.814 162.157 123.793C162.132 123.772 162.116 123.742 162.11 123.71C161.537 120.1 159.321 112.902 155.566 107.873C155.555 107.859 155.547 107.843 155.543 107.825C155.538 107.808 155.537 107.789 155.539 107.771C155.542 107.754 155.548 107.736 155.557 107.721C155.566 107.705 155.579 107.692 155.593 107.681C155.608 107.67 155.624 107.662 155.642 107.658C155.659 107.653 155.677 107.652 155.695 107.655C155.713 107.658 155.73 107.664 155.746 107.673C155.761 107.683 155.775 107.695 155.786 107.71C159.57 112.778 161.803 120.03 162.381 123.667C162.386 123.703 162.378 123.739 162.356 123.769C162.335 123.798 162.303 123.818 162.267 123.823C162.26 123.825 162.253 123.825 162.245 123.826Z" fill="#B0DCF7"/>
<path d="M110.035 132.523C110.007 132.523 109.979 132.514 109.956 132.498C109.933 132.481 109.915 132.458 109.906 132.431C109.896 132.405 109.895 132.376 109.903 132.349C109.911 132.321 109.927 132.297 109.949 132.279C111.925 130.689 114.705 129.246 117.778 128.217C120.351 127.356 122.933 126.841 125.165 126.738C120.075 125.614 114.455 127.201 114.395 127.218C114.36 127.227 114.324 127.222 114.294 127.204C114.263 127.186 114.24 127.157 114.231 127.123C114.221 127.09 114.225 127.053 114.241 127.022C114.257 126.991 114.285 126.967 114.319 126.956C114.335 126.951 115.955 126.489 118.217 126.231C120.306 125.993 123.389 125.886 126.21 126.726C126.241 126.735 126.269 126.756 126.287 126.783C126.304 126.811 126.312 126.845 126.307 126.878C126.302 126.91 126.285 126.94 126.26 126.962C126.234 126.983 126.202 126.994 126.169 126.994C123.756 126.965 120.807 127.492 117.865 128.477C114.822 129.495 112.071 130.922 110.121 132.492C110.096 132.512 110.066 132.523 110.035 132.523Z" fill="#B0DCF7"/>
<path d="M158.096 117.605C158.063 117.605 158.03 117.592 158.005 117.57C157.98 117.547 157.964 117.517 157.961 117.483C157.393 112.436 155.568 107.888 155.549 107.843C155.542 107.826 155.539 107.808 155.539 107.79C155.539 107.772 155.542 107.754 155.549 107.737C155.556 107.721 155.567 107.706 155.579 107.693C155.592 107.68 155.607 107.67 155.624 107.663C155.641 107.657 155.659 107.653 155.677 107.653C155.695 107.654 155.713 107.657 155.73 107.664C155.746 107.672 155.761 107.682 155.774 107.695C155.786 107.708 155.796 107.723 155.803 107.74C155.821 107.786 157.661 112.367 158.232 117.453C158.236 117.489 158.226 117.525 158.203 117.553C158.181 117.581 158.148 117.6 158.112 117.604C158.107 117.604 158.102 117.605 158.096 117.605Z" fill="#B0DCF7"/>
<path d="M139.991 80.2956C139.655 80.1399 139.288 80.0659 138.918 80.0798C138.549 80.0937 138.188 80.1951 137.865 80.3755C137.068 78.0469 133.966 78.552 133.595 80.352C131.391 78.7711 128.818 81.2615 129.761 83.2043C130.107 83.9175 130.632 85.1995 130.342 86.4348C131.408 86.8813 133.507 89.6102 133.507 89.6102C133.507 89.6102 136.963 84.5315 138.828 84.3097C141.76 83.9611 141.434 81.0037 139.991 80.2956Z" fill="#5B2448"/>
<path d="M136.808 81.5021C136.784 81.5021 136.762 81.4962 136.741 81.4849C136.721 81.4737 136.704 81.4575 136.692 81.4378C136.679 81.4182 136.672 81.3957 136.671 81.3726C136.67 81.3494 136.675 81.3264 136.685 81.3055C137.404 79.8284 138.766 79.8381 138.824 79.8389C138.86 79.8396 138.895 79.8546 138.92 79.8807C138.945 79.9069 138.959 79.9419 138.958 79.9782C138.957 80.0144 138.942 80.0489 138.916 80.0741C138.89 80.0993 138.855 80.113 138.819 80.1124C138.767 80.1124 137.571 80.1104 136.931 81.4252C136.919 81.4483 136.902 81.4677 136.88 81.4813C136.858 81.4949 136.833 81.5021 136.808 81.5021Z" fill="#9B3C82"/>
<path d="M141.815 91.2343C141.902 91.881 141.592 92.5752 140.93 92.9947C139.205 94.0865 136.841 93.6678 136.841 93.6678C136.841 93.6678 136.284 95.4367 136.63 98.4318C136.63 98.4318 133.217 99.4826 127.871 98.0286C127.871 98.0286 129.715 95.4367 130.612 90.9982C129.349 90.8966 127.881 89.7034 128.098 87.9888C128.222 87.0108 129.222 86.2967 130.23 86.4014C131.265 86.5088 131.987 87.3147 132.82 88.1279C133.763 89.0471 133.987 88.2264 134.289 87.1912C134.483 86.5263 134.708 85.7729 135.176 85.3353C136.234 84.3454 138.828 84.3098 138.828 84.3098C138.828 84.3098 138.858 84.646 138.926 85.0665C139.016 85.6224 139.172 86.3249 139.411 86.591C139.83 87.0578 140.213 86.9487 140.246 87.2699C140.275 87.5451 139.987 87.8993 139.817 88.0559C140.057 89.932 141.613 89.7253 141.815 91.2343Z" fill="#F4ADA2"/>
<path d="M130.878 91.2882C130.623 91.2903 130.369 91.2681 130.119 91.2218C130.084 91.214 130.053 91.1927 130.033 91.1625C130.014 91.1322 130.007 91.0954 130.014 91.0601C130.022 91.0248 130.043 90.9939 130.073 90.974C130.103 90.9542 130.14 90.947 130.175 90.9542C130.186 90.9564 131.244 91.1702 132.243 90.7675C132.277 90.7539 132.314 90.7543 132.348 90.7685C132.381 90.7827 132.407 90.8095 132.421 90.8432C132.435 90.8768 132.434 90.9145 132.42 90.9478C132.406 90.9812 132.379 91.0076 132.345 91.0212C131.877 91.2023 131.379 91.2929 130.878 91.2882Z" fill="#9B3C82"/>
<path d="M136.841 93.6679C136.841 93.6679 135.42 93.3635 134.498 92.4417C134.198 92.6409 134.057 94.3729 135.789 95.0903C137.6 95.8403 136.841 93.6679 136.841 93.6679Z" fill="#5B2448"/>
<path d="M135.441 85.932L135.438 85.827C135.438 85.7945 135.439 85.7627 135.442 85.7313C135.447 85.669 135.456 85.6072 135.47 85.5463C135.497 85.4245 135.539 85.3064 135.594 85.1945C135.71 84.9586 135.88 84.7534 136.09 84.5959C136.2 84.5118 136.321 84.4432 136.45 84.392C136.58 84.3405 136.718 84.3093 136.858 84.2994C136.995 84.2893 137.132 84.3027 137.265 84.3391C137.395 84.3727 137.517 84.4338 137.622 84.5183C137.66 84.5496 137.691 84.5895 137.711 84.6349C137.731 84.6802 137.74 84.7296 137.738 84.7791C137.736 84.8287 137.721 84.8769 137.697 84.9201C137.672 84.9632 137.638 84.9999 137.597 85.0274L137.547 85.0602C137.451 85.1232 137.368 85.1635 137.295 85.2086C137.221 85.2493 137.158 85.2915 137.098 85.3269L136.764 85.5359C136.651 85.6078 136.533 85.6957 136.4 85.795L136.191 85.9536C136.154 85.9816 136.116 86.0099 136.077 86.0385C136.058 86.0529 136.037 86.0671 136.017 86.0812C135.998 86.0956 135.977 86.1077 135.956 86.1172L135.744 86.1659C135.712 86.1732 135.679 86.1742 135.647 86.1688C135.615 86.1634 135.584 86.1517 135.557 86.1345C135.529 86.1173 135.505 86.0948 135.487 86.0683C135.468 86.0419 135.454 86.012 135.447 85.9803C135.444 85.9644 135.441 85.9482 135.441 85.932Z" fill="#5B2448"/>
<path d="M136.785 86.7883C137.056 86.6604 137.715 86.3687 138.276 85.8935C138.295 85.8776 138.317 85.8656 138.34 85.8581C138.364 85.8507 138.388 85.8479 138.413 85.8501C138.437 85.8522 138.461 85.8592 138.483 85.8705C138.504 85.8819 138.524 85.8975 138.539 85.9164C138.71 86.1207 138.927 86.4993 138.503 86.774C137.982 87.1115 137.022 87.1493 136.764 86.9486C136.752 86.9384 136.742 86.9252 136.736 86.9102C136.73 86.8952 136.728 86.8789 136.73 86.8629C136.732 86.8468 136.738 86.8316 136.748 86.8185C136.757 86.8055 136.77 86.7951 136.785 86.7883Z" fill="#5B2448"/>
<path opacity="0.52" d="M135.662 90.842C136.35 90.842 136.908 90.2845 136.908 89.5968C136.908 88.9091 136.35 88.3516 135.662 88.3516C134.974 88.3516 134.417 88.9091 134.417 89.5968C134.417 90.2845 134.974 90.842 135.662 90.842Z" fill="#E57281"/>
<path d="M139.439 89.8357C139.362 89.9225 139.267 89.9917 139.161 90.0386C139.057 90.0848 138.947 90.1147 138.835 90.1272C138.607 90.1552 138.376 90.1177 138.169 90.0191C138.066 89.9671 137.972 89.9008 137.888 89.8222C137.804 89.743 137.734 89.6514 137.678 89.5508C137.564 89.3508 137.526 89.116 137.572 88.8902C137.578 88.8617 137.595 88.8365 137.618 88.819C137.642 88.8015 137.671 88.793 137.7 88.7949C137.729 88.7969 137.757 88.8092 137.777 88.8296C137.798 88.85 137.811 88.8772 137.814 88.9063L137.815 88.9127C137.836 89.1579 137.954 89.3848 138.141 89.5442C138.201 89.5969 138.268 89.6415 138.34 89.677C138.487 89.746 138.647 89.7803 138.81 89.7773C138.973 89.7794 139.134 89.7373 139.276 89.6553L139.282 89.6517C139.306 89.6363 139.336 89.6304 139.365 89.6349C139.394 89.6394 139.42 89.6541 139.439 89.6763C139.458 89.6985 139.469 89.7268 139.469 89.756C139.469 89.7853 139.458 89.8135 139.439 89.8357V89.8357Z" fill="#9B3C82"/>
<path d="M131.669 89.4727C131.642 89.4727 131.614 89.4641 131.591 89.4481C131.568 89.4322 131.551 89.4095 131.541 89.3833C130.945 87.77 129.591 87.9243 129.534 87.9317C129.498 87.9365 129.461 87.9268 129.433 87.9047C129.404 87.8827 129.385 87.8501 129.38 87.8141C129.375 87.7782 129.385 87.7418 129.407 87.713C129.429 87.6842 129.462 87.6654 129.498 87.6606C129.514 87.6586 131.124 87.4652 131.798 89.2885C131.805 89.3092 131.808 89.3314 131.805 89.3533C131.802 89.3751 131.794 89.396 131.782 89.4141C131.769 89.4322 131.752 89.447 131.733 89.4572C131.713 89.4674 131.692 89.4727 131.669 89.4727Z" fill="#9B3C82"/>
<path d="M151.278 130.528C149.656 131.286 147.965 131.885 146.227 132.317L145.224 129.475C146.909 129.054 148.559 128.503 150.159 127.828C150.208 127.808 150.256 127.787 150.304 127.766L151.278 130.528Z" fill="#FFCF2D"/>
<path d="M136.63 98.4318C136.63 98.4318 139.396 98.3742 141.125 100.736C141.125 100.736 149.944 111.364 152.744 122.362C152.8 122.584 152.816 122.813 152.793 123.04C152.703 123.915 152.308 125.716 151.382 127.242C151.343 127.305 151.281 127.35 151.209 127.368C151.138 127.387 151.062 127.377 150.997 127.341L146.519 125.118C146.388 125.044 146.279 124.937 146.202 124.808C146.124 124.679 146.082 124.532 146.078 124.381C146.027 122.213 145.474 112.767 139.048 101.479C139.048 101.479 137.99 101.587 137.898 101.312C137.494 100.102 136.63 98.4318 136.63 98.4318Z" fill="#F94F46"/>
<path d="M139.021 101.765C138.987 101.765 138.953 101.752 138.928 101.728C138.903 101.705 138.887 101.672 138.885 101.638C138.883 101.603 138.894 101.569 138.916 101.542C138.937 101.515 138.969 101.498 139.003 101.493C139.76 101.383 140.486 101.116 141.134 100.709C141.164 100.689 141.201 100.682 141.236 100.688C141.271 100.695 141.303 100.716 141.323 100.745C141.343 100.775 141.351 100.812 141.345 100.847C141.338 100.882 141.318 100.914 141.289 100.935C140.607 101.368 139.84 101.651 139.04 101.764C139.034 101.765 139.028 101.765 139.021 101.765Z" fill="#66B0F0"/>
<path d="M163.942 73.0806C162.128 74.1971 161.124 75.8637 161.7 76.8034L162.586 78.2494C163.162 79.1888 165.1 79.0454 166.914 77.9289C168.728 76.8125 169.732 75.1458 169.156 74.2062L168.269 72.7602C167.693 71.8207 165.756 71.9642 163.942 73.0806Z" fill="#FFCF2D"/>
<path d="M163.101 77.6444C162.312 77.6444 161.722 77.3842 161.426 76.9002L161.662 76.7548C162.236 77.6918 164.18 77.5455 165.995 76.4287C167.809 75.3119 168.818 73.641 168.244 72.704L168.48 72.5586C168.805 73.0899 168.731 73.8155 168.271 74.6014C167.826 75.3603 167.069 76.0933 166.139 76.6655C165.21 77.2376 164.215 77.5825 163.339 77.6369C163.258 77.6419 163.179 77.6444 163.101 77.6444Z" fill="#9B3C82"/>
<path d="M166.163 76.4942L165.927 76.6396L166.783 78.0358L167.019 77.8904L166.163 76.4942Z" fill="#9B3C82"/>
<path d="M163.178 77.4388L162.942 77.5842L163.843 79.0551L164.08 78.9097L163.178 77.4388Z" fill="#9B3C82"/>
<path d="M164.793 77.1659L164.556 77.3113L165.443 78.7573L165.679 78.6118L164.793 77.1659Z" fill="#9B3C82"/>
<path d="M168.403 74.2228L168.167 74.3682L169.207 76.0635L169.443 75.9181L168.403 74.2228Z" fill="#9B3C82"/>
<path d="M167.431 75.5426L167.194 75.688L168.081 77.134L168.317 76.9886L167.431 75.5426Z" fill="#9B3C82"/>
<path d="M163.494 75.9619C163.286 75.9619 163.061 75.9533 162.819 75.936C162.782 75.9334 162.748 75.9163 162.724 75.8884C162.7 75.8606 162.688 75.8243 162.691 75.7875C162.693 75.7508 162.71 75.7166 162.738 75.6924C162.766 75.6683 162.802 75.6562 162.839 75.6588C164.263 75.7607 164.873 75.5323 164.968 75.2847C165.029 75.128 164.896 74.9013 164.612 74.678C164.242 74.3867 164.294 74.1367 164.358 74.0135C164.625 73.498 166.072 73.3504 166.957 73.6165C166.974 73.6217 166.991 73.6303 167.005 73.6418C167.019 73.6533 167.031 73.6675 167.04 73.6836C167.048 73.6997 167.054 73.7173 167.056 73.7355C167.057 73.7537 167.056 73.7721 167.05 73.7896C167.045 73.8072 167.037 73.8235 167.025 73.8376C167.013 73.8518 166.999 73.8635 166.983 73.8722C166.967 73.8808 166.949 73.8862 166.931 73.888C166.913 73.8897 166.895 73.8879 166.877 73.8826C166.019 73.6246 164.77 73.8196 164.604 74.1415C164.55 74.2452 164.672 74.3717 164.783 74.4596C165.179 74.7713 165.337 75.0999 165.227 75.3847C165.08 75.7655 164.485 75.9619 163.494 75.9619Z" fill="#9B3C82"/>
<path d="M163.179 76.6385C163.152 76.6385 163.126 76.6305 163.103 76.6155C163.08 76.6006 163.063 76.5793 163.052 76.5544C163.041 76.5294 163.038 76.5019 163.043 76.4751C163.048 76.4484 163.06 76.4236 163.079 76.4039L163.678 75.7722C163.69 75.7587 163.705 75.7478 163.722 75.7401C163.739 75.7325 163.757 75.7282 163.775 75.7276C163.793 75.727 163.812 75.7301 163.829 75.7366C163.846 75.7432 163.862 75.7531 163.875 75.7657C163.888 75.7784 163.899 75.7936 163.906 75.8105C163.914 75.8273 163.918 75.8455 163.918 75.8639C163.918 75.8823 163.915 75.9006 163.908 75.9177C163.902 75.9348 163.891 75.9504 163.879 75.9635L163.28 76.5953C163.267 76.6089 163.251 76.6198 163.234 76.6273C163.217 76.6347 163.198 76.6385 163.179 76.6385Z" fill="#9B3C82"/>
<path d="M165.906 73.7631C165.879 73.763 165.852 73.7551 165.83 73.7401C165.807 73.7252 165.789 73.7039 165.779 73.679C165.768 73.6541 165.765 73.6266 165.769 73.5999C165.774 73.5732 165.787 73.5485 165.805 73.5288L166.408 72.8928C166.421 72.8796 166.436 72.869 166.452 72.8616C166.469 72.8542 166.487 72.8501 166.505 72.8497C166.523 72.8492 166.541 72.8523 166.558 72.8589C166.575 72.8654 166.591 72.8753 166.604 72.8879C166.617 72.9004 166.628 72.9155 166.635 72.9322C166.643 72.9488 166.647 72.9668 166.647 72.985C166.648 73.0033 166.645 73.0214 166.638 73.0385C166.631 73.0555 166.622 73.0711 166.609 73.0843L166.006 73.7198C165.993 73.7335 165.978 73.7444 165.96 73.7519C165.943 73.7593 165.925 73.7631 165.906 73.7631Z" fill="#9B3C82"/>
<path d="M163.127 77.1516C162.564 77.1516 162.125 76.9799 161.909 76.6267C161.399 75.7958 162.339 74.3215 164.048 73.2699C165.757 72.2182 167.494 72.0453 168.003 72.8758C168.513 73.7065 167.573 75.181 165.864 76.2326C164.882 76.8373 163.89 77.1516 163.127 77.1516ZM166.798 72.6304C166.089 72.6304 165.12 72.936 164.193 73.5067C162.669 74.4444 161.731 75.8066 162.145 76.4813C162.559 77.1559 164.195 76.9337 165.719 75.9959C167.243 75.0581 168.181 73.6959 167.767 73.0212C167.605 72.757 167.255 72.6303 166.799 72.6303L166.798 72.6304Z" fill="#9B3C82"/>
<path d="M73.7204 189.95C73.6214 189.95 73.5242 189.923 73.4394 189.871C73.3545 189.82 73.2851 189.747 73.2387 189.66C73.1923 189.572 73.1705 189.474 73.1758 189.375C73.1811 189.276 73.2132 189.18 73.2687 189.098C77.5682 182.732 82.4777 173.667 87.093 163.574C91.9318 152.992 96.212 141.865 99.4707 131.396C99.5138 131.257 99.61 131.142 99.7382 131.075C99.8663 131.007 100.016 130.994 100.154 131.037C100.293 131.08 100.408 131.176 100.475 131.304C100.543 131.432 100.556 131.582 100.513 131.72C97.2407 142.233 92.9434 153.405 88.0857 164.029C83.4462 174.175 78.5054 183.295 74.1732 189.709C74.1232 189.783 74.0558 189.844 73.9768 189.886C73.8979 189.928 73.8098 189.95 73.7204 189.95Z" fill="#FC6151"/>
<path d="M101.114 127.58L93.0744 140.181C93.0447 140.228 93.0259 140.281 93.0197 140.336C93.0134 140.391 93.0198 140.446 93.0383 140.498C93.0568 140.551 93.087 140.598 93.1266 140.637C93.1661 140.675 93.2139 140.704 93.2665 140.722L100.027 142.961C100.079 142.978 100.135 142.983 100.19 142.976C100.245 142.968 100.297 142.948 100.343 142.918C100.389 142.887 100.427 142.846 100.455 142.798C100.483 142.75 100.499 142.697 100.503 142.642L101.571 127.731C101.575 127.676 101.56 127.621 101.53 127.575C101.499 127.529 101.454 127.495 101.401 127.478C101.349 127.46 101.292 127.461 101.24 127.479C101.188 127.498 101.143 127.533 101.114 127.58Z" fill="#FC6151"/>
<defs>
<filter id="filter0_d_117_1968" x="0" y="0" width="373" height="423" filterUnits="userSpaceOnUse" color-interpolation-filters="sRGB">
<feFlood flood-opacity="0" result="BackgroundImageFix"/>
<feColorMatrix in="SourceAlpha" type="matrix" values="0 0 0 0 0 0 0 0 0 0 0 0 0 0 0 0 0 0 127 0" result="hardAlpha"/>
<feOffset dy="6"/>
<feGaussianBlur stdDeviation="17.5"/>
<feComposite in2="hardAlpha" operator="out"/>
<feColorMatrix type="matrix" values="0 0 0 0 0 0 0 0 0 0.09283 0 0 0 0 0.1375 0 0 0 0.05 0"/>
<feBlend mode="normal" in2="BackgroundImageFix" result="effect1_dropShadow_117_1968"/>
<feBlend mode="normal" in="SourceGraphic" in2="effect1_dropShadow_117_1968" result="shape"/>
</filter>
</defs>
</svg>
