<svg width="50" height="50" viewBox="0 0 50 50" fill="none" xmlns="http://www.w3.org/2000/svg">
<g opacity="0.3">
<path d="M25.0001 4.16666C13.4938 4.16666 4.16675 13.4937 4.16675 25C4.16675 36.5062 13.4938 45.8333 25.0001 45.8333C36.5063 45.8333 45.8334 36.5062 45.8334 25C45.8334 13.4937 36.5063 4.16666 25.0001 4.16666ZM25.0001 8.33332C34.2043 8.33332 41.6668 15.7958 41.6668 25C41.6668 34.2042 34.2043 41.6667 25.0001 41.6667C15.7959 41.6667 8.33342 34.2042 8.33342 25C8.33342 15.7958 15.7959 8.33332 25.0001 8.33332ZM23.5271 15.1937L13.7208 25L23.5271 34.8063L26.4731 31.8603L21.696 27.0833H35.4167V22.9167H21.696L26.4731 18.1396L23.5271 15.1937Z" fill="black"/>
</g>
</svg>
