<svg width="50" height="50" viewBox="0 0 50 50" fill="none" xmlns="http://www.w3.org/2000/svg">
<g opacity="0.3">
<path d="M24.9999 4.16666C36.5062 4.16666 45.8333 13.4937 45.8333 25C45.8333 36.5062 36.5062 45.8333 24.9999 45.8333C13.4937 45.8333 4.16658 36.5062 4.16658 25C4.16658 13.4937 13.4937 4.16666 24.9999 4.16666ZM24.9999 8.33332C15.7957 8.33332 8.33325 15.7958 8.33325 25C8.33325 34.2042 15.7957 41.6667 24.9999 41.6667C34.2041 41.6667 41.6666 34.2042 41.6666 25C41.6666 15.7958 34.2041 8.33332 24.9999 8.33332ZM26.4729 15.1937L36.2792 25L26.4729 34.8063L23.5269 31.8603L28.304 27.0833H14.5833V22.9167H28.304L23.5269 18.1396L26.4729 15.1937Z" fill="black"/>
</g>
</svg>
