<svg width="61" height="61" viewBox="0 0 61 61" fill="none" xmlns="http://www.w3.org/2000/svg">
<path d="M25.2726 5.08329C24.6732 5.10565 24.0666 5.22277 23.4706 5.44071C21.084 6.30742 19.5988 8.51355 19.6929 11.0552C19.703 11.3272 19.569 11.4948 19.4546 11.5913C19.3377 11.6879 19.1505 11.7863 18.8887 11.7303C16.408 11.1915 13.9692 12.2745 12.6983 14.4755C11.4249 16.6766 11.7077 19.3211 13.4132 21.207C13.6038 21.4179 13.5973 21.6534 13.577 21.7729C13.549 21.9203 13.4684 22.1174 13.2295 22.2445C10.9827 23.434 9.81369 25.8221 10.2559 28.3256C10.6982 30.8292 12.612 32.6736 15.1308 33.0218C15.3951 33.0574 15.5436 33.2174 15.6173 33.3444C15.691 33.4715 15.7537 33.6786 15.652 33.9302C14.8704 35.8552 15.1758 37.9234 16.3718 39.51L9.8042 50.8333H18.7V50.8383L22.4877 59.1434L30.4602 45.8542L38.4327 59.1434L42.2204 50.8333H51.1162L44.5883 39.5795C45.8272 37.9847 46.1474 35.8861 45.3528 33.9302C45.2537 33.6811 45.3213 33.4741 45.3925 33.3444C45.4662 33.2174 45.6147 33.0574 45.879 33.0218C48.3978 32.6736 50.3116 30.8292 50.7538 28.3256C51.1961 25.8221 50.0271 23.434 47.7803 22.2445C47.5414 22.1174 47.4607 21.9203 47.4328 21.7729C47.4124 21.6534 47.406 21.4179 47.5966 21.207C49.3021 19.3211 49.5848 16.6792 48.3114 14.4755C47.0406 12.2719 44.5967 11.1941 42.1211 11.7303C41.8593 11.7863 41.6696 11.6879 41.5552 11.5913C41.4408 11.4948 41.3067 11.3246 41.3169 11.0552C41.4109 8.51609 39.9258 6.30996 37.5391 5.44071C35.15 4.57146 32.5942 5.3043 31.0311 7.31221C30.6981 7.73667 30.3116 7.73921 29.9787 7.31221C28.8044 5.80628 27.0709 5.01621 25.2726 5.08329ZM25.6201 10.1865C25.7466 10.2217 25.8623 10.3014 25.9626 10.4297C28.151 13.251 32.8437 13.2484 35.0372 10.4297C35.2354 10.1756 35.4918 10.102 35.7917 10.2113C36.0942 10.3206 36.2437 10.5414 36.2336 10.8616C36.1675 12.6459 36.9138 14.3295 38.2838 15.4783C39.6512 16.6271 41.4322 17.0707 43.1834 16.6945C43.5062 16.6259 43.7406 16.7352 43.9032 17.0122C44.0659 17.2918 44.0349 17.5577 43.8188 17.7966C42.6192 19.1233 42.1089 20.8902 42.4189 22.6516C42.7316 24.4104 43.8141 25.9034 45.3925 26.7371C45.6797 26.8871 45.7959 27.1243 45.74 27.442C45.6841 27.7597 45.4918 27.9399 45.1741 27.9831C43.4025 28.2297 41.874 29.2599 40.9793 30.8077C40.0872 32.3531 39.9633 34.1893 40.6368 35.8414C40.7588 36.1388 40.6947 36.3975 40.4482 36.6059C40.1991 36.8118 39.9307 36.8308 39.6638 36.6605C38.1464 35.7099 36.3201 35.5144 34.6401 36.1244C32.9626 36.7369 31.6819 38.0602 31.1304 39.7631C30.9372 40.3782 30.0628 40.3782 29.8645 39.7631C29.3155 38.0628 28.0373 36.7394 26.3598 36.1294C25.7142 35.893 25.0524 35.7769 24.389 35.7769C23.3266 35.7769 22.2712 36.0758 21.341 36.6655C21.0665 36.8383 20.8083 36.8193 20.5566 36.6109C20.3126 36.4025 20.2436 36.1462 20.363 35.8514C21.0366 34.1967 20.9126 32.3556 20.0205 30.8077C19.1284 29.2573 17.5973 28.2346 15.8258 27.9881C15.5081 27.9449 15.3182 27.7597 15.2648 27.442C15.2089 27.1269 15.3227 26.8896 15.6073 26.7371C17.1857 25.9034 18.2683 24.4154 18.5809 22.6565C18.891 20.8952 18.3856 19.1258 17.186 17.8016C16.9699 17.5601 16.9414 17.2968 17.1016 17.0172C17.2642 16.7402 17.4911 16.6283 17.8164 16.6995C19.5702 17.0808 21.3486 16.6346 22.7161 15.4833C24.0886 14.337 24.8324 12.6534 24.7663 10.8666C24.7561 10.5438 24.9056 10.3231 25.2081 10.2113C25.3568 10.1579 25.4937 10.1512 25.6201 10.1865ZM35.057 19.0625L29.2291 24.8904L25.9428 21.6041L22.3487 25.2032L29.2291 32.0835L38.6511 22.6615L35.057 19.0625ZM24.3642 40.8602C24.4633 40.8564 24.5511 40.8795 24.6223 40.9049C24.7621 40.9557 24.948 41.0702 25.0294 41.3269C25.2657 42.0597 25.6365 42.7015 26.0967 43.2579L23.0238 48.376C22.1253 46.8139 20.5287 45.75 18.7 45.75H18.6305L20.8892 41.8481C21.9671 41.8639 23.0562 41.5838 24.0415 40.9645C24.1559 40.8933 24.2651 40.864 24.3642 40.8602ZM36.6456 40.8602C36.7447 40.864 36.8563 40.8908 36.9732 40.9645C37.9291 41.5644 38.9784 41.8465 40.0262 41.8481L42.2899 45.75H42.2204C40.3938 45.75 38.7955 46.8107 37.8966 48.376L34.8585 43.3125C35.3423 42.7444 35.733 42.0842 35.9804 41.3269C36.0643 41.0702 36.2502 40.9557 36.3875 40.9049C36.4561 40.8795 36.5465 40.8564 36.6456 40.8602Z" fill="#098ECE"/>
</svg>
