<svg width="104" height="103" viewBox="0 0 104 103" fill="none" xmlns="http://www.w3.org/2000/svg">
<path d="M60.8199 17.2086C58.9158 17.2258 57.0198 17.6421 55.2541 18.4575L48.6657 21.5002C48.4381 21.4679 48.2083 21.4539 47.9784 21.4583H9.35339V64.375H13.6451L39.722 87.1912C41.8598 89.0652 44.6124 90.0915 47.4503 90.0915C50.5558 90.0915 53.5481 88.847 55.7403 86.6548H55.7487L69.3948 72.9583C69.4088 72.9584 69.4228 72.9584 69.4367 72.9583H99.4784V19.7987L82.5213 25.4482L66.4108 18.3569C64.6296 17.573 62.7239 17.1913 60.8199 17.2086ZM60.8953 25.7919C61.5954 25.7843 62.3008 25.9221 62.9573 26.211L82.1022 34.6351L90.8951 31.7097V64.375H77.9446L78.7577 63.5619C83.6134 58.693 83.3235 50.5738 78.1458 46.0516L61.7419 31.7265L47.8862 36.7809H47.8778C45.9289 37.4914 43.8391 36.6698 42.882 34.8279L42.3791 33.8639L58.8501 26.2529C59.5006 25.9525 60.1952 25.7995 60.8953 25.7919ZM17.9367 30.0417H30.7195L35.2627 38.7843C38.1767 44.3927 44.881 47.0095 50.8199 44.8446L59.9146 41.5252L72.5046 52.5142C74.0391 53.8544 74.1165 56.0618 72.6806 57.5016H72.6722L49.6716 80.5861C49.057 81.2006 48.3189 81.5081 47.4503 81.5081C46.6833 81.5081 45.9544 81.2406 45.3799 80.737L17.9367 56.7221V30.0417Z" fill="#098ECE"/>
</svg>
