<svg width="61" height="61" viewBox="0 0 61 61" fill="none" xmlns="http://www.w3.org/2000/svg">
<path d="M25.4166 5.08331C22.8295 5.08331 20.7183 7.02179 20.3978 9.5213L10.2609 18.442C6.97095 21.3355 5.08325 25.5083 5.08325 29.8894V43.2083C5.08325 47.3893 8.52729 50.8333 12.7083 50.8333H20.3333C20.3333 53.6419 22.608 55.9166 25.4166 55.9166H45.7499C48.5585 55.9166 50.8333 53.6419 50.8333 50.8333V48.2916H25.4166V29.2937L29.0653 23.153C31.0065 19.8886 30.9185 15.8778 29.0404 12.7083H45.7499V15.25H50.8333V10.1666C50.8333 7.3581 48.5585 5.08331 45.7499 5.08331H25.4166ZM23.3564 13.6863L24.0018 14.3664C25.6034 16.0484 25.8841 18.5602 24.6968 20.5567L20.3333 27.8938V45.75H12.7083C11.2721 45.75 10.1666 44.6444 10.1666 43.2083V29.8894C10.1666 26.9657 11.4217 24.1899 13.6167 22.2594L23.3564 13.6863ZM43.2083 17.7916V22.875H53.3749V17.7916H43.2083ZM40.6666 25.4166V30.5H55.9166V25.4166H40.6666ZM40.6666 33.0416V38.125H55.9166V33.0416H40.6666ZM43.2083 40.6666V45.75H53.3749V40.6666H43.2083Z" fill="#098ECE"/>
</svg>
