<svg width="18" height="18" viewBox="0 0 18 18" fill="none" xmlns="http://www.w3.org/2000/svg">
<path d="M9 2.25C5.69517 2.25 3 4.94517 3 8.25V9C2.175 9 1.5 9.675 1.5 10.5V12C1.5 12.825 2.175 13.5 3 13.5H4.5V9.75V9V8.25C4.5 5.75583 6.50583 3.75 9 3.75C11.4942 3.75 13.5 5.75583 13.5 8.25V9V9.75V13.5V14.25H10.4341C10.3566 14.0309 10.2132 13.8412 10.0236 13.7069C9.83395 13.5726 9.60738 13.5003 9.375 13.5C9.07663 13.5 8.79048 13.6185 8.57951 13.8295C8.36853 14.0405 8.25 14.3266 8.25 14.625C8.25038 14.9092 8.35828 15.1827 8.55203 15.3905C8.74577 15.5984 9.011 15.7253 9.29443 15.7456C9.32119 15.7485 9.34809 15.75 9.375 15.75H13.5C14.3198 15.75 15 15.0698 15 14.25V13.5C15.825 13.5 16.5 12.825 16.5 12V10.5C16.5 9.675 15.825 9 15 9V8.25C15 4.94517 12.3048 2.25 9 2.25Z" fill="white"/>
</svg>
