<svg width="11" height="9" viewBox="0 0 11 9" fill="none" xmlns="http://www.w3.org/2000/svg">
<path d="M9.65534 0.494333C9.50379 0.498849 9.35995 0.562187 9.2543 0.670928L3.25007 6.67516L1.32917 4.75426C1.27542 4.69828 1.21104 4.65358 1.1398 4.62279C1.06855 4.592 0.991885 4.57573 0.914278 4.57494C0.836671 4.57415 0.759686 4.58885 0.687833 4.61819C0.61598 4.64753 0.550702 4.6909 0.495823 4.74578C0.440943 4.80066 0.397566 4.86594 0.368231 4.93779C0.338895 5.00965 0.324192 5.08663 0.324981 5.16424C0.325771 5.24184 0.342038 5.31851 0.372829 5.38976C0.40362 5.461 0.448317 5.52538 0.504301 5.57913L2.83763 7.91246C2.94703 8.02182 3.09539 8.08325 3.25007 8.08325C3.40475 8.08325 3.5531 8.02182 3.6625 7.91246L10.0792 1.4958C10.1635 1.41386 10.221 1.30837 10.2443 1.19315C10.2677 1.07793 10.2556 0.958357 10.2098 0.850099C10.164 0.741841 10.0865 0.649948 9.98759 0.586465C9.88865 0.522981 9.77284 0.490868 9.65534 0.494333Z" fill="white"/>
</svg>
