<svg width="16" height="16" viewBox="0 0 16 16" fill="none" xmlns="http://www.w3.org/2000/svg">
<path d="M12.8 2.13336H3.19997C2.61063 2.13336 2.1333 2.6107 2.1333 3.20003V12.8C2.1333 13.3894 2.61063 13.8667 3.19997 13.8667H12.8C13.3893 13.8667 13.8666 13.3894 13.8666 12.8V3.20003C13.8666 2.6107 13.3893 2.13336 12.8 2.13336ZM5.8421 11.7334H4.26877V6.67096H5.8421V11.7334ZM5.03943 5.94723C4.53223 5.94723 4.1221 5.53603 4.1221 5.02989C4.1221 4.52376 4.53277 4.11309 5.03943 4.11309C5.54503 4.11309 5.95623 4.52429 5.95623 5.02989C5.95623 5.53603 5.54503 5.94723 5.03943 5.94723ZM11.7354 11.7334H10.1632V9.27149C10.1632 8.68429 10.1525 7.92909 9.34557 7.92909C8.5269 7.92909 8.40103 8.56856 8.40103 9.22883V11.7334H6.82877V6.67096H8.3381V7.36269H8.35943C8.56957 6.96483 9.08263 6.54509 9.84797 6.54509C11.441 6.54509 11.7354 7.59363 11.7354 8.95683V11.7334Z" fill="white"/>
</svg>
