<svg width="103" height="103" viewBox="0 0 103 103" fill="none" xmlns="http://www.w3.org/2000/svg">
<path d="M36.4791 8.5835C35.91 8.5835 35.3642 8.80957 34.9618 9.212C34.5594 9.61442 34.3333 10.1602 34.3333 10.7293C34.3333 11.2984 34.5594 11.8442 34.9618 12.2467C35.3642 12.6491 35.91 12.8752 36.4791 12.8752C37.0482 12.8752 37.594 12.6491 37.9965 12.2467C38.3989 11.8442 38.625 11.2984 38.625 10.7293C38.625 10.1602 38.3989 9.61442 37.9965 9.212C37.594 8.80957 37.0482 8.5835 36.4791 8.5835V8.5835ZM66.5208 8.5835C65.9517 8.5835 65.4059 8.80957 65.0035 9.212C64.601 9.61442 64.375 10.1602 64.375 10.7293C64.375 11.2984 64.601 11.8442 65.0035 12.2467C65.4059 12.6491 65.9517 12.8752 66.5208 12.8752C67.0899 12.8752 67.6357 12.6491 68.0381 12.2467C68.4405 11.8442 68.6666 11.2984 68.6666 10.7293C68.6666 10.1602 68.4405 9.61442 68.0381 9.212C67.6357 8.80957 67.0899 8.5835 66.5208 8.5835V8.5835ZM51.5 12.8752C49.2235 12.8752 47.0403 13.7795 45.4306 15.3892C43.8209 16.9988 42.9166 19.1821 42.9166 21.4585C42.9193 22.9626 43.3172 24.4396 44.0704 25.7416C44.8236 27.0435 45.9057 28.1247 47.2083 28.8767V34.3335C47.2083 36.7025 49.131 38.6252 51.5 38.6252C53.869 38.6252 55.7916 36.7025 55.7916 34.3335V28.8851C57.0955 28.1323 58.1784 27.0498 58.9316 25.7463C59.6849 24.4428 60.0821 22.964 60.0833 21.4585C60.0833 19.1821 59.179 16.9988 57.5693 15.3892C55.9596 13.7795 53.7764 12.8752 51.5 12.8752ZM32.1875 17.1668C31.6183 17.1668 31.0725 17.3929 30.6701 17.7953C30.2677 18.1978 30.0416 18.7436 30.0416 19.3127C30.0416 19.8818 30.2677 20.4276 30.6701 20.83C31.0725 21.2324 31.6183 21.4585 32.1875 21.4585C32.7566 21.4585 33.3024 21.2324 33.7048 20.83C34.1072 20.4276 34.3333 19.8818 34.3333 19.3127C34.3333 18.7436 34.1072 18.1978 33.7048 17.7953C33.3024 17.3929 32.7566 17.1668 32.1875 17.1668ZM70.8125 17.1668C70.2433 17.1668 69.6975 17.3929 69.2951 17.7953C68.8927 18.1978 68.6666 18.7436 68.6666 19.3127C68.6666 19.8818 68.8927 20.4276 69.2951 20.83C69.6975 21.2324 70.2433 21.4585 70.8125 21.4585C71.3816 21.4585 71.9274 21.2324 72.3298 20.83C72.7322 20.4276 72.9583 19.8818 72.9583 19.3127C72.9583 18.7436 72.7322 18.1978 72.3298 17.7953C71.9274 17.3929 71.3816 17.1668 70.8125 17.1668ZM30.0416 30.0418C22.9818 30.0418 17.1666 35.857 17.1666 42.9168C17.1666 49.9767 22.9818 55.7918 30.0416 55.7918C37.1015 55.7918 42.9166 49.9767 42.9166 42.9168C42.9166 35.857 37.1015 30.0418 30.0416 30.0418ZM72.9583 30.0418C65.8985 30.0418 60.0833 35.857 60.0833 42.9168C60.0833 49.9767 65.8985 55.7918 72.9583 55.7918C80.0181 55.7918 85.8333 49.9767 85.8333 42.9168C85.8333 35.857 80.0181 30.0418 72.9583 30.0418ZM30.0416 38.6252C32.4627 38.6252 34.3333 40.4958 34.3333 42.9168C34.3333 45.3379 32.4627 47.2085 30.0416 47.2085C27.6206 47.2085 25.75 45.3379 25.75 42.9168C25.75 40.4958 27.6206 38.6252 30.0416 38.6252ZM72.9583 38.6252C75.3793 38.6252 77.25 40.4958 77.25 42.9168C77.25 45.3379 75.3793 47.2085 72.9583 47.2085C70.5372 47.2085 68.6666 45.3379 68.6666 42.9168C68.6666 40.4958 70.5372 38.6252 72.9583 38.6252ZM30.0416 64.3752C23.7052 64.3752 17.8757 65.3732 13.2186 67.376C10.8901 68.3773 8.82866 69.6316 7.17509 71.3743C5.52152 73.117 4.29163 75.5364 4.29163 78.1806V90.1252H55.7916H98.7083V85.8335V78.1806C98.7083 75.5364 97.4784 73.117 95.8248 71.3743C94.1713 69.6316 92.1098 68.3773 89.7813 67.376C85.1242 65.3732 79.2947 64.3752 72.9583 64.3752C66.6219 64.3752 60.7923 65.3732 56.1353 67.376C54.4258 68.1111 52.8658 68.9908 51.5 70.0918C50.1341 68.9908 48.5741 68.1111 46.8646 67.376C42.2076 65.3732 36.378 64.3752 30.0416 64.3752ZM30.0416 72.9585C35.4257 72.9585 40.3279 73.9124 43.4698 75.2636C45.0408 75.9392 46.1417 76.7161 46.6802 77.2837C47.2187 77.8512 47.2083 78.018 47.2083 78.1806V81.5418H12.875V78.1806C12.875 78.018 12.8645 77.8512 13.403 77.2837C13.9416 76.7161 15.0424 75.9392 16.6134 75.2636C19.7554 73.9124 24.6575 72.9585 30.0416 72.9585ZM72.9583 72.9585C78.3424 72.9585 83.2445 73.9124 86.3865 75.2636C87.9575 75.9392 89.0583 76.7161 89.5969 77.2837C90.1354 77.8512 90.125 78.018 90.125 78.1806V81.5418H55.7916V78.1806C55.7916 78.018 55.7813 77.8512 56.3197 77.2837C56.8582 76.7161 57.9591 75.9392 59.5301 75.2636C62.6721 73.9124 67.5742 72.9585 72.9583 72.9585Z" fill="#098ECE"/>
</svg>
