<svg width="61" height="61" viewBox="0 0 61 61" fill="none" xmlns="http://www.w3.org/2000/svg">
<path d="M36.0103 2.54169L19.276 19.3058C18.3302 20.2542 17.797 21.5376 17.7917 22.875H2.54175V53.375H17.7917C18.7221 53.375 19.5835 53.1061 20.3334 52.6701C21.0834 53.1061 21.9447 53.375 22.8751 53.375H45.7302C47.761 53.375 49.5984 52.1653 50.4015 50.2972L58.0464 32.5006C58.3183 31.8677 58.4584 31.1838 58.4584 30.4951V25.4167C58.4584 22.6081 56.1836 20.3334 53.3751 20.3334H37.2315L39.6143 9.41213C39.9854 7.70667 39.4549 5.93358 38.2095 4.71104L36.0103 2.54169ZM33.8708 11.8793L32.2673 19.2512L30.927 25.4167H37.2365H53.3751V30.4951L45.7302 48.2917H22.8751V27.9584V22.8949L33.8708 11.8793ZM7.62508 27.9584H17.7917V48.2917H7.62508V27.9584Z" fill="#098ECE"/>
</svg>
