<svg width="61" height="61" viewBox="0 0 61 61" fill="none" xmlns="http://www.w3.org/2000/svg">
<path d="M15.25 5.08325C13.9018 5.08325 12.6089 5.61882 11.6555 6.57213C10.7022 7.52544 10.1667 8.8184 10.1667 10.1666C10.1667 11.5148 10.7022 12.8077 11.6555 13.761C12.6089 14.7144 13.9018 15.2499 15.25 15.2499C16.5982 15.2499 17.8912 14.7144 18.8445 13.761C19.7978 12.8077 20.3333 11.5148 20.3333 10.1666C20.3333 8.8184 19.7978 7.52544 18.8445 6.57213C17.8912 5.61882 16.5982 5.08325 15.25 5.08325ZM25.4167 7.62492V12.7083H48.2917V35.5833H27.9583V40.6666H33.9054L40.4433 55.9166H45.9734L39.4355 40.6666H49.5625C51.6645 40.6666 53.375 38.956 53.375 36.8541V11.4374C53.375 9.33546 51.6645 7.62492 49.5625 7.62492H25.4167ZM12.7083 17.7916C9.89979 17.7916 7.625 20.0664 7.625 22.8749V40.6666V55.9166H12.7083V40.6666H17.7917V55.9166H22.875V38.1249V22.8749H38.125V17.7916H22.875H12.7083ZM12.7083 22.8749H17.7917V35.5833H12.7083V22.8749Z" fill="#098ECE"/>
</svg>
