<svg width="16" height="16" viewBox="0 0 16 16" fill="none" xmlns="http://www.w3.org/2000/svg">
<path d="M14.9334 3.69971C14.423 3.92638 13.8747 4.07891 13.2992 4.14771C13.887 3.79571 14.3376 3.23838 14.5499 2.57384C14.0006 2.89971 13.3915 3.13651 12.743 3.26451C12.224 2.71144 11.4848 2.36584 10.6667 2.36584C9.09549 2.36584 7.82189 3.63998 7.82189 5.21064C7.82189 5.43358 7.84749 5.65118 7.89549 5.85864C5.53123 5.74024 3.43523 4.60744 2.0315 2.88584C1.78723 3.30611 1.64696 3.79464 1.64696 4.31678C1.64696 5.30344 2.14883 6.17438 2.91203 6.68424C2.4459 6.66931 2.00696 6.54131 1.6235 6.32851C1.6235 6.34078 1.6235 6.35198 1.6235 6.36424C1.6235 7.74291 2.60376 8.89278 3.90563 9.15358C3.66723 9.21864 3.41549 9.25331 3.15576 9.25331C2.97283 9.25331 2.79416 9.23518 2.62083 9.20264C2.98296 10.3328 4.03363 11.1557 5.27843 11.1786C4.30509 11.9418 3.07843 12.3968 1.7451 12.3968C1.51576 12.3968 1.2891 12.3834 1.06616 12.3568C2.32536 13.1637 3.8203 13.6346 5.42723 13.6346C10.6603 13.6346 13.5211 9.29971 13.5211 5.54024C13.5211 5.41704 13.5184 5.29438 13.5131 5.17224C14.0694 4.77064 14.552 4.26984 14.9334 3.69971Z" fill="white"/>
</svg>
