<svg width="664" height="304" viewBox="0 0 664 304" fill="none" xmlns="http://www.w3.org/2000/svg">
<path d="M326.78 230.96H330.5V243H332.78V230.96H336.48V229.1H326.78V230.96ZM341.069 237.2C341.069 234.86 342.109 234.16 343.789 234.16H344.369V231.8C342.809 231.8 341.709 232.48 341.069 233.58V231.98H338.789V243H341.069V237.2ZM345.705 237.44C345.705 240.84 348.005 243.18 350.865 243.18C352.705 243.18 354.025 242.3 354.725 241.36V243H357.025V231.98H354.725V233.58C354.045 232.68 352.765 231.8 350.905 231.8C348.005 231.8 345.705 234.04 345.705 237.44ZM354.725 237.48C354.725 239.86 353.105 241.2 351.385 241.2C349.685 241.2 348.045 239.82 348.045 237.44C348.045 235.06 349.685 233.78 351.385 233.78C353.105 233.78 354.725 235.12 354.725 237.48ZM360.02 243H362.3V231.98H360.02V243ZM361.18 230.52C361.98 230.52 362.62 229.88 362.62 229.06C362.62 228.24 361.98 227.6 361.18 227.6C360.36 227.6 359.72 228.24 359.72 229.06C359.72 229.88 360.36 230.52 361.18 230.52ZM373.113 243H375.373V236.5C375.373 233.42 373.433 231.8 370.853 231.8C369.533 231.8 368.313 232.34 367.573 233.24V231.98H365.293V243H367.573V236.84C367.573 234.82 368.673 233.78 370.353 233.78C372.013 233.78 373.113 234.82 373.113 236.84V243ZM382.921 233.72C384.621 233.72 385.961 234.8 386.001 236.5H379.901C380.141 234.76 381.381 233.72 382.921 233.72ZM388.081 239.72H385.621C385.201 240.58 384.421 241.26 383.021 241.26C381.341 241.26 380.041 240.16 379.881 238.34H388.301C388.361 237.96 388.381 237.6 388.381 237.22C388.381 233.98 386.161 231.8 383.021 231.8C379.761 231.8 377.521 234.02 377.521 237.48C377.521 240.94 379.861 243.18 383.021 243.18C385.721 243.18 387.461 241.64 388.081 239.72ZM389.865 237.44C389.865 240.84 392.165 243.18 395.065 243.18C396.865 243.18 398.185 242.34 398.885 241.34V243H401.185V228.2H398.885V233.52C398.045 232.48 396.525 231.8 395.085 231.8C392.165 231.8 389.865 234.04 389.865 237.44ZM398.885 237.48C398.885 239.86 397.265 241.2 395.545 241.2C393.845 241.2 392.205 239.82 392.205 237.44C392.205 235.06 393.845 233.78 395.545 233.78C397.265 233.78 398.885 235.12 398.885 237.48ZM408.615 237.44C408.615 240.84 410.915 243.18 413.775 243.18C415.615 243.18 416.935 242.3 417.635 241.36V243H419.935V231.98H417.635V233.58C416.955 232.68 415.675 231.8 413.815 231.8C410.915 231.8 408.615 234.04 408.615 237.44ZM417.635 237.48C417.635 239.86 416.015 241.2 414.295 241.2C412.595 241.2 410.955 239.82 410.955 237.44C410.955 235.06 412.595 233.78 414.295 233.78C416.015 233.78 417.635 235.12 417.635 237.48ZM432.91 231.98H430.63V238.12C430.63 240.14 429.53 241.18 427.85 241.18C426.19 241.18 425.09 240.14 425.09 238.12V231.98H422.83V238.46C422.83 241.54 424.79 243.16 427.37 243.16C428.67 243.16 429.91 242.62 430.63 241.68V243H432.91V231.98ZM436.278 239.94C436.278 242.18 437.498 243 439.458 243H441.258V241.1H439.858C438.898 241.1 438.578 240.76 438.578 239.94V233.84H441.258V231.98H438.578V229.24H436.278V231.98H434.978V233.84H436.278V239.94ZM453.859 237.48C453.859 234.02 451.379 231.8 448.239 231.8C445.099 231.8 442.619 234.02 442.619 237.48C442.619 240.94 444.999 243.18 448.139 243.18C451.299 243.18 453.859 240.94 453.859 237.48ZM444.939 237.48C444.939 234.98 446.479 233.78 448.199 233.78C449.899 233.78 451.519 234.98 451.519 237.48C451.519 239.98 449.839 241.2 448.139 241.2C446.419 241.2 444.939 239.98 444.939 237.48ZM471.733 243H473.993V236.5C473.993 233.42 472.033 231.8 469.453 231.8C467.853 231.8 466.293 232.64 465.613 233.98C464.853 232.54 463.393 231.8 461.653 231.8C460.333 231.8 459.133 232.34 458.393 233.24V231.98H456.113V243H458.393V236.84C458.393 234.82 459.493 233.78 461.173 233.78C462.833 233.78 463.933 234.82 463.933 236.84V243H466.193V236.84C466.193 234.82 467.293 233.78 468.973 233.78C470.633 233.78 471.733 234.82 471.733 236.84V243ZM487.395 237.48C487.395 234.02 484.915 231.8 481.775 231.8C478.635 231.8 476.155 234.02 476.155 237.48C476.155 240.94 478.535 243.18 481.675 243.18C484.835 243.18 487.395 240.94 487.395 237.48ZM478.475 237.48C478.475 234.98 480.015 233.78 481.735 233.78C483.435 233.78 485.055 234.98 485.055 237.48C485.055 239.98 483.375 241.2 481.675 241.2C479.955 241.2 478.475 239.98 478.475 237.48ZM490.008 239.94C490.008 242.18 491.228 243 493.188 243H494.988V241.1H493.588C492.628 241.1 492.308 240.76 492.308 239.94V233.84H494.988V231.98H492.308V229.24H490.008V231.98H488.708V233.84H490.008V239.94ZM497.09 243H499.37V231.98H497.09V243ZM498.25 230.52C499.05 230.52 499.69 229.88 499.69 229.06C499.69 228.24 499.05 227.6 498.25 227.6C497.43 227.6 496.79 228.24 496.79 229.06C496.79 229.88 497.43 230.52 498.25 230.52ZM501.063 231.98L505.243 243H507.963L512.163 231.98H509.743L506.623 240.96L503.503 231.98H501.063ZM518.527 233.72C520.227 233.72 521.567 234.8 521.607 236.5H515.507C515.747 234.76 516.987 233.72 518.527 233.72ZM523.687 239.72H521.227C520.807 240.58 520.027 241.26 518.627 241.26C516.947 241.26 515.647 240.16 515.487 238.34H523.907C523.967 237.96 523.987 237.6 523.987 237.22C523.987 233.98 521.767 231.8 518.627 231.8C515.367 231.8 513.127 234.02 513.127 237.48C513.127 240.94 515.467 243.18 518.627 243.18C521.327 243.18 523.067 241.64 523.687 239.72ZM540.266 232.2C540.406 230.3 539.106 228.78 536.686 228.78C534.306 228.78 532.826 230.16 532.826 231.98C532.826 232.96 533.106 233.7 533.886 234.64C531.686 235.54 530.626 237.12 530.626 239C530.626 241.6 532.626 243.26 535.626 243.26C537.566 243.26 539.106 242.62 540.446 241.28L542.166 243H545.146L541.766 239.64C541.926 239.38 542.106 239.1 542.266 238.82L544.066 235.74H541.606L540.186 238.08L536.506 234.42C535.526 233.36 535.106 232.74 535.106 231.98C535.106 231.24 535.686 230.64 536.586 230.64C537.446 230.64 538.026 231.18 537.986 232.2H540.266ZM535.626 241.32C533.986 241.32 532.906 240.26 532.906 238.92C532.906 237.68 533.646 236.72 535.266 236.08L538.946 239.78C537.986 240.8 536.926 241.32 535.626 241.32ZM551.836 243H554.116V228.2H551.836V243ZM567.609 237.48C567.609 234.02 565.129 231.8 561.989 231.8C558.849 231.8 556.369 234.02 556.369 237.48C556.369 240.94 558.749 243.18 561.889 243.18C565.049 243.18 567.609 240.94 567.609 237.48ZM558.689 237.48C558.689 234.98 560.229 233.78 561.949 233.78C563.649 233.78 565.269 234.98 565.269 237.48C565.269 239.98 563.589 241.2 561.889 241.2C560.169 241.2 558.689 239.98 558.689 237.48ZM569.103 237.48C569.103 240.94 571.343 243.18 574.503 243.18C577.203 243.18 578.963 241.68 579.583 239.52H577.123C576.703 240.66 575.863 241.26 574.503 241.26C572.663 241.26 571.443 239.9 571.443 237.48C571.443 235.08 572.663 233.72 574.503 233.72C575.863 233.72 576.743 234.4 577.123 235.46H579.583C578.963 233.14 577.203 231.8 574.503 231.8C571.343 231.8 569.103 234.04 569.103 237.48ZM592.355 237.48C592.355 234.02 589.875 231.8 586.735 231.8C583.595 231.8 581.115 234.02 581.115 237.48C581.115 240.94 583.495 243.18 586.635 243.18C589.795 243.18 592.355 240.94 592.355 237.48ZM583.435 237.48C583.435 234.98 584.975 233.78 586.695 233.78C588.395 233.78 590.015 234.98 590.015 237.48C590.015 239.98 588.335 241.2 586.635 241.2C584.915 241.2 583.435 239.98 583.435 237.48ZM610.229 243H612.489V236.5C612.489 233.42 610.529 231.8 607.949 231.8C606.349 231.8 604.789 232.64 604.109 233.98C603.349 232.54 601.889 231.8 600.149 231.8C598.829 231.8 597.629 232.34 596.889 233.24V231.98H594.609V243H596.889V236.84C596.889 234.82 597.989 233.78 599.669 233.78C601.329 233.78 602.429 234.82 602.429 236.84V243H604.689V236.84C604.689 234.82 605.789 233.78 607.469 233.78C609.129 233.78 610.229 234.82 610.229 236.84V243ZM625.891 237.48C625.891 234.02 623.411 231.8 620.271 231.8C617.131 231.8 614.651 234.02 614.651 237.48C614.651 240.94 617.031 243.18 620.171 243.18C623.331 243.18 625.891 240.94 625.891 237.48ZM616.971 237.48C616.971 234.98 618.511 233.78 620.231 233.78C621.931 233.78 623.551 234.98 623.551 237.48C623.551 239.98 621.871 241.2 620.171 241.2C618.451 241.2 616.971 239.98 616.971 237.48ZM628.505 239.94C628.505 242.18 629.725 243 631.685 243H633.485V241.1H632.085C631.125 241.1 630.805 240.76 630.805 239.94V233.84H633.485V231.98H630.805V229.24H628.505V231.98H627.205V233.84H628.505V239.94ZM635.586 243H637.866V231.98H635.586V243ZM636.746 230.52C637.546 230.52 638.186 229.88 638.186 229.06C638.186 228.24 637.546 227.6 636.746 227.6C635.926 227.6 635.286 228.24 635.286 229.06C635.286 229.88 635.926 230.52 636.746 230.52ZM639.559 231.98L643.739 243H646.459L650.659 231.98H648.239L645.119 240.96L641.999 231.98H639.559ZM657.023 233.72C658.723 233.72 660.063 234.8 660.103 236.5H654.003C654.243 234.76 655.483 233.72 657.023 233.72ZM662.183 239.72H659.723C659.303 240.58 658.523 241.26 657.123 241.26C655.443 241.26 654.143 240.16 653.983 238.34H662.403C662.463 237.96 662.483 237.6 662.483 237.22C662.483 233.98 660.263 231.8 657.123 231.8C653.863 231.8 651.623 234.02 651.623 237.48C651.623 240.94 653.963 243.18 657.123 243.18C659.823 243.18 661.563 241.64 662.183 239.72ZM335.72 269.92C335.6 265.94 329.38 267.18 329.38 264.96C329.38 264.22 330.02 263.72 331.24 263.72C332.48 263.72 333.22 264.38 333.3 265.34H335.58C335.46 263.14 333.82 261.8 331.32 261.8C328.72 261.8 327.08 263.22 327.08 264.98C327.08 269.02 333.48 267.78 333.48 269.94C333.48 270.7 332.78 271.26 331.46 271.26C330.2 271.26 329.34 270.52 329.26 269.62H326.9C327 271.62 328.86 273.18 331.5 273.18C334.1 273.18 335.72 271.78 335.72 269.92ZM342.824 263.72C344.524 263.72 345.864 264.8 345.904 266.5H339.804C340.044 264.76 341.284 263.72 342.824 263.72ZM347.984 269.72H345.524C345.104 270.58 344.324 271.26 342.924 271.26C341.244 271.26 339.944 270.16 339.784 268.34H348.204C348.264 267.96 348.284 267.6 348.284 267.22C348.284 263.98 346.064 261.8 342.924 261.8C339.664 261.8 337.424 264.02 337.424 267.48C337.424 270.94 339.764 273.18 342.924 273.18C345.624 273.18 347.364 271.64 347.984 269.72ZM352.807 267.2C352.807 264.86 353.847 264.16 355.527 264.16H356.107V261.8C354.547 261.8 353.447 262.48 352.807 263.58V261.98H350.527V273H352.807V267.2ZM356.903 261.98L361.083 273H363.803L368.003 261.98H365.583L362.463 270.96L359.343 261.98H356.903ZM369.727 273H372.007V261.98H369.727V273ZM370.887 260.52C371.687 260.52 372.327 259.88 372.327 259.06C372.327 258.24 371.687 257.6 370.887 257.6C370.067 257.6 369.427 258.24 369.427 259.06C369.427 259.88 370.067 260.52 370.887 260.52ZM374.24 267.48C374.24 270.94 376.48 273.18 379.64 273.18C382.34 273.18 384.1 271.68 384.72 269.52H382.26C381.84 270.66 381 271.26 379.64 271.26C377.8 271.26 376.58 269.9 376.58 267.48C376.58 265.08 377.8 263.72 379.64 263.72C381 263.72 381.88 264.4 382.26 265.46H384.72C384.1 263.14 382.34 261.8 379.64 261.8C376.48 261.8 374.24 264.04 374.24 267.48ZM391.632 263.72C393.332 263.72 394.672 264.8 394.712 266.5H388.612C388.852 264.76 390.092 263.72 391.632 263.72ZM396.792 269.72H394.332C393.912 270.58 393.132 271.26 391.732 271.26C390.052 271.26 388.752 270.16 388.592 268.34H397.012C397.072 267.96 397.092 267.6 397.092 267.22C397.092 263.98 394.872 261.8 391.732 261.8C388.472 261.8 386.232 264.02 386.232 267.48C386.232 270.94 388.572 273.18 391.732 273.18C394.432 273.18 396.172 271.64 396.792 269.72ZM404.891 269.94C404.891 272.18 406.111 273 408.071 273H409.871V271.1H408.471C407.511 271.1 407.191 270.76 407.191 269.94V263.84H409.871V261.98H407.191V259.24H404.891V261.98H403.591V263.84H404.891V269.94ZM416.613 263.72C418.313 263.72 419.653 264.8 419.693 266.5H413.593C413.833 264.76 415.073 263.72 416.613 263.72ZM421.773 269.72H419.313C418.893 270.58 418.113 271.26 416.713 271.26C415.033 271.26 413.733 270.16 413.573 268.34H421.993C422.053 267.96 422.073 267.6 422.073 267.22C422.073 263.98 419.853 261.8 416.713 261.8C413.453 261.8 411.213 264.02 411.213 267.48C411.213 270.94 413.553 273.18 416.713 273.18C419.413 273.18 421.153 271.64 421.773 269.72ZM423.556 267.48C423.556 270.94 425.796 273.18 428.956 273.18C431.656 273.18 433.416 271.68 434.036 269.52H431.576C431.156 270.66 430.316 271.26 428.956 271.26C427.116 271.26 425.896 269.9 425.896 267.48C425.896 265.08 427.116 263.72 428.956 263.72C430.316 263.72 431.196 264.4 431.576 265.46H434.036C433.416 263.14 431.656 261.8 428.956 261.8C425.796 261.8 423.556 264.04 423.556 267.48ZM436.309 273H438.589V266.84C438.589 264.82 439.689 263.78 441.369 263.78C443.029 263.78 444.129 264.82 444.129 266.84V273H446.389V266.5C446.389 263.42 444.469 261.8 442.009 261.8C440.589 261.8 439.349 262.34 438.589 263.26V258.2H436.309V273ZM457.117 273H459.377V266.5C459.377 263.42 457.437 261.8 454.857 261.8C453.537 261.8 452.317 262.34 451.577 263.24V261.98H449.297V273H451.577V266.84C451.577 264.82 452.677 263.78 454.357 263.78C456.017 263.78 457.117 264.82 457.117 266.84V273ZM462.285 273H464.565V261.98H462.285V273ZM463.445 260.52C464.245 260.52 464.885 259.88 464.885 259.06C464.885 258.24 464.245 257.6 463.445 257.6C462.625 257.6 461.985 258.24 461.985 259.06C461.985 259.88 462.625 260.52 463.445 260.52ZM466.799 267.48C466.799 270.94 469.039 273.18 472.199 273.18C474.899 273.18 476.659 271.68 477.279 269.52H474.819C474.399 270.66 473.559 271.26 472.199 271.26C470.359 271.26 469.139 269.9 469.139 267.48C469.139 265.08 470.359 263.72 472.199 263.72C473.559 263.72 474.439 264.4 474.819 265.46H477.279C476.659 263.14 474.899 261.8 472.199 261.8C469.039 261.8 466.799 264.04 466.799 267.48ZM479.551 273H481.831V261.98H479.551V273ZM480.711 260.52C481.511 260.52 482.151 259.88 482.151 259.06C482.151 258.24 481.511 257.6 480.711 257.6C479.891 257.6 479.251 258.24 479.251 259.06C479.251 259.88 479.891 260.52 480.711 260.52ZM484.064 267.44C484.064 270.84 486.364 273.18 489.224 273.18C491.064 273.18 492.384 272.3 493.084 271.36V273H495.384V261.98H493.084V263.58C492.404 262.68 491.124 261.8 489.264 261.8C486.364 261.8 484.064 264.04 484.064 267.44ZM493.084 267.48C493.084 269.86 491.464 271.2 489.744 271.2C488.044 271.2 486.404 269.82 486.404 267.44C486.404 265.06 488.044 263.78 489.744 263.78C491.464 263.78 493.084 265.12 493.084 267.48ZM506.199 273H508.459V266.5C508.459 263.42 506.519 261.8 503.939 261.8C502.619 261.8 501.399 262.34 500.659 263.24V261.98H498.379V273H500.659V266.84C500.659 264.82 501.759 263.78 503.439 263.78C505.099 263.78 506.199 264.82 506.199 266.84V273ZM519.587 269.92C519.467 265.94 513.247 267.18 513.247 264.96C513.247 264.22 513.887 263.72 515.107 263.72C516.347 263.72 517.087 264.38 517.167 265.34H519.447C519.327 263.14 517.687 261.8 515.187 261.8C512.587 261.8 510.947 263.22 510.947 264.98C510.947 269.02 517.347 267.78 517.347 269.94C517.347 270.7 516.647 271.26 515.327 271.26C514.067 271.26 513.207 270.52 513.127 269.62H510.767C510.867 271.62 512.727 273.18 515.367 273.18C517.967 273.18 519.587 271.78 519.587 269.92Z" fill="white"/>
<path d="M313.655 233.494C313.504 233.499 313.36 233.562 313.254 233.671L307.25 239.675L305.329 237.754C305.275 237.698 305.211 237.654 305.14 237.623C305.068 237.592 304.992 237.576 304.914 237.575C304.837 237.574 304.76 237.589 304.688 237.618C304.616 237.648 304.551 237.691 304.496 237.746C304.441 237.801 304.397 237.866 304.368 237.938C304.339 238.01 304.324 238.087 304.325 238.164C304.326 238.242 304.342 238.319 304.373 238.39C304.403 238.461 304.448 238.525 304.504 238.579L306.838 240.912C306.947 241.022 307.095 241.083 307.25 241.083C307.405 241.083 307.553 241.022 307.662 240.912L314.079 234.496C314.163 234.414 314.221 234.308 314.244 234.193C314.268 234.078 314.255 233.958 314.21 233.85C314.164 233.742 314.086 233.65 313.987 233.586C313.889 233.523 313.773 233.491 313.655 233.494Z" fill="white"/>
<path d="M329.78 152.5V147.96H332.3C334.08 147.96 334.88 148.8 334.88 150.24C334.88 151.64 334.08 152.5 332.3 152.5H329.78ZM337.22 150.24C337.22 147.98 335.6 146.1 332.3 146.1H327.5V160H329.78V154.36H332.3C335.92 154.36 337.22 152.22 337.22 150.24ZM338.635 154.44C338.635 157.84 340.935 160.18 343.795 160.18C345.635 160.18 346.955 159.3 347.655 158.36V160H349.955V148.98H347.655V150.58C346.975 149.68 345.695 148.8 343.835 148.8C340.935 148.8 338.635 151.04 338.635 154.44ZM347.655 154.48C347.655 156.86 346.035 158.2 344.315 158.2C342.615 158.2 340.975 156.82 340.975 154.44C340.975 152.06 342.615 150.78 344.315 150.78C346.035 150.78 347.655 152.12 347.655 154.48ZM360.769 160H363.029V153.5C363.029 150.42 361.089 148.8 358.509 148.8C357.189 148.8 355.969 149.34 355.229 150.24V148.98H352.949V160H355.229V153.84C355.229 151.82 356.329 150.78 358.009 150.78C359.669 150.78 360.769 151.82 360.769 153.84V160ZM370.578 150.72C372.278 150.72 373.618 151.8 373.658 153.5H367.558C367.798 151.76 369.038 150.72 370.578 150.72ZM375.737 156.72H373.278C372.858 157.58 372.078 158.26 370.678 158.26C368.998 158.26 367.698 157.16 367.538 155.34H375.958C376.018 154.96 376.038 154.6 376.038 154.22C376.038 150.98 373.818 148.8 370.678 148.8C367.418 148.8 365.178 151.02 365.178 154.48C365.178 157.94 367.518 160.18 370.678 160.18C373.378 160.18 375.118 158.64 375.737 156.72ZM378.281 160H380.561V145.2H378.281V160ZM396.59 156.02C396.59 157.36 395.65 158.14 394.11 158.14H391.03V153.8H394.03C395.55 153.8 396.59 154.64 396.59 156.02ZM396.23 149.96C396.23 151.24 395.33 151.94 393.85 151.94H391.03V147.96H393.85C395.33 147.96 396.23 148.7 396.23 149.96ZM398.87 156.26C398.87 154.6 397.67 153.12 396.19 152.86C397.53 152.38 398.55 151.36 398.55 149.68C398.55 147.72 396.99 146.1 394.05 146.1H388.75V160H394.31C397.15 160 398.87 158.38 398.87 156.26ZM405.988 150.72C407.688 150.72 409.028 151.8 409.068 153.5H402.968C403.208 151.76 404.448 150.72 405.988 150.72ZM411.148 156.72H408.688C408.268 157.58 407.488 158.26 406.088 158.26C404.408 158.26 403.108 157.16 402.948 155.34H411.368C411.428 154.96 411.448 154.6 411.448 154.22C411.448 150.98 409.228 148.8 406.088 148.8C402.828 148.8 400.588 151.02 400.588 154.48C400.588 157.94 402.928 160.18 406.088 160.18C408.788 160.18 410.528 158.64 411.148 156.72ZM412.931 154.44C412.931 157.84 415.231 160.18 418.091 160.18C419.931 160.18 421.251 159.3 421.951 158.36V160H424.251V148.98H421.951V150.58C421.271 149.68 419.991 148.8 418.131 148.8C415.231 148.8 412.931 151.04 412.931 154.44ZM421.951 154.48C421.951 156.86 420.331 158.2 418.611 158.2C416.911 158.2 415.271 156.82 415.271 154.44C415.271 152.06 416.911 150.78 418.611 150.78C420.331 150.78 421.951 152.12 421.951 154.48ZM427.606 156.94C427.606 159.18 428.826 160 430.786 160H432.586V158.1H431.186C430.226 158.1 429.906 157.76 429.906 156.94V150.84H432.586V148.98H429.906V146.24H427.606V148.98H426.306V150.84H427.606V156.94ZM439.328 150.72C441.028 150.72 442.368 151.8 442.408 153.5H436.308C436.548 151.76 437.788 150.72 439.328 150.72ZM444.487 156.72H442.028C441.608 157.58 440.828 158.26 439.428 158.26C437.748 158.26 436.448 157.16 436.288 155.34H444.708C444.768 154.96 444.788 154.6 444.788 154.22C444.788 150.98 442.568 148.8 439.428 148.8C436.168 148.8 433.928 151.02 433.928 154.48C433.928 157.94 436.268 160.18 439.428 160.18C442.128 160.18 443.868 158.64 444.487 156.72ZM449.311 154.2C449.311 151.86 450.351 151.16 452.031 151.16H452.611V148.8C451.051 148.8 449.951 149.48 449.311 150.58V148.98H447.031V160H449.311V154.2ZM462.927 156.92C462.807 152.94 456.587 154.18 456.587 151.96C456.587 151.22 457.227 150.72 458.447 150.72C459.687 150.72 460.427 151.38 460.507 152.34H462.787C462.667 150.14 461.027 148.8 458.527 148.8C455.927 148.8 454.287 150.22 454.287 151.98C454.287 156.02 460.687 154.78 460.687 156.94C460.687 157.7 459.987 158.26 458.667 158.26C457.407 158.26 456.547 157.52 456.467 156.62H454.107C454.207 158.62 456.067 160.18 458.707 160.18C461.307 160.18 462.927 158.78 462.927 156.92ZM479.426 149.2C479.566 147.3 478.266 145.78 475.846 145.78C473.466 145.78 471.986 147.16 471.986 148.98C471.986 149.96 472.266 150.7 473.046 151.64C470.846 152.54 469.786 154.12 469.786 156C469.786 158.6 471.786 160.26 474.786 160.26C476.726 160.26 478.266 159.62 479.606 158.28L481.326 160H484.306L480.926 156.64C481.086 156.38 481.266 156.1 481.426 155.82L483.226 152.74H480.766L479.346 155.08L475.666 151.42C474.686 150.36 474.266 149.74 474.266 148.98C474.266 148.24 474.846 147.64 475.746 147.64C476.606 147.64 477.186 148.18 477.146 149.2H479.426ZM474.786 158.32C473.146 158.32 472.066 157.26 472.066 155.92C472.066 154.68 472.806 153.72 474.426 153.08L478.106 156.78C477.146 157.8 476.086 158.32 474.786 158.32ZM490.236 153.02C490.236 157.2 493.416 160.12 497.336 160.12C500.236 160.12 502.736 158.68 503.796 155.96H501.056C500.316 157.44 498.996 158.14 497.336 158.14C494.576 158.14 492.576 156.16 492.576 153.02C492.576 149.88 494.576 147.92 497.336 147.92C498.996 147.92 500.316 148.62 501.056 150.1H503.796C502.736 147.38 500.236 145.92 497.336 145.92C493.416 145.92 490.236 148.86 490.236 153.02ZM516.965 154.48C516.965 151.02 514.485 148.8 511.345 148.8C508.205 148.8 505.725 151.02 505.725 154.48C505.725 157.94 508.105 160.18 511.245 160.18C514.405 160.18 516.965 157.94 516.965 154.48ZM508.045 154.48C508.045 151.98 509.585 150.78 511.305 150.78C513.005 150.78 514.625 151.98 514.625 154.48C514.625 156.98 512.945 158.2 511.245 158.2C509.525 158.2 508.045 156.98 508.045 154.48ZM519.219 160H521.499V145.2H519.219V160ZM524.492 160H526.772V145.2H524.492V160ZM529.766 160H532.046V148.98H529.766V160ZM530.926 147.52C531.726 147.52 532.366 146.88 532.366 146.06C532.366 145.24 531.726 144.6 530.926 144.6C530.106 144.6 529.466 145.24 529.466 146.06C529.466 146.88 530.106 147.52 530.926 147.52ZM543.259 156.92C543.139 152.94 536.919 154.18 536.919 151.96C536.919 151.22 537.559 150.72 538.779 150.72C540.019 150.72 540.759 151.38 540.839 152.34H543.119C542.999 150.14 541.359 148.8 538.859 148.8C536.259 148.8 534.619 150.22 534.619 151.98C534.619 156.02 541.019 154.78 541.019 156.94C541.019 157.7 540.319 158.26 538.999 158.26C537.739 158.26 536.879 157.52 536.799 156.62H534.439C534.539 158.62 536.399 160.18 539.039 160.18C541.639 160.18 543.259 158.78 543.259 156.92ZM545.723 160H548.003V148.98H545.723V160ZM546.883 147.52C547.683 147.52 548.323 146.88 548.323 146.06C548.323 145.24 547.683 144.6 546.883 144.6C546.063 144.6 545.423 145.24 545.423 146.06C545.423 146.88 546.063 147.52 546.883 147.52ZM561.496 154.48C561.496 151.02 559.016 148.8 555.876 148.8C552.736 148.8 550.256 151.02 550.256 154.48C550.256 157.94 552.636 160.18 555.776 160.18C558.936 160.18 561.496 157.94 561.496 154.48ZM552.576 154.48C552.576 151.98 554.116 150.78 555.836 150.78C557.536 150.78 559.156 151.98 559.156 154.48C559.156 156.98 557.476 158.2 555.776 158.2C554.056 158.2 552.576 156.98 552.576 154.48ZM571.57 160H573.83V153.5C573.83 150.42 571.89 148.8 569.31 148.8C567.99 148.8 566.77 149.34 566.03 150.24V148.98H563.75V160H566.03V153.84C566.03 151.82 567.13 150.78 568.81 150.78C570.47 150.78 571.57 151.82 571.57 153.84V160ZM335.72 186.92C335.6 182.94 329.38 184.18 329.38 181.96C329.38 181.22 330.02 180.72 331.24 180.72C332.48 180.72 333.22 181.38 333.3 182.34H335.58C335.46 180.14 333.82 178.8 331.32 178.8C328.72 178.8 327.08 180.22 327.08 181.98C327.08 186.02 333.48 184.78 333.48 186.94C333.48 187.7 332.78 188.26 331.46 188.26C330.2 188.26 329.34 187.52 329.26 186.62H326.9C327 188.62 328.86 190.18 331.5 190.18C334.1 190.18 335.72 188.78 335.72 186.92ZM340.464 180.6V178.98H338.184V195.24H340.464V188.4C341.184 189.26 342.484 190.18 344.304 190.18C347.204 190.18 349.484 187.84 349.484 184.44C349.484 181.04 347.204 178.8 344.304 178.8C342.504 178.8 341.164 179.68 340.464 180.6ZM347.164 184.44C347.164 186.82 345.524 188.2 343.804 188.2C342.104 188.2 340.464 186.86 340.464 184.48C340.464 182.12 342.104 180.78 343.804 180.78C345.524 180.78 347.164 182.06 347.164 184.44ZM356.378 180.72C358.078 180.72 359.418 181.8 359.458 183.5H353.358C353.598 181.76 354.838 180.72 356.378 180.72ZM361.538 186.72H359.078C358.658 187.58 357.878 188.26 356.478 188.26C354.798 188.26 353.498 187.16 353.338 185.34H361.758C361.818 184.96 361.838 184.6 361.838 184.22C361.838 180.98 359.618 178.8 356.478 178.8C353.218 178.8 350.978 181.02 350.978 184.48C350.978 187.94 353.318 190.18 356.478 190.18C359.178 190.18 360.918 188.64 361.538 186.72ZM363.322 184.48C363.322 187.94 365.562 190.18 368.722 190.18C371.422 190.18 373.182 188.68 373.802 186.52H371.342C370.922 187.66 370.082 188.26 368.722 188.26C366.882 188.26 365.662 186.9 365.662 184.48C365.662 182.08 366.882 180.72 368.722 180.72C370.082 180.72 370.962 181.4 371.342 182.46H373.802C373.182 180.14 371.422 178.8 368.722 178.8C365.562 178.8 363.322 181.04 363.322 184.48ZM376.074 190H378.354V178.98H376.074V190ZM377.234 177.52C378.034 177.52 378.674 176.88 378.674 176.06C378.674 175.24 378.034 174.6 377.234 174.6C376.414 174.6 375.774 175.24 375.774 176.06C375.774 176.88 376.414 177.52 377.234 177.52ZM380.588 184.44C380.588 187.84 382.888 190.18 385.748 190.18C387.588 190.18 388.908 189.3 389.608 188.36V190H391.908V178.98H389.608V180.58C388.928 179.68 387.648 178.8 385.788 178.8C382.888 178.8 380.588 181.04 380.588 184.44ZM389.608 184.48C389.608 186.86 387.988 188.2 386.268 188.2C384.568 188.2 382.928 186.82 382.928 184.44C382.928 182.06 384.568 180.78 386.268 180.78C387.988 180.78 389.608 182.12 389.608 184.48ZM394.902 190H397.182V175.2H394.902V190ZM400.176 190H402.456V178.98H400.176V190ZM401.336 177.52C402.136 177.52 402.776 176.88 402.776 176.06C402.776 175.24 402.136 174.6 401.336 174.6C400.516 174.6 399.876 175.24 399.876 176.06C399.876 176.88 400.516 177.52 401.336 177.52ZM413.669 186.92C413.549 182.94 407.329 184.18 407.329 181.96C407.329 181.22 407.969 180.72 409.189 180.72C410.429 180.72 411.169 181.38 411.249 182.34H413.529C413.409 180.14 411.769 178.8 409.269 178.8C406.669 178.8 405.029 180.22 405.029 181.98C405.029 186.02 411.429 184.78 411.429 186.94C411.429 187.7 410.729 188.26 409.409 188.26C408.149 188.26 407.289 187.52 407.209 186.62H404.849C404.949 188.62 406.809 190.18 409.449 190.18C412.049 190.18 413.669 188.78 413.669 186.92ZM416.493 186.94C416.493 189.18 417.713 190 419.673 190H421.473V188.1H420.073C419.113 188.1 418.793 187.76 418.793 186.94V180.84H421.473V178.98H418.793V176.24H416.493V178.98H415.193V180.84H416.493V186.94ZM431.794 186.92C431.674 182.94 425.454 184.18 425.454 181.96C425.454 181.22 426.094 180.72 427.314 180.72C428.554 180.72 429.294 181.38 429.374 182.34H431.654C431.534 180.14 429.894 178.8 427.394 178.8C424.794 178.8 423.154 180.22 423.154 181.98C423.154 186.02 429.554 184.78 429.554 186.94C429.554 187.7 428.854 188.26 427.534 188.26C426.274 188.26 425.414 187.52 425.334 186.62H422.974C423.074 188.62 424.934 190.18 427.574 190.18C430.174 190.18 431.794 188.78 431.794 186.92Z" fill="white"/>
<path d="M313.655 149.494C313.504 149.499 313.36 149.562 313.254 149.671L307.25 155.675L305.329 153.754C305.275 153.698 305.211 153.654 305.14 153.623C305.068 153.592 304.992 153.576 304.914 153.575C304.837 153.574 304.76 153.589 304.688 153.618C304.616 153.648 304.551 153.691 304.496 153.746C304.441 153.801 304.397 153.866 304.368 153.938C304.339 154.01 304.324 154.087 304.325 154.164C304.326 154.242 304.342 154.319 304.373 154.39C304.403 154.461 304.448 154.525 304.504 154.579L306.838 156.912C306.947 157.022 307.095 157.083 307.25 157.083C307.405 157.083 307.553 157.022 307.662 156.912L314.079 150.496C314.163 150.414 314.221 150.308 314.244 150.193C314.268 150.078 314.255 149.958 314.21 149.85C314.164 149.742 314.086 149.65 313.987 149.586C313.889 149.523 313.773 149.491 313.655 149.494Z" fill="white"/>
<path d="M336.88 107H339.28L334.3 93.08H331.66L326.68 107H329.06L330.06 104.16H335.88L336.88 107ZM335.24 102.3H330.7L332.98 95.84L335.24 102.3ZM351.425 95.98H349.145V102.12C349.145 104.14 348.045 105.18 346.365 105.18C344.705 105.18 343.605 104.14 343.605 102.12V95.98H341.345V102.46C341.345 105.54 343.305 107.16 345.885 107.16C347.185 107.16 348.425 106.62 349.145 105.68V107H351.425V95.98ZM354.794 103.94C354.794 106.18 356.014 107 357.974 107H359.774V105.1H358.374C357.414 105.1 357.094 104.76 357.094 103.94V97.84H359.774V95.98H357.094V93.24H354.794V95.98H353.494V97.84H354.794V103.94ZM372.375 101.48C372.375 98.02 369.895 95.8 366.755 95.8C363.615 95.8 361.135 98.02 361.135 101.48C361.135 104.94 363.515 107.18 366.655 107.18C369.815 107.18 372.375 104.94 372.375 101.48ZM363.455 101.48C363.455 98.98 364.995 97.78 366.715 97.78C368.415 97.78 370.035 98.98 370.035 101.48C370.035 103.98 368.355 105.2 366.655 105.2C364.935 105.2 363.455 103.98 363.455 101.48ZM380.969 92.92C377.049 92.92 373.869 95.86 373.869 100.02C373.869 104.2 377.049 107.12 380.969 107.12C384.709 107.12 387.429 104.38 387.849 101.16V99.38H380.189V101.2H385.409C385.069 103.54 383.489 105.06 380.969 105.06C378.209 105.06 376.209 103.08 376.209 100.02C376.209 96.96 378.209 95 380.969 95C382.629 95 383.949 95.7 384.689 97.1H387.429C386.369 94.38 383.869 92.92 380.969 92.92ZM389.338 101.44C389.338 104.84 391.638 107.18 394.498 107.18C396.338 107.18 397.658 106.3 398.358 105.36V107H400.658V95.98H398.358V97.58C397.678 96.68 396.398 95.8 394.538 95.8C391.638 95.8 389.338 98.04 389.338 101.44ZM398.358 101.48C398.358 103.86 396.738 105.2 395.018 105.2C393.318 105.2 391.678 103.82 391.678 101.44C391.678 99.06 393.318 97.78 395.018 97.78C396.738 97.78 398.358 99.12 398.358 101.48ZM411.872 103.92C411.752 99.94 405.532 101.18 405.532 98.96C405.532 98.22 406.172 97.72 407.392 97.72C408.632 97.72 409.372 98.38 409.452 99.34H411.732C411.612 97.14 409.972 95.8 407.472 95.8C404.872 95.8 403.232 97.22 403.232 98.98C403.232 103.02 409.632 101.78 409.632 103.94C409.632 104.7 408.932 105.26 407.612 105.26C406.352 105.26 405.492 104.52 405.412 103.62H403.052C403.152 105.62 405.012 107.18 407.652 107.18C410.252 107.18 411.872 105.78 411.872 103.92ZM418.771 101.48C418.771 104.94 421.011 107.18 424.171 107.18C426.871 107.18 428.631 105.68 429.251 103.52H426.791C426.371 104.66 425.531 105.26 424.171 105.26C422.331 105.26 421.111 103.9 421.111 101.48C421.111 99.08 422.331 97.72 424.171 97.72C425.531 97.72 426.411 98.4 426.791 99.46H429.251C428.631 97.14 426.871 95.8 424.171 95.8C421.011 95.8 418.771 98.04 418.771 101.48ZM442.023 101.48C442.023 98.02 439.543 95.8 436.403 95.8C433.263 95.8 430.783 98.02 430.783 101.48C430.783 104.94 433.163 107.18 436.303 107.18C439.463 107.18 442.023 104.94 442.023 101.48ZM433.103 101.48C433.103 98.98 434.643 97.78 436.363 97.78C438.063 97.78 439.683 98.98 439.683 101.48C439.683 103.98 438.003 105.2 436.303 105.2C434.583 105.2 433.103 103.98 433.103 101.48ZM452.097 107H454.357V100.5C454.357 97.42 452.417 95.8 449.837 95.8C448.517 95.8 447.297 96.34 446.557 97.24V95.98H444.277V107H446.557V100.84C446.557 98.82 447.657 97.78 449.337 97.78C450.997 97.78 452.097 98.82 452.097 100.84V107ZM455.966 95.98L460.146 107H462.866L467.066 95.98H464.646L461.526 104.96L458.406 95.98H455.966ZM473.429 97.72C475.129 97.72 476.469 98.8 476.509 100.5H470.409C470.649 98.76 471.889 97.72 473.429 97.72ZM478.589 103.72H476.129C475.709 104.58 474.929 105.26 473.529 105.26C471.849 105.26 470.549 104.16 470.389 102.34H478.809C478.869 101.96 478.889 101.6 478.889 101.22C478.889 97.98 476.669 95.8 473.529 95.8C470.269 95.8 468.029 98.02 468.029 101.48C468.029 104.94 470.369 107.18 473.529 107.18C476.229 107.18 477.969 105.64 478.589 103.72ZM483.413 101.2C483.413 98.86 484.453 98.16 486.133 98.16H486.713V95.8C485.153 95.8 484.053 96.48 483.413 97.58V95.98H481.133V107H483.413V101.2ZM497.029 103.92C496.909 99.94 490.689 101.18 490.689 98.96C490.689 98.22 491.329 97.72 492.549 97.72C493.789 97.72 494.529 98.38 494.609 99.34H496.889C496.769 97.14 495.129 95.8 492.629 95.8C490.029 95.8 488.389 97.22 488.389 98.98C488.389 103.02 494.789 101.78 494.789 103.94C494.789 104.7 494.089 105.26 492.769 105.26C491.509 105.26 490.649 104.52 490.569 103.62H488.209C488.309 105.62 490.169 107.18 492.809 107.18C495.409 107.18 497.029 105.78 497.029 103.92ZM499.492 107H501.772V95.98H499.492V107ZM500.652 94.52C501.452 94.52 502.092 93.88 502.092 93.06C502.092 92.24 501.452 91.6 500.652 91.6C499.832 91.6 499.192 92.24 499.192 93.06C499.192 93.88 499.832 94.52 500.652 94.52ZM515.266 101.48C515.266 98.02 512.786 95.8 509.646 95.8C506.506 95.8 504.026 98.02 504.026 101.48C504.026 104.94 506.406 107.18 509.546 107.18C512.706 107.18 515.266 104.94 515.266 101.48ZM506.346 101.48C506.346 98.98 507.886 97.78 509.606 97.78C511.306 97.78 512.926 98.98 512.926 101.48C512.926 103.98 511.246 105.2 509.546 105.2C507.826 105.2 506.346 103.98 506.346 101.48ZM525.34 107H527.6V100.5C527.6 97.42 525.66 95.8 523.08 95.8C521.76 95.8 520.54 96.34 519.8 97.24V95.98H517.52V107H519.8V100.84C519.8 98.82 520.9 97.78 522.58 97.78C524.24 97.78 525.34 98.82 525.34 100.84V107ZM536.063 103.94C536.063 106.18 537.283 107 539.243 107H541.043V105.1H539.643C538.683 105.1 538.363 104.76 538.363 103.94V97.84H541.043V95.98H538.363V93.24H536.063V95.98H534.763V97.84H536.063V103.94ZM547.785 97.72C549.485 97.72 550.825 98.8 550.865 100.5H544.765C545.005 98.76 546.245 97.72 547.785 97.72ZM552.945 103.72H550.485C550.065 104.58 549.285 105.26 547.885 105.26C546.205 105.26 544.905 104.16 544.745 102.34H553.165C553.225 101.96 553.245 101.6 553.245 101.22C553.245 97.98 551.025 95.8 547.885 95.8C544.625 95.8 542.385 98.02 542.385 101.48C542.385 104.94 544.725 107.18 547.885 107.18C550.585 107.18 552.325 105.64 552.945 103.72ZM554.728 101.48C554.728 104.94 556.968 107.18 560.128 107.18C562.828 107.18 564.588 105.68 565.208 103.52H562.748C562.328 104.66 561.488 105.26 560.128 105.26C558.288 105.26 557.068 103.9 557.068 101.48C557.068 99.08 558.288 97.72 560.128 97.72C561.488 97.72 562.368 98.4 562.748 99.46H565.208C564.588 97.14 562.828 95.8 560.128 95.8C556.968 95.8 554.728 98.04 554.728 101.48ZM567.48 107H569.76V100.84C569.76 98.82 570.86 97.78 572.54 97.78C574.2 97.78 575.3 98.82 575.3 100.84V107H577.56V100.5C577.56 97.42 575.64 95.8 573.18 95.8C571.76 95.8 570.52 96.34 569.76 97.26V92.2H567.48V107ZM588.289 107H590.549V100.5C590.549 97.42 588.609 95.8 586.029 95.8C584.709 95.8 583.489 96.34 582.749 97.24V95.98H580.469V107H582.749V100.84C582.749 98.82 583.849 97.78 585.529 97.78C587.189 97.78 588.289 98.82 588.289 100.84V107ZM593.457 107H595.737V95.98H593.457V107ZM594.617 94.52C595.417 94.52 596.057 93.88 596.057 93.06C596.057 92.24 595.417 91.6 594.617 91.6C593.797 91.6 593.157 92.24 593.157 93.06C593.157 93.88 593.797 94.52 594.617 94.52ZM597.97 101.48C597.97 104.94 600.21 107.18 603.37 107.18C606.07 107.18 607.83 105.68 608.45 103.52H605.99C605.57 104.66 604.73 105.26 603.37 105.26C601.53 105.26 600.31 103.9 600.31 101.48C600.31 99.08 601.53 97.72 603.37 97.72C604.73 97.72 605.61 98.4 605.99 99.46H608.45C607.83 97.14 606.07 95.8 603.37 95.8C600.21 95.8 597.97 98.04 597.97 101.48ZM610.723 107H613.003V95.98H610.723V107ZM611.883 94.52C612.683 94.52 613.323 93.88 613.323 93.06C613.323 92.24 612.683 91.6 611.883 91.6C611.063 91.6 610.423 92.24 610.423 93.06C610.423 93.88 611.063 94.52 611.883 94.52ZM615.236 101.44C615.236 104.84 617.536 107.18 620.396 107.18C622.236 107.18 623.556 106.3 624.256 105.36V107H626.556V95.98H624.256V97.58C623.576 96.68 622.296 95.8 620.436 95.8C617.536 95.8 615.236 98.04 615.236 101.44ZM624.256 101.48C624.256 103.86 622.636 105.2 620.916 105.2C619.216 105.2 617.576 103.82 617.576 101.44C617.576 99.06 619.216 97.78 620.916 97.78C622.636 97.78 624.256 99.12 624.256 101.48ZM637.371 107H639.631V100.5C639.631 97.42 637.691 95.8 635.111 95.8C633.791 95.8 632.571 96.34 631.831 97.24V95.98H629.551V107H631.831V100.84C631.831 98.82 632.931 97.78 634.611 97.78C636.271 97.78 637.371 98.82 637.371 100.84V107ZM650.759 103.92C650.639 99.94 644.419 101.18 644.419 98.96C644.419 98.22 645.059 97.72 646.279 97.72C647.519 97.72 648.259 98.38 648.339 99.34H650.619C650.499 97.14 648.859 95.8 646.359 95.8C643.759 95.8 642.119 97.22 642.119 98.98C642.119 103.02 648.519 101.78 648.519 103.94C648.519 104.7 647.819 105.26 646.499 105.26C645.239 105.26 644.379 104.52 644.299 103.62H641.939C642.039 105.62 643.899 107.18 646.539 107.18C649.139 107.18 650.759 105.78 650.759 103.92Z" fill="white"/>
<path d="M313.655 96.4943C313.504 96.4988 313.36 96.5622 313.254 96.6709L307.25 102.675L305.329 100.754C305.275 100.698 305.211 100.654 305.14 100.623C305.068 100.592 304.992 100.576 304.914 100.575C304.837 100.574 304.76 100.589 304.688 100.618C304.616 100.648 304.551 100.691 304.496 100.746C304.441 100.801 304.397 100.866 304.368 100.938C304.339 101.01 304.324 101.087 304.325 101.164C304.326 101.242 304.342 101.319 304.373 101.39C304.403 101.461 304.448 101.525 304.504 101.579L306.838 103.912C306.947 104.022 307.095 104.083 307.25 104.083C307.405 104.083 307.553 104.022 307.662 103.912L314.079 97.4958C314.163 97.4139 314.221 97.3084 314.244 97.1932C314.268 97.0779 314.255 96.9584 314.21 96.8501C314.164 96.7418 314.086 96.6499 313.987 96.5865C313.889 96.523 313.773 96.4909 313.655 96.4943Z" fill="white"/>
<path d="M25.5 266H27.78V256.48L32.04 266H33.62L37.86 256.48V266H40.14V252.1H37.7L32.84 263L27.96 252.1H25.5V266ZM47.7767 256.72C49.4767 256.72 50.8167 257.8 50.8567 259.5H44.7567C44.9967 257.76 46.2367 256.72 47.7767 256.72ZM52.9367 262.72H50.4767C50.0567 263.58 49.2767 264.26 47.8767 264.26C46.1967 264.26 44.8967 263.16 44.7367 261.34H53.1567C53.2167 260.96 53.2367 260.6 53.2367 260.22C53.2367 256.98 51.0167 254.8 47.8767 254.8C44.6167 254.8 42.3767 257.02 42.3767 260.48C42.3767 263.94 44.7167 266.18 47.8767 266.18C50.5767 266.18 52.3167 264.64 52.9367 262.72ZM54.7205 260.48C54.7205 263.94 56.9605 266.18 60.1205 266.18C62.8205 266.18 64.5805 264.68 65.2005 262.52H62.7405C62.3205 263.66 61.4805 264.26 60.1205 264.26C58.2805 264.26 57.0605 262.9 57.0605 260.48C57.0605 258.08 58.2805 256.72 60.1205 256.72C61.4805 256.72 62.3605 257.4 62.7405 258.46H65.2005C64.5805 256.14 62.8205 254.8 60.1205 254.8C56.9605 254.8 54.7205 257.04 54.7205 260.48ZM67.4727 266H69.7527V259.84C69.7527 257.82 70.8527 256.78 72.5327 256.78C74.1927 256.78 75.2927 257.82 75.2927 259.84V266H77.5527V259.5C77.5527 256.42 75.6327 254.8 73.1727 254.8C71.7527 254.8 70.5127 255.34 69.7527 256.26V251.2H67.4727V266ZM79.7009 260.44C79.7009 263.84 82.0009 266.18 84.8609 266.18C86.7009 266.18 88.0209 265.3 88.7209 264.36V266H91.0209V254.98H88.7209V256.58C88.0409 255.68 86.7609 254.8 84.9009 254.8C82.0009 254.8 79.7009 257.04 79.7009 260.44ZM88.7209 260.48C88.7209 262.86 87.1009 264.2 85.3809 264.2C83.6809 264.2 82.0409 262.82 82.0409 260.44C82.0409 258.06 83.6809 256.78 85.3809 256.78C87.1009 256.78 88.7209 258.12 88.7209 260.48ZM94.3756 262.94C94.3756 265.18 95.5956 266 97.5556 266H99.3556V264.1H97.9556C96.9956 264.1 96.6756 263.76 96.6756 262.94V256.84H99.3556V254.98H96.6756V252.24H94.3756V254.98H93.0756V256.84H94.3756V262.94ZM103.737 260.2C103.737 257.86 104.777 257.16 106.457 257.16H107.037V254.8C105.477 254.8 104.377 255.48 103.737 256.58V254.98H101.457V266H103.737V260.2ZM119.633 260.48C119.633 257.02 117.153 254.8 114.013 254.8C110.873 254.8 108.393 257.02 108.393 260.48C108.393 263.94 110.773 266.18 113.913 266.18C117.073 266.18 119.633 263.94 119.633 260.48ZM110.713 260.48C110.713 257.98 112.253 256.78 113.973 256.78C115.673 256.78 117.293 257.98 117.293 260.48C117.293 262.98 115.613 264.2 113.913 264.2C112.193 264.2 110.713 262.98 110.713 260.48ZM129.707 266H131.967V259.5C131.967 256.42 130.027 254.8 127.447 254.8C126.127 254.8 124.907 255.34 124.167 256.24V254.98H121.887V266H124.167V259.84C124.167 257.82 125.267 256.78 126.947 256.78C128.607 256.78 129.707 257.82 129.707 259.84V266ZM134.875 266H137.155V254.98H134.875V266ZM136.035 253.52C136.835 253.52 137.475 252.88 137.475 252.06C137.475 251.24 136.835 250.6 136.035 250.6C135.215 250.6 134.575 251.24 134.575 252.06C134.575 252.88 135.215 253.52 136.035 253.52ZM139.388 260.48C139.388 263.94 141.628 266.18 144.788 266.18C147.488 266.18 149.248 264.68 149.868 262.52H147.408C146.988 263.66 146.148 264.26 144.788 264.26C142.948 264.26 141.728 262.9 141.728 260.48C141.728 258.08 142.948 256.72 144.788 256.72C146.148 256.72 147.028 257.4 147.408 258.46H149.868C149.248 256.14 147.488 254.8 144.788 254.8C141.628 254.8 139.388 257.04 139.388 260.48ZM160.361 262.92C160.241 258.94 154.021 260.18 154.021 257.96C154.021 257.22 154.661 256.72 155.881 256.72C157.121 256.72 157.861 257.38 157.941 258.34H160.221C160.101 256.14 158.461 254.8 155.961 254.8C153.361 254.8 151.721 256.22 151.721 257.98C151.721 262.02 158.121 260.78 158.121 262.94C158.121 263.7 157.421 264.26 156.101 264.26C154.841 264.26 153.981 263.52 153.901 262.62H151.541C151.641 264.62 153.501 266.18 156.141 266.18C158.741 266.18 160.361 264.78 160.361 262.92ZM24.78 283.96H28.5V296H30.78V283.96H34.48V282.1H24.78V283.96ZM41.4291 286.72C43.1291 286.72 44.4691 287.8 44.5091 289.5H38.4091C38.6491 287.76 39.8891 286.72 41.4291 286.72ZM46.5891 292.72H44.1291C43.7091 293.58 42.9291 294.26 41.5291 294.26C39.8491 294.26 38.5491 293.16 38.3891 291.34H46.8091C46.8691 290.96 46.8891 290.6 46.8891 290.22C46.8891 286.98 44.6691 284.8 41.5291 284.8C38.2691 284.8 36.0291 287.02 36.0291 290.48C36.0291 293.94 38.3691 296.18 41.5291 296.18C44.2291 296.18 45.9691 294.64 46.5891 292.72ZM48.3728 290.48C48.3728 293.94 50.6128 296.18 53.7728 296.18C56.4728 296.18 58.2328 294.68 58.8528 292.52H56.3928C55.9728 293.66 55.1328 294.26 53.7728 294.26C51.9328 294.26 50.7128 292.9 50.7128 290.48C50.7128 288.08 51.9328 286.72 53.7728 286.72C55.1328 286.72 56.0128 287.4 56.3928 288.46H58.8528C58.2328 286.14 56.4728 284.8 53.7728 284.8C50.6128 284.8 48.3728 287.04 48.3728 290.48ZM61.125 296H63.405V289.84C63.405 287.82 64.505 286.78 66.185 286.78C67.845 286.78 68.945 287.82 68.945 289.84V296H71.205V289.5C71.205 286.42 69.285 284.8 66.825 284.8C65.405 284.8 64.165 285.34 63.405 286.26V281.2H61.125V296ZM81.9333 296H84.1933V289.5C84.1933 286.42 82.2533 284.8 79.6733 284.8C78.3533 284.8 77.1333 285.34 76.3933 286.24V284.98H74.1133V296H76.3933V289.84C76.3933 287.82 77.4933 286.78 79.1733 286.78C80.8333 286.78 81.9333 287.82 81.9333 289.84V296ZM87.1016 296H89.3816V284.98H87.1016V296ZM88.2616 283.52C89.0616 283.52 89.7016 282.88 89.7016 282.06C89.7016 281.24 89.0616 280.6 88.2616 280.6C87.4416 280.6 86.8016 281.24 86.8016 282.06C86.8016 282.88 87.4416 283.52 88.2616 283.52ZM91.615 290.48C91.615 293.94 93.855 296.18 97.015 296.18C99.715 296.18 101.475 294.68 102.095 292.52H99.635C99.215 293.66 98.375 294.26 97.015 294.26C95.175 294.26 93.955 292.9 93.955 290.48C93.955 288.08 95.175 286.72 97.015 286.72C98.375 286.72 99.255 287.4 99.635 288.46H102.095C101.475 286.14 99.715 284.8 97.015 284.8C93.855 284.8 91.615 287.04 91.615 290.48ZM104.367 296H106.647V284.98H104.367V296ZM105.527 283.52C106.327 283.52 106.967 282.88 106.967 282.06C106.967 281.24 106.327 280.6 105.527 280.6C104.707 280.6 104.067 281.24 104.067 282.06C104.067 282.88 104.707 283.52 105.527 283.52ZM108.881 290.44C108.881 293.84 111.181 296.18 114.041 296.18C115.881 296.18 117.201 295.3 117.901 294.36V296H120.201V284.98H117.901V286.58C117.221 285.68 115.941 284.8 114.081 284.8C111.181 284.8 108.881 287.04 108.881 290.44ZM117.901 290.48C117.901 292.86 116.281 294.2 114.561 294.2C112.861 294.2 111.221 292.82 111.221 290.44C111.221 288.06 112.861 286.78 114.561 286.78C116.281 286.78 117.901 288.12 117.901 290.48ZM131.015 296H133.275V289.5C133.275 286.42 131.335 284.8 128.755 284.8C127.435 284.8 126.215 285.34 125.475 286.24V284.98H123.195V296H125.475V289.84C125.475 287.82 126.575 286.78 128.255 286.78C129.915 286.78 131.015 287.82 131.015 289.84V296Z" fill="white"/>
<path d="M11.6552 255.494C11.5037 255.499 11.3598 255.562 11.2542 255.671L5.24995 261.675L3.32905 259.754C3.2753 259.698 3.21092 259.654 3.13967 259.623C3.06843 259.592 2.99176 259.576 2.91416 259.575C2.83655 259.574 2.75956 259.589 2.68771 259.618C2.61586 259.648 2.55058 259.691 2.4957 259.746C2.44082 259.801 2.39744 259.866 2.36811 259.938C2.33877 260.01 2.32407 260.087 2.32486 260.164C2.32565 260.242 2.34192 260.319 2.37271 260.39C2.4035 260.461 2.44819 260.525 2.50418 260.579L4.83751 262.912C4.94691 263.022 5.09526 263.083 5.24995 263.083C5.40463 263.083 5.55298 263.022 5.66238 262.912L12.079 256.496C12.1633 256.414 12.2209 256.308 12.2442 256.193C12.2675 256.078 12.2555 255.958 12.2097 255.85C12.1639 255.742 12.0864 255.65 11.9875 255.586C11.8885 255.523 11.7727 255.491 11.6552 255.494Z" fill="white"/>
<path d="M27.78 205.5V200.96H30.3C32.08 200.96 32.88 201.8 32.88 203.24C32.88 204.64 32.08 205.5 30.3 205.5H27.78ZM35.22 203.24C35.22 200.98 33.6 199.1 30.3 199.1H25.5V213H27.78V207.36H30.3C33.92 207.36 35.22 205.22 35.22 203.24ZM39.6745 207.2C39.6745 204.86 40.7145 204.16 42.3945 204.16H42.9745V201.8C41.4145 201.8 40.3145 202.48 39.6745 203.58V201.98H37.3945V213H39.6745V207.2ZM55.5703 207.48C55.5703 204.02 53.0903 201.8 49.9503 201.8C46.8103 201.8 44.3303 204.02 44.3303 207.48C44.3303 210.94 46.7103 213.18 49.8503 213.18C53.0103 213.18 55.5703 210.94 55.5703 207.48ZM46.6503 207.48C46.6503 204.98 48.1903 203.78 49.9103 203.78C51.6103 203.78 53.2303 204.98 53.2303 207.48C53.2303 209.98 51.5503 211.2 49.8503 211.2C48.1303 211.2 46.6503 209.98 46.6503 207.48ZM57.0642 207.44C57.0642 210.84 59.3642 213.18 62.2642 213.18C64.0642 213.18 65.3842 212.28 66.0842 211.34V213.18C66.0842 215.38 64.7642 216.46 63.0042 216.46C61.4242 216.46 60.2042 215.68 59.8642 214.54H57.6042C57.8842 216.98 60.0642 218.44 63.0042 218.44C66.4442 218.44 68.3842 216.18 68.3842 213.18V201.98H66.0842V203.58C65.4042 202.64 64.0642 201.8 62.2642 201.8C59.3642 201.8 57.0642 204.04 57.0642 207.44ZM66.0842 207.48C66.0842 209.86 64.4642 211.2 62.7442 211.2C61.0442 211.2 59.4042 209.82 59.4042 207.44C59.4042 205.06 61.0442 203.78 62.7442 203.78C64.4642 203.78 66.0842 205.12 66.0842 207.48ZM73.6589 207.2C73.6589 204.86 74.6989 204.16 76.3789 204.16H76.9589V201.8C75.3989 201.8 74.2989 202.48 73.6589 203.58V201.98H71.3789V213H73.6589V207.2ZM78.2947 207.44C78.2947 210.84 80.5947 213.18 83.4547 213.18C85.2947 213.18 86.6147 212.3 87.3147 211.36V213H89.6147V201.98H87.3147V203.58C86.6347 202.68 85.3547 201.8 83.4947 201.8C80.5947 201.8 78.2947 204.04 78.2947 207.44ZM87.3147 207.48C87.3147 209.86 85.6947 211.2 83.9747 211.2C82.2747 211.2 80.6347 209.82 80.6347 207.44C80.6347 205.06 82.2747 203.78 83.9747 203.78C85.6947 203.78 87.3147 205.12 87.3147 207.48ZM108.229 213H110.489V206.5C110.489 203.42 108.529 201.8 105.949 201.8C104.349 201.8 102.789 202.64 102.109 203.98C101.349 202.54 99.8894 201.8 98.1494 201.8C96.8294 201.8 95.6294 202.34 94.8894 203.24V201.98H92.6094V213H94.8894V206.84C94.8894 204.82 95.9894 203.78 97.6694 203.78C99.3294 203.78 100.429 204.82 100.429 206.84V213H102.689V206.84C102.689 204.82 103.789 203.78 105.469 203.78C107.129 203.78 108.229 204.82 108.229 206.84V213ZM129.011 213H131.271V206.5C131.271 203.42 129.311 201.8 126.731 201.8C125.131 201.8 123.571 202.64 122.891 203.98C122.131 202.54 120.671 201.8 118.931 201.8C117.611 201.8 116.411 202.34 115.671 203.24V201.98H113.391V213H115.671V206.84C115.671 204.82 116.771 203.78 118.451 203.78C120.111 203.78 121.211 204.82 121.211 206.84V213H123.471V206.84C123.471 204.82 124.571 203.78 126.251 203.78C127.911 203.78 129.011 204.82 129.011 206.84V213ZM138.812 203.72C140.512 203.72 141.852 204.8 141.892 206.5H135.792C136.032 204.76 137.272 203.72 138.812 203.72ZM143.972 209.72H141.512C141.092 210.58 140.312 211.26 138.912 211.26C137.232 211.26 135.932 210.16 135.772 208.34H144.192C144.252 207.96 144.272 207.6 144.272 207.22C144.272 203.98 142.052 201.8 138.912 201.8C135.652 201.8 133.412 204.02 133.412 207.48C133.412 210.94 135.752 213.18 138.912 213.18C141.612 213.18 143.352 211.64 143.972 209.72ZM148.796 207.2C148.796 204.86 149.836 204.16 151.516 204.16H152.096V201.8C150.536 201.8 149.436 202.48 148.796 203.58V201.98H146.516V213H148.796V207.2ZM162.411 209.92C162.291 205.94 156.071 207.18 156.071 204.96C156.071 204.22 156.711 203.72 157.931 203.72C159.171 203.72 159.911 204.38 159.991 205.34H162.271C162.151 203.14 160.511 201.8 158.011 201.8C155.411 201.8 153.771 203.22 153.771 204.98C153.771 209.02 160.171 207.78 160.171 209.94C160.171 210.7 159.471 211.26 158.151 211.26C156.891 211.26 156.031 210.52 155.951 209.62H153.591C153.691 211.62 155.551 213.18 158.191 213.18C160.791 213.18 162.411 211.78 162.411 209.92Z" fill="white"/>
<path d="M11.6552 202.494C11.5037 202.499 11.3598 202.562 11.2542 202.671L5.24995 208.675L3.32905 206.754C3.2753 206.698 3.21092 206.654 3.13967 206.623C3.06843 206.592 2.99176 206.576 2.91416 206.575C2.83655 206.574 2.75956 206.589 2.68771 206.618C2.61586 206.648 2.55058 206.691 2.4957 206.746C2.44082 206.801 2.39744 206.866 2.36811 206.938C2.33877 207.01 2.32407 207.087 2.32486 207.164C2.32565 207.242 2.34192 207.319 2.37271 207.39C2.4035 207.461 2.44819 207.525 2.50418 207.579L4.83751 209.912C4.94691 210.022 5.09526 210.083 5.24995 210.083C5.40463 210.083 5.55298 210.022 5.66238 209.912L12.079 203.496C12.1633 203.414 12.2209 203.308 12.2442 203.193C12.2675 203.078 12.2555 202.958 12.2097 202.85C12.1639 202.742 12.0864 202.65 11.9875 202.586C11.8885 202.523 11.7727 202.491 11.6552 202.494Z" fill="white"/>
<path d="M33.18 146.08H25.5V160H33.18V158.14H27.78V153.88H32.58V152.02H27.78V147.94H33.18V146.08ZM35.9883 160H38.2683V145.2H35.9883V160ZM45.9017 150.72C47.6017 150.72 48.9417 151.8 48.9817 153.5H42.8817C43.1217 151.76 44.3617 150.72 45.9017 150.72ZM51.0617 156.72H48.6017C48.1817 157.58 47.4017 158.26 46.0017 158.26C44.3217 158.26 43.0217 157.16 42.8617 155.34H51.2817C51.3417 154.96 51.3617 154.6 51.3617 154.22C51.3617 150.98 49.1417 148.8 46.0017 148.8C42.7417 148.8 40.5017 151.02 40.5017 154.48C40.5017 157.94 42.8417 160.18 46.0017 160.18C48.7017 160.18 50.4417 158.64 51.0617 156.72ZM52.8455 154.48C52.8455 157.94 55.0855 160.18 58.2455 160.18C60.9455 160.18 62.7055 158.68 63.3255 156.52H60.8655C60.4455 157.66 59.6055 158.26 58.2455 158.26C56.4055 158.26 55.1855 156.9 55.1855 154.48C55.1855 152.08 56.4055 150.72 58.2455 150.72C59.6055 150.72 60.4855 151.4 60.8655 152.46H63.3255C62.7055 150.14 60.9455 148.8 58.2455 148.8C55.0855 148.8 52.8455 151.04 52.8455 154.48ZM65.9577 156.94C65.9577 159.18 67.1777 160 69.1377 160H70.9377V158.1H69.5377C68.5777 158.1 68.2577 157.76 68.2577 156.94V150.84H70.9377V148.98H68.2577V146.24H65.9577V148.98H64.6577V150.84H65.9577V156.94ZM75.3191 154.2C75.3191 151.86 76.3591 151.16 78.0391 151.16H78.6191V148.8C77.0591 148.8 75.9591 149.48 75.3191 150.58V148.98H73.0391V160H75.3191V154.2ZM80.7148 160H82.9948V148.98H80.7148V160ZM81.8748 147.52C82.6748 147.52 83.3148 146.88 83.3148 146.06C83.3148 145.24 82.6748 144.6 81.8748 144.6C81.0548 144.6 80.4148 145.24 80.4148 146.06C80.4148 146.88 81.0548 147.52 81.8748 147.52ZM85.2283 154.48C85.2283 157.94 87.4683 160.18 90.6283 160.18C93.3283 160.18 95.0883 158.68 95.7083 156.52H93.2483C92.8283 157.66 91.9883 158.26 90.6283 158.26C88.7883 158.26 87.5683 156.9 87.5683 154.48C87.5683 152.08 88.7883 150.72 90.6283 150.72C91.9883 150.72 92.8683 151.4 93.2483 152.46H95.7083C95.0883 150.14 93.3283 148.8 90.6283 148.8C87.4683 148.8 85.2283 151.04 85.2283 154.48ZM97.9805 160H100.26V148.98H97.9805V160ZM99.1405 147.52C99.9405 147.52 100.58 146.88 100.58 146.06C100.58 145.24 99.9405 144.6 99.1405 144.6C98.3205 144.6 97.6805 145.24 97.6805 146.06C97.6805 146.88 98.3205 147.52 99.1405 147.52ZM102.494 154.44C102.494 157.84 104.794 160.18 107.654 160.18C109.494 160.18 110.814 159.3 111.514 158.36V160H113.814V148.98H111.514V150.58C110.834 149.68 109.554 148.8 107.694 148.8C104.794 148.8 102.494 151.04 102.494 154.44ZM111.514 154.48C111.514 156.86 109.894 158.2 108.174 158.2C106.474 158.2 104.834 156.82 104.834 154.44C104.834 152.06 106.474 150.78 108.174 150.78C109.894 150.78 111.514 152.12 111.514 154.48ZM124.629 160H126.889V153.5C126.889 150.42 124.949 148.8 122.369 148.8C121.049 148.8 119.829 149.34 119.089 150.24V148.98H116.809V160H119.089V153.84C119.089 151.82 120.189 150.78 121.869 150.78C123.529 150.78 124.629 151.82 124.629 153.84V160Z" fill="white"/>
<path d="M11.6552 149.494C11.5037 149.499 11.3598 149.562 11.2542 149.671L5.24995 155.675L3.32905 153.754C3.2753 153.698 3.21092 153.654 3.13967 153.623C3.06843 153.592 2.99176 153.576 2.91416 153.575C2.83655 153.574 2.75956 153.589 2.68771 153.618C2.61586 153.648 2.55058 153.691 2.4957 153.746C2.44082 153.801 2.39744 153.866 2.36811 153.938C2.33877 154.01 2.32407 154.087 2.32486 154.164C2.32565 154.242 2.34192 154.319 2.37271 154.39C2.4035 154.461 2.44819 154.525 2.50418 154.579L4.83751 156.912C4.94691 157.022 5.09526 157.083 5.24995 157.083C5.40463 157.083 5.55298 157.022 5.66238 156.912L12.079 150.496C12.1633 150.414 12.2209 150.308 12.2442 150.193C12.2675 150.078 12.2555 149.958 12.2097 149.85C12.1639 149.742 12.0864 149.65 11.9875 149.586C11.8885 149.523 11.7727 149.491 11.6552 149.494Z" fill="white"/>
<path d="M25.5 107H27.78V97.48L32.04 107H33.62L37.86 97.48V107H40.14V93.1H37.7L32.84 104L27.96 93.1H25.5V107ZM47.7767 97.72C49.4767 97.72 50.8167 98.8 50.8567 100.5H44.7567C44.9967 98.76 46.2367 97.72 47.7767 97.72ZM52.9367 103.72H50.4767C50.0567 104.58 49.2767 105.26 47.8767 105.26C46.1967 105.26 44.8967 104.16 44.7367 102.34H53.1567C53.2167 101.96 53.2367 101.6 53.2367 101.22C53.2367 97.98 51.0167 95.8 47.8767 95.8C44.6167 95.8 42.3767 98.02 42.3767 101.48C42.3767 104.94 44.7167 107.18 47.8767 107.18C50.5767 107.18 52.3167 105.64 52.9367 103.72ZM54.7205 101.48C54.7205 104.94 56.9605 107.18 60.1205 107.18C62.8205 107.18 64.5805 105.68 65.2005 103.52H62.7405C62.3205 104.66 61.4805 105.26 60.1205 105.26C58.2805 105.26 57.0605 103.9 57.0605 101.48C57.0605 99.08 58.2805 97.72 60.1205 97.72C61.4805 97.72 62.3605 98.4 62.7405 99.46H65.2005C64.5805 97.14 62.8205 95.8 60.1205 95.8C56.9605 95.8 54.7205 98.04 54.7205 101.48ZM67.4727 107H69.7527V100.84C69.7527 98.82 70.8527 97.78 72.5327 97.78C74.1927 97.78 75.2927 98.82 75.2927 100.84V107H77.5527V100.5C77.5527 97.42 75.6327 95.8 73.1727 95.8C71.7527 95.8 70.5127 96.34 69.7527 97.26V92.2H67.4727V107ZM79.7009 101.44C79.7009 104.84 82.0009 107.18 84.8609 107.18C86.7009 107.18 88.0209 106.3 88.7209 105.36V107H91.0209V95.98H88.7209V97.58C88.0409 96.68 86.7609 95.8 84.9009 95.8C82.0009 95.8 79.7009 98.04 79.7009 101.44ZM88.7209 101.48C88.7209 103.86 87.1009 105.2 85.3809 105.2C83.6809 105.2 82.0409 103.82 82.0409 101.44C82.0409 99.06 83.6809 97.78 85.3809 97.78C87.1009 97.78 88.7209 99.12 88.7209 101.48ZM101.836 107H104.096V100.5C104.096 97.42 102.156 95.8 99.5756 95.8C98.2556 95.8 97.0356 96.34 96.2956 97.24V95.98H94.0156V107H96.2956V100.84C96.2956 98.82 97.3956 97.78 99.0756 97.78C100.736 97.78 101.836 98.82 101.836 100.84V107ZM107.004 107H109.284V95.98H107.004V107ZM108.164 94.52C108.964 94.52 109.604 93.88 109.604 93.06C109.604 92.24 108.964 91.6 108.164 91.6C107.344 91.6 106.704 92.24 106.704 93.06C106.704 93.88 107.344 94.52 108.164 94.52ZM111.517 101.48C111.517 104.94 113.757 107.18 116.917 107.18C119.617 107.18 121.377 105.68 121.997 103.52H119.537C119.117 104.66 118.277 105.26 116.917 105.26C115.077 105.26 113.857 103.9 113.857 101.48C113.857 99.08 115.077 97.72 116.917 97.72C118.277 97.72 119.157 98.4 119.537 99.46H121.997C121.377 97.14 119.617 95.8 116.917 95.8C113.757 95.8 111.517 98.04 111.517 101.48ZM132.49 103.92C132.37 99.94 126.15 101.18 126.15 98.96C126.15 98.22 126.79 97.72 128.01 97.72C129.25 97.72 129.99 98.38 130.07 99.34H132.35C132.23 97.14 130.59 95.8 128.09 95.8C125.49 95.8 123.85 97.22 123.85 98.98C123.85 103.02 130.25 101.78 130.25 103.94C130.25 104.7 129.55 105.26 128.23 105.26C126.97 105.26 126.11 104.52 126.03 103.62H123.67C123.77 105.62 125.63 107.18 128.27 107.18C130.87 107.18 132.49 105.78 132.49 103.92Z" fill="white"/>
<path d="M11.6552 96.4943C11.5037 96.4988 11.3598 96.5622 11.2542 96.6709L5.24995 102.675L3.32905 100.754C3.2753 100.698 3.21092 100.654 3.13967 100.623C3.06843 100.592 2.99176 100.576 2.91416 100.575C2.83655 100.574 2.75956 100.589 2.68771 100.618C2.61586 100.648 2.55058 100.691 2.4957 100.746C2.44082 100.801 2.39744 100.866 2.36811 100.938C2.33877 101.01 2.32407 101.087 2.32486 101.164C2.32565 101.242 2.34192 101.319 2.37271 101.39C2.4035 101.461 2.44819 101.525 2.50418 101.579L4.83751 103.912C4.94691 104.022 5.09526 104.083 5.24995 104.083C5.40463 104.083 5.55298 104.022 5.66238 103.912L12.079 97.4958C12.1633 97.4139 12.2209 97.3084 12.2442 97.1932C12.2675 97.0779 12.2555 96.9584 12.2097 96.8501C12.1639 96.7418 12.0864 96.6499 11.9875 96.5865C11.8885 96.523 11.7727 96.4909 11.6552 96.4943Z" fill="white"/>
<path d="M8.56 40.036L14.464 40L19.396 22.108L24.112 40H30.052L37.072 14.872H31.636L27.172 34.276L22.348 14.872H16.732L11.62 34.384L7.192 14.872H1.792L8.56 40.036ZM40.3629 40H45.4029V28.984C45.4029 25.78 47.1669 24.052 49.9029 24.052C52.5669 24.052 54.3309 25.78 54.3309 28.984V40H59.3709V28.3C59.3709 22.792 56.0949 19.768 51.5949 19.768C48.9309 19.768 46.6989 20.848 45.4029 22.54V13.36H40.3629V40ZM83.4237 30.028C83.4237 23.728 78.9237 19.732 73.1637 19.732C67.4037 19.732 62.9037 23.728 62.9037 30.028C62.9037 36.292 67.2597 40.324 73.0197 40.324C78.8157 40.324 83.4237 36.292 83.4237 30.028ZM68.0157 30.028C68.0157 26.032 70.4277 24.124 73.0917 24.124C75.7557 24.124 78.2397 26.032 78.2397 30.028C78.2397 33.988 75.6837 35.932 73.0197 35.932C70.3197 35.932 68.0157 33.988 68.0157 30.028ZM94.4748 27.4C94.4748 34.924 99.9828 40.216 107.219 40.216C112.799 40.216 117.335 37.264 119.027 32.08H113.231C112.043 34.528 109.883 35.716 107.183 35.716C102.791 35.716 99.6588 32.476 99.6588 27.4C99.6588 22.288 102.791 19.084 107.183 19.084C109.883 19.084 112.043 20.272 113.231 22.684H119.027C117.335 17.536 112.799 14.548 107.219 14.548C99.9828 14.548 94.4748 19.876 94.4748 27.4ZM122.036 29.956C122.036 36.184 126.068 40.324 131.108 40.324C134.276 40.324 136.544 38.812 137.732 37.084V40H142.808V20.056H137.732V22.9C136.544 21.244 134.348 19.732 131.144 19.732C126.068 19.732 122.036 23.728 122.036 29.956ZM137.732 30.028C137.732 33.808 135.212 35.896 132.44 35.896C129.74 35.896 127.184 33.736 127.184 29.956C127.184 26.176 129.74 24.16 132.44 24.16C135.212 24.16 137.732 26.248 137.732 30.028ZM161.698 40H166.738V28.3C166.738 22.792 163.426 19.768 158.782 19.768C156.226 19.768 154.066 20.848 152.77 22.54V20.056H147.73V40H152.77V28.984C152.77 25.78 154.534 24.052 157.27 24.052C159.934 24.052 161.698 25.78 161.698 28.984V40ZM189.685 32.512C189.685 34.492 188.749 35.752 186.877 35.752C184.969 35.752 183.997 34.456 183.961 32.332H178.921C178.921 37.408 182.233 40.252 186.949 40.252C191.593 40.252 194.761 37.48 194.761 32.512V14.872H189.685V32.512ZM219.9 30.028C219.9 23.728 215.4 19.732 209.64 19.732C203.88 19.732 199.38 23.728 199.38 30.028C199.38 36.292 203.736 40.324 209.496 40.324C215.292 40.324 219.9 36.292 219.9 30.028ZM204.492 30.028C204.492 26.032 206.904 24.124 209.568 24.124C212.232 24.124 214.716 26.032 214.716 30.028C214.716 33.988 212.16 35.932 209.496 35.932C206.796 35.932 204.492 33.988 204.492 30.028ZM223.597 40H228.637V20.056H223.597V40ZM226.153 17.68C227.917 17.68 229.249 16.384 229.249 14.728C229.249 13.072 227.917 11.776 226.153 11.776C224.353 11.776 223.057 13.072 223.057 14.728C223.057 16.384 224.353 17.68 226.153 17.68ZM247.585 40H252.625V28.3C252.625 22.792 249.313 19.768 244.669 19.768C242.113 19.768 239.953 20.848 238.657 22.54V20.056H233.617V40H238.657V28.984C238.657 25.78 240.421 24.052 243.157 24.052C245.821 24.052 247.585 25.78 247.585 28.984V40ZM256.194 21.604H260.946C260.946 19.48 262.242 18.22 264.438 18.22C266.562 18.22 267.858 19.516 267.858 21.604C267.894 24.844 265.086 25.528 261.342 25.528H259.722L259.902 31.648H264.33L264.474 28.876C269.262 28.876 272.754 26.5 272.754 21.64C272.754 16.78 269.334 14.008 264.438 14.008C259.182 14.008 256.122 17.248 256.194 21.604ZM265.158 37.3C265.158 35.644 263.862 34.348 262.098 34.348C260.262 34.348 258.966 35.644 258.966 37.3C258.966 38.956 260.262 40.252 262.098 40.252C263.862 40.252 265.158 38.956 265.158 37.3Z" fill="white"/>
</svg>
